<svg width="32" height="32" viewBox="0 0 32 32" fill="none" xmlns="http://www.w3.org/2000/svg">
<g id="Group 1000010211">
<g id="Group 1000010202">
<path id="Vector" d="M29.3092 23.1111C29.1743 23.5443 29.0085 23.9589 28.6687 24.2807C28.2058 24.7188 27.6476 24.8853 27.0238 24.8853C20.2635 24.8853 13.5032 24.8853 6.74289 24.8853C6.55352 24.8853 6.36415 24.8909 6.17479 24.8853C5.29911 24.8537 4.62766 24.4787 4.22293 23.686C3.96735 23.1909 3.97539 22.65 4.03356 22.1172C4.0577 21.8913 4.23345 21.7354 4.47852 21.7261C4.89748 21.7106 5.31706 21.71 5.73664 21.7044C5.84989 21.7044 5.96314 21.7044 6.10795 21.7044V21.3399C6.10795 17.6755 6.10795 14.0113 6.10795 10.3473C6.10795 9.95865 6.14013 9.57497 6.32021 9.21975C6.74846 8.37564 7.45704 8.00062 8.38222 8C11.3527 8 14.3252 8 17.2998 8C19.8437 8 22.388 8 24.9327 8C25.4544 8 25.9421 8.11387 26.3641 8.44124C26.983 8.91899 27.2107 9.56321 27.2095 10.3219C27.2058 13.9859 27.2058 17.6501 27.2095 21.3145V21.7044H27.5808C27.91 21.7044 28.2392 21.7125 28.5709 21.7044C28.8897 21.6945 29.1514 21.7787 29.3099 22.0757L29.3092 23.1111ZM7.17237 21.6815H26.1376C26.1426 21.6289 26.1482 21.5974 26.1482 21.5652C26.1482 17.7696 26.1482 13.974 26.1482 10.1783C26.1482 9.49761 25.6952 9.0737 24.9989 9.07308C19.4413 9.07308 13.8836 9.07308 8.32591 9.07308C8.21107 9.06871 8.09613 9.07847 7.98368 9.10217C7.46509 9.23398 7.17918 9.64675 7.17918 10.2538C7.17918 13.9917 7.17918 17.7298 7.17918 21.468L7.17237 21.6815ZM5.02249 22.7645C5.11841 23.0003 5.16606 23.2033 5.27436 23.366C5.50271 23.712 5.85298 23.8116 6.25895 23.811C13.1925 23.8064 20.1263 23.8054 27.0603 23.8079C27.1426 23.8079 27.2256 23.8079 27.3079 23.8029C27.8389 23.7627 28.272 23.2676 28.2027 22.7645H27.9113C25.2106 22.7645 22.5095 22.7629 19.808 22.7596C19.602 22.7596 19.4448 22.8029 19.3167 22.9675C19.1137 23.2268 18.8426 23.311 18.5122 23.3072C17.293 23.2949 16.0745 23.2924 14.856 23.3072C14.489 23.3122 14.1926 23.2225 13.9673 22.9316C13.8621 22.7954 13.7309 22.7596 13.5608 22.7596C10.8267 22.7645 8.0926 22.7657 5.35852 22.7633L5.02249 22.7645Z" fill="#121212"/>
</g>
</g>
</svg>
