<svg width="33" height="34" viewBox="0 0 33 34" fill="none" xmlns="http://www.w3.org/2000/svg">
<g id="Group 1000010034">
<g id="Group 1000010178">
<g id="Group 1000010186">
<path id="Vector" d="M4.125 4.95614C4.30704 4.6256 4.59117 4.5278 4.9574 4.54065C5.52852 4.56206 6.09393 4.54065 6.66219 4.5485C7.9315 4.57206 8.88741 5.26882 9.30362 6.47103C9.45925 6.91936 9.60274 7.37197 9.7448 7.82743C9.78692 7.96022 9.84047 8.02661 10.0004 8.02875C13.1922 8.07087 16.3833 8.12299 19.5752 8.16725C22.6999 8.2108 25.8246 8.24578 28.9494 8.29504C29.1624 8.30795 29.3707 8.36355 29.5619 8.45852C29.7761 8.55775 29.8375 8.77335 29.7839 8.99394C29.2763 11.0978 28.7945 13.2059 28.2383 15.3005C27.9064 16.5513 26.7392 17.4158 25.4456 17.5464C23.5944 17.7328 21.7454 17.9391 19.895 18.1326C18.3766 18.291 16.8574 18.4417 15.3389 18.5987C14.6003 18.6754 13.8626 18.757 13.1258 18.8436C13.0915 18.8456 13.0579 18.8544 13.0271 18.8694C12.9962 18.8845 12.9686 18.9056 12.9459 18.9314C12.6561 19.4733 12.5119 20.033 12.8031 20.6262C13.0944 21.2195 13.5585 21.5036 14.1995 21.5093C15.1183 21.5186 16.0378 21.5093 16.9573 21.5093C19.8067 21.5093 22.6561 21.511 25.5055 21.5143C25.6946 21.5148 25.8811 21.5583 26.051 21.6414C26.2787 21.757 26.3501 22.0069 26.2894 22.2675C26.2621 22.3817 26.2002 22.4848 26.1122 22.5626C26.0241 22.6404 25.9143 22.6891 25.7975 22.7022C25.7062 22.7117 25.6144 22.7156 25.5227 22.7136C21.7866 22.7136 18.0505 22.7136 14.3145 22.7136C12.836 22.7136 11.753 21.8241 11.4782 20.3678C11.3625 19.7887 11.4481 19.1875 11.7209 18.6637C11.8929 18.3332 11.8815 18.044 11.7644 17.6956C10.5636 14.1109 9.37239 10.5234 8.19065 6.93292C7.92223 6.12336 7.40536 5.75142 6.54869 5.7507C6.01398 5.7507 5.47783 5.74142 4.94384 5.7507C4.57832 5.75927 4.29205 5.65147 4.12928 5.3038L4.125 4.95614ZM28.4454 9.49653L10.2096 9.22953C11.1376 12.0373 12.0514 14.8144 12.9702 17.6014C13.1044 17.5943 13.2208 17.5936 13.3357 17.5814C14.0575 17.505 14.7785 17.4229 15.5003 17.3487C17.0351 17.1909 18.57 17.0396 20.1049 16.8818C21.8475 16.7026 23.5887 16.517 25.3313 16.34C26.2137 16.25 26.8941 15.6974 27.1404 14.8465C27.2282 14.5431 27.2974 14.234 27.3724 13.927C27.7272 12.4635 28.0813 11 28.4454 9.49653Z" fill="#4C005B"/>
<path id="Vector_2" d="M23.6215 29.5302C22.9122 29.5276 22.2327 29.245 21.7308 28.7439C21.2289 28.2428 20.9452 27.5637 20.9415 26.8545C20.9365 25.3889 22.1694 24.1596 23.64 24.1638C23.996 24.1594 24.3493 24.2258 24.6794 24.3593C25.0094 24.4927 25.3096 24.6905 25.5625 24.9411C25.8154 25.1917 26.0158 25.4901 26.1522 25.8189C26.2887 26.1478 26.3583 26.5005 26.357 26.8565C26.3558 27.2125 26.2838 27.5647 26.1451 27.8926C26.0064 28.2204 25.8039 28.5175 25.5493 28.7663C25.2947 29.0151 24.9931 29.2108 24.6621 29.342C24.3312 29.4731 23.9774 29.5371 23.6215 29.5302ZM23.6115 28.3266C23.8078 28.3302 24.0028 28.2945 24.1851 28.2216C24.3674 28.1487 24.5333 28.0401 24.673 27.9021C24.8127 27.7642 24.9234 27.5997 24.9986 27.4183C25.0737 27.2369 25.1118 27.0423 25.1107 26.846C25.1125 26.4544 24.9586 26.0782 24.683 25.8C24.4074 25.5219 24.0326 25.3646 23.6411 25.3628C23.2495 25.361 22.8733 25.5149 22.5952 25.7905C22.317 26.066 22.1598 26.4408 22.158 26.8324C22.1546 27.0264 22.1896 27.2191 22.2612 27.3995C22.3327 27.5798 22.4392 27.7442 22.5746 27.8831C22.71 28.0221 22.8716 28.1328 23.0501 28.2089C23.2286 28.285 23.4203 28.325 23.6143 28.3266H23.6115Z" fill="#4C005B"/>
<path id="Vector_3" d="M12.3196 29.5307C11.9672 29.5313 11.6181 29.4625 11.2923 29.3282C10.9665 29.1939 10.6703 28.9968 10.4207 28.748C10.1711 28.4993 9.9729 28.2038 9.83748 27.8784C9.70205 27.5531 9.63204 27.2042 9.63143 26.8518C9.63082 26.4994 9.69963 26.1503 9.83392 25.8245C9.96822 25.4987 10.1654 25.2025 10.4141 24.9529C10.6629 24.7033 10.9584 24.5051 11.2837 24.3697C11.6091 24.2343 11.9579 24.1642 12.3103 24.1636C13.022 24.1624 13.7051 24.444 14.2092 24.9463C14.7134 25.4487 14.9973 26.1308 14.9985 26.8425C14.9997 27.5543 14.7182 28.2373 14.2158 28.7415C13.7134 29.2456 13.0313 29.5295 12.3196 29.5307ZM12.3003 28.3264C12.6921 28.3291 13.0692 28.1773 13.3498 27.9039C13.6304 27.6305 13.792 27.2575 13.7995 26.8657C13.8159 26.0755 13.1349 25.3815 12.3275 25.3666C11.52 25.3516 10.8426 26.0276 10.8383 26.8393C10.8358 27.0332 10.8718 27.2256 10.9441 27.4055C11.0164 27.5854 11.1236 27.7492 11.2595 27.8874C11.3954 28.0257 11.5574 28.1357 11.736 28.211C11.9147 28.2863 12.1065 28.3255 12.3003 28.3264Z" fill="#4C005B"/>
</g>
</g>
</g>
</svg>
