<svg width="44" height="45" viewBox="0 0 44 45" fill="none" xmlns="http://www.w3.org/2000/svg">
<g id="Group 1000010187">
<circle id="Ellipse 1" opacity="0.1" cx="22" cy="22.5" r="22" fill="#4C005B"/>
<g id="Group 1000010034">
<g id="Group 1000010178">
<g id="Group 1000010186">
<path id="Vector" d="M9.625 10.5416C9.80704 10.211 10.0912 10.1132 10.4574 10.1261C11.0285 10.1475 11.5939 10.1261 12.1622 10.1339C13.4315 10.1575 14.3874 10.8543 14.8036 12.0565C14.9592 12.5048 15.1027 12.9574 15.2448 13.4129C15.2869 13.5457 15.3405 13.6121 15.5004 13.6142C18.6922 13.6563 21.8833 13.7084 25.0752 13.7527C28.1999 13.7962 31.3246 13.8312 34.4494 13.8805C34.6624 13.8934 34.8707 13.949 35.0619 14.044C35.2761 14.1432 35.3375 14.3588 35.2839 14.5794C34.7763 16.6833 34.2945 18.7914 33.7383 20.886C33.4064 22.1367 32.2392 23.0012 30.9456 23.1319C29.0944 23.3182 27.2454 23.5245 25.395 23.718C23.8766 23.8765 22.3574 24.0271 20.8389 24.1842C20.1003 24.2608 19.3626 24.3424 18.6258 24.429C18.5915 24.431 18.5579 24.4398 18.5271 24.4549C18.4962 24.47 18.4686 24.491 18.4459 24.5169C18.1561 25.0587 18.0119 25.6184 18.3031 26.2116C18.5944 26.8049 19.0585 27.089 19.6995 27.0947C20.6183 27.104 21.5378 27.0947 22.4573 27.0947C25.3067 27.0947 28.1561 27.0964 31.0055 27.0997C31.1946 27.1003 31.3811 27.1437 31.551 27.2268C31.7787 27.3425 31.8501 27.5923 31.7894 27.8529C31.7621 27.9672 31.7002 28.0702 31.6122 28.148C31.5241 28.2258 31.4143 28.2746 31.2975 28.2877C31.2062 28.2972 31.1144 28.301 31.0227 28.2991C27.2866 28.2991 23.5505 28.2991 19.8145 28.2991C18.336 28.2991 17.253 27.4096 16.9782 25.9532C16.8625 25.3741 16.9481 24.7729 17.2209 24.2491C17.3929 23.9186 17.3815 23.6295 17.2644 23.2811C16.0636 19.6964 14.8724 16.1088 13.6907 12.5184C13.4222 11.7088 12.9054 11.3369 12.0487 11.3362C11.514 11.3362 10.9778 11.3269 10.4438 11.3362C10.0783 11.3447 9.79205 11.2369 9.62928 10.8893L9.625 10.5416ZM33.9454 15.082L15.7096 14.815C16.6376 17.6227 17.5514 20.3998 18.4702 23.1869C18.6044 23.1797 18.7208 23.179 18.8357 23.1669C19.5575 23.0905 20.2785 23.0084 21.0003 22.9341C22.5351 22.7764 24.07 22.625 25.6049 22.4673C27.3475 22.2881 29.0887 22.1025 30.8313 21.9254C31.7137 21.8355 32.3941 21.2829 32.6404 20.4319C32.7282 20.1285 32.7974 19.8194 32.8724 19.5124C33.2272 18.0489 33.5813 16.5854 33.9454 15.082Z" fill="#4C005B"/>
<path id="Vector_2" d="M29.1215 35.1157C28.4122 35.1131 27.7327 34.8305 27.2308 34.3294C26.7289 33.8283 26.4452 33.1493 26.4415 32.44C26.4365 30.9744 27.6694 29.7451 29.14 29.7494C29.496 29.7449 29.8493 29.8113 30.1794 29.9448C30.5094 30.0782 30.8096 30.276 31.0625 30.5266C31.3153 30.7772 31.5158 31.0756 31.6522 31.4044C31.7886 31.7333 31.8583 32.086 31.857 32.442C31.8558 32.798 31.7837 33.1502 31.6451 33.4781C31.5064 33.8059 31.3038 34.103 31.0492 34.3518C30.7947 34.6006 30.4931 34.7963 30.1621 34.9275C29.8312 35.0586 29.4774 35.1226 29.1215 35.1157ZM29.1115 33.9121C29.3078 33.9157 29.5028 33.88 29.6851 33.8071C29.8674 33.7342 30.0333 33.6256 30.173 33.4877C30.3127 33.3497 30.4234 33.1852 30.4985 33.0038C30.5737 32.8224 30.6118 32.6278 30.6106 32.4315C30.6124 32.0399 30.4586 31.6637 30.183 31.3856C29.9074 31.1074 29.5326 30.9501 29.1411 30.9483C28.7495 30.9465 28.3733 31.1004 28.0952 31.376C27.817 31.6516 27.6598 32.0264 27.658 32.4179C27.6546 32.6119 27.6896 32.8046 27.7611 32.985C27.8327 33.1653 27.9392 33.3297 28.0746 33.4686C28.21 33.6076 28.3716 33.7183 28.5501 33.7944C28.7285 33.8705 28.9203 33.9105 29.1143 33.9121H29.1115Z" fill="#4C005B"/>
<path id="Vector_3" d="M17.8196 35.1162C17.4672 35.1168 17.1181 35.048 16.7923 34.9137C16.4665 34.7794 16.1703 34.5823 15.9207 34.3335C15.6711 34.0848 15.4729 33.7893 15.3375 33.4639C15.202 33.1386 15.132 32.7897 15.1314 32.4373C15.1308 32.0849 15.1996 31.7358 15.3339 31.41C15.4682 31.0842 15.6654 30.788 15.9141 30.5384C16.1629 30.2888 16.4584 30.0906 16.7837 29.9552C17.1091 29.8198 17.4579 29.7498 17.8103 29.7491C18.522 29.7479 19.2051 30.0295 19.7092 30.5319C20.2134 31.0343 20.4973 31.7163 20.4985 32.4281C20.4997 33.1398 20.2182 33.8228 19.7158 34.327C19.2134 34.8311 18.5313 35.115 17.8196 35.1162ZM17.8003 33.9119C18.1921 33.9146 18.5692 33.7628 18.8498 33.4894C19.1304 33.216 19.292 32.843 19.2995 32.4513C19.3159 31.661 18.6349 30.9671 17.8274 30.9521C17.02 30.9371 16.3425 31.6131 16.3383 32.4248C16.3358 32.6187 16.3718 32.8111 16.4441 32.991C16.5164 33.1709 16.6236 33.3347 16.7595 33.473C16.8954 33.6112 17.0574 33.7212 17.236 33.7965C17.4147 33.8718 17.6064 33.9111 17.8003 33.9119Z" fill="#4C005B"/>
</g>
</g>
</g>
</g>
</svg>
