<svg width="32" height="32" viewBox="0 0 32 32" fill="none" xmlns="http://www.w3.org/2000/svg">
<g id="task_alt_FILL0_wght400_GRAD0_opsz48 1">
<path id="Vector" d="M16.0013 29.3385C14.1124 29.3385 12.3569 28.9997 10.7346 28.3219C9.11241 27.6441 7.7013 26.7052 6.5013 25.5052C5.3013 24.3052 4.36241 22.8941 3.68464 21.2719C3.00686 19.6497 2.66797 17.8941 2.66797 16.0052C2.66797 14.1385 3.00686 12.3941 3.68464 10.7719C4.36241 9.14965 5.3013 7.73854 6.5013 6.53854C7.7013 5.33854 9.11241 4.3941 10.7346 3.70521C12.3569 3.01632 14.1124 2.67188 16.0013 2.67188C17.3346 2.67188 18.6346 2.86632 19.9013 3.25521C21.168 3.6441 22.3569 4.21632 23.468 4.97187C23.7124 5.12743 23.8624 5.33854 23.918 5.60521C23.9735 5.87187 23.9124 6.11632 23.7346 6.33854C23.5569 6.56076 23.3346 6.68299 23.068 6.70521C22.8013 6.72743 22.5457 6.66076 22.3013 6.50521C21.368 5.90521 20.368 5.44965 19.3013 5.13854C18.2346 4.82743 17.1346 4.67187 16.0013 4.67187C12.7791 4.67187 10.0846 5.75521 7.91797 7.92187C5.7513 10.0885 4.66797 12.783 4.66797 16.0052C4.66797 19.2274 5.7513 21.9219 7.91797 24.0885C10.0846 26.2552 12.7791 27.3385 16.0013 27.3385C19.2235 27.3385 21.918 26.2552 24.0846 24.0885C26.2513 21.9219 27.3346 19.2274 27.3346 16.0052C27.3346 15.583 27.318 15.1719 27.2846 14.7719C27.2513 14.3719 27.1902 13.983 27.1013 13.6052C27.0569 13.3163 27.1013 13.0497 27.2346 12.8052C27.368 12.5608 27.568 12.4163 27.8346 12.3719C28.1235 12.3052 28.3902 12.3552 28.6346 12.5219C28.8791 12.6885 29.0235 12.9163 29.068 13.2052C29.1569 13.6497 29.2235 14.1052 29.268 14.5719C29.3124 15.0385 29.3346 15.5163 29.3346 16.0052C29.3346 17.8941 28.9902 19.6497 28.3013 21.2719C27.6124 22.8941 26.668 24.3052 25.468 25.5052C24.268 26.7052 22.8569 27.6441 21.2346 28.3219C19.6124 28.9997 17.868 29.3385 16.0013 29.3385ZM14.0346 19.0385L27.1013 5.97187C27.3013 5.77187 27.5457 5.67187 27.8346 5.67187C28.1235 5.67187 28.3791 5.77187 28.6013 5.97187C28.8235 6.1941 28.9346 6.44965 28.9346 6.73854C28.9346 7.02743 28.8235 7.28299 28.6013 7.50521L14.7346 21.3719C14.5346 21.5719 14.3013 21.6719 14.0346 21.6719C13.768 21.6719 13.5346 21.5719 13.3346 21.3719L9.26797 17.2719C9.06797 17.0719 8.97352 16.8219 8.98463 16.5219C8.99575 16.2219 9.1013 15.9719 9.3013 15.7719C9.5013 15.5719 9.7513 15.4719 10.0513 15.4719C10.3513 15.4719 10.6013 15.5719 10.8013 15.7719L14.0346 19.0385Z" fill="#4C005B"/>
</g>
</svg>
