<svg width="24" height="24" viewBox="0 0 24 24" fill="none" xmlns="http://www.w3.org/2000/svg">
<g id="task_alt_FILL0_wght400_GRAD0_opsz48 1">
<path id="Vector" d="M12 22C10.5833 22 9.26667 21.7458 8.05 21.2375C6.83333 20.7292 5.775 20.025 4.875 19.125C3.975 18.225 3.27083 17.1667 2.7625 15.95C2.25417 14.7333 2 13.4167 2 12C2 10.6 2.25417 9.29167 2.7625 8.075C3.27083 6.85833 3.975 5.8 4.875 4.9C5.775 4 6.83333 3.29167 8.05 2.775C9.26667 2.25833 10.5833 2 12 2C13 2 13.975 2.14583 14.925 2.4375C15.875 2.72917 16.7667 3.15833 17.6 3.725C17.7833 3.84167 17.8958 4 17.9375 4.2C17.9792 4.4 17.9333 4.58333 17.8 4.75C17.6667 4.91667 17.5 5.00833 17.3 5.025C17.1 5.04167 16.9083 4.99167 16.725 4.875C16.025 4.425 15.275 4.08333 14.475 3.85C13.675 3.61667 12.85 3.5 12 3.5C9.58333 3.5 7.5625 4.3125 5.9375 5.9375C4.3125 7.5625 3.5 9.58333 3.5 12C3.5 14.4167 4.3125 16.4375 5.9375 18.0625C7.5625 19.6875 9.58333 20.5 12 20.5C14.4167 20.5 16.4375 19.6875 18.0625 18.0625C19.6875 16.4375 20.5 14.4167 20.5 12C20.5 11.6833 20.4875 11.375 20.4625 11.075C20.4375 10.775 20.3917 10.4833 20.325 10.2C20.2917 9.98333 20.325 9.78333 20.425 9.6C20.525 9.41667 20.675 9.30833 20.875 9.275C21.0917 9.225 21.2917 9.2625 21.475 9.3875C21.6583 9.5125 21.7667 9.68333 21.8 9.9C21.8667 10.2333 21.9167 10.575 21.95 10.925C21.9833 11.275 22 11.6333 22 12C22 13.4167 21.7417 14.7333 21.225 15.95C20.7083 17.1667 20 18.225 19.1 19.125C18.2 20.025 17.1417 20.7292 15.925 21.2375C14.7083 21.7458 13.4 22 12 22ZM10.525 14.275L20.325 4.475C20.475 4.325 20.6583 4.25 20.875 4.25C21.0917 4.25 21.2833 4.325 21.45 4.475C21.6167 4.64167 21.7 4.83333 21.7 5.05C21.7 5.26667 21.6167 5.45833 21.45 5.625L11.05 16.025C10.9 16.175 10.725 16.25 10.525 16.25C10.325 16.25 10.15 16.175 10 16.025L6.95 12.95C6.8 12.8 6.72917 12.6125 6.7375 12.3875C6.74583 12.1625 6.825 11.975 6.975 11.825C7.125 11.675 7.3125 11.6 7.5375 11.6C7.7625 11.6 7.95 11.675 8.1 11.825L10.525 14.275Z" fill="#0AB97A"/>
</g>
</svg>
