<svg width="74" height="74" viewBox="0 0 74 74" fill="none" xmlns="http://www.w3.org/2000/svg">
<g id="Group 1000010198">
<g id="Group 1000010197">
<path id="Vector" d="M57.546 33.0693C57.4865 32.474 57.0742 32.2582 56.598 32.0811C51.7507 30.2773 46.9094 28.4601 42.0576 26.6697C41.5844 26.4941 41.4207 26.2887 41.4221 25.7663C41.4415 18.5587 35.9959 12.1621 28.885 11.0042C20.6281 9.6648 13.1391 14.7695 11.3577 22.9639C9.58813 31.1211 15.3924 39.5908 23.6478 40.8618C24.7789 41.0359 25.9323 41.0732 27.1526 41.1788V41.7086C27.1526 45.6277 27.1526 49.5468 27.1526 53.4659C27.1526 55.6195 28.6796 57.1464 30.8346 57.1405C31.6502 57.1405 32.4836 57.1851 33.2784 57.0437C34.6357 56.7997 35.4795 55.9008 35.9572 54.6223C36.03 54.4104 36.1791 54.2332 36.3754 54.1252C40.0842 52.7154 43.7969 51.3189 47.5136 49.9358C47.5756 49.9264 47.6385 49.9234 47.7011 49.9268C47.7011 50.7707 47.7011 51.6116 47.7011 52.4569C47.7011 54.6506 49.0093 56.0764 51.273 56.2847C51.273 57.7016 51.273 59.1258 51.273 60.5501C51.2684 60.9201 51.3084 61.2894 51.392 61.6499C51.5881 62.4015 52.0281 63.0668 52.643 63.5414C53.2579 64.0159 54.013 64.273 54.7897 64.2722C55.6827 64.2722 56.5905 64.3258 57.4522 64.1562C59.1161 63.8273 60.1936 62.3941 60.1951 60.7049C60.1951 55.8591 60.1951 51.0128 60.1951 46.166V45.5052C62.3591 44.9828 63.886 43.7744 64.4441 41.6357C64.8642 40.0476 64.8514 38.3759 64.4069 36.7944C63.7848 34.5798 61.6655 33.0737 59.3468 33.0633C58.7694 33.0663 58.1934 33.0693 57.546 33.0693ZM39.9398 36.1098C38.9367 35.8121 38.0363 35.5844 37.1791 35.257C36.4484 34.9787 35.9468 35.138 35.3932 35.6722C31.3987 39.5313 24.9887 40.4109 20.0938 37.8094C17.6063 36.4967 15.5923 34.438 14.3345 31.9223C13.0768 29.4065 12.6385 26.5601 13.0811 23.7825C13.6347 20.3238 15.2123 17.3904 18.0936 15.2919C20.9213 13.2292 24.1315 12.4434 27.6185 12.7619C30.6977 13.0417 33.4108 14.1653 35.6551 16.3159C39.1213 19.6436 40.8804 25.8408 38.6048 31.0765C38.5028 31.2932 38.4477 31.5291 38.4431 31.7686C38.4385 32.0082 38.4845 32.246 38.5781 32.4665C39.029 33.6348 39.4561 34.8165 39.9398 36.1098ZM41.3358 28.3336C41.3927 28.3459 41.4488 28.3613 41.504 28.3797C46.1384 30.1141 50.7734 31.8449 55.4089 33.5723C55.7541 33.7018 55.7318 33.9146 55.7318 34.1676C55.7318 37.5906 55.7318 40.9987 55.7407 44.4128C55.7407 44.7908 55.6336 44.962 55.2764 45.0945C49.233 47.3427 43.1927 49.5999 37.1553 51.8661C36.8145 51.9926 36.4722 52.1116 36.1135 52.2396C36.0992 52.1653 36.0893 52.0903 36.0837 52.0149C36.0837 47.2802 36.0837 42.547 36.0837 37.8153C36.0837 37.2617 36.5153 36.9477 37.0437 37.1084C38.337 37.5028 39.6303 37.8972 40.9131 38.308C41.3492 38.4464 41.751 38.494 42.0919 38.1219C42.4327 37.7499 42.3508 37.348 42.1916 36.9313C41.5963 35.3567 41.001 33.7821 40.4295 32.1971C40.3535 31.9402 40.3535 31.6668 40.4295 31.4098C40.7048 30.3963 41.0203 29.3918 41.3358 28.3336ZM58.3556 45.5573C58.3805 45.6439 58.3975 45.7326 58.4062 45.8222C58.4062 50.7781 58.4181 55.7341 58.4062 60.69C58.4062 61.7243 57.6264 62.4476 56.5801 62.4759C56.0607 62.4938 55.5383 62.4848 55.0189 62.4759C53.8179 62.4625 53.0604 61.7318 53.0574 60.5322C53.0574 56.4484 53.0574 52.3646 53.047 48.2808C53.047 47.946 53.1512 47.7852 53.4622 47.6751C54.4921 47.3105 55.5101 46.9072 56.5414 46.544C57.0534 46.3654 57.4954 46.1452 57.5594 45.5484L58.3556 45.5573ZM34.2948 39.0089C34.2948 43.8011 34.3052 48.6827 34.2948 53.5657C34.2948 54.5717 33.5239 55.2995 32.5089 55.3516C32.0267 55.3739 31.5415 55.3516 31.0579 55.3516C29.638 55.3516 28.9415 54.6506 28.9415 53.2248C28.9415 49.2879 28.9415 45.3514 28.9415 41.4155V41.0553L34.2948 39.0089ZM57.5564 43.6999V34.8596C58.2262 34.8596 58.8602 34.8239 59.4912 34.8671C61.2235 34.9861 62.5406 36.141 62.7892 37.8674C62.9181 38.7679 62.9311 39.6812 62.8279 40.585C62.6299 42.298 61.5152 43.4335 59.8186 43.6851C59.0908 43.7937 58.3363 43.7029 57.5564 43.7029V43.6999ZM51.2506 54.4318C50.1657 54.3143 49.5153 53.6788 49.487 52.6742C49.4573 51.619 49.4736 50.5623 49.487 49.5057C49.487 49.3792 49.5525 49.1768 49.6359 49.1381C50.1523 48.9178 50.6777 48.7377 51.2462 48.5309L51.2506 54.4318Z" fill="#EEAD1F"/>
<path id="Vector_2" d="M26.2909 15.2397H24.8964C23.1284 15.2397 21.7711 16.6208 21.9095 18.3889C22.0583 20.3236 22.3083 22.2584 22.5182 24.1931C22.606 25.0042 22.7236 25.8123 22.795 26.6249C22.9304 28.14 23.7579 29.0984 25.267 29.4452C27.1169 29.8708 28.946 28.8335 29.2526 27.1548C29.5368 25.607 29.7809 24.0517 30.0399 22.498C30.2497 21.2389 30.4417 19.9754 30.6664 18.7178C30.979 16.9586 29.5859 15.2546 27.7985 15.2382C27.2985 15.2367 26.794 15.2397 26.2909 15.2397ZM26.2656 17.0256H27.3238C28.5591 17.0256 29.0189 17.5376 28.8121 18.7639C28.3849 21.4115 27.9295 24.0532 27.4815 26.6979C27.4492 26.9394 27.3419 27.1647 27.1748 27.342C27.0077 27.5193 26.7891 27.6396 26.5499 27.6861C25.4084 27.9837 24.6509 27.4286 24.569 26.2573C24.5571 26.0921 24.5303 25.9269 24.511 25.7617C24.2356 23.315 23.9514 20.8698 23.6894 18.4216C23.6046 17.6179 24.1121 17.0643 24.9202 17.0301C25.3727 17.0063 25.8192 17.0226 26.2656 17.0212V17.0256Z" fill="#EEAD1F"/>
<path id="Vector_3" d="M23.3486 33.9457C23.3486 35.5099 24.4499 36.632 25.9947 36.632C26.3488 36.6405 26.701 36.5766 27.0295 36.4442C27.3581 36.3118 27.6561 36.1138 27.9054 35.8621C28.1547 35.6104 28.35 35.3105 28.4792 34.9807C28.6085 34.651 28.6691 34.2982 28.6572 33.9442C28.6438 32.4217 27.5247 31.2921 26.0215 31.2862C24.4707 31.2787 23.353 32.3875 23.3486 33.9457ZM26.0185 33.0766C26.2311 33.11 26.4244 33.219 26.5629 33.3835C26.7015 33.5481 26.776 33.7571 26.7728 33.9722C26.7695 34.1873 26.6887 34.394 26.5452 34.5543C26.4017 34.7146 26.2052 34.8177 25.9917 34.8446C25.8757 34.8429 25.7611 34.8182 25.6545 34.7722C25.5479 34.7261 25.4514 34.6596 25.3706 34.5762C25.2897 34.4929 25.2261 34.3944 25.1833 34.2865C25.1405 34.1786 25.1194 34.0633 25.1211 33.9472C25.1229 33.8311 25.1475 33.7165 25.1935 33.6099C25.2396 33.5033 25.3062 33.4069 25.3895 33.326C25.4728 33.2452 25.5713 33.1815 25.6792 33.1387C25.7871 33.0959 25.9024 33.0748 26.0185 33.0766Z" fill="#EEAD1F"/>
</g>
</g>
</svg>
