<svg width="19" height="20" viewBox="0 0 19 20" fill="none" xmlns="http://www.w3.org/2000/svg">
<g id="Frame" clip-path="url(#clip0_66_2868)">
<g id="Group">
<path id="Vector" d="M2.86561 10.844C2.86561 8.94818 2.85995 7.04672 2.87127 5.15091C2.87127 4.92455 2.80336 4.88493 2.60529 4.89625C2.25442 4.91323 1.8979 4.90191 1.54703 4.90191C1.13392 4.89625 0.833984 4.60764 0.833984 4.22282C0.833984 3.838 1.13392 3.54938 1.54703 3.54372C3.06933 3.54372 4.5973 3.53806 6.1196 3.54372C6.26673 3.54372 6.32898 3.50977 6.37426 3.35697C6.7704 1.85165 8.10595 0.833008 9.65088 0.833008C11.1845 0.833008 12.5087 1.85731 12.9105 3.35697C12.9501 3.50977 13.0124 3.54938 13.1595 3.54938C14.6818 3.54372 16.2098 3.54372 17.7321 3.54938C18.2471 3.54938 18.581 4.01909 18.3999 4.47182C18.298 4.73214 18.0547 4.89625 17.7547 4.90191C17.3812 4.90757 17.0077 4.91889 16.6342 4.89625C16.4362 4.88493 16.4135 4.9585 16.4135 5.12828C16.4192 8.88027 16.4305 12.6379 16.4135 16.3899C16.4079 17.8556 15.6948 18.9026 14.3649 19.5251C13.9744 19.7118 13.55 19.7967 13.1143 19.7967C10.7997 19.8024 8.48511 19.808 6.17053 19.7967C4.38225 19.7854 2.8939 18.2801 2.87127 16.4918C2.87127 16.4691 2.87127 16.4522 2.87127 16.4295C2.86561 14.5733 2.86561 12.7058 2.86561 10.844Z" fill="#E51F1B"/>
<path id="Vector_2" d="M4.2166 10.8026C4.2166 8.90684 4.2166 7.00538 4.21094 5.10958C4.21094 4.93414 4.25055 4.89453 4.42598 4.89453C7.90068 4.90019 11.3697 4.90019 14.8444 4.89453C15.0198 4.89453 15.0595 4.93414 15.0595 5.10958C15.0538 8.84459 15.0538 12.574 15.0538 16.309C15.0538 17.5823 14.188 18.4481 12.9147 18.4481C10.7246 18.4481 8.54016 18.4481 6.35008 18.4481C5.08244 18.4481 4.21094 17.5766 4.21094 16.309C4.2166 14.4754 4.2166 12.6419 4.2166 10.8026Z" fill="white"/>
<path id="Vector_3" d="M7.74805 3.53164C8.01403 2.7337 8.78932 2.19043 9.64385 2.19043C10.4927 2.19043 11.268 2.7337 11.5397 3.53164C10.272 3.53164 9.01569 3.53164 7.74805 3.53164Z" fill="white"/>
<path id="Vector_4" d="M8.28807 11.6748C8.28807 12.5746 8.29373 13.48 8.28807 14.3798C8.28807 14.7364 8.02776 15.0193 7.68821 15.0589C7.35432 15.0929 7.04307 14.8778 6.95818 14.5439C6.94121 14.4817 6.93555 14.4194 6.93555 14.3572C6.93555 12.5689 6.93555 10.775 6.93555 8.9867C6.93555 8.6132 7.19021 8.32458 7.54107 8.29063C7.87496 8.25667 8.18621 8.47172 8.2711 8.79995C8.29373 8.87917 8.29373 8.96972 8.29373 9.04895C8.28808 9.92611 8.28807 10.8033 8.28807 11.6748Z" fill="#E51F1B"/>
<path id="Vector_5" d="M10.9978 11.6759C10.9978 10.7761 10.9978 9.87069 10.9978 8.97089C10.9978 8.61437 11.2582 8.33141 11.5977 8.2918C11.9316 8.25218 12.2429 8.46723 12.3277 8.80112C12.3447 8.85205 12.3504 8.9143 12.3504 8.96523C12.3504 10.7705 12.3504 12.5757 12.3504 14.381C12.3504 14.6866 12.1693 14.9299 11.892 15.0261C11.626 15.1167 11.3544 15.0431 11.162 14.8281C11.0318 14.6809 10.9922 14.5112 10.9922 14.3188C10.9978 13.4416 10.9978 12.5588 10.9978 11.6759Z" fill="#E51F1B"/>
</g>
</g>
<defs>
<clipPath id="clip0_66_2868">
<rect width="17.6168" height="18.975" fill="white" transform="translate(0.833984 0.833008)"/>
</clipPath>
</defs>
</svg>
