<svg width="24" height="24" viewBox="0 0 24 24" fill="none" xmlns="http://www.w3.org/2000/svg">
<g id="Group 1000005411">
<g id="Group 1000001066">
<path id="Vector" d="M22.0356 17.9998C21.9432 18.1744 21.8754 18.3683 21.7531 18.5189C21.533 18.7913 21.219 18.8709 20.8766 18.8703C18.7178 18.8682 16.5592 18.8682 14.4007 18.8703C10.5168 18.8703 6.63291 18.8703 2.74899 18.8703C2.45363 18.8703 2.17858 18.8169 1.94785 18.622C1.6808 18.3961 1.56437 18.106 1.56544 17.7584C1.56829 16.4256 1.56829 15.0932 1.56544 13.7612V6.42652C1.56544 5.63285 1.97883 5.2168 2.76875 5.2168C8.75806 5.2168 14.7472 5.2168 20.7361 5.2168C21.4962 5.2168 21.7509 5.38664 22.0345 6.0863L22.0356 17.9998ZM20.6785 18.0713C20.6251 17.9998 20.5935 17.9565 20.5599 17.9154C19.6341 16.771 18.7084 15.6268 17.7826 14.4828C17.2752 13.8565 16.7682 13.2298 16.2615 12.6028C16.0591 12.3517 16.1178 12.0462 16.3828 11.941C16.5676 11.8678 16.7283 11.9293 16.8976 12.1386L20.6699 16.7981C20.8483 17.0181 21.0272 17.2371 21.2259 17.4812V6.52105C21.1437 6.5814 21.0844 6.62413 21.0256 6.66846C18.3445 8.67843 15.6637 10.6884 12.9833 12.6984C12.2382 13.2565 11.3692 13.2597 10.6375 12.7112L2.5471 6.6471C2.49369 6.60651 2.43654 6.56912 2.37298 6.52425V17.4806C2.43921 17.4021 2.48247 17.353 2.52413 17.3017L5.84352 13.2015C6.141 12.8335 6.43689 12.4644 6.73652 12.0986C6.90476 11.8935 7.13389 11.8572 7.31494 11.9976C7.50508 12.1445 7.51683 12.3758 7.34539 12.598C7.32936 12.6188 7.3112 12.6385 7.29198 12.6594C5.88375 14.3987 4.47571 16.1385 3.06784 17.8785C3.02084 17.9362 2.97758 17.9966 2.9215 18.0713H20.6785ZM3.03686 6.01794C3.10255 6.07134 3.13674 6.10072 3.17305 6.12796C5.82536 8.11799 8.47801 10.1077 11.131 12.097C11.5535 12.4153 12.0539 12.4153 12.4812 12.0916C15.1232 10.1112 17.7648 8.12991 20.4061 6.14772C20.4515 6.11354 20.4942 6.07562 20.5663 6.01794H3.03686Z" fill="white"/>
</g>
</g>
</svg>
