<svg width="235" height="235" viewBox="0 0 235 235" fill="none" xmlns="http://www.w3.org/2000/svg">
<g id="Group 1000011490">
<path id="Vector" d="M22.2257 28.3762C23.1914 27.8404 24.2554 27.5052 25.3539 27.3908C26.4523 27.2764 27.5626 27.3851 28.618 27.7104C30.7256 28.3667 32.6552 29.4964 34.2592 31.013C37.4553 33.8629 39.5115 38.3002 40.7633 42.3699C36.1609 43.4673 31.2654 40.985 28.863 39.568C25.065 37.3573 19.5623 31.013 22.2257 28.3762Z" fill="#EBEBEB"/>
<path id="Vector_2" d="M48.8594 43.0727C47.7326 42.5698 46.759 41.7775 46.0377 40.7764C45.3163 39.7753 44.8728 38.601 44.7524 37.373C44.6538 36.144 44.8009 34.9077 45.185 33.7362C45.5691 32.5647 46.1826 31.4813 46.9897 30.5493C47.7194 29.6756 48.6996 28.8713 49.8342 28.8819C50.3666 28.9213 50.8788 29.1019 51.3179 29.4053C51.7571 29.7087 52.1074 30.1239 52.3325 30.6078C52.7684 31.5832 52.9393 32.6563 52.8279 33.7187C52.6148 37.357 51.7625 40.8408 48.8594 43.0727Z" fill="#EBEBEB"/>
<path id="Vector_3" d="M54.3769 52.1925C53.6475 51.5966 52.9833 50.9252 52.3953 50.1896C51.7228 49.411 51.1435 48.5564 50.6693 47.6434C50.0648 46.5457 49.531 45.4106 49.0713 44.2448C48.231 42.0989 47.9346 39.7785 48.2083 37.4903C48.3186 36.8031 48.497 36.1286 48.741 35.4768C48.8139 35.2313 48.9293 35.0005 49.0819 34.7949C49.1618 34.8269 48.741 35.8283 48.5492 37.5329C48.3834 39.7605 48.7164 41.997 49.5241 44.0797C49.973 45.2267 50.487 46.3471 51.0635 47.4356C51.5068 48.3356 52.0423 49.1872 52.6616 49.9765C53.2817 50.6764 53.8547 51.4167 54.3769 52.1925Z" fill="#E0E0E0"/>
<path id="Vector_4" d="M26.8516 32.8398C27.2826 33.0378 27.6945 33.275 28.0821 33.5483C28.8651 34.0277 29.9838 34.7415 31.3528 35.6311C34.1014 37.4156 37.8675 39.9246 41.9586 42.7958C46.0496 45.667 49.6826 48.3677 52.2661 50.3813C53.5605 51.388 54.5993 52.2137 55.3024 52.7997C55.6864 53.0797 56.0431 53.3954 56.3678 53.7425C55.953 53.5107 55.5591 53.2434 55.1906 52.9435L52.0637 50.6529C49.4322 48.7086 45.7726 46.0558 41.6869 43.1953L31.1717 35.9135L27.9755 33.7028C27.5787 33.4453 27.2028 33.1568 26.8516 32.8398Z" fill="#E0E0E0"/>
<path id="Vector_5" d="M47.0516 48.4002C44.5796 47.5923 41.9505 47.3854 39.3825 47.7967C36.8145 48.208 34.3816 49.2257 32.2855 50.7653C31.2202 51.559 30.1548 52.7629 30.5117 54.0413C30.8686 55.3198 32.3548 55.8631 33.6705 56.0123C36.4203 56.2669 39.1838 55.7022 41.6133 54.3893C44.0428 53.0765 46.0295 51.0742 47.3233 48.6346" fill="#EBEBEB"/>
<path id="Vector_6" d="M36.0195 51.7875C36.0195 51.7608 36.222 51.6064 36.6374 51.356C37.0529 51.1056 37.6549 50.77 38.422 50.3812C40.434 49.3466 42.6186 48.6894 44.8675 48.4422C46.1187 48.3407 47.378 48.4433 48.5963 48.7458C50.2522 49.1789 51.7867 49.9863 53.0815 51.1056C53.4437 51.4199 53.6142 51.6064 53.6142 51.6383C53.6142 51.6703 52.7459 51.0151 51.2544 50.2161C49.3076 49.1794 47.102 48.7298 44.9048 48.9216C42.7105 49.1703 40.5704 49.7692 38.5658 50.6955C37.7394 51.1096 36.8892 51.4742 36.0195 51.7875Z" fill="#E0E0E0"/>
<path id="Vector_7" d="M94.9684 231.437C102.048 225.263 102.714 215.153 101.446 206.267C101.238 204.786 101.233 203.199 100.38 201.969C99.5282 200.738 97.7863 200.024 96.5185 200.791C95.4531 201.431 95.1282 202.773 94.6221 203.902C93.9506 205.416 92.8648 206.708 91.4899 207.631C90.595 208.222 89.4551 208.648 88.4643 208.233C87.1006 207.663 86.7597 205.905 86.6105 204.424C86.3264 201.665 86.0459 198.904 85.7689 196.141C85.6982 194.65 85.387 193.18 84.8473 191.789C84.2347 190.436 83.0788 189.237 81.6246 188.992C80.1703 188.747 78.519 189.754 78.3805 191.235C78.3898 191.854 78.4414 192.471 78.535 193.083C78.5779 193.389 78.5295 193.7 78.3958 193.977C78.2621 194.255 78.0492 194.487 77.7839 194.644C77.2086 194.884 76.5747 194.527 76.0846 194.143C74.3907 192.812 73.1495 190.995 71.9723 189.184C70.795 187.373 69.6444 185.514 68.0836 184.033C66.5229 182.552 64.4614 181.465 62.3306 181.577C60.1999 181.689 58.0691 183.239 57.7655 185.375C57.4618 187.511 58.9001 189.509 60.4289 191.054C62.6637 193.35 65.2186 195.311 68.0144 196.876C68.5529 197.098 69.0051 197.489 69.3035 197.989C69.7296 198.943 68.8986 200.024 67.9611 200.45C66.8957 200.94 65.6865 200.951 64.5466 201.212C63.4066 201.473 62.2081 202.118 61.8831 203.258C61.441 204.856 62.8793 206.283 64.2376 207.189C66.9575 209.001 69.9683 210.332 73.1388 211.125C74.2681 211.408 75.456 211.658 76.4149 212.303C77.3737 212.947 78.0342 214.258 77.6241 215.323C77.2139 216.388 75.8822 216.921 74.7156 216.82C73.549 216.719 72.4677 216.223 71.333 215.93C69.2023 215.398 66.6028 215.802 65.4735 217.704C65.1417 218.352 64.9643 219.069 64.9551 219.797C64.9458 220.525 65.105 221.245 65.4202 221.902C66.0687 223.208 66.9747 224.369 68.0836 225.316C71.7248 228.844 76.238 231.34 81.1611 232.55C86.0565 233.679 90.4778 233.653 94.9844 231.432" fill="#EBEBEB"/>
<path id="Vector_8" d="M92.0632 226.094C90.0575 221.394 87.7845 216.812 85.2555 212.372L83.2845 208.867C82.64 207.721 81.9954 206.581 81.2976 205.505C79.9509 203.444 78.4928 201.458 76.9295 199.555C75.4487 197.734 73.9785 196.056 72.5935 194.495C71.2085 192.934 69.8768 191.512 68.6143 190.265C66.6322 188.283 64.4946 186.462 62.222 184.821C61.423 184.241 60.7838 183.809 60.347 183.521L59.8516 183.202C59.7986 183.159 59.7393 183.125 59.6758 183.101L59.8356 183.223L60.3203 183.569C60.7412 183.868 61.3857 184.315 62.1581 184.906C64.3997 186.577 66.5116 188.415 68.4758 190.404C69.7223 191.656 71.038 193.067 72.4177 194.665C73.7973 196.263 75.2622 197.909 76.7325 199.736C78.2837 201.635 79.7312 203.616 81.0685 205.671C81.761 206.736 82.3949 207.871 83.0448 209.021C83.6947 210.172 84.3499 211.344 85.0104 212.526C87.5363 216.955 89.811 221.522 91.8235 226.206" fill="#E0E0E0"/>
<path id="Vector_9" d="M81.2198 205.506C81.2653 205.292 81.2903 205.074 81.2944 204.856C81.3317 204.44 81.3583 203.833 81.3849 203.082C81.4329 201.585 81.4329 199.518 81.4222 197.222C81.4116 194.926 81.4222 192.876 81.5128 191.363C81.5501 190.617 81.582 190.015 81.614 189.6C81.6406 189.382 81.6406 189.162 81.614 188.944C81.5544 189.155 81.5152 189.371 81.4968 189.589C81.4329 190.004 81.369 190.606 81.3104 191.352C81.1878 192.849 81.1292 194.921 81.1399 197.212C81.1506 199.502 81.1399 201.5 81.1772 203.071V204.84C81.1673 205.063 81.1816 205.286 81.2198 205.506Z" fill="#E0E0E0"/>
<path id="Vector_10" d="M61.7969 203.998C62.0521 204.02 62.3087 204.02 62.5639 203.998C63.0593 203.998 63.7731 203.971 64.6521 203.998C66.4206 203.998 68.855 204.083 71.5397 204.296C74.2245 204.509 76.6482 204.829 78.3901 205.079C79.2637 205.207 79.9882 205.33 80.4569 205.41C80.7074 205.467 80.9622 205.502 81.2187 205.516C80.9803 205.42 80.732 205.35 80.4782 205.308C79.9935 205.191 79.2957 205.042 78.4221 204.888C76.6802 204.568 74.2511 204.238 71.561 204.019C69.2579 203.829 66.9466 203.756 64.6361 203.801C63.7518 203.801 63.038 203.865 62.5426 203.907C62.2918 203.914 62.0421 203.944 61.7969 203.998Z" fill="#E0E0E0"/>
<path id="Vector_11" d="M91.7949 225.763C91.8419 225.687 91.8778 225.605 91.9015 225.518C91.9654 225.327 92.0506 225.087 92.1518 224.794C92.3649 224.165 92.6525 223.249 92.9935 222.131C93.6806 219.851 94.5223 216.67 95.4065 213.149C96.2908 209.628 97.1111 206.443 97.745 204.152C98.054 203.039 98.315 202.123 98.5015 201.441C98.5867 201.148 98.6506 200.908 98.7092 200.7C98.7392 200.617 98.7554 200.528 98.7571 200.439C98.7137 200.517 98.6797 200.599 98.6559 200.684L98.4002 201.409C98.1872 202.038 97.8995 202.959 97.5586 204.099C96.8768 206.379 96.0298 209.559 95.1455 213.08C94.2613 216.601 93.4462 219.781 92.8123 222.072C92.4981 223.185 92.2424 224.101 92.0506 224.783C91.9707 225.082 91.9015 225.316 91.8482 225.524C91.8205 225.601 91.8026 225.682 91.7949 225.763Z" fill="#E0E0E0"/>
<path id="Vector_12" d="M65.6191 220.341C65.7033 220.374 65.7908 220.399 65.8802 220.415L66.6419 220.58L69.4438 221.166C71.809 221.662 75.0743 222.386 78.6753 223.185C82.2763 223.984 85.5523 224.682 87.9334 225.129C89.1213 225.353 90.0642 225.524 90.7513 225.63L91.5237 225.742C91.6137 225.757 91.7055 225.757 91.7954 225.742C91.7105 225.71 91.6232 225.685 91.5344 225.667L90.7727 225.502L87.9654 224.916C85.6003 224.421 82.3402 223.697 78.7339 222.897C75.1276 222.098 71.8569 221.401 69.4811 220.953C68.2932 220.729 67.3504 220.559 66.6579 220.452L65.8908 220.341C65.8009 220.325 65.7091 220.325 65.6191 220.341Z" fill="#E0E0E0"/>
<path id="Vector_13" d="M218.674 110.171L213.278 117.762L211.27 116.872L195.944 125.986L193.217 117.938C193.217 117.938 201.814 115.647 203.732 112.984C205.65 110.32 204.02 109.415 204.02 109.415L208.462 105.648L218.674 110.171Z" fill="#EBEBEB"/>
<path id="Vector_14" d="M215.696 92.5914C215.696 92.5914 209.762 90.3328 202.352 80.7604C194.943 71.188 192.508 59.5701 191.443 59.4529C190.378 59.3357 186.084 56.5285 174.498 74.3256C162.912 92.1227 165.714 97.0607 167.467 97.2791C169.219 97.4975 181.562 95.942 188.843 97.8757C196.125 99.8094 205.074 105.067 205.074 105.067L215.696 92.5914Z" fill="#EBEBEB"/>
<path id="Vector_15" d="M227.196 104.912L224.532 108.583L223.328 110.229C222.536 111.314 221.357 112.054 220.035 112.297C218.713 112.54 217.349 112.267 216.222 111.534L203.752 105.014L213.98 88.6602L226.072 97.5987C227.186 98.4228 227.93 99.654 228.14 101.024C228.351 102.394 228.011 103.792 227.196 104.912Z" fill="#E0E0E0"/>
<path id="Vector_16" d="M175.154 74.7892C168.964 84.4415 165.662 93.3694 167.787 94.733C169.913 96.0967 176.646 89.3689 182.836 79.7166C189.026 70.0643 192.328 61.1364 190.208 59.7781C188.088 58.4197 181.349 65.1369 175.154 74.7892Z" fill="#E0E0E0"/>
<path id="Vector_17" d="M227.478 110.831L224.074 109.185L226.897 105.317L229.327 107.374L227.478 110.831Z" fill="#E0E0E0"/>
<path id="Vector_18" d="M224.306 105.925C224.236 106.032 222.558 105.078 220.577 103.794C218.595 102.511 217.013 101.381 217.082 101.275C217.152 101.168 218.824 102.122 220.811 103.405C222.798 104.689 224.375 105.813 224.306 105.925Z" fill="#EBEBEB"/>
<path id="Vector_19" d="M225.767 103.586C225.697 103.693 224.169 102.776 222.395 101.541C220.621 100.305 219.199 99.2234 219.289 99.1168C219.38 99.0103 220.887 99.9265 222.661 101.162C224.435 102.398 225.841 103.458 225.767 103.586Z" fill="#EBEBEB"/>
<path id="Vector_20" d="M222.514 108.338C222.488 108.396 222.078 108.237 221.449 107.928C221.124 107.773 220.746 107.581 220.325 107.363C219.904 107.145 219.489 106.83 219.031 106.548C217.214 105.36 215.835 104.252 215.92 104.156C216.005 104.06 217.486 104.982 219.286 106.165C219.734 106.452 220.149 106.761 220.549 107.001C220.948 107.241 221.305 107.454 221.614 107.64C222.205 108.018 222.562 108.279 222.514 108.338Z" fill="#EBEBEB"/>
<path id="Vector_21" d="M185.014 73.8946C185.014 73.8946 180.171 69.8036 176.192 76.558C172.213 83.3125 177.652 85.3474 177.652 85.3474C180.633 81.8954 183.111 78.0398 185.014 73.8946Z" fill="#EBEBEB"/>
<path id="Vector_22" d="M191.949 66.1699C191.849 66.6296 191.712 67.0803 191.539 67.5176C191.24 68.3699 190.809 69.6111 190.239 71.1292C189.898 71.8697 189.53 72.6794 189.131 73.5423L188.513 74.8847L188.183 75.5878C188.071 75.8222 187.927 76.0513 187.799 76.2857L186.137 79.2155C185.993 79.4711 185.85 79.7481 185.7 79.9825C185.551 80.2169 185.37 80.4779 185.21 80.7336L184.161 82.2251L183.138 83.7486C182.962 83.9937 182.808 84.2813 182.605 84.4837L182.073 85.1709C181.338 86.0818 180.624 86.9554 179.942 87.7917C179.766 87.9995 179.606 88.2072 179.409 88.4043L178.877 88.9636L177.849 90.029L176.005 91.9414C174.807 93.0067 173.805 93.875 173.124 94.4663C172.781 94.7904 172.411 95.0828 172.016 95.3399C172.316 94.9781 172.646 94.6414 173.001 94.3331L175.787 91.7016C176.32 91.105 176.932 90.4552 177.577 89.7627L178.573 88.6973L179.106 88.1326C179.281 87.9409 179.436 87.7278 179.606 87.5201C180.267 86.6837 180.965 85.8101 181.689 84.9046L182.222 84.2174C182.408 83.9883 182.563 83.7326 182.755 83.4876L183.783 81.9801L184.811 80.4726C184.976 80.2222 185.157 79.9878 185.301 79.7322L185.759 78.9544C186.34 77.9476 186.899 76.9782 187.437 76.0566C187.565 75.8222 187.709 75.6038 187.826 75.3694C187.943 75.1351 188.05 74.906 188.156 74.6769L188.795 73.3506C189.211 72.4983 189.594 71.7063 189.946 70.9748C190.542 69.4939 191.011 68.3113 191.379 67.4271C191.533 66.9926 191.724 66.5721 191.949 66.1699Z" fill="#E0E0E0"/>
<path id="Vector_23" d="M181.954 173.8C181.954 173.8 185.475 175.222 181.422 182.701C177.368 190.18 174.571 193.861 174.571 193.861C174.571 193.861 173.836 195.602 175.312 195.917C176.787 196.231 180.058 195.789 180.676 197.621C181.294 199.454 179.898 201.254 177.091 202.74C174.284 204.227 168.248 207.7 167.705 208.014C167.162 208.328 166.639 209.127 167.593 209.5C168.546 209.873 175.876 210.832 175.216 214.294C174.555 217.757 166.048 220.564 165.132 220.894C164.216 221.225 163.981 221.608 164.067 222.109C164.152 222.61 166.618 222.706 168.69 223.062C170.762 223.419 173.096 224.192 172.547 226.147C171.998 228.102 166.9 232.108 154.755 232.981L149.103 233.018L146.152 228.166C140.469 217.395 141.172 210.954 142.541 209.452C143.91 207.95 145.806 209.527 147.202 211.093C148.597 212.659 149.993 214.726 150.451 214.513C150.909 214.3 151.117 213.9 150.909 212.947C150.701 211.993 148.619 203.262 151.192 200.881C153.764 198.5 158.447 204.205 159.272 204.829C160.098 205.452 160.498 204.562 160.476 203.944C160.455 203.326 160.215 196.359 159.992 193.189C159.768 190.02 160.492 187.905 162.442 187.442C164.392 186.978 165.681 190.004 166.703 191.091C167.726 192.177 168.834 190.632 168.834 190.632C168.834 190.632 170.496 186.328 174.694 178.913C178.891 171.498 182.029 173.831 182.029 173.831" fill="#EBEBEB"/>
<path id="Vector_24" d="M148.747 234.34C151.81 228.89 157.089 219.116 161.665 210.747C166.241 202.378 170.385 194.809 173.421 189.344C174.939 186.622 176.165 184.411 177.022 182.877L177.997 181.119L178.247 180.661C178.277 180.609 178.304 180.556 178.327 180.501L178.231 180.65C178.168 180.757 178.082 180.911 177.965 181.103L176.958 182.829C176.09 184.342 174.828 186.558 173.315 189.269C170.252 194.718 166.086 202.283 161.51 210.646C156.935 219.009 151.666 228.816 148.641 234.281" fill="#E0E0E0"/>
<path id="Vector_25" d="M176.123 198.415C175.989 198.432 175.856 198.464 175.729 198.511C175.473 198.585 175.117 198.703 174.664 198.852C173.774 199.155 172.533 199.603 171.217 200.12L167.808 201.473L166.769 201.867C166.639 201.908 166.514 201.963 166.396 202.032C166.53 202.012 166.662 201.98 166.791 201.936C167.046 201.862 167.409 201.739 167.856 201.59C168.746 201.276 169.955 200.817 171.292 200.301L174.717 198.985L175.756 198.596C175.885 198.55 176.008 198.489 176.123 198.415Z" fill="#E0E0E0"/>
<path id="Vector_26" d="M166.018 201.643C166.066 201.643 165.256 199.075 164.207 195.938C163.157 192.8 162.278 190.286 162.231 190.286C162.183 190.286 162.998 192.854 164.042 195.991C165.086 199.129 165.97 201.659 166.018 201.643Z" fill="#E0E0E0"/>
<path id="Vector_27" d="M159.573 214.791C159.514 214.664 159.441 214.544 159.355 214.434C159.179 214.183 158.961 213.874 158.705 213.501C158.172 212.713 157.416 211.621 156.638 210.385C155.86 209.149 155.184 208.009 154.71 207.189L154.14 206.209C154.078 206.084 154.003 205.967 153.916 205.857C153.956 205.991 154.012 206.12 154.081 206.241C154.198 206.481 154.374 206.827 154.614 207.253C155.067 208.1 155.722 209.251 156.505 210.492C157.288 211.733 158.05 212.814 158.636 213.587C158.923 213.97 159.168 214.279 159.328 214.487C159.4 214.595 159.482 214.697 159.573 214.791Z" fill="#E0E0E0"/>
<path id="Vector_28" d="M169.356 213.901C169.227 213.887 169.097 213.887 168.967 213.901L167.902 213.954C167.018 214.008 165.771 214.098 164.45 214.205C163.129 214.311 161.883 214.418 160.998 214.508L159.96 214.62C159.829 214.622 159.7 214.643 159.576 214.684C159.705 214.698 159.836 214.698 159.965 214.684L161.03 214.631C161.915 214.578 163.135 214.487 164.482 214.38C165.83 214.274 167.05 214.167 167.929 214.077L168.994 213.965C169.117 213.958 169.238 213.936 169.356 213.901Z" fill="#E0E0E0"/>
<path id="Vector_29" d="M165.143 226.248C164.978 226.234 164.813 226.234 164.648 226.248L163.305 226.317C162.171 226.381 160.605 226.477 158.879 226.599C157.153 226.722 155.587 226.844 154.457 226.94L153.115 227.063C152.95 227.072 152.786 227.093 152.625 227.127C152.79 227.147 152.956 227.147 153.12 227.127L154.463 227.063C155.597 226.999 157.164 226.898 158.889 226.775C160.615 226.653 162.181 226.535 163.311 226.439L164.653 226.317C164.818 226.309 164.982 226.285 165.143 226.248Z" fill="#E0E0E0"/>
<path id="Vector_30" d="M152.919 227.042C152.845 226.881 152.756 226.727 152.652 226.584L151.88 225.369C151.225 224.346 150.325 222.929 149.376 221.337C148.428 219.744 147.608 218.279 147.022 217.214L146.34 215.935C146.261 215.778 146.17 215.626 146.068 215.482C146.124 215.65 146.195 215.813 146.281 215.967C146.425 216.276 146.649 216.718 146.926 217.256C147.485 218.322 148.295 219.813 149.243 221.406C150.191 222.999 151.108 224.416 151.789 225.422C152.13 225.955 152.413 226.333 152.615 226.605C152.706 226.757 152.808 226.903 152.919 227.042Z" fill="#E0E0E0"/>
<path id="Vector_31" d="M176.584 0.208008H53.6875V48.8051H176.584V0.208008Z" fill="#EEAD1F"/>
<path id="Vector_32" d="M176.586 48.8049C176.586 48.8049 176.586 48.5066 176.586 47.9419C176.586 47.3773 176.586 46.5303 176.586 45.4276C176.586 43.2223 176.586 39.9729 176.586 35.7806C176.586 27.4015 176.554 15.2615 176.533 0.207748L176.629 0.303632L53.7431 0.346248L53.8816 0.207748C53.8816 17.2058 53.8816 33.6286 53.8816 48.8049L53.7484 48.6717L141.855 48.7303L167.424 48.7676H174.269H176.038H176.645H176.054H174.301H167.488L141.946 48.8049L53.7484 48.8688H53.6152V48.7356C53.6152 33.5593 53.6152 17.1366 53.6152 0.1385V0H53.7644L176.586 0.117192H176.703V0.213076C176.703 15.2935 176.661 27.4494 176.65 35.8446C176.65 40.0262 176.65 43.2702 176.65 45.4702C176.65 46.5676 176.65 47.3986 176.65 47.9685C176.65 48.5385 176.586 48.8049 176.586 48.8049Z" fill="#263238"/>
<path id="Vector_33" d="M69.9754 38.7212C69.2583 38.7172 68.5549 38.5246 67.9358 38.1627C67.3167 37.8008 66.8038 37.2823 66.4485 36.6593C66.0933 36.0363 65.9083 35.3308 65.9122 34.6137C65.916 33.8966 66.1085 33.1931 66.4704 32.5739L78.3493 12.2093C78.7074 11.589 79.2232 11.0745 79.8444 10.7181C80.4657 10.3616 81.1701 10.1759 81.8863 10.1797C82.6031 10.1814 83.3066 10.3731 83.9251 10.7352C84.5437 11.0974 85.0552 11.617 85.4074 12.2412L97.1265 32.7071C97.4827 33.3305 97.6686 34.0367 97.6654 34.7547C97.6623 35.4727 97.4702 36.1772 97.1085 36.7975C96.7468 37.4177 96.2283 37.9319 95.605 38.2882C94.9817 38.6446 94.2755 38.8307 93.5575 38.8277L69.9861 38.7212H69.9754ZM81.8863 11.4049C81.3828 11.4001 80.8871 11.5293 80.4499 11.7792C80.0128 12.0291 79.65 12.3908 79.3987 12.8272L67.5038 33.1865C67.2511 33.621 67.1168 34.1141 67.1144 34.6167C67.1121 35.1192 67.2417 35.6136 67.4902 36.0504C67.7388 36.4872 68.0977 36.8511 68.531 37.1057C68.9644 37.3603 69.4569 37.4967 69.9595 37.5013L93.5309 37.6078C94.035 37.6111 94.5311 37.4814 94.969 37.2317C95.407 36.982 95.7713 36.6212 96.0253 36.1857C96.2792 35.7502 96.4138 35.2554 96.4154 34.7513C96.4171 34.2471 96.2857 33.7515 96.0345 33.3144L84.3154 12.8485C84.0718 12.4168 83.7194 12.0563 83.2932 11.8031C82.8671 11.5498 82.382 11.4126 81.8863 11.4049Z" fill="white"/>
<path id="Vector_34" d="M80.1152 32.1796C80.1156 31.9742 80.1579 31.771 80.2396 31.5826C80.3213 31.3942 80.4406 31.2244 80.5902 31.0837C80.7399 30.9431 80.9167 30.8345 81.1098 30.7646C81.3029 30.6947 81.5083 30.665 81.7133 30.6774C82.1145 30.6774 82.4993 30.8368 82.783 31.1205C83.0668 31.4042 83.2261 31.789 83.2261 32.1902C83.2261 32.5914 83.0668 32.9762 82.783 33.2599C82.4993 33.5437 82.1145 33.703 81.7133 33.703C81.507 33.7132 81.3009 33.6812 81.1074 33.6092C80.9138 33.5372 80.737 33.4266 80.5875 33.2841C80.438 33.1416 80.3191 32.9702 80.2379 32.7803C80.1567 32.5904 80.115 32.3861 80.1152 32.1796ZM80.2537 19.9277H83.1462L82.6508 29.0633H80.7172L80.2537 19.9277Z" fill="white"/>
<path id="Vector_35" d="M103.331 23.0221H100.225L99.6444 24.4497H97.5137L100.758 17.0986H102.809L106.063 24.4497H103.901L103.331 23.0221ZM102.723 21.488L101.781 19.1335L100.832 21.488H102.723Z" fill="white"/>
<path id="Vector_36" d="M107.859 18.7617H105.605V17.1104H112.189V18.7617H109.942V24.4614H107.859V18.7617Z" fill="white"/>
<path id="Vector_37" d="M114.632 18.7617H112.373V17.1104H118.957V18.7617H116.709V24.4614H114.632V18.7617Z" fill="white"/>
<path id="Vector_38" d="M125.64 22.8527V24.4508H119.738V17.1104H125.507V18.7084H121.778V19.9496H125.044V21.505H121.778V22.8474L125.64 22.8527Z" fill="white"/>
<path id="Vector_39" d="M133.792 17.1104V24.4614H132.082L128.838 20.5409V24.4614H126.803V17.1104H128.513L131.757 21.0256V17.1104H133.792Z" fill="white"/>
<path id="Vector_40" d="M136.833 18.7617H134.574V17.1104H141.158V18.7617H138.91V24.4614H136.833V18.7617Z" fill="white"/>
<path id="Vector_41" d="M141.932 17.1104H144.009V24.4614H141.932V17.1104Z" fill="white"/>
<path id="Vector_42" d="M145.115 20.7856C145.115 18.5803 146.852 16.9609 149.201 16.9609C151.55 16.9609 153.287 18.559 153.287 20.7856C153.287 23.0123 151.555 24.621 149.201 24.621C146.846 24.621 145.115 22.991 145.115 20.7856ZM151.188 20.7856C151.166 20.3982 151.031 20.0256 150.8 19.7139C150.569 19.4022 150.251 19.165 149.887 19.0316C149.523 18.8982 149.127 18.8745 148.749 18.9633C148.371 19.0522 148.028 19.2497 147.761 19.5315C147.494 19.8133 147.316 20.1671 147.248 20.5492C147.18 20.9312 147.225 21.3249 147.378 21.6815C147.531 22.0381 147.786 22.342 148.11 22.5558C148.433 22.7696 148.813 22.8838 149.201 22.8844C149.472 22.8872 149.741 22.8339 149.991 22.728C150.241 22.622 150.466 22.4656 150.652 22.2686C150.839 22.0716 150.983 21.8382 151.075 21.583C151.167 21.3278 151.205 21.0564 151.188 20.7856Z" fill="white"/>
<path id="Vector_43" d="M161.373 17.1104V24.4614H159.657L156.413 20.5409V24.4614H154.373V17.1104H156.088L159.332 21.0256V17.1104H161.373Z" fill="white"/>
<path id="Vector_44" d="M116.376 31.4126C116.376 32.6485 115.438 33.4209 113.952 33.4209H113.004V34.8431H111.459V29.415H113.952C115.443 29.415 116.376 30.1661 116.376 31.4126ZM114.815 31.4126C114.815 30.8799 114.495 30.6083 113.856 30.6083H113.004V32.2063H113.845C114.495 32.2063 114.815 31.908 114.815 31.4126Z" fill="white"/>
<path id="Vector_45" d="M117.123 29.415H118.641V33.6446H121.246V34.8644H117.102L117.123 29.415Z" fill="white"/>
<path id="Vector_46" d="M126.246 33.6765V34.8644H121.873V29.415H126.135V30.587H123.386V31.5032H125.81V32.6591H123.386V33.6765H126.246Z" fill="white"/>
<path id="Vector_47" d="M130.753 33.7884H128.452L128.021 34.8538H126.449L128.857 29.415H130.359L132.772 34.8644H131.174L130.753 33.7884ZM130.306 32.6485L129.603 30.9066L128.905 32.6485H130.306Z" fill="white"/>
<path id="Vector_48" d="M132.842 34.3531L133.348 33.2185C133.887 33.559 134.51 33.7434 135.148 33.7512C135.788 33.7512 136.038 33.5701 136.038 33.3037C136.038 32.4408 132.938 33.0747 132.938 31.0504C132.938 30.0756 133.731 29.2819 135.351 29.2819C136.039 29.2693 136.719 29.4325 137.327 29.756L136.853 30.9013C136.391 30.6374 135.872 30.4928 135.34 30.4805C134.696 30.4805 134.461 30.6989 134.461 30.9705C134.461 31.8015 137.556 31.1783 137.556 33.1919C137.556 34.14 136.762 34.9497 135.138 34.9497C134.331 34.9722 133.535 34.7653 132.842 34.3531Z" fill="white"/>
<path id="Vector_49" d="M142.639 33.6765V34.8644H138.266V29.415H142.527V30.587H139.789V31.5032H142.213V32.6591H139.789V33.6765H142.639Z" fill="white"/>
<path id="Vector_50" d="M143.24 34.0972C143.258 33.8752 143.358 33.6679 143.521 33.5167C143.685 33.3655 143.899 33.2815 144.122 33.2815C144.344 33.2815 144.559 33.3655 144.722 33.5167C144.886 33.6679 144.986 33.8752 145.003 34.0972C144.986 34.3192 144.886 34.5265 144.722 34.6777C144.559 34.8289 144.344 34.9129 144.122 34.9129C143.899 34.9129 143.685 34.8289 143.521 34.6777C143.358 34.5265 143.258 34.3192 143.24 34.0972ZM143.24 29.3936H144.998L144.705 32.8614H143.528L143.24 29.3936Z" fill="white"/>
<path id="Vector_51" d="M60.8006 4.85829C60.8006 5.27971 60.6756 5.69167 60.4415 6.04207C60.2073 6.39247 59.8746 6.66558 59.4852 6.82685C59.0959 6.98812 58.6674 7.03032 58.2541 6.9481C57.8408 6.86588 57.4611 6.66295 57.1631 6.36496C56.8652 6.06697 56.6622 5.6873 56.58 5.27398C56.4978 4.86065 56.54 4.43223 56.7013 4.04289C56.8625 3.65354 57.1356 3.32077 57.486 3.08664C57.8364 2.85251 58.2484 2.72754 58.6698 2.72754C59.2349 2.72754 59.7769 2.95203 60.1765 3.35162C60.5761 3.75121 60.8006 4.29318 60.8006 4.85829Z" fill="#E0E0E0"/>
<path id="Vector_52" d="M60.7983 4.85766C60.7983 4.85766 60.7983 4.67122 60.6757 4.35693C60.5442 3.91556 60.2732 3.52869 59.9033 3.25427C59.6325 3.05722 59.3171 2.93027 58.9853 2.88472C58.6535 2.83918 58.3156 2.87646 58.0016 2.99325C57.6226 3.13602 57.296 3.39094 57.0655 3.72404C56.835 4.05714 56.7116 4.45259 56.7116 4.85766C56.7116 5.26273 56.835 5.65817 57.0655 5.99127C57.296 6.32437 57.6226 6.5793 58.0016 6.72207C58.316 6.8381 58.6542 6.87451 58.986 6.82803C59.3178 6.78156 59.633 6.65365 59.9033 6.45572C60.2723 6.18268 60.5432 5.79781 60.6757 5.35838C60.7716 5.03877 60.7716 4.8257 60.7983 4.8257C60.8399 5.00081 60.8399 5.18327 60.7983 5.35838C60.7029 5.85376 60.4349 6.29924 60.0418 6.61553C59.7469 6.85238 59.3958 7.00916 59.0226 7.07075C58.6493 7.13233 58.2665 7.09664 57.9111 6.9671C57.4833 6.80893 57.1142 6.52349 56.8535 6.1492C56.5929 5.77491 56.4531 5.32975 56.4531 4.87364C56.4531 4.41753 56.5929 3.97236 56.8535 3.59807C57.1142 3.22379 57.4833 2.93834 57.9111 2.78017C58.2661 2.64991 58.6486 2.61334 59.0219 2.67399C59.3951 2.73464 59.7464 2.89046 60.0418 3.12642C60.4336 3.43331 60.7036 3.86942 60.8036 4.35693C60.8397 4.5221 60.8378 4.6933 60.7983 4.85766Z" fill="#263238"/>
<path id="Vector_53" d="M59.8262 3.81409C59.3514 4.04209 58.9015 4.3188 58.4839 4.63976C58.1262 5.02638 57.8102 5.44953 57.541 5.90223C57.5502 5.61717 57.6229 5.33776 57.7538 5.08434C57.8846 4.83093 58.0704 4.60989 58.2974 4.43734C58.4909 4.22764 58.7282 4.0631 58.9924 3.95539C59.2566 3.84768 59.5413 3.79944 59.8262 3.81409Z" fill="#263238"/>
<path id="Vector_54" d="M59.3732 5.79569C59.2932 5.82233 59.0642 5.26301 58.5262 4.73032C57.9882 4.19763 57.4129 4.02717 57.4342 3.94727C57.9146 3.99258 58.3662 4.1969 58.7174 4.52785C59.0686 4.8588 59.2994 5.29748 59.3732 5.77439V5.79569Z" fill="#263238"/>
<path id="Vector_55" d="M62.1775 43.8397C62.1775 44.2612 62.0526 44.6731 61.8184 45.0235C61.5843 45.3739 61.2515 45.647 60.8622 45.8083C60.4728 45.9696 60.0444 46.0118 59.6311 45.9295C59.2178 45.8473 58.8381 45.6444 58.5401 45.3464C58.2421 45.0484 58.0392 44.6687 57.957 44.2554C57.8747 43.8421 57.9169 43.4137 58.0782 43.0243C58.2395 42.635 58.5126 42.3022 58.863 42.0681C59.2134 41.8339 59.6253 41.709 60.0468 41.709C60.6119 41.709 61.1538 41.9335 61.5534 42.3331C61.953 42.7327 62.1775 43.2746 62.1775 43.8397Z" fill="#E0E0E0"/>
<path id="Vector_56" d="M62.1733 43.8397C62.1467 43.8397 62.1467 43.6479 62.0508 43.307C61.9183 42.8676 61.6474 42.4827 61.2784 42.2097C60.9817 41.9871 60.6288 41.8515 60.2593 41.8182C59.8898 41.7849 59.5183 41.8551 59.1865 42.021C58.8547 42.1869 58.5757 42.442 58.3806 42.7575C58.1856 43.0731 58.0823 43.4368 58.0823 43.8077C58.0823 44.1787 58.1856 44.5423 58.3806 44.8579C58.5757 45.1735 58.8547 45.4285 59.1865 45.5944C59.5183 45.7603 59.8898 45.8305 60.2593 45.7972C60.6288 45.7639 60.9817 45.6284 61.2784 45.4058C61.6483 45.1314 61.9193 44.7445 62.0508 44.3031C62.1467 43.9888 62.1467 43.7704 62.1733 43.8024C62.2165 43.9773 62.2165 44.1601 62.1733 44.3351C62.0708 44.8216 61.8013 45.2569 61.4116 45.5656C61.1183 45.7956 60.7717 45.9479 60.4039 46.0085C60.0361 46.069 59.659 46.0357 59.3075 45.9118C58.8706 45.759 58.4921 45.4742 58.2242 45.0967C57.9564 44.7193 57.8125 44.2679 57.8125 43.8051C57.8125 43.3422 57.9564 42.8909 58.2242 42.5134C58.4921 42.136 58.8706 41.8511 59.3075 41.6983C59.659 41.5744 60.0361 41.5412 60.4039 41.6017C60.7717 41.6622 61.1183 41.8145 61.4116 42.0445C61.8013 42.3533 62.0708 42.7886 62.1733 43.275C62.2202 43.4603 62.2202 43.6544 62.1733 43.8397Z" fill="#263238"/>
<path id="Vector_57" d="M61.1954 42.7959C60.7192 43.0215 60.2691 43.2983 59.853 43.6216C59.4948 44.0058 59.1787 44.4272 58.9102 44.8787C58.9788 44.3155 59.2471 43.7956 59.6664 43.4134C60.0858 43.0312 60.6283 42.8121 61.1954 42.7959Z" fill="#263238"/>
<path id="Vector_58" d="M60.7403 44.7782C60.6604 44.7782 60.4314 44.2455 59.8934 43.7128C59.3554 43.1801 58.78 43.0043 58.8014 42.9297C59.0446 42.928 59.2853 42.979 59.5069 43.0793C59.7285 43.1795 59.9258 43.3266 60.0851 43.5104C60.2792 43.662 60.4382 43.8538 60.5513 44.0726C60.6644 44.2915 60.7289 44.5321 60.7403 44.7782Z" fill="#263238"/>
<path id="Vector_59" d="M172.908 4.91102C172.908 5.33245 172.783 5.74441 172.549 6.09481C172.315 6.44521 171.982 6.71831 171.593 6.87958C171.203 7.04085 170.775 7.08305 170.362 7.00083C169.948 6.91862 169.569 6.71568 169.271 6.41769C168.973 6.1197 168.77 5.74004 168.687 5.32671C168.605 4.91339 168.647 4.48496 168.809 4.09562C168.97 3.70628 169.243 3.3735 169.593 3.13937C169.944 2.90524 170.356 2.78027 170.777 2.78027C171.342 2.78027 171.884 3.00476 172.284 3.40436C172.684 3.80395 172.908 4.34591 172.908 4.91102Z" fill="#E0E0E0"/>
<path id="Vector_60" d="M172.91 4.91098C172.91 4.91098 172.883 4.71921 172.792 4.37829C172.661 3.9371 172.387 3.55151 172.015 3.28095C171.718 3.06038 171.367 2.92653 170.999 2.89434C170.631 2.86216 170.261 2.9329 169.931 3.09869C169.601 3.26447 169.323 3.51875 169.129 3.83314C168.936 4.14753 168.833 4.50964 168.833 4.87902C168.833 5.2484 168.936 5.6105 169.129 5.92489C169.323 6.23928 169.601 6.49357 169.931 6.65935C170.261 6.82513 170.631 6.89588 170.999 6.86369C171.367 6.83151 171.718 6.69765 172.015 6.47708C172.387 6.20348 172.66 5.81652 172.792 5.37442C172.883 5.06013 172.888 4.87369 172.91 4.87369C172.958 5.04792 172.958 5.23214 172.91 5.40638C172.81 5.89389 172.54 6.33 172.148 6.63689C171.855 6.86825 171.509 7.02141 171.141 7.08198C170.773 7.14255 170.395 7.10854 170.044 6.98313C169.607 6.83031 169.228 6.54546 168.961 6.16801C168.693 5.79056 168.549 5.33918 168.549 4.87635C168.549 4.41353 168.693 3.96215 168.961 3.5847C169.228 3.20724 169.607 2.92239 170.044 2.76957C170.395 2.64567 170.772 2.61244 171.14 2.67296C171.508 2.73348 171.855 2.8858 172.148 3.11582C172.54 3.43431 172.806 3.88174 172.899 4.37829C172.95 4.55175 172.954 4.73562 172.91 4.91098Z" fill="#263238"/>
<path id="Vector_61" d="M171.941 3.8457C171.465 4.06995 171.014 4.3469 170.599 4.67137C170.24 5.05507 169.924 5.47659 169.656 5.92851C169.725 5.36532 169.993 4.84541 170.413 4.46323C170.832 4.08105 171.374 3.86194 171.941 3.8457Z" fill="#263238"/>
<path id="Vector_62" d="M171.481 5.82206C171.407 5.82206 171.177 5.28937 170.639 4.75668C170.101 4.22399 169.526 4.05354 169.547 3.97363C170.029 4.01365 170.483 4.21632 170.834 4.54834C171.186 4.88037 171.414 5.32201 171.481 5.80075V5.82206Z" fill="#263238"/>
<path id="Vector_63" d="M172.908 43.8397C172.908 44.2612 172.783 44.6731 172.549 45.0235C172.315 45.3739 171.982 45.647 171.593 45.8083C171.203 45.9696 170.775 46.0118 170.362 45.9295C169.948 45.8473 169.569 45.6444 169.271 45.3464C168.973 45.0484 168.77 44.6687 168.687 44.2554C168.605 43.8421 168.647 43.4137 168.809 43.0243C168.97 42.635 169.243 42.3022 169.593 42.0681C169.944 41.8339 170.356 41.709 170.777 41.709C171.342 41.709 171.884 41.9335 172.284 42.3331C172.684 42.7327 172.908 43.2746 172.908 43.8397Z" fill="#E0E0E0"/>
<path id="Vector_64" d="M172.91 43.8397C172.91 43.8397 172.883 43.6479 172.792 43.307C172.661 42.8658 172.387 42.4802 172.015 42.2097C171.718 41.9891 171.367 41.8552 170.999 41.8231C170.631 41.7909 170.261 41.8616 169.931 42.0274C169.601 42.1932 169.323 42.4475 169.129 42.7619C168.936 43.0762 168.833 43.4383 168.833 43.8077C168.833 44.1771 168.936 44.5392 169.129 44.8536C169.323 45.168 169.601 45.4223 169.931 45.5881C170.261 45.7538 170.631 45.8246 170.999 45.7924C171.367 45.7602 171.718 45.6264 172.015 45.4058C172.387 45.1322 172.66 44.7452 172.792 44.3031C172.883 43.9888 172.888 43.7704 172.91 43.8024C172.959 43.9766 172.959 44.1609 172.91 44.3351C172.807 44.8216 172.538 45.2569 172.148 45.5656C171.855 45.7956 171.508 45.9479 171.14 46.0085C170.772 46.069 170.395 46.0357 170.044 45.9118C169.607 45.759 169.228 45.4742 168.961 45.0967C168.693 44.7193 168.549 44.2679 168.549 43.8051C168.549 43.3422 168.693 42.8909 168.961 42.5134C169.228 42.136 169.607 41.8511 170.044 41.6983C170.395 41.5744 170.772 41.5412 171.14 41.6017C171.508 41.6622 171.855 41.8145 172.148 42.0445C172.538 42.3533 172.807 42.7886 172.91 43.275C172.963 43.4595 172.963 43.6552 172.91 43.8397Z" fill="#263238"/>
<path id="Vector_65" d="M171.941 42.7959C171.465 43.0201 171.014 43.2971 170.599 43.6216C170.239 44.0041 169.923 44.4258 169.656 44.8787C169.725 44.3155 169.993 43.7956 170.413 43.4134C170.832 43.0312 171.374 42.8121 171.941 42.7959Z" fill="#263238"/>
<path id="Vector_66" d="M171.481 44.7781C171.407 44.7781 171.177 44.2454 170.639 43.7127C170.101 43.18 169.526 43.0043 169.547 42.9297C170.029 42.9697 170.483 43.1724 170.834 43.5044C171.186 43.8364 171.414 44.2781 171.481 44.7568V44.7781Z" fill="#263238"/>
<path id="Vector_67" d="M20.3652 213.379L23.4282 233.499H41.2146L45.343 213.667L20.3652 213.379Z" fill="#EEAD1F"/>
<path id="Vector_68" d="M42.8574 226.27C42.8574 226.328 38.2976 226.371 32.6777 226.371C27.0579 226.371 22.498 226.328 22.498 226.27C22.498 226.211 27.0579 226.163 32.6777 226.163C38.2976 226.163 42.8574 226.211 42.8574 226.27Z" fill="#FAFAFA"/>
<path id="Vector_69" d="M42.9236 225.279C42.9236 225.338 38.3372 225.385 32.6747 225.385C27.0122 225.385 22.4258 225.338 22.4258 225.279C22.4258 225.22 27.0176 225.178 32.6747 225.178C38.3318 225.178 42.9236 225.22 42.9236 225.279Z" fill="#FAFAFA"/>
<path id="Vector_70" d="M42.887 224.16C42.887 224.218 38.3006 224.266 32.6434 224.266C26.9863 224.266 22.3945 224.218 22.3945 224.16C22.3945 224.101 26.981 224.059 32.6434 224.059C38.3059 224.059 42.887 224.107 42.887 224.16Z" fill="#FAFAFA"/>
<path id="Vector_71" d="M25.4674 232.369C25.2249 231.539 25.0468 230.691 24.9347 229.833C24.7543 228.987 24.6404 228.129 24.5938 227.266C24.8404 228.093 25.0186 228.939 25.1264 229.796C25.3115 230.643 25.4256 231.503 25.4674 232.369Z" fill="#FAFAFA"/>
<path id="Vector_72" d="M26.6829 232.135C26.557 231.316 26.4822 230.491 26.4592 229.663C26.3691 228.839 26.3299 228.01 26.342 227.181C26.5382 227.989 26.6471 228.816 26.6669 229.647C26.7566 230.474 26.762 231.307 26.6829 232.135Z" fill="#FAFAFA"/>
<path id="Vector_73" d="M28.8849 232.13C28.6411 231.305 28.4857 230.457 28.4215 229.599C28.2866 228.749 28.2402 227.886 28.283 227.026C28.4457 227.868 28.5613 228.718 28.6292 229.573C28.7611 230.42 28.8465 231.273 28.8849 232.13Z" fill="#FAFAFA"/>
<path id="Vector_74" d="M30.4316 232.236C30.2622 231.389 30.1801 230.526 30.1866 229.663C30.122 228.801 30.1488 227.935 30.2665 227.079C30.3578 227.935 30.4005 228.796 30.3943 229.657C30.4586 230.515 30.471 231.376 30.4316 232.236Z" fill="#FAFAFA"/>
<path id="Vector_75" d="M33.1755 232.135C32.9821 230.51 32.9269 228.873 33.0104 227.239C33.1389 228.055 33.2012 228.88 33.1968 229.706C33.2564 230.515 33.2493 231.327 33.1755 232.135Z" fill="#FAFAFA"/>
<path id="Vector_76" d="M35.1729 232.241C35.0816 231.401 35.0549 230.555 35.093 229.71C35.064 228.867 35.105 228.022 35.2155 227.186C35.314 228.023 35.3425 228.868 35.3008 229.71C35.3293 230.556 35.2866 231.402 35.1729 232.241Z" fill="#FAFAFA"/>
<path id="Vector_77" d="M37.0547 231.969C37.0898 230.203 37.268 228.443 37.5874 226.706C37.6046 227.597 37.5529 228.487 37.4329 229.369C37.3763 230.245 37.2498 231.114 37.0547 231.969Z" fill="#FAFAFA"/>
<path id="Vector_78" d="M39.4707 231.709C39.4761 230.95 39.5763 230.195 39.769 229.461C39.9002 228.714 40.1221 227.986 40.4295 227.293C40.3216 228.038 40.1704 228.776 39.9768 229.504C39.8494 230.248 39.6804 230.984 39.4707 231.709Z" fill="#FAFAFA"/>
<path id="Vector_79" d="M18.3242 209.389V213.155C18.3235 213.349 18.3613 213.542 18.4355 213.722C18.5097 213.902 18.6187 214.066 18.7564 214.203C18.894 214.341 19.0576 214.45 19.2376 214.524C19.4175 214.599 19.6104 214.636 19.8051 214.636H45.5659C45.9586 214.636 46.3353 214.48 46.613 214.202C46.8907 213.924 47.0468 213.548 47.0468 213.155V209.389H18.3242Z" fill="#EEAD1F"/>
<g id="Group" opacity="0.4">
<path id="Vector_80" d="M20.5566 214.642L20.7697 215.84L44.5382 217.534L45.1402 214.642H20.5566Z" fill="#121212"/>
</g>
<path id="Vector_81" d="M27.6669 209.379C23.8794 207.184 21.8552 202.081 21.7061 197.905C21.5569 193.728 23.3041 189.382 26.7187 186.968C30.3303 184.449 35.4707 184.491 39.1782 186.867C41.0104 188.101 42.4968 189.783 43.4962 191.753C44.4956 193.723 44.9749 195.916 44.8887 198.123C44.7638 200.328 44.151 202.477 43.0944 204.416C42.0378 206.356 40.5637 208.036 38.7787 209.336" fill="#455A64"/>
<path id="Vector_82" d="M33.7104 209.784C33.6552 209.467 33.632 209.146 33.6411 208.825C33.6411 208.143 33.5932 207.269 33.5665 206.22C33.5079 204.02 33.4227 200.984 33.2736 197.628C33.1244 194.272 32.9486 191.235 32.8101 189.046C32.7462 187.981 32.6929 187.123 32.6556 186.441C32.6278 186.122 32.6278 185.801 32.6556 185.482C32.7397 185.792 32.7915 186.11 32.8101 186.431C32.8847 187.043 32.9753 187.927 33.0765 189.025C33.2789 191.219 33.4973 194.256 33.6464 197.617C33.7956 200.978 33.8382 204.009 33.8329 206.22C33.8329 207.317 33.8329 208.212 33.7956 208.825C33.7962 209.146 33.7677 209.467 33.7104 209.784Z" fill="white"/>
<path id="Vector_83" d="M22.825 196.956C22.825 197.052 22.2125 197.084 21.4773 197.025C20.7422 196.966 20.151 196.833 20.1563 196.737C20.1616 196.641 20.7689 196.609 21.504 196.668C22.2391 196.727 22.8357 196.86 22.825 196.956Z" fill="#263238"/>
<path id="Vector_84" d="M23.0326 193.206C22.99 193.297 22.4999 193.153 21.8713 192.886C21.2428 192.62 20.806 192.327 20.8486 192.242C20.8912 192.157 21.3813 192.295 22.0152 192.561C22.6491 192.828 23.0699 193.121 23.0326 193.206Z" fill="#263238"/>
<path id="Vector_85" d="M24.9631 190.426C24.9098 190.505 24.3292 190.228 23.7166 189.728C23.104 189.227 22.7258 188.7 22.8004 188.636C22.8749 188.572 23.333 188.966 23.9456 189.451C24.5582 189.935 25.0163 190.34 24.9631 190.426Z" fill="#263238"/>
<path id="Vector_86" d="M26.9019 187.799C26.8114 187.842 26.5344 187.4 26.2787 186.819C26.023 186.239 25.8845 185.754 25.9751 185.701C26.0656 185.647 26.3426 186.1 26.5983 186.675C26.854 187.251 27.0191 187.762 26.9019 187.799Z" fill="#263238"/>
<path id="Vector_87" d="M29.9415 185.94C29.8563 185.977 29.5527 185.514 29.3556 184.875C29.1585 184.235 29.1372 183.671 29.2331 183.655C29.329 183.639 29.4994 184.15 29.6912 184.768C29.883 185.386 30.0321 185.897 29.9415 185.94Z" fill="#263238"/>
<path id="Vector_88" d="M35.0069 183.836C35.0975 183.868 35.0389 184.267 34.8791 184.726C34.7193 185.184 34.5115 185.53 34.421 185.498C34.3304 185.466 34.3837 185.067 34.5435 184.608C34.7033 184.15 34.927 183.804 35.0069 183.836Z" fill="#263238"/>
<path id="Vector_89" d="M38.7884 185.455C38.8523 185.524 38.6126 185.86 38.2557 186.195C37.8988 186.531 37.5419 186.728 37.4727 186.675C37.4034 186.622 37.6485 186.27 38.0054 185.934C38.3623 185.599 38.7351 185.38 38.7884 185.455Z" fill="#263238"/>
<path id="Vector_90" d="M42.1031 187.624C42.1617 187.703 41.8634 187.996 41.4479 188.284C41.0324 188.572 40.6435 188.732 40.5902 188.646C40.537 188.561 40.8299 188.273 41.2508 187.991C41.6716 187.709 42.0498 187.517 42.1031 187.624Z" fill="#263238"/>
<path id="Vector_91" d="M44.4588 190.788C44.5015 190.878 44.0327 191.16 43.4254 191.421C42.8182 191.682 42.2855 191.821 42.2482 191.73C42.2109 191.64 42.6743 191.357 43.3136 191.096C43.9528 190.835 44.4216 190.697 44.4588 190.788Z" fill="#263238"/>
<path id="Vector_92" d="M45.3849 194.271C45.3849 194.367 44.9268 194.505 44.3195 194.58C43.7122 194.655 43.2541 194.633 43.2222 194.537C43.1902 194.442 43.6856 194.303 44.2875 194.228C44.8895 194.154 45.3742 194.175 45.3849 194.271Z" fill="#263238"/>
<path id="Vector_93" d="M45.8695 198.56C45.8322 198.645 45.3368 198.517 44.7455 198.261C44.1542 198.006 43.7228 197.729 43.7601 197.644C43.7973 197.558 44.2927 197.686 44.8894 197.937C45.486 198.187 45.9068 198.469 45.8695 198.56Z" fill="#263238"/>
<path id="Vector_94" d="M45.4427 202.235C45.4108 202.326 44.7769 202.171 44.111 201.734C43.4452 201.298 43.0457 200.781 43.1202 200.717C43.1948 200.653 43.6529 201.031 44.3081 201.442C44.9633 201.852 45.48 202.139 45.4427 202.235Z" fill="#263238"/>
<path id="Vector_95" d="M43.5313 205.585C43.4727 205.66 42.9666 205.362 42.4659 204.84C41.9652 204.318 41.7201 203.774 41.8 203.732C41.8799 203.689 42.2581 204.094 42.7269 204.595C43.1957 205.095 43.5899 205.505 43.5313 205.585Z" fill="#263238"/>
<path id="Vector_96" d="M25.3467 205.98C25.3893 206.065 24.8566 206.433 24.1588 206.795C23.4609 207.157 22.8537 207.386 22.8057 207.301C22.7578 207.216 23.2905 206.848 23.9936 206.481C24.6968 206.113 25.2987 205.89 25.3467 205.98Z" fill="#263238"/>
<path id="Vector_97" d="M23.6854 202.949C23.728 203.039 23.3018 203.316 22.7319 203.577C22.1619 203.838 21.6665 203.966 21.6345 203.881C21.6026 203.796 22.0181 203.508 22.5881 203.252C23.158 202.997 23.6428 202.858 23.6854 202.949Z" fill="#263238"/>
<path id="Vector_98" d="M22.4638 200.264C22.4638 200.366 21.9312 200.52 21.2919 200.611C20.6527 200.701 20.0827 200.701 20.0667 200.611C20.0508 200.52 20.5994 200.36 21.2387 200.264C21.8779 200.168 22.4479 200.168 22.4638 200.264Z" fill="#263238"/>
<path id="Vector_99" d="M26.485 198.81C26.485 198.9 26.0003 199.14 25.3184 199.215C24.6366 199.289 24.0826 199.172 24.0879 199.081C24.0933 198.991 24.6206 198.938 25.2758 198.863C25.931 198.788 26.4371 198.693 26.485 198.81Z" fill="#263238"/>
<path id="Vector_100" d="M29.792 195.475C29.8239 195.566 29.4138 195.773 28.8651 195.827C28.3164 195.88 27.8743 195.757 27.885 195.667C27.8956 195.576 28.3218 195.528 28.8278 195.475C29.3339 195.422 29.7653 195.379 29.792 195.475Z" fill="#263238"/>
<path id="Vector_101" d="M30.4332 192.823C30.4012 192.919 29.9591 192.849 29.4477 192.674C28.9363 192.498 28.5421 192.274 28.5741 192.184C28.606 192.093 29.0482 192.184 29.5596 192.338C30.0709 192.492 30.4651 192.732 30.4332 192.823Z" fill="#263238"/>
<path id="Vector_102" d="M31.6523 190.143C31.583 190.213 31.2794 190.01 31.061 189.611C30.8426 189.211 30.8266 188.87 30.9172 188.844C31.0077 188.817 31.1782 189.099 31.3699 189.43C31.5617 189.76 31.7215 190.074 31.6523 190.143Z" fill="#263238"/>
<path id="Vector_103" d="M30.1817 201.122C30.1817 201.218 29.8195 201.393 29.3241 201.516C29.0907 201.577 28.8514 201.613 28.6103 201.623L28.541 201.415C28.6689 201.388 28.7488 201.415 28.7647 201.415C28.7807 201.415 28.7328 201.521 28.6262 201.596L28.557 201.393C28.7759 201.287 29.0066 201.207 29.2442 201.154C29.7342 201.047 30.1551 201.026 30.1817 201.122Z" fill="#263238"/>
<path id="Vector_104" d="M30.8654 205.825C30.9026 205.916 30.4179 206.193 29.8 206.443C29.1821 206.693 28.6174 206.821 28.5801 206.731C28.5428 206.64 29.0329 206.363 29.6455 206.113C30.2581 205.862 30.8334 205.734 30.8654 205.825Z" fill="#263238"/>
<path id="Vector_105" d="M27.1073 203.737C27.1393 203.827 26.8144 204.024 26.3776 204.168C25.9407 204.312 25.5732 204.36 25.5412 204.269C25.5093 204.179 25.8342 203.982 26.2657 203.833C26.6972 203.683 27.0754 203.641 27.1073 203.737Z" fill="#263238"/>
<path id="Vector_106" d="M27.3962 194.165C27.3962 194.26 26.805 194.202 26.1551 193.973C25.5052 193.744 25.0258 193.44 25.0897 193.339C25.1536 193.238 25.6597 193.413 26.2989 193.637C26.9381 193.861 27.4175 194.069 27.3962 194.165Z" fill="#263238"/>
<path id="Vector_107" d="M36.4904 193.126C36.5437 193.206 36.2241 193.51 35.7819 193.808C35.3398 194.107 34.9243 194.277 34.871 194.192C34.8178 194.107 35.1374 193.808 35.5848 193.51C36.0323 193.212 36.4371 193.041 36.4904 193.126Z" fill="#263238"/>
<path id="Vector_108" d="M36.9846 197.845C36.9846 197.941 36.6703 198.09 36.2389 198.181C35.8074 198.272 35.4345 198.266 35.4185 198.181C35.4025 198.096 35.7328 197.936 36.1643 197.845C36.5958 197.755 36.9633 197.744 36.9846 197.845Z" fill="#263238"/>
<path id="Vector_109" d="M37.5596 203.156C37.517 203.247 37.0269 203.108 36.4942 202.853C35.9615 202.597 35.5247 202.32 35.5673 202.23C35.6099 202.139 36.1 202.272 36.6327 202.533C37.1654 202.794 37.6022 203.071 37.5596 203.156Z" fill="#263238"/>
<path id="Vector_110" d="M36.3393 208.323C36.2647 208.387 35.9504 208.131 35.6415 207.753C35.3325 207.375 35.1407 207.018 35.2153 206.954C35.2899 206.89 35.6042 207.151 35.9185 207.529C36.2327 207.907 36.4192 208.264 36.3393 208.323Z" fill="#263238"/>
<path id="Vector_111" d="M36.0719 189.648C36.1305 189.722 35.9227 189.983 35.5711 190.181C35.2196 190.378 34.884 190.367 34.8573 190.271C34.8307 190.175 35.0917 190.021 35.39 189.861C35.6883 189.701 36.0293 189.568 36.0719 189.648Z" fill="#263238"/>
<path id="Vector_112" d="M40.5489 194.41C40.5862 194.5 40.1707 194.729 39.606 194.804C39.0414 194.878 38.5833 194.777 38.5939 194.681C38.6046 194.585 39.0307 194.527 39.5581 194.452C40.0855 194.378 40.5169 194.314 40.5489 194.41Z" fill="#263238"/>
<path id="Vector_113" d="M39.6642 190.138C39.7068 190.223 39.2967 190.516 38.716 190.67C38.1354 190.825 37.6507 190.857 37.6134 190.766C37.5761 190.676 38.0555 190.51 38.6095 190.335C39.1635 190.159 39.6163 190.047 39.6642 190.138Z" fill="#263238"/>
<path id="Vector_114" d="M41.5222 201.031C41.5222 201.127 40.8191 201.191 39.9774 201.031C39.1358 200.871 38.4965 200.573 38.5285 200.499C38.5605 200.424 39.2263 200.552 40.0413 200.696C40.8563 200.839 41.5275 200.941 41.5222 201.031Z" fill="#263238"/>
<path id="Vector_115" d="M39.8666 207.242C39.808 207.316 39.2913 207.013 38.8012 206.496C38.3111 205.979 37.9808 205.463 38.0607 205.404C38.1406 205.346 38.5508 205.745 39.0515 206.246C39.5523 206.747 39.9305 207.162 39.8666 207.242Z" fill="#263238"/>
<path id="Vector_116" d="M32.5835 185.083C31.4497 185.771 30.4049 186.596 29.4726 187.539C27.3087 189.911 25.9528 192.908 25.6 196.099C25.4405 197.851 25.5193 199.616 25.8343 201.346C26.0852 202.766 26.4142 204.171 26.8198 205.554C27.1607 206.742 27.4697 207.685 27.6828 208.345C27.8061 208.683 27.9058 209.028 27.9811 209.379C27.8063 209.067 27.6618 208.738 27.5496 208.399C27.2992 207.754 26.953 206.801 26.5801 205.634C26.1381 204.248 25.7823 202.835 25.5147 201.405C25.1758 199.65 25.0861 197.857 25.2484 196.078C25.6052 192.815 27.0282 189.761 29.2968 187.39C29.9839 186.682 30.7633 186.071 31.614 185.573C31.8433 185.438 32.0798 185.315 32.3225 185.206C32.4026 185.151 32.4907 185.11 32.5835 185.083Z" fill="white"/>
<path id="Vector_117" d="M37.4233 209.607C38.0257 208.368 38.5592 207.097 39.0213 205.799C40.0905 202.651 40.4169 199.298 39.9749 196.003C39.7327 194.198 39.2247 192.438 38.4674 190.782C37.8302 189.441 36.9569 188.224 35.8891 187.192C35.1395 186.526 34.2868 185.986 33.3642 185.594C32.709 185.322 32.2988 185.258 32.2988 185.226C32.3941 185.211 32.4912 185.211 32.5865 185.226C32.8684 185.293 33.1445 185.382 33.4121 185.493C34.3836 185.843 35.2853 186.362 36.0756 187.027C37.1982 188.057 38.1163 189.289 38.7816 190.66C39.5725 192.345 40.1007 194.141 40.3477 195.987C40.8043 199.332 40.4387 202.738 39.2824 205.911C39.0799 206.523 38.8243 207.051 38.6325 207.509C38.4407 207.967 38.2117 208.361 38.0412 208.675C37.8607 209.002 37.6541 209.314 37.4233 209.607Z" fill="white"/>
<path id="Vector_118" d="M44.5974 118.012C44.5974 118.012 30.6197 152.466 28.3664 161.261C25.8841 170.982 27.7005 178.759 40.0855 179.969C50.3664 180.975 83.9204 167.68 83.9204 167.68L79.8187 142.068L50.132 154.064L57.3233 120.798L44.5974 118.012Z" fill="#FFBE9D"/>
<path id="Vector_119" d="M60.6526 97.0662C59.8269 96.6028 57.7974 93.8434 57.7974 93.8434C57.7974 93.8434 56.3272 84.255 55.6667 82.2415C55.0061 80.2279 53.179 80.7659 52.7955 81.5064C52.4119 82.2468 53.5466 98.4458 53.5466 98.4458L47.5645 101.578L43.4308 103.991C42.8817 104.623 42.5022 105.383 42.3281 106.202C42.147 107.4 44.5388 119.279 44.5388 119.279L57.1688 121.506C60.4236 118.422 62.2613 113.59 63.1403 107.581V98.627C63.1403 98.627 61.4836 97.519 60.6526 97.0662Z" fill="#FFBE9D"/>
<path id="Vector_120" d="M50.2324 100.327C50.3498 100.302 50.4695 100.292 50.5893 100.295H51.6174H53.2155H53.7055C53.7977 100.288 53.8903 100.288 53.9825 100.295C54.0751 100.32 54.1644 100.356 54.2489 100.401C54.4234 100.504 54.5749 100.642 54.6941 100.806C54.8132 100.97 54.8974 101.157 54.9414 101.355C55.1385 102.953 55.3302 104.823 55.6072 106.911C55.7457 107.949 55.8896 109.041 56.108 110.16C56.152 110.433 56.2289 110.699 56.337 110.954C56.4438 111.19 56.6332 111.38 56.8697 111.487C57.1365 111.562 57.416 111.582 57.6908 111.545C57.9657 111.509 58.2301 111.416 58.4678 111.273C58.722 111.133 58.9522 110.954 59.1496 110.741C59.2805 110.504 59.3518 110.239 59.3574 109.968C59.3973 109.396 59.3973 108.821 59.3574 108.248C59.2988 107.113 59.1816 106.016 59.0431 104.977C58.9046 103.938 58.7501 102.948 58.5743 102.037C58.4962 101.598 58.3876 101.166 58.2494 100.742C58.1138 100.357 57.9351 99.9894 57.7167 99.6449C57.5159 99.3297 57.2934 99.0289 57.0508 98.7446C56.8566 98.4813 56.6076 98.2632 56.321 98.1054C56.0887 97.9853 55.8346 97.913 55.5738 97.8929C55.3131 97.8728 55.0509 97.9052 54.8029 97.9882L53.844 98.3398C53.7333 98.3891 53.6171 98.4249 53.4978 98.4463C53.6001 98.3816 53.709 98.328 53.8227 98.2865C54.0358 98.196 54.3554 98.0575 54.7656 97.887C55.0235 97.7916 55.2981 97.7495 55.5728 97.7633C55.8475 97.777 56.1165 97.8463 56.3637 97.9669C56.6742 98.125 56.9455 98.3507 57.1574 98.6274C57.4118 98.9137 57.645 99.2181 57.8552 99.5383C58.0897 99.8922 58.2844 100.271 58.4358 100.668C58.5855 101.098 58.7013 101.54 58.7821 101.989C58.9738 102.91 59.1336 103.896 59.2828 104.94C59.4319 105.984 59.5491 107.071 59.6131 108.232C59.6529 108.821 59.6529 109.411 59.6131 110C59.6039 110.327 59.5063 110.646 59.3307 110.922C59.1141 111.156 58.8581 111.351 58.5743 111.497C58.3001 111.662 57.9942 111.767 57.6766 111.806C57.359 111.844 57.0369 111.815 56.7312 111.721C56.4258 111.599 56.177 111.367 56.0334 111.071C55.9141 110.795 55.83 110.505 55.783 110.208C55.5646 109.073 55.4261 107.981 55.293 106.937C55.0319 104.855 54.8562 102.948 54.691 101.392C54.6561 101.218 54.5855 101.054 54.4838 100.909C54.382 100.764 54.2512 100.642 54.0997 100.55C53.9621 100.467 53.8026 100.426 53.6416 100.433H53.1569L51.5588 100.396L50.5307 100.369C50.4306 100.361 50.331 100.347 50.2324 100.327Z" fill="#EB996E"/>
<path id="Vector_121" d="M56.3812 111.235C56.4318 111.344 56.4573 111.462 56.4557 111.581C56.4895 111.921 56.4364 112.264 56.3013 112.578C56.2011 112.832 56.0446 113.06 55.8434 113.244C55.6422 113.429 55.4017 113.565 55.14 113.643C54.7936 113.724 54.4315 113.707 54.0945 113.593C53.7575 113.479 53.4591 113.273 53.233 112.998C52.9149 112.299 52.7341 111.545 52.7003 110.777C52.6364 109.967 52.6524 109.115 52.5724 108.257C52.4138 107.026 52.0348 105.834 51.4538 104.736C51.1981 104.204 50.9744 103.714 50.7134 103.288C50.5949 103.078 50.4519 102.883 50.2872 102.707C50.149 102.54 49.9632 102.419 49.7545 102.361C49.1094 102.137 48.4379 101.999 47.757 101.95C47.507 101.931 47.2558 101.931 47.0059 101.95C47.0059 101.881 48.1139 101.647 49.8238 102.169C49.9364 102.207 50.0451 102.255 50.1487 102.313C50.2565 102.379 50.355 102.46 50.4417 102.552C50.6174 102.738 50.7728 102.941 50.9051 103.16C51.1875 103.607 51.4378 104.103 51.6775 104.619C52.2851 105.739 52.6789 106.962 52.8388 108.226C52.924 109.11 52.9027 109.957 52.9666 110.75C52.9938 111.486 53.162 112.209 53.462 112.881C53.6593 113.126 53.9203 113.312 54.2164 113.418C54.5124 113.524 54.832 113.547 55.14 113.483C55.3731 113.416 55.589 113.3 55.7729 113.142C55.9567 112.983 56.1043 112.787 56.2054 112.567C56.3445 112.274 56.4172 111.954 56.4185 111.629C56.3954 111.499 56.3829 111.367 56.3812 111.235Z" fill="#EB996E"/>
<path id="Vector_122" d="M52.7289 112.222C52.7289 112.222 52.8567 112.429 52.6916 112.754C52.5994 112.951 52.4752 113.131 52.324 113.287C52.1276 113.513 51.8647 113.672 51.5729 113.74C51.2061 113.788 50.8348 113.694 50.5342 113.479C50.2018 113.237 49.9465 112.904 49.7991 112.52C49.4562 111.677 49.3352 110.76 49.4475 109.856C49.4888 109.495 49.5655 109.138 49.6766 108.791L49.7192 108.935C49.047 108.384 48.5294 107.668 48.217 106.857L48.3555 106.927C47.5559 107.118 46.7138 107.002 45.9957 106.602C45.8044 106.49 45.6258 106.358 45.463 106.208C45.3565 106.096 45.3032 106.032 45.3138 106.026C45.3245 106.021 45.5695 106.234 46.0703 106.479C46.7674 106.811 47.5584 106.891 48.3075 106.703L48.4088 106.676L48.446 106.772C48.7645 107.534 49.2658 108.205 49.9056 108.727L49.9749 108.786V108.871C49.8715 109.197 49.7984 109.533 49.7565 109.872C49.6522 110.734 49.7601 111.608 50.0707 112.419C50.1986 112.762 50.4178 113.064 50.7046 113.292C50.934 113.481 51.2226 113.583 51.5197 113.58C51.7769 113.532 52.0121 113.403 52.1908 113.212C52.3428 113.078 52.4723 112.919 52.5744 112.744C52.6795 112.59 52.7335 112.408 52.7289 112.222Z" fill="#EB996E"/>
<path id="Vector_123" d="M47.8442 104.551C47.9241 104.551 47.8442 105.083 48.0306 105.685C48.2171 106.287 48.4088 106.793 48.3289 106.825C48.0379 106.535 47.8412 106.164 47.7643 105.76C47.6839 105.566 47.6493 105.356 47.6631 105.146C47.677 104.936 47.7389 104.733 47.8442 104.551Z" fill="#EB996E"/>
<path id="Vector_124" d="M49.0124 108.844C49.0124 108.924 48.0855 108.669 46.9509 108.738C45.8163 108.807 44.948 109.153 44.916 109.073C45.5309 108.711 46.2237 108.501 46.9364 108.461C47.6491 108.421 48.3609 108.553 49.0124 108.844Z" fill="#EB996E"/>
<path id="Vector_125" d="M60.8554 101.189C60.7219 101.235 60.5794 101.247 60.44 101.227C60.0595 101.204 59.687 101.108 59.3426 100.944C58.8307 100.704 58.3723 100.364 57.9949 99.9429C57.5397 99.4271 57.1595 98.8496 56.8656 98.2276C56.1571 96.9651 55.992 95.4843 56.5087 94.6053C56.5974 94.4284 56.7275 94.2755 56.888 94.1596C57.0484 94.0437 57.2344 93.9682 57.4303 93.9395C57.5744 93.9198 57.721 93.9498 57.8458 94.0247C57.8458 94.0513 57.6913 94.0247 57.4462 94.0247C57.2775 94.0696 57.121 94.1517 56.9882 94.2651C56.8555 94.3785 56.7498 94.5203 56.6792 94.6799C56.4609 95.1637 56.3941 95.7022 56.4874 96.2247C56.5246 96.5382 56.5943 96.8471 56.6952 97.1463C56.8194 97.4657 56.9598 97.7787 57.116 98.0838C57.3994 98.6822 57.7574 99.2424 58.1814 99.7511C58.5337 100.155 58.956 100.493 59.4278 100.747C59.8765 100.971 60.3587 101.121 60.8554 101.189Z" fill="#EB996E"/>
<path id="Vector_126" d="M61.5985 109.132C61.5133 109.132 61.3002 108.194 60.6769 107.187C60.0537 106.181 59.3079 105.541 59.3665 105.478C59.9963 105.872 60.5258 106.407 60.9131 107.042C61.3005 107.676 61.5351 108.391 61.5985 109.132Z" fill="#EB996E"/>
<path id="Vector_127" d="M55.8936 85.3477C55.9575 85.3849 55.7605 85.8803 55.3609 86.3704C54.9614 86.8605 54.5033 87.1588 54.4607 87.1055C54.4181 87.0523 54.7537 86.674 55.1425 86.1946C55.5314 85.7152 55.8244 85.3477 55.8936 85.3477Z" fill="#EB996E"/>
<path id="Vector_128" d="M58.8129 101.647C58.733 101.647 58.701 101.392 58.7329 101.115C58.7649 100.838 58.8555 100.582 58.9301 100.582C59.0046 100.582 59.0419 100.838 59.0099 101.115C58.978 101.392 58.8874 101.653 58.8129 101.647Z" fill="#EB996E"/>
<path id="Vector_129" d="M42.0254 167.562C42.1367 167.379 42.271 167.21 42.4249 167.061C42.7019 166.757 43.0908 166.31 43.5595 165.751C44.7877 164.292 45.9092 162.747 46.9155 161.127C47.9215 159.505 48.8115 157.814 49.5789 156.066C49.8719 155.395 50.1116 154.852 50.2501 154.468C50.3158 154.265 50.4052 154.07 50.5164 153.888C50.4825 154.099 50.4272 154.306 50.3513 154.506C50.2288 154.9 50.0317 155.459 49.76 156.146C49.0436 157.927 48.1757 159.643 47.1658 161.276C46.1525 162.907 44.9993 164.447 43.7193 165.878C43.2293 166.411 42.8138 166.853 42.5155 167.136C42.3665 167.293 42.2023 167.436 42.0254 167.562Z" fill="#EB996E"/>
<path id="Vector_130" d="M157.98 166.145L174.76 170.066L171.276 147.533L157.384 140.385C152.088 137.656 146.358 135.868 140.45 135.1L131.032 133.88L105.298 134.003C99.5126 133.337 91.5916 135.335 81.9233 139.916L61.0312 149.019L72.9422 173.108L85.9664 169.118L87.1223 179.718L89.9455 214.284L87.5325 233.434H150.922L146.213 223.489C144.071 218.972 143.508 213.865 144.615 208.989L152.808 169.469C152.922 168.908 153.148 168.374 153.471 167.901C153.795 167.428 154.21 167.025 154.692 166.715C155.174 166.405 155.714 166.195 156.279 166.097C156.843 165.999 157.422 166.016 157.98 166.145Z" fill="#EEAD1F"/>
<path id="Vector_131" d="M150.922 233.434H87.5319L89.945 214.305L87.1164 179.744L85.9658 169.155L72.9416 173.144L61.0254 149.04L81.9174 139.937C86.1328 137.881 90.5351 136.233 95.0641 135.015C98.9688 134.029 102.415 133.694 105.297 134.029L131.031 133.901L140.454 135.126C146.363 135.89 152.093 137.676 157.389 140.405L171.286 147.565L174.776 170.113L157.996 166.193C157.441 166.061 156.865 166.043 156.302 166.138C155.74 166.233 155.202 166.441 154.721 166.748C154.24 167.055 153.826 167.455 153.503 167.925C153.179 168.396 152.954 168.926 152.839 169.485L144.641 209.005C143.532 213.879 144.095 218.984 146.239 223.499L150.922 233.434ZM87.5319 233.407H150.879L146.181 223.473C144.033 218.953 143.47 213.841 144.583 208.962L152.776 169.442C152.893 168.881 153.121 168.348 153.447 167.876C153.772 167.404 154.189 167.002 154.672 166.694C155.156 166.385 155.696 166.176 156.261 166.079C156.826 165.982 157.405 165.999 157.964 166.129L174.744 170.044L171.265 147.543L157.378 140.395C152.084 137.666 146.356 135.879 140.449 135.116L131.031 133.891L105.297 134.018C102.415 133.688 98.9741 134.018 95.0695 135.004C90.5414 136.22 86.1407 137.868 81.9281 139.926L61.0467 149.024L72.9469 173.091L85.9765 169.096L87.1271 179.696L89.9557 214.263L87.5319 233.407Z" fill="#263238"/>
<path id="Vector_132" d="M87.1232 179.718C87.0589 179.415 87.0197 179.107 87.006 178.797C86.9421 178.158 86.8622 177.311 86.7609 176.283C86.5479 174.152 86.191 171.238 85.653 168.031C85.1149 164.824 84.481 161.943 83.9856 159.865C83.7459 158.864 83.5435 158.038 83.3944 157.409C83.3066 157.113 83.2408 156.81 83.1973 156.504C83.3203 156.788 83.4201 157.082 83.4956 157.383C83.6714 157.953 83.9057 158.784 84.1774 159.817C84.7101 161.884 85.3813 164.766 85.9246 167.983C86.468 171.201 86.7929 174.136 86.958 176.267C87.0433 177.332 87.0912 178.195 87.1125 178.792C87.1394 179.1 87.1429 179.41 87.1232 179.718Z" fill="#263238"/>
<path id="Vector_133" d="M159.687 158.149C159.719 158.192 158.898 158.714 157.71 159.721C157.021 160.316 156.366 160.951 155.75 161.623C154.243 163.27 152.997 165.139 152.053 167.162C151.67 167.989 151.336 168.838 151.052 169.703C150.578 171.19 150.413 172.143 150.359 172.132C150.361 171.905 150.387 171.678 150.439 171.456C150.477 171.243 150.525 170.977 150.599 170.673C150.674 170.369 150.743 170.023 150.865 169.65C151.123 168.764 151.442 167.898 151.819 167.056C152.292 166.031 152.84 165.043 153.46 164.1C154.091 163.158 154.794 162.268 155.564 161.436C156.193 160.762 156.87 160.134 157.588 159.556C157.886 159.3 158.179 159.103 158.435 158.916C158.691 158.73 158.909 158.586 159.095 158.469C159.282 158.344 159.48 158.237 159.687 158.149Z" fill="#263238"/>
<path id="Vector_134" d="M124.254 179.632C124.254 179.632 124.254 179.659 124.228 179.723L124.142 179.989L123.775 181.028L122.368 184.959C121.117 188.374 119.332 193.226 117.201 199.038L117.042 199.342L116.93 199.027C114.959 193.589 112.636 187.196 110.17 180.383C110.069 180.112 109.973 179.851 109.877 179.579V179.531V179.483L117.042 161.02L117.159 160.732L117.265 161.02L122.368 174.502L123.775 178.274C123.929 178.695 124.052 179.025 124.137 179.265C124.174 179.366 124.201 179.451 124.228 179.515C124.254 179.579 124.254 179.606 124.228 179.606C124.21 179.577 124.196 179.547 124.185 179.515L124.078 179.265L123.679 178.274C123.338 177.395 122.837 176.143 122.209 174.518L117.042 161.105H117.265C115.199 166.48 112.759 172.824 110.154 179.584V179.488C110.25 179.749 110.346 180.021 110.447 180.293L117.175 198.937H116.946C119.114 193.157 120.925 188.326 122.203 184.927L123.7 180.996C123.871 180.548 124.004 180.202 124.105 179.957L124.212 179.691C124.238 179.632 124.249 179.632 124.254 179.632Z" fill="#FAFAFA"/>
<path id="Vector_135" d="M139.275 180.027C139.275 180.027 139.275 180.054 139.275 180.112L139.185 180.384C139.096 180.629 138.974 180.975 138.817 181.423L137.384 185.37C136.133 188.784 134.348 193.637 132.217 199.449L132.106 199.758L131.988 199.443C130.017 194.005 127.727 187.612 125.229 180.799L124.936 179.995V179.947V179.899C127.562 173.129 130.007 166.806 132.09 161.436L132.201 161.148L132.308 161.436C134.439 167.008 136.181 171.653 137.416 174.918L138.823 178.69C138.977 179.111 139.1 179.441 139.185 179.681C139.222 179.782 139.249 179.867 139.275 179.931C139.302 179.995 139.302 180.022 139.275 180.022L139.233 179.931L139.126 179.681C139.03 179.441 138.897 179.111 138.732 178.69L137.283 174.94C136.026 171.69 134.236 167.072 132.095 161.527H132.313C130.246 166.901 127.812 173.246 125.202 180.006V179.904L125.495 180.709C127.951 187.522 130.257 193.919 132.223 199.353H131.956C134.124 193.573 135.941 188.742 137.214 185.343L138.711 181.407L139.116 180.341L139.222 180.075C139.239 180.058 139.257 180.042 139.275 180.027Z" fill="#FAFAFA"/>
<path id="Vector_136" d="M146.972 199.598C146.91 199.476 146.855 199.349 146.807 199.22C146.701 198.943 146.562 198.581 146.381 198.123L144.868 194.058L139.946 180.613C139.898 180.469 139.845 180.326 139.797 180.192V180.145V180.097C141.789 174.993 143.579 170.391 144.884 167.035L146.45 163.104C146.631 162.662 146.78 162.31 146.887 162.038C146.937 161.913 146.994 161.79 147.057 161.671C147.032 161.803 146.993 161.931 146.94 162.054L146.551 163.12C146.189 164.084 145.688 165.432 145.065 167.083C143.781 170.45 142.013 175.073 140.058 180.176V180.081C140.106 180.208 140.159 180.352 140.207 180.496C142.093 185.743 143.792 190.495 145.039 193.968C145.635 195.678 146.104 197.068 146.471 198.064C146.631 198.528 146.754 198.9 146.85 199.177C146.907 199.312 146.948 199.454 146.972 199.598Z" fill="#FAFAFA"/>
<path id="Vector_137" d="M110.029 179.532C110.023 179.562 110.014 179.593 110.003 179.622L109.912 179.888C109.827 180.139 109.704 180.485 109.544 180.954C109.209 181.875 108.729 183.212 108.117 184.901C106.86 188.316 105.081 193.168 102.944 198.975L102.833 199.289L102.721 198.975C100.744 193.536 98.4273 187.144 95.9556 180.331L95.668 179.526V179.478V179.43L102.817 160.967L102.929 160.68L103.04 160.967L108.144 174.45C108.751 176.048 109.209 177.332 109.555 178.216C109.71 178.642 109.827 178.972 109.917 179.212C109.949 179.313 109.981 179.398 110.003 179.462C110.013 179.49 110.022 179.519 110.029 179.547C110.029 179.547 110.029 179.521 109.987 179.462C109.944 179.404 109.923 179.313 109.88 179.212L109.481 178.221C109.134 177.337 108.639 176.09 108.005 174.46L102.817 161.053H103.04C100.968 166.427 98.5338 172.772 95.929 179.532V179.43L96.2166 180.235C98.6777 187.048 100.984 193.445 102.944 198.879H102.721L107.973 184.869C108.618 183.186 109.118 181.859 109.47 180.932C109.646 180.49 109.779 180.144 109.875 179.894L109.987 179.627C109.994 179.593 110.009 179.56 110.029 179.532Z" fill="#FAFAFA"/>
<path id="Vector_138" d="M86.2969 172.132C86.2964 172.062 86.3053 171.992 86.3235 171.924C86.3235 171.77 86.3875 171.573 86.4354 171.328C86.5419 170.795 86.6964 170.017 86.8882 169.053C87.3037 167.066 87.8843 164.259 88.5875 160.898L88.662 160.52L88.8059 160.882C90.2974 164.76 92.0925 169.405 94.0209 174.444C94.6761 176.149 95.31 177.811 95.9226 179.414V179.462V179.51L90.7395 193.36L89.1947 197.413C89.0136 197.872 88.8698 198.234 88.7686 198.479C88.7228 198.605 88.6676 198.728 88.6034 198.846C88.6306 198.715 88.6698 198.587 88.7206 198.463L89.1042 197.36C89.4557 196.38 89.9565 195 90.5744 193.28C91.8582 189.791 93.6373 184.949 95.6669 179.43V179.526C95.0543 177.928 94.4151 176.26 93.7652 174.556L88.5875 160.988H88.8112C88.0707 164.35 87.4528 167.146 87.016 169.122C86.7976 170.081 86.6272 170.838 86.4833 171.381L86.3395 171.978C86.3309 172.031 86.3166 172.082 86.2969 172.132Z" fill="#FAFAFA"/>
<path id="Vector_139" d="M150.937 169.714L147.059 162.294L147.085 162.283L150.958 169.704L150.937 169.714Z" fill="#FAFAFA"/>
<path id="Vector_140" d="M128.481 206.843C128.431 206.935 128.371 207.021 128.3 207.098L127.741 207.796C127.256 208.398 126.521 209.245 125.61 210.268C124.699 211.291 123.527 212.479 122.201 213.746C120.874 215.014 119.367 216.351 117.726 217.683C116.086 219.015 114.45 220.208 112.932 221.247C111.414 222.285 110.018 223.159 108.82 223.857C107.621 224.555 106.641 225.098 105.949 225.455L105.155 225.86C105.062 225.908 104.966 225.949 104.867 225.982C104.949 225.918 105.036 225.861 105.128 225.812L105.901 225.37C106.577 224.991 107.547 224.432 108.729 223.713C109.912 222.994 111.291 222.115 112.799 221.05C114.306 219.984 115.91 218.807 117.556 217.481C119.202 216.154 120.693 214.817 122.03 213.571C123.367 212.324 124.523 211.152 125.466 210.14C126.409 209.128 127.171 208.308 127.677 207.727L128.273 207.061C128.337 206.983 128.407 206.91 128.481 206.843Z" fill="#263238"/>
<g id="Group_2" opacity="0.3">
<path id="Vector_141" d="M94.3152 188.934C97.0533 190.33 100.66 190.212 103.856 189.467C107.052 188.721 110.008 187.368 113.124 186.398C116.241 185.429 119.698 184.838 122.798 185.631C125.227 186.249 127.374 187.698 129.952 187.645C131.55 187.608 133.201 186.979 134.746 187.283C135.198 187.361 135.627 187.538 136.004 187.799C136.381 188.06 136.697 188.4 136.929 188.795C137.162 189.19 137.306 189.631 137.351 190.087C137.396 190.544 137.342 191.004 137.191 191.438C136.552 193.116 134.666 194.357 132.637 194.996C127.416 196.637 121.738 194.857 116.203 195.023C112.917 195.118 109.694 195.907 106.434 196.328C103.174 196.748 99.6634 196.764 96.8775 195.443C94.0915 194.122 92.3816 191.118 93.8518 188.689" fill="#121212"/>
</g>
<path id="Vector_142" d="M152.839 139.399C152.768 139.641 152.673 139.874 152.557 140.097C152.456 140.316 152.333 140.582 152.205 140.902C152.078 141.221 151.923 141.573 151.785 141.967C151.437 142.912 151.146 143.876 150.911 144.854C150.333 147.254 150.114 149.726 150.261 152.189C150.316 153.193 150.434 154.193 150.613 155.183C150.677 155.609 150.772 155.987 150.836 156.323C150.9 156.658 150.975 156.946 151.039 157.175C151.112 157.415 151.165 157.661 151.199 157.91C151.087 157.686 150.999 157.45 150.938 157.207C150.84 156.929 150.756 156.647 150.687 156.36C150.607 156.025 150.495 155.646 150.421 155.22C150.212 154.226 150.074 153.219 150.005 152.205C149.924 150.963 149.934 149.717 150.037 148.476C150.155 147.238 150.364 146.009 150.661 144.801C150.909 143.815 151.224 142.846 151.603 141.903C151.753 141.493 151.923 141.141 152.067 140.838C152.184 140.568 152.316 140.305 152.461 140.049C152.568 139.822 152.695 139.605 152.839 139.399Z" fill="#263238"/>
<path id="Vector_143" d="M88.1692 137.551C88.2011 137.551 87.8496 138.083 87.3435 138.936C86.6808 140.045 86.1107 141.206 85.6389 142.409C85.1726 143.62 84.8056 144.867 84.5416 146.138C84.4616 146.676 84.3532 147.209 84.2166 147.736C84.1908 147.591 84.1908 147.443 84.2166 147.299C84.2166 147.017 84.2806 146.612 84.3551 146.122C84.7796 143.534 85.7413 141.065 87.1784 138.872C87.4607 138.451 87.7111 138.126 87.8762 137.908C88.0413 137.689 88.1532 137.551 88.1692 137.551Z" fill="#263238"/>
<g id="Group_3" opacity="0.3">
<path id="Vector_144" d="M83.3651 157.793C82.7738 159.785 82.1932 161.836 82.385 163.903C82.5767 165.97 83.738 168.085 85.6823 168.804C85.1177 165.149 84.4216 161.52 83.5942 157.915" fill="#121212"/>
</g>
<path id="Vector_145" d="M128.73 82.3219C129.75 82.4324 130.692 82.9217 131.368 83.6931C132.045 84.4644 132.408 85.4617 132.384 86.4875L129.939 136.56C129.827 143.096 120.282 146.766 113.314 146.607C106.245 144.934 105.984 140.694 105.899 134.477C105.75 124.09 105.798 127.734 105.792 127.792C105.787 127.851 96.8646 126.29 95.0428 114.64C94.1319 108.844 94.4462 99.3413 94.9522 91.58C95.4103 84.5911 100.055 76.0255 107.023 76.7766L128.73 82.3219Z" fill="#FFBE9D"/>
<path id="Vector_146" d="M98.8028 99.1491C98.7984 99.5389 98.9462 99.9151 99.2148 100.198C99.4833 100.48 99.8516 100.647 100.241 100.662C100.431 100.677 100.622 100.654 100.803 100.595C100.984 100.535 101.152 100.44 101.295 100.315C101.439 100.19 101.557 100.038 101.641 99.8668C101.725 99.6959 101.774 99.5098 101.786 99.3196C101.789 98.9302 101.641 98.5548 101.372 98.2726C101.104 97.9903 100.737 97.8233 100.348 97.8068C100.158 97.7908 99.9661 97.8131 99.7848 97.8724C99.6034 97.9316 99.4358 98.0266 99.2918 98.1518C99.1478 98.2769 99.0303 98.4296 98.9463 98.6009C98.8623 98.7722 98.8136 98.9587 98.8028 99.1491Z" fill="#263238"/>
<path id="Vector_147" d="M96.9748 96.9389C97.1559 97.136 98.2906 96.2996 99.8993 96.3103C101.508 96.321 102.685 97.1253 102.861 96.9282C102.946 96.8377 102.754 96.4861 102.243 96.1132C101.55 95.6287 100.724 95.3718 99.878 95.3781C99.0404 95.3704 98.2226 95.6318 97.5448 96.1239C97.0494 96.5021 96.8843 96.8536 96.9748 96.9389Z" fill="#263238"/>
<path id="Vector_148" d="M114.381 99.3195C114.376 99.7093 114.524 100.085 114.793 100.368C115.061 100.651 115.43 100.817 115.819 100.832C116.009 100.847 116.2 100.823 116.381 100.763C116.562 100.703 116.729 100.607 116.872 100.482C117.015 100.356 117.132 100.203 117.216 100.032C117.299 99.861 117.348 99.6748 117.359 99.4846C117.365 99.0959 117.218 98.7203 116.95 98.4385C116.682 98.1566 116.314 97.991 115.926 97.9771C115.735 97.9604 115.544 97.9822 115.362 98.0412C115.18 98.1001 115.013 98.1951 114.868 98.3204C114.724 98.4457 114.607 98.5987 114.523 98.7703C114.439 98.942 114.391 99.1288 114.381 99.3195Z" fill="#263238"/>
<path id="Vector_149" d="M112.92 96.9389C113.106 97.136 114.241 96.2996 115.85 96.3103C117.458 96.321 118.635 97.1253 118.806 96.9282C118.891 96.8377 118.71 96.4861 118.193 96.1132C117.498 95.6286 116.67 95.3718 115.823 95.3781C114.987 95.3704 114.171 95.6319 113.495 96.1239C113 96.5021 112.829 96.8536 112.92 96.9389Z" fill="#263238"/>
<path id="Vector_150" d="M106.919 108.786C106.919 108.695 105.928 108.52 104.308 108.312C103.898 108.269 103.509 108.184 103.44 107.907C103.403 107.471 103.502 107.034 103.722 106.655L104.942 103.534C106.642 99.0857 107.867 95.4261 107.691 95.3622C107.515 95.2983 105.992 98.846 104.292 103.294C103.888 104.391 103.493 105.425 103.126 106.437C102.867 106.927 102.789 107.493 102.907 108.035C102.966 108.18 103.057 108.309 103.173 108.414C103.289 108.518 103.428 108.594 103.579 108.637C103.797 108.715 104.024 108.765 104.255 108.786C105.896 108.855 106.919 108.86 106.919 108.786Z" fill="#263238"/>
<path id="Vector_151" d="M105.766 127.792C111.251 127.891 116.657 126.463 121.379 123.669C121.379 123.669 117.421 131.883 105.766 130.764V127.792Z" fill="#EB996E"/>
<path id="Vector_152" d="M107.177 112.679C107.971 111.486 109.18 110.687 110.267 110.639C110.635 110.606 111.004 110.684 111.327 110.864C111.65 111.044 111.912 111.316 112.078 111.646C112.249 112.079 112.315 112.546 112.269 113.009C112.224 113.472 112.069 113.918 111.817 114.309C111.571 114.723 111.21 115.055 110.777 115.264C110.344 115.474 109.859 115.551 109.383 115.487C108.595 115.261 107.894 114.805 107.369 114.176C107.186 114.022 107.045 113.824 106.959 113.601C106.916 113.46 106.905 113.311 106.927 113.166C106.949 113.02 107.004 112.881 107.087 112.759" fill="#EB996E"/>
<path id="Vector_153" d="M111.647 109.894C111.386 109.894 111.38 111.625 109.884 112.861C108.387 114.097 106.528 113.9 106.512 114.145C106.512 114.251 106.927 114.48 107.71 114.507C108.733 114.523 109.729 114.177 110.523 113.532C111.283 112.911 111.774 112.019 111.892 111.044C111.961 110.315 111.764 109.883 111.647 109.894Z" fill="#263238"/>
<path id="Vector_154" d="M112.007 93.2466C112.204 93.6675 113.781 93.3052 115.682 93.3425C117.584 93.3798 119.15 93.7474 119.363 93.3425C119.454 93.1454 119.15 92.7619 118.495 92.3997C117.629 91.958 116.671 91.7262 115.698 91.7231C114.727 91.7019 113.765 91.9119 112.891 92.3357C112.247 92.6713 111.916 93.0495 112.007 93.2466Z" fill="#263238"/>
<path id="Vector_155" d="M97.1137 94.2861C97.4706 94.6536 98.8449 94.2861 100.496 94.2488C102.148 94.2115 103.554 94.4885 103.879 94.1103C104.017 93.9238 103.794 93.5776 103.181 93.21C102.331 92.7801 101.384 92.5764 100.432 92.6188C99.4846 92.6255 98.5551 92.8808 97.7369 93.3592C97.151 93.7321 96.9592 94.1103 97.1137 94.2861Z" fill="#263238"/>
<path id="Vector_156" d="M136.985 121.634C136.985 121.634 136.916 121.634 136.783 121.608C136.593 121.567 136.407 121.515 136.223 121.453C135.535 121.23 134.901 120.867 134.359 120.388C133.945 120.03 133.625 119.576 133.427 119.067C133.228 118.557 133.157 118.007 133.219 117.463C133.255 117.134 133.364 116.817 133.538 116.535C133.712 116.253 133.947 116.013 134.226 115.833C134.385 115.737 134.566 115.682 134.752 115.674C134.939 115.665 135.124 115.704 135.291 115.785C135.473 115.873 135.619 116.02 135.706 116.202C135.793 116.384 135.816 116.59 135.771 116.787C135.709 116.986 135.571 117.152 135.387 117.25C135.221 117.333 135.04 117.378 134.854 117.383C134.504 117.394 134.156 117.325 133.837 117.181C133.235 116.943 132.691 116.579 132.239 116.116C131.462 115.353 130.987 114.335 130.902 113.25C130.843 112.523 130.956 111.794 131.232 111.119C131.306 110.934 131.397 110.755 131.504 110.586C131.573 110.474 131.616 110.416 131.626 110.421C131.637 110.427 131.504 110.672 131.333 111.14C131.107 111.802 131.027 112.506 131.099 113.202C131.202 114.233 131.671 115.192 132.42 115.908C132.851 116.333 133.364 116.667 133.928 116.888C134.212 117.011 134.518 117.072 134.828 117.069C134.969 117.081 135.111 117.049 135.234 116.976C135.356 116.903 135.452 116.794 135.51 116.664C135.534 116.528 135.512 116.387 135.449 116.264C135.385 116.141 135.283 116.042 135.158 115.982C135.03 115.921 134.889 115.893 134.747 115.901C134.605 115.909 134.468 115.954 134.348 116.03C134.104 116.188 133.898 116.398 133.744 116.645C133.59 116.892 133.493 117.169 133.459 117.458C133.384 118 133.458 118.552 133.672 119.056C133.859 119.495 134.134 119.89 134.481 120.217C134.999 120.688 135.598 121.06 136.25 121.315C136.751 121.538 136.99 121.613 136.985 121.634Z" fill="#263238"/>
<path id="Vector_157" d="M108.732 69.9421C108.03 69.4795 107.517 68.7817 107.283 67.9742C107.05 67.1667 107.112 66.3025 107.459 65.5368C106.969 64.8443 107.544 63.8162 108.343 63.5339C109.142 63.2516 110.016 63.4753 110.831 63.699C110.613 63.3102 111.193 62.9746 111.635 62.9053L114.72 62.4099C114.014 62.2267 113.359 61.8848 112.805 61.4104C112.251 60.9359 111.813 60.3413 111.523 59.6719C110.955 58.314 110.801 56.8183 111.081 55.3731C111.093 55.1633 111.146 54.9579 111.238 54.7687C111.329 54.5795 111.457 54.4102 111.614 54.2705C112.538 55.3326 113.26 56.5548 113.745 57.8767C114.17 57.8981 114.585 58.0081 114.965 58.1999C115.345 58.3916 115.681 58.6608 115.95 58.9901C116.001 58.8755 116.077 58.7737 116.172 58.6922C116.267 58.6106 116.379 58.5514 116.5 58.5187C116.621 58.486 116.748 58.4808 116.871 58.5034C116.994 58.5259 117.111 58.5757 117.213 58.6492C117.868 56.8274 119.098 54.9203 121.021 54.686C120.419 53.839 121.511 52.8215 122.444 52.3581C123.1 51.9756 123.823 51.7224 124.574 51.6123C124.954 51.5622 125.339 51.6195 125.688 51.7777C126.036 51.9359 126.333 52.1887 126.545 52.5073C126.913 53.1731 126.572 54.1906 125.821 54.3184C126.204 54.5935 126.485 54.988 126.62 55.4402C126.755 55.8923 126.736 56.3765 126.567 56.8167C126.868 56.4582 127.281 56.211 127.74 56.1144C128.198 56.0179 128.676 56.0776 129.097 56.284C130.436 55.6974 131.908 55.4839 133.358 55.6661C133.731 55.6889 134.091 55.8143 134.397 56.0283C134.615 56.2094 134.759 56.4705 134.983 56.6409C135.33 56.8447 135.726 56.9497 136.128 56.9445C137.056 56.9883 137.949 57.3155 138.685 57.8821C139.046 58.1715 139.306 58.5666 139.431 59.0119C139.555 59.4572 139.536 59.9302 139.378 60.3644C141.508 61.0516 143.613 58.6065 145.807 59.0433C147.091 59.2937 147.981 60.4709 148.54 61.6588C147.453 62.0977 146.276 62.2694 145.109 62.1596C145.033 62.4776 144.853 62.761 144.597 62.9647C144.341 63.1684 144.025 63.2806 143.698 63.2835C143.78 63.3974 143.834 63.5298 143.853 63.6692C143.873 63.8086 143.858 63.9506 143.809 64.0827C143.761 64.2148 143.68 64.333 143.576 64.4268C143.471 64.5206 143.344 64.5871 143.208 64.6206C144.552 64.2655 145.968 64.2894 147.299 64.6898C149.35 65.1692 151.598 66.2453 152.093 68.2961C152.218 69.0313 152.218 69.7823 152.093 70.5174C151.965 71.6254 151.4 73.0743 150.303 72.8719C149.632 72.7441 149.28 72.0249 148.918 71.439C148.113 70.1444 146.831 69.2183 145.349 68.8608C144.816 69.3668 145.797 70.0167 146.217 70.6133C146.638 71.2099 146.468 71.9983 146.569 72.7068C146.734 73.7722 147.528 74.6564 148.002 75.6419C149.03 77.7726 148.492 80.2923 147.933 82.5668C147.783 83.1954 147.075 83.9678 146.686 83.4511C147.075 83.5492 147.417 83.7792 147.655 84.1017C147.893 84.4242 148.012 84.8193 147.991 85.2196C147.927 86.0189 147.673 86.7914 147.251 87.4729C147.096 87.7765 146.905 88.1121 146.569 88.1867C146.09 88.3039 145.695 87.8191 145.44 87.393L143.346 83.9571C143.507 84.7413 143.489 85.5515 143.293 86.3276C142.952 87.8351 142.057 89.3746 140.582 89.8167C139.564 90.1203 138.477 89.8487 137.449 89.5823" fill="#263238"/>
<path id="Vector_158" d="M131.666 106.17C131.213 105.978 129.397 106.702 129.093 106.335C127.575 104.359 126.749 98.7174 126.371 96.2564C125.993 93.7954 127.532 91.0414 127.298 88.5591C127.112 86.5722 126.765 84.4787 125.423 82.9818C124.595 82.0992 123.561 81.4365 122.413 81.0535C120.666 80.4307 118.795 80.2334 116.956 80.478C115.117 80.7226 113.363 81.4019 111.839 82.4598C110.593 83.3441 109.41 84.5266 107.887 84.6705C106.363 84.8143 105.005 83.8821 103.7 83.1044C102.395 82.3266 100.786 81.6395 99.4065 82.2734C98.877 82.5465 98.4106 82.9275 98.0375 83.392C97.0893 84.4574 95.1343 89.2516 95.1024 91.1426C95.1024 91.1426 94.1382 86.748 95.8002 82.6835C97.8031 77.7775 103.199 72.2269 111.781 70.8312C125.551 68.5939 132.023 76.2593 134.452 81.7407C135.517 84.0898 136.375 90.2637 135.613 95.0046C134.956 98.9273 133.62 102.705 131.666 106.17Z" fill="#263238"/>
<path id="Vector_159" d="M135.359 83.6426C135.151 83.7065 134.592 82.1564 133.228 79.9458C132.432 78.6557 131.521 77.4398 130.506 76.3128C129.304 74.9381 127.88 73.7748 126.293 72.8717C124.671 72.0298 122.922 71.4594 121.115 71.1831C119.628 70.9514 118.119 70.8995 116.619 71.0286C114.041 71.2576 112.491 71.8542 112.411 71.6412C112.374 71.5613 112.72 71.3056 113.407 70.9913C114.39 70.5521 115.425 70.2371 116.486 70.0537C118.069 69.7774 119.684 69.7307 121.28 69.9153C123.259 70.1402 125.178 70.729 126.943 71.6518C128.675 72.6294 130.208 73.9252 131.46 75.4712C132.489 76.7027 133.371 78.0508 134.086 79.4877C135.285 81.9061 135.519 83.6 135.359 83.6426Z" fill="#EEAD1F"/>
<path id="Vector_160" d="M121.91 71.6788C121.636 71.7295 121.358 71.7616 121.079 71.7747C120.325 71.8525 119.576 71.977 118.837 72.1475C116.396 72.6995 114.111 73.7952 112.153 75.353C110.195 76.9109 108.614 78.8906 107.528 81.1446C107.193 81.8246 106.903 82.5257 106.659 83.2434C106.582 83.5118 106.487 83.7752 106.377 84.0318C106.377 84.0318 106.377 83.9519 106.409 83.8134C106.441 83.6749 106.478 83.4672 106.553 83.2115C106.763 82.4822 107.028 81.7699 107.346 81.0807C108.403 78.7691 109.991 76.7398 111.98 75.1578C113.969 73.5759 116.304 72.486 118.794 71.9771C119.543 71.8221 120.304 71.7259 121.068 71.6894C121.34 71.6894 121.548 71.6894 121.692 71.6894C121.836 71.6894 121.91 71.6681 121.91 71.6788Z" fill="#455A64"/>
<path id="Vector_161" d="M125.565 73.3408C125.048 73.6603 124.514 73.9537 123.967 74.2198C122.67 74.9195 121.415 75.6931 120.206 76.5369C119.001 77.3847 117.847 78.3025 116.749 79.2856C116.313 79.7142 115.854 80.1196 115.375 80.5001C115.458 80.357 115.56 80.2261 115.679 80.1113C115.892 79.8716 116.211 79.5413 116.616 79.1418C118.755 77.0732 121.205 75.353 123.877 74.044C124.409 73.7989 124.809 73.6125 125.107 73.5113C125.251 73.4338 125.406 73.3765 125.565 73.3408Z" fill="#455A64"/>
<path id="Vector_162" d="M133.021 79.5195C133.032 79.6745 133.023 79.8303 132.994 79.983C132.957 80.2759 132.888 80.7021 132.776 81.2188C132.483 82.5739 132.054 83.8962 131.498 85.166C130.941 86.4366 130.261 87.6498 129.468 88.7883C129.159 89.2198 128.898 89.5607 128.701 89.7844C128.504 90.0082 128.397 90.1307 128.381 90.12C128.365 90.1094 128.738 89.5873 129.303 88.6764C130.042 87.523 130.691 86.3137 131.242 85.0595C131.788 83.8013 132.237 82.503 132.584 81.1762C132.699 80.6164 132.845 80.0633 133.021 79.5195Z" fill="#455A64"/>
<path id="Vector_163" d="M129.186 96.1764C129.143 96.1391 129.745 95.4999 130.549 94.3387C131.018 93.6558 131.443 92.9441 131.823 92.2079C132.281 91.3074 132.673 90.3745 132.994 89.4166C133.568 87.6703 133.892 85.852 133.959 84.0152C134.007 82.6035 133.905 81.7299 133.959 81.7246C134.021 81.9232 134.057 82.1292 134.065 82.3372C134.133 82.8956 134.165 83.4579 134.161 84.0205C134.16 84.8567 134.098 85.6917 133.975 86.5188C133.815 87.5316 133.578 88.5306 133.266 89.5072C132.938 90.4785 132.533 91.4225 132.057 92.3304C131.661 93.072 131.213 93.7841 130.715 94.4612C130.387 94.916 130.031 95.3501 129.649 95.7609C129.509 95.915 129.354 96.0542 129.186 96.1764Z" fill="#455A64"/>
<path id="Vector_164" d="M85.2227 83.952C85.2227 83.952 85.4464 84.181 85.8566 84.5646C86.4266 85.1117 87.0979 85.5424 87.8328 85.8324C88.3686 86.0482 88.9456 86.1425 89.5223 86.1084C90.0989 86.0743 90.6608 85.9127 91.1674 85.6353C91.7468 85.2873 92.1845 84.7458 92.4033 84.1065C92.5263 83.7737 92.5711 83.417 92.5341 83.0642C92.4972 82.7113 92.3795 82.3717 92.1902 82.0716C92.1007 81.9282 91.9757 81.8102 91.8274 81.7291C91.679 81.6479 91.5123 81.6063 91.3432 81.6082C91.1865 81.6132 91.0363 81.6721 90.9179 81.7749C90.7995 81.8778 90.7202 82.0183 90.6934 82.1728C90.589 82.8365 90.7518 83.5145 91.1461 84.0585C91.4895 84.5625 91.9728 84.955 92.5365 85.1878C93.0354 85.3816 93.5811 85.4206 94.1026 85.2997C94.8702 85.1241 95.5446 84.6682 95.9936 84.0212C96.1487 83.7758 96.2858 83.5194 96.4038 83.2542C96.4027 83.3307 96.3883 83.4064 96.3612 83.4779C96.2946 83.6894 96.2015 83.8917 96.0842 84.0798C95.6494 84.7855 94.9551 85.2923 94.1505 85.4915C93.5899 85.6356 92.9986 85.604 92.4566 85.4009C91.8386 85.1606 91.3051 84.7438 90.9224 84.2024C90.6982 83.9067 90.5355 83.5691 90.444 83.2096C90.3525 82.85 90.3341 82.4757 90.3897 82.1089C90.438 81.9048 90.5455 81.7195 90.6987 81.5762C90.8643 81.4312 91.0752 81.3483 91.2953 81.3418C91.5069 81.3408 91.7153 81.3929 91.9015 81.4934C92.0876 81.5939 92.2455 81.7396 92.3607 81.9171C92.577 82.2525 92.7119 82.6338 92.7544 83.0307C92.797 83.4275 92.746 83.8287 92.6057 84.2024C92.3673 84.9032 91.8828 85.4937 91.242 85.8643C90.7037 86.1557 90.1065 86.3219 89.495 86.3505C88.8836 86.379 88.2735 86.2693 87.7103 86.0295C86.9592 85.7128 86.2825 85.2429 85.7234 84.6498C85.5717 84.4932 85.4294 84.3278 85.2972 84.1544C85.2631 84.0907 85.238 84.0226 85.2227 83.952Z" fill="#263238"/>
<path id="Vector_165" d="M155.929 80.5208C155.829 80.5558 155.725 80.5773 155.62 80.5848C155.417 80.6221 155.114 80.67 154.719 80.7126C153.606 80.8731 152.472 80.828 151.374 80.5794C150.61 80.3903 149.9 80.0255 149.302 79.5141C148.956 79.2152 148.673 78.851 148.468 78.4424C148.263 78.0338 148.141 77.5888 148.109 77.1329C148.07 76.6316 148.162 76.1288 148.375 75.6734C148.603 75.1962 148.976 74.8029 149.441 74.5494C149.923 74.2874 150.463 74.1501 151.012 74.1501C151.561 74.1501 152.101 74.2874 152.583 74.5494C152.842 74.6833 153.059 74.8838 153.214 75.1301C153.368 75.3765 153.454 75.6597 153.462 75.9504C153.436 76.2328 153.334 76.5031 153.169 76.7334C153.003 76.9637 152.779 77.1457 152.519 77.2608C152.041 77.4698 151.516 77.5523 150.996 77.5005C150.512 77.4653 150.032 77.385 149.563 77.2608C147.928 76.8263 146.489 75.852 145.477 74.4961C144.806 73.59 144.35 72.5423 144.146 71.4332C144.09 71.1342 144.056 70.8315 144.044 70.5276C144.029 70.4216 144.029 70.314 144.044 70.208C144.071 70.208 144.071 70.6448 144.241 71.4119C144.481 72.4902 144.954 73.5029 145.626 74.379C146.623 75.6861 148.027 76.6234 149.616 77.0424C150.07 77.1569 150.534 77.23 151.001 77.2608C151.475 77.3089 151.954 77.2356 152.392 77.0477C152.62 76.9658 152.817 76.8164 152.959 76.6193C153.1 76.4223 153.177 76.1869 153.181 75.9446C153.186 75.7023 153.116 75.4645 152.981 75.2628C152.847 75.0612 152.654 74.9052 152.429 74.8158C151.988 74.577 151.495 74.452 150.993 74.452C150.492 74.452 149.999 74.577 149.558 74.8158C149.154 75.0461 148.825 75.3884 148.611 75.8015C148.398 76.2146 148.308 76.6808 148.354 77.1436C148.378 77.5688 148.488 77.9848 148.675 78.3672C148.863 78.7495 149.125 79.0906 149.446 79.3702C150.013 79.8712 150.687 80.2357 151.417 80.4356C152.491 80.6927 153.6 80.7647 154.698 80.6487L155.604 80.5741C155.709 80.5424 155.819 80.5245 155.929 80.5208Z" fill="#263238"/>
<path id="Vector_166" d="M102.07 55.3467C101.933 55.6903 101.833 56.0474 101.771 56.4121C101.709 56.9067 101.748 57.4089 101.886 57.888C102.024 58.367 102.259 58.8128 102.576 59.198C103.066 59.747 103.699 60.1491 104.404 60.3598C105.11 60.5705 105.86 60.5813 106.571 60.3912C106.987 60.3105 107.376 60.1261 107.702 59.8552C108.028 59.5842 108.28 59.2355 108.435 58.8411C108.491 58.6328 108.502 58.4152 108.468 58.2023C108.434 57.9894 108.356 57.786 108.238 57.6053C108.127 57.4199 107.96 57.2748 107.76 57.1915C107.561 57.1081 107.34 57.0907 107.13 57.1418C106.918 57.2056 106.722 57.3149 106.557 57.4622C106.391 57.6094 106.259 57.7909 106.171 57.9941C105.995 58.4013 105.98 58.86 106.129 59.2779C106.454 60.0875 107.01 60.7839 107.727 61.2808C108.724 62.0345 109.882 62.5469 111.11 62.7779C112.338 63.009 113.603 62.9524 114.806 62.6125C115.493 62.4101 115.871 62.2237 115.871 62.2556C115.793 62.3106 115.709 62.357 115.621 62.3941C115.372 62.5197 115.114 62.6265 114.849 62.7138C113.871 63.0368 112.839 63.16 111.812 63.076C110.277 62.9608 108.807 62.4061 107.578 61.4779C106.82 60.9492 106.236 60.2077 105.9 59.3472C105.727 58.8672 105.744 58.3393 105.948 57.8716C106.052 57.6286 106.208 57.4118 106.406 57.2367C106.604 57.0617 106.839 56.9329 107.093 56.8595C107.358 56.7967 107.636 56.8189 107.887 56.9232C108.139 57.0274 108.351 57.2083 108.494 57.4401C108.633 57.6543 108.726 57.8956 108.765 58.1481C108.805 58.4006 108.79 58.6585 108.723 58.905C108.577 59.3697 108.284 59.7739 107.887 60.0556C107.52 60.3252 107.104 60.519 106.661 60.6256C105.907 60.8243 105.112 60.8068 104.366 60.5751C103.621 60.3434 102.957 59.9068 102.448 59.3152C102.124 58.9068 101.889 58.4351 101.759 57.9305C101.629 57.4259 101.606 56.8995 101.691 56.3854C101.741 56.109 101.827 55.8403 101.947 55.5864C101.978 55.5018 102.019 55.4213 102.07 55.3467Z" fill="#263238"/>
<path id="Vector_167" d="M128.811 104.449C128.939 101.871 131.752 100.151 133.983 101.445C135.209 102.153 136.152 103.576 136.04 106.314C135.736 113.617 128.47 111.811 128.465 111.598C128.465 111.449 128.662 107.47 128.811 104.449Z" fill="#FFBE9D"/>
<path id="Vector_168" d="M130.807 108.924C130.839 108.924 130.929 109.019 131.142 109.126C131.438 109.269 131.779 109.29 132.091 109.185C132.874 108.934 133.577 107.736 133.662 106.42C133.708 105.796 133.613 105.17 133.385 104.587C133.325 104.357 133.211 104.144 133.052 103.966C132.892 103.789 132.692 103.653 132.469 103.57C132.324 103.525 132.168 103.533 132.027 103.591C131.887 103.65 131.772 103.755 131.702 103.89C131.595 104.087 131.638 104.236 131.595 104.247C131.553 104.257 131.446 104.119 131.515 103.82C131.564 103.64 131.673 103.482 131.824 103.373C132.031 103.231 132.285 103.175 132.533 103.218C132.83 103.289 133.105 103.434 133.33 103.641C133.554 103.849 133.722 104.11 133.816 104.401C134.099 105.048 134.222 105.753 134.173 106.457C134.067 107.927 133.257 109.27 132.186 109.531C131.988 109.58 131.781 109.583 131.581 109.542C131.381 109.5 131.193 109.415 131.031 109.291C130.812 109.099 130.78 108.934 130.807 108.924Z" fill="#EB996E"/>
<path id="Vector_169" d="M197.041 153.297C193.381 143.709 154.106 112.855 154.106 112.855L142.818 118.907L171.291 147.555L174.337 167.376C174.337 167.376 183.83 170.109 187.884 169.72C195.443 168.979 199.038 158.533 197.041 153.297Z" fill="#FFBE9D"/>
<path id="Vector_170" d="M179.366 160.489C179.222 160.325 179.095 160.146 178.988 159.956C178.732 159.546 178.418 159.024 178.04 158.411C177.22 157.053 176.138 155.274 174.945 153.308C173.752 151.342 172.585 149.542 171.749 148.263L170.763 146.745C170.63 146.567 170.517 146.374 170.428 146.17C170.588 146.331 170.729 146.509 170.849 146.703C171.11 147.044 171.472 147.544 171.914 148.173C172.793 149.425 173.959 151.193 175.185 153.18C176.41 155.167 177.465 156.999 178.21 158.337C178.583 159.002 178.881 159.546 179.079 159.935C179.194 160.109 179.29 160.294 179.366 160.489Z" fill="#EB996E"/>
<path id="Vector_171" d="M142.782 90.1036C141.658 90.0503 141.802 91.0465 142.105 91.7922C142.409 92.538 144.172 96.629 144.172 96.629C144.172 96.629 139.911 88.9423 139.437 88.4842C138.963 88.0261 138.153 87.1951 137.519 87.6745C136.885 88.154 137.157 88.8038 137.402 89.5709C137.626 90.2581 139.858 95.4305 140.332 96.4958C140.385 96.6237 140.784 97.4653 140.566 97.5985C140.412 97.9075 139.74 97.2363 139.533 96.9646L136.257 92.6392C136.257 92.6392 133.694 89.0382 133.098 89.2726C132.032 89.6881 131.5 90.2847 131.766 90.908C132.032 91.5312 137.551 99.7293 137.551 99.7293L132.757 93.9656C132.433 93.5876 131.993 93.3288 131.505 93.2305C131.275 93.1731 131.034 93.1795 130.808 93.2489C130.582 93.3184 130.379 93.4483 130.221 93.6247C129.603 94.3278 130.786 95.6968 131.313 96.661C131.649 97.2736 133.732 100.065 133.732 100.065L138.382 108.119L137.62 108.284L135.953 105.589L134.184 110.809C134.184 110.809 136.651 115.135 139.011 117.691C140.001 118.757 142.819 118.901 142.819 118.901L154.171 113.904C154.171 113.904 153.905 109.227 153.59 108.124C152.79 105.948 151.79 103.851 150.602 101.86C149.723 100.555 147.885 98.6639 147.209 97.3428C146.532 96.0218 144.092 90.1728 142.782 90.1036Z" fill="#FFBE9D"/>
<path id="Vector_172" d="M146.836 100.896C146.874 100.934 146.373 101.456 145.771 102.425C145.405 102.991 145.086 103.586 144.817 104.204C144.492 104.963 144.237 105.749 144.056 106.554C143.888 107.36 143.794 108.18 143.773 109.004C143.76 109.677 143.801 110.351 143.896 111.018C144.066 112.158 144.301 112.839 144.253 112.855C144.162 112.713 144.096 112.556 144.056 112.392C143.985 112.206 143.926 112.015 143.88 111.822C143.807 111.568 143.748 111.31 143.704 111.05C143.577 110.373 143.515 109.687 143.518 108.999C143.522 107.308 143.885 105.638 144.583 104.098C144.87 103.474 145.212 102.876 145.606 102.313C145.766 102.068 145.941 101.866 146.085 101.685C146.208 101.529 146.342 101.381 146.485 101.243C146.585 101.111 146.704 100.995 146.836 100.896Z" fill="#EB996E"/>
<path id="Vector_173" d="M142.889 109.782C141.921 109.457 140.914 109.264 139.895 109.206C139.332 109.199 138.769 109.253 138.217 109.366H138.137L138.095 109.308C137.806 108.946 137.566 108.549 137.381 108.125C137.724 108.441 138.027 108.799 138.281 109.19L138.164 109.142C138.73 108.99 139.314 108.919 139.9 108.929C140.647 108.938 141.386 109.076 142.085 109.34C142.381 109.429 142.655 109.58 142.889 109.782Z" fill="#EB996E"/>
<path id="Vector_174" d="M146.947 98.5361C146.436 98.71 145.915 98.8541 145.387 98.9676C142.874 99.6433 140.47 100.669 138.243 102.015C137.794 102.316 137.328 102.592 136.848 102.84C137.239 102.466 137.671 102.137 138.137 101.86C139.23 101.132 140.39 100.508 141.599 99.9957C142.803 99.4808 144.051 99.0761 145.328 98.7865C145.856 98.6408 146.4 98.5568 146.947 98.5361Z" fill="#EB996E"/>
<path id="Vector_175" d="M135.549 103.203C135.549 103.203 135.645 103.304 135.762 103.512C135.924 103.81 136.05 104.127 136.135 104.455C136.264 104.948 136.306 105.46 136.257 105.968C136.191 106.583 136.037 107.186 135.799 107.758C135.589 108.331 135.338 108.888 135.048 109.425C134.802 109.865 134.506 110.274 134.164 110.645C133.932 110.894 133.673 111.115 133.391 111.305C133.291 111.382 133.177 111.44 133.056 111.476C133.029 111.433 133.477 111.156 134.015 110.517C134.325 110.141 134.597 109.734 134.824 109.302C135.094 108.767 135.334 108.218 135.543 107.656C135.768 107.106 135.922 106.53 136.002 105.941C136.06 105.46 136.04 104.972 135.943 104.498C135.778 103.688 135.501 103.23 135.549 103.203Z" fill="#EB996E"/>
<path id="Vector_176" d="M234.084 233.434C234.084 233.509 181.679 233.573 117.048 233.573C52.4165 233.573 0 233.488 0 233.434C0 233.381 52.3952 233.296 117.048 233.296C181.7 233.296 234.084 233.333 234.084 233.434Z" fill="#263238"/>
</g>
</svg>
