<svg width="24" height="24" viewBox="0 0 24 24" fill="none" xmlns="http://www.w3.org/2000/svg">
<g id="Group 1000005616">
<path id="Vector" d="M16.3549 2C16.8298 2.22404 17.0117 2.60964 16.9994 3.14265C16.98 4.00123 16.9952 4.86029 16.9937 5.71936C16.9928 6.38465 16.6053 6.79026 15.9632 6.79514C15.4098 6.79954 14.857 6.79905 14.3036 6.80051C14.2658 6.80051 14.228 6.80002 14.1907 6.80344C13.8372 6.83712 13.7527 6.92303 13.7475 7.29008C13.7408 7.76403 13.746 8.23798 13.746 8.7378C13.8306 8.7378 13.9039 8.7378 13.9776 8.7378C14.6561 8.74268 15.3356 8.73048 16.0137 8.75781C16.5004 8.77734 16.869 9.16782 16.8756 9.66813C16.8898 10.7415 16.8907 11.8153 16.8742 12.8886C16.8662 13.4002 16.4357 13.7838 15.9121 13.7882C15.2648 13.7936 14.6169 13.7897 13.9695 13.7897C13.9015 13.7897 13.8335 13.7897 13.7394 13.7897V14.0508C13.7394 16.3283 13.7399 18.6053 13.7394 20.8828C13.7394 21.4632 13.4833 21.8415 13.0046 21.965C12.9087 21.9898 12.8057 21.9908 12.706 21.9913C11.7378 21.9933 10.7691 21.9742 9.80182 21.9996C9.28439 22.0133 8.74193 21.6692 8.74429 20.9063C8.75043 19.0456 8.74618 17.1845 8.74618 15.3233C8.74618 14.8225 8.74618 14.3217 8.74618 13.7902C8.67058 13.7902 8.60442 13.7902 8.53827 13.7902C8.02888 13.7902 7.51996 13.7921 7.01057 13.7897C6.41613 13.7868 6.01778 13.4041 6.00975 12.7896C5.99652 11.7748 5.99699 10.7595 6.00975 9.74476C6.01731 9.1195 6.40242 8.74854 7.02286 8.74024C7.51949 8.73341 8.01612 8.73878 8.51275 8.73878C8.58079 8.73878 8.64884 8.73878 8.73437 8.73878C8.73909 8.6597 8.74476 8.59723 8.74571 8.53475C8.75469 7.92999 8.7372 7.32327 8.7769 6.72046C8.89645 4.91155 9.61753 3.46236 11.1967 2.56034C11.6778 2.28554 12.1994 2.12056 12.7443 2.03807C12.7792 2.0327 12.8128 2.01318 12.8468 2C14.0163 2 15.1858 2 16.3554 2H16.3549ZM7.15658 12.6109C7.23408 12.6109 7.30165 12.6109 7.36922 12.6109C7.97926 12.6109 8.58883 12.6138 9.19886 12.6099C9.49987 12.608 9.72857 12.7276 9.84151 13.0209C9.8864 13.1376 9.89396 13.2752 9.89443 13.4031C9.89727 15.7914 9.8968 18.1792 9.8968 20.5675C9.8968 20.6485 9.8968 20.7296 9.8968 20.8057H12.5893V20.5387C12.5893 18.1699 12.5893 15.8017 12.5893 13.4329C12.5893 12.8389 12.8109 12.6114 13.3898 12.6109C14.1004 12.6109 14.8107 12.6109 15.5213 12.6109H15.7387V9.92243C15.6622 9.92243 15.5951 9.92243 15.528 9.92243C14.7922 9.92243 14.057 9.92341 13.3212 9.92243C12.8511 9.92145 12.5921 9.65983 12.5898 9.18002C12.5869 8.627 12.5803 8.07349 12.5935 7.52095C12.5997 7.25591 12.6219 6.9855 12.6833 6.72974C12.8411 6.06933 13.3633 5.67153 14.117 5.63394C14.6249 5.60856 15.1348 5.61442 15.6437 5.60563C15.7104 5.60466 15.7765 5.5988 15.8417 5.59489V3.17389C14.9203 3.17389 14.014 3.1368 13.1119 3.18561C12.3714 3.22563 11.6948 3.51557 11.1259 4.02808C10.2947 4.77683 9.95633 5.76329 9.90908 6.86592C9.87648 7.61955 9.89916 8.37514 9.89727 9.13023C9.89585 9.66813 9.65297 9.92292 9.13885 9.9234C8.71783 9.92389 8.29633 9.9234 7.8753 9.9234H7.158V12.6119L7.15658 12.6109Z" fill="#E2E2E2"/>
</g>
</svg>
