<svg width="74" height="74" viewBox="0 0 74 74" fill="none" xmlns="http://www.w3.org/2000/svg">
<g id="Group 1000010210">
<rect id="Rectangle 813190" opacity="0.05" width="74" height="74" rx="37" fill="#4C005B"/>
<g id="Group 1000010203">
<path id="Vector" d="M18.275 58.3785L18.249 58.3685C18.2037 58.3511 18.1598 58.3337 18.1166 58.3167C18.0202 58.2787 17.9276 58.2421 17.8313 58.2095L17.8794 58.0674L17.8321 58.2098C17.2063 58.0016 16.6588 57.6076 16.2627 57.0803C15.8668 56.5533 15.6409 55.9181 15.6151 55.2594M18.275 58.3785L46.7055 14.9171C44.7298 14.9168 42.7542 14.9173 40.7786 14.9178C35.7302 14.919 30.6819 14.9203 25.6335 14.9081C25.1225 14.8954 24.6144 14.9901 24.1422 15.1861C23.6701 15.3821 23.2443 15.675 22.8925 16.0459C22.6848 16.2555 22.4771 16.4651 22.2695 16.6747C20.4908 18.4705 18.7135 20.2649 16.9001 22.0259L16.9 22.026C15.9963 22.9052 15.5902 23.9014 15.5902 25.1633L15.5902 25.1635C15.5992 34.9965 15.6037 44.8296 15.6037 54.6626C15.6037 54.8595 15.6048 55.0596 15.6151 55.2594M18.275 58.3785L18.3028 58.3784M18.275 58.3785L18.3028 58.3784M15.6151 55.2594C15.6151 55.2591 15.6151 55.2588 15.6151 55.2584L15.765 55.2526L15.6152 55.2604C15.6151 55.26 15.6151 55.2597 15.6151 55.2594ZM18.3028 58.3784L47.4846 58.3706L47.5549 58.3706L47.5998 58.3166C47.6065 58.3086 47.6121 58.3006 47.6166 58.2937L18.3028 58.3784ZM50.1454 18.3378V18.338V18.3537V18.3694V18.3851V18.4008V18.4165V18.4323V18.448V18.4637V18.4794V18.4951V18.5108V18.5265V18.5423V18.558V18.5737V18.5894V18.6051V18.6208V18.6365V18.6523V18.668V18.6837V18.6994V18.7151V18.7308V18.7465V18.7623V18.778V18.7937V18.8094V18.8251V18.8408V18.8566V18.8723V18.888V18.9037V18.9194V18.9351V18.9508V18.9666V18.9823V18.998V19.0137V19.0294V19.0451V19.0609V19.0766V19.0923V19.108V19.1237V19.1394V19.1551V19.1709V19.1866V19.2023V19.218V19.2337V19.2494V19.2652V19.2809V19.2966V19.3123V19.328V19.3437V19.3594V19.3752V19.3909V19.4066V19.4223V19.438V19.4537V19.4695V19.4852V19.5009V19.5166V19.5323V19.548V19.5638V19.5795V19.5952V19.6109V19.6266V19.6423V19.6581V19.6738V19.6895V19.7052V19.7209V19.7366V19.7523V19.7681V19.7838V19.7995V19.8152V19.8309V19.8466V19.8624V19.8781V19.8938V19.9095V19.9252V19.9409V19.9567V19.9724V19.9881V20.0038V20.0195V20.0352V20.051V20.0667V20.0824V20.0981V20.1138V20.1295V20.1453V20.161V20.1767V20.1924V20.2081V20.2238V20.2396V20.2553V20.271V20.2867V20.3024V20.3181V20.3339V20.3496V20.3653V20.381V20.3967V20.4124V20.4282V20.4439V20.4596V20.4753V20.491V20.5067V20.5225V20.5382V20.5539V20.5696V20.5853V20.601V20.6168V20.6325V20.6482V20.6639V20.6796V20.6953V20.7111V20.7268V20.7425V20.7582V20.7739V20.7896V20.8054V20.8211V20.8368V20.8525V20.8682V20.884V20.8997V20.9154V20.9311V20.9468V20.9625V20.9783V20.994V21.0097V21.0254V21.0411V21.0568V21.0726V21.0883V21.104V21.1197V21.1354V21.1512V21.1669V21.1826V21.1983V21.214V21.2297V21.2455V21.2612V21.2769V21.2926V21.3083V21.324V21.3398V21.3555V21.3712V21.3869V21.4026V21.4184V21.4341V21.4498V21.4655V21.4812V21.4969V21.5127V21.5284V21.5441V21.5598V21.5755V21.5913V21.607V21.6227V21.6384V21.6541V21.6698V21.6856V21.7013V21.717V21.7327V21.7484V21.7642V21.7799V21.7956V21.8113V21.827V21.8427V21.8585V21.8742V21.8899V21.9056V21.9213V21.9371V21.9528V21.9685V21.9842V21.9999V22.0156V22.0314V22.0471V22.0628V22.0785V22.0942V22.11V22.1257V22.1414V22.1571V22.1728V22.1886V22.2043V22.22V22.2357V22.2514V22.2671V22.2829V22.2986V22.3143V22.33V22.3457V22.3615V22.3772V22.3929V22.4086V22.4243V22.4401V22.4558V22.4715V22.4872V22.5029V22.5187V22.5344V22.5501V22.5658V22.5815V22.5973V22.613V22.6287V22.6444V22.6601V22.6758V22.6916V22.7073V22.723V22.7387V22.7544V22.7702V22.7859V22.8016V22.8173V22.833V22.8488V22.8645V22.8802V22.8959V22.9116V22.9274V22.9431V22.9588V22.9745V22.9902V23.006V23.0217V23.0374V23.0531V23.0688V23.0846V23.1003V23.116V23.1317V23.1474V23.1632V23.1789V23.1946V23.2103V23.226V23.2418V23.2575V23.2732V23.2889V23.3046V23.3204V23.3361V23.3518V23.3675V23.3832V23.399V23.4147V23.4304V23.4461V23.4618V23.4776V23.4933V23.509V23.5247V23.5404V23.5562V23.5719V23.5876V23.6033V23.619V23.6348V23.6505V23.6662V23.6819V23.6976V23.7134V23.7291V23.7448V23.7605V23.7762V23.792V23.8077V23.8234V23.8391V23.8548V23.8706V23.8863V23.902V23.9177V23.9334V23.9492V23.9649V23.9806V23.9963V24.0121V24.0278V24.0435V24.0592V24.0749V24.0907V24.1064V24.1221V24.1378V24.1535V24.1693V24.185V24.2007V24.2164V24.2321V24.2479V24.2636V24.2793V24.295V24.3108V24.3265V24.3422V24.3579V24.3736V24.3894V24.4051V24.4208V24.4365V24.4522V24.468V24.4837V24.4994V24.5151V24.5308V24.5466V24.5623V24.578V24.5937V24.6095V24.6252V24.6409V24.6566V24.6723V24.6881V24.7038V24.7195V24.7352V24.7509V24.7667V24.7824V24.7981V24.8138V24.8296V24.8453V24.861V24.8767V24.8924V24.9082V24.9239V24.9396V24.9553V24.9711V24.9868V25.0025V25.0182V25.0339V25.0497V25.0654V25.0811V25.0968V25.1126V25.1283V25.144V25.1597V25.1754V25.1912V25.2069V25.2226V25.2383V25.2541V25.2698V25.2855V25.3012V25.3169V25.3327V25.3484V25.3641V25.3798V25.3955V25.4113V25.427V25.4427V25.4584V25.4742V25.4899V25.5056V25.5213V25.5371V25.5528V25.5685V25.5842V25.5999V25.6157V25.6314V25.6471V25.6628V25.6786V25.6943V25.71V25.7257V25.7414V25.7572V25.7729V25.7886V25.8043V25.8201V25.8358V25.8515V25.8672V25.8829V25.8987V25.9144V25.9301V25.9458V25.9616V25.9773V25.993V26.0087V26.0245V26.0402V26.0559V26.0716V26.0873V26.1031V26.1188V26.1345V26.1502V26.166V26.1817V26.1974V26.2131V26.2289V26.2446V26.2603V26.276V26.2917V26.3075V26.3232V26.3389V26.3546V26.3704V26.382C50.1536 26.5354 50.138 26.6893 50.099 26.8379L50.1454 18.3378ZM50.1454 18.3378C50.1442 17.3328 49.7949 16.4755 49.1845 15.8691M50.1454 18.3378L49.1845 15.8691M48.5806 26.7L48.5804 26.698C48.5672 26.5395 48.5622 26.3805 48.5652 26.2215V26.2078V26.1927V26.1776V26.1626V26.1475V26.1325V26.1174V26.1023V26.0873V26.0722V26.0571V26.0421V26.027V26.0119V25.9969V25.9818V25.9668V25.9517V25.9366V25.9216V25.9065V25.8914V25.8764V25.8613V25.8462V25.8312V25.8161V25.8011V25.786V25.7709V25.7559V25.7408V25.7257V25.7107V25.6956V25.6805V25.6655V25.6504V25.6354V25.6203V25.6052V25.5902V25.5751V25.56V25.545V25.5299V25.5149V25.4998V25.4847V25.4697V25.4546V25.4395V25.4245V25.4094V25.3943V25.3793V25.3642V25.3492V25.3341V25.319V25.304V25.2889V25.2738V25.2588V25.2437V25.2287V25.2136V25.1985V25.1835V25.1684V25.1533V25.1383V25.1232V25.1081V25.0931V25.078V25.063V25.0479V25.0328V25.0178V25.0027V24.9876V24.9726V24.9575V24.9425V24.9274V24.9123V24.8973V24.8822V24.8671V24.8521V24.837V24.822V24.8069V24.7918V24.7768V24.7617V24.7466V24.7316V24.7165V24.7014V24.6864V24.6713V24.6563V24.6412V24.6261V24.6111V24.596V24.5809V24.5659V24.5508V24.5358V24.5207V24.5056V24.4906V24.4755V24.4604V24.4454V24.4303V24.4153V24.4002V24.3851V24.3701V24.355V24.3399V24.3249V24.3098V24.2948V24.2797V24.2646V24.2496V24.2345V24.2194V24.2044V24.1893V24.1743V24.1592V24.1441V24.1291V24.114V24.0989V24.0839V24.0688V24.0538V24.0387V24.0236V24.0086V23.9935V23.9784V23.9634V23.9483V23.9333V23.9182V23.9031V23.8881V23.873V23.8579V23.8429V23.8278V23.8128V23.7977V23.7826V23.7676V23.7525V23.7374V23.7224V23.7073V23.6923V23.6772V23.6621V23.6471V23.632V23.6169V23.6019V23.5868V23.5718V23.5567V23.5416V23.5266V23.5115V23.4965V23.4814V23.4663V23.4513V23.4362V23.4211V23.4061V23.391V23.376V23.3609V23.3458V23.3308V23.3157V23.3006V23.2856V23.2705V23.2555V23.2404V23.2253V23.2103V23.1952V23.1801V23.1651V23.15V23.135V23.1199V23.1048V23.0898V23.0747V23.0597V23.0446V23.0295V23.0145V22.9994V22.9843V22.9693V22.9542V22.9392V22.9241V22.909V22.894V22.8789V22.8638V22.8488V22.8337V22.8187V22.8036V22.7885V22.7735V22.7584V22.7434V22.7283V22.7132V22.6982V22.6831V22.668V22.653V22.6379V22.6229V22.6078V22.5927V22.5777V22.5626V22.5476V22.5325V22.5174V22.5024V22.4873V22.4722V22.4572V22.4421V22.4271V22.412V22.3969V22.3819V22.3668V22.3518V22.3367V22.3216V22.3066V22.2915V22.2764V22.2614V22.2463V22.2313V22.2162V22.2011V22.1861V22.171V22.156V22.1409V22.1258V22.1108V22.0957V22.0806V22.0656V22.0505V22.0355V22.0204V22.0053V21.9903V21.9752V21.9602V21.9451V21.93V21.915V21.8999V21.8849V21.8698V21.8547V21.8397V21.8246V21.8095V21.7945V21.7794V21.7644V21.7493V21.7342V21.7192V21.7041V21.6891V21.674V21.6589V21.6439V21.6288V21.6138V21.5987V21.5836V21.5686V21.5535V21.5384V21.5234V21.5083V21.4933V21.4782V21.4631V21.4481V21.433V21.418V21.4029V21.3878V21.3728V21.3577V21.3427V21.3276V21.3125V21.2975V21.2824V21.2673V21.2523V21.2372V21.2222V21.2071V21.192V21.177V21.1619V21.1469V21.1318V21.1167V21.1017V21.0866V21.0716V21.0565V21.0414V21.0264V21.0113V20.9963V20.9812V20.9661V20.9511V20.936V20.921V20.9059V20.8908V20.8758V20.8607V20.8456V20.8306V20.8155V20.8005V20.7854V20.7703V20.7553V20.7402V20.7252V20.7101V20.695V20.68V20.6649V20.6499V20.6348V20.6197V20.6047V20.5896V20.5746V20.5595V20.5444V20.5294V20.5143V20.4993V20.4842V20.4691V20.4541V20.439V20.424V20.4089V20.3938V20.3788V20.3637V20.3487V20.3336V20.3185V20.3035V20.2884V20.2734V20.2583V20.2432V20.2282V20.2131V20.1981V20.183V20.1679V20.1529V20.1378V20.1227V20.1077V20.0926V20.0776V20.0625V20.0474V20.0324V20.0173V20.0023V19.9872V19.9721V19.9571V19.942V19.927V19.9119V19.8968V19.8818V19.8667V19.8517V19.8366V19.8215V19.8065V19.7914V19.7764V19.7613V19.7462V19.7312V19.7161V19.7011V19.686V19.6709V19.6559V19.6408V19.6258V19.6107V19.5956V19.5806V19.5655V19.5505V19.5354V19.5203V19.5053V19.4902V19.4752V19.4601V19.445V19.43V19.4149V19.3999V19.3848V19.3697V19.3547V19.3396V19.3246V19.3095V19.2945V19.2794V19.2643V19.2493V19.2342V19.2192V19.2041V19.189V19.174V19.1589V19.1439V19.1288V19.1137V19.0987V19.0836V19.0686V19.0535V19.0384V19.0234V19.0083V18.9933V18.9782V18.9631V18.9481V18.933V18.918V18.9029V18.8878V18.8728V18.8577V18.8427V18.8276V18.8125V18.7975V18.7824V18.7674V18.7523V18.7372V18.7222V18.7071V18.6921V18.677V18.6619V18.6469V18.6318V18.6168V18.6017V18.5867V18.5716V18.5565V18.5415V18.5264V18.5114C48.5652 17.8096 48.3891 17.3089 48.0646 16.9829C47.7403 16.6569 47.243 16.4804 46.5467 16.4804H25.7277C25.6397 16.485 25.5515 16.4849 25.4635 16.4802L25.456 16.4798L25.456 16.4796C25.2979 16.4631 25.2441 16.4934 25.2226 16.516C25.1958 16.5443 25.1668 16.6132 25.1712 16.7826L25.1712 16.7849L25.1712 16.7849C25.1842 18.0677 25.1819 19.3507 25.1796 20.6322C25.1789 21.0221 25.1782 21.4119 25.1779 21.8014C25.1779 22.6501 24.9506 23.3258 24.4895 23.7889C24.0283 24.2521 23.3555 24.4802 22.5115 24.4802H17.2081C17.2076 24.4869 17.207 24.4936 17.2065 24.5002C17.198 24.6071 17.1906 24.7004 17.1906 24.7974V24.8565V24.9156V24.9747V25.0338V25.0929V25.152V25.2111V25.2702V25.3293V25.3883V25.4474V25.5065V25.5656V25.6247V25.6838V25.7429V25.802V25.8611V25.9202V25.9793V26.0384V26.0975V26.1566V26.2157V26.2747V26.3338V26.3929V26.452V26.5111V26.5702V26.6293V26.6884V26.7475V26.8066V26.8657V26.9248V26.9839V27.043V27.1021V27.1612V27.2202V27.2793V27.3384V27.3975V27.4566V27.5157V27.5748V27.6339V27.693V27.7521V27.8112V27.8703V27.9294V27.9885V28.0476V28.1067V28.1657V28.2248V28.2839V28.343V28.4021V28.4612V28.5203V28.5794V28.6385V28.6976V28.7567V28.8158V28.8749V28.934V28.9931V29.0521V29.1112V29.1703V29.2294V29.2885V29.3476V29.4067V29.4658V29.5249V29.584V29.6431V29.7022V29.7613V29.8204V29.8795V29.9386V29.9976V30.0567V30.1158V30.1749V30.234V30.2931V30.3522V30.4113V30.4704V30.5295V30.5886V30.6477V30.7068V30.7659V30.825V30.884V30.9431V31.0022V31.0613V31.1204V31.1795V31.2386V31.2977V31.3568V31.4159V31.475V31.5341V31.5932V31.6523V31.7114V31.7705V31.8295V31.8886V31.9477V32.0068V32.0659V32.125V32.1841V32.2432V32.3023V32.3614V32.4205V32.4796V32.5387V32.5978V32.6569V32.716V32.775V32.8341V32.8932V32.9523V33.0114V33.0705V33.1296V33.1887V33.2478V33.3069V33.366V33.4251V33.4842V33.5433V33.6024V33.6614V33.7205V33.7796V33.8387V33.8978V33.9569V34.016V34.0751V34.1342V34.1933V34.2524V34.3115V34.3706V34.4297V34.4888V34.5479V34.6069V34.666V34.7251V34.7842V34.8433V34.9024V34.9615V35.0206V35.0797V35.1388V35.1979V35.257V35.3161V35.3752V35.4343V35.4934V35.5524V35.6115V35.6706V35.7297V35.7888V35.8479V35.907V35.9661V36.0252V36.0843V36.1434V36.2025V36.2616V36.3207V36.3798V36.4388V36.4979V36.557V36.6161V36.6752V36.7343V36.7934V36.8525V36.9116V36.9707V37.0298V37.0889V37.148V37.2071V37.2662V37.3253V37.3843V37.4434V37.5025V37.5616V37.6207V37.6798V37.7389V37.798V37.8571V37.9162V37.9753V38.0344V38.0935V38.1526V38.2117V38.2708V38.3298V38.3889V38.448V38.5071V38.5662V38.6253V38.6844V38.7435V38.8026V38.8617V38.9208V38.9799V39.039V39.0981V39.1572V39.2162V39.2753V39.3344V39.3935V39.4526V39.5117V39.5708V39.6299V39.689V39.7481V39.8072V39.8663V39.9254V39.9845V40.0436V40.1027V40.1617V40.2208V40.2799V40.339V40.3981V40.4572V40.5163V40.5754V40.6345V40.6936V40.7527V40.8118V40.8709V40.93V40.9891V41.0481V41.1072V41.1663V41.2254V41.2845V41.3436V41.4027V41.4618V41.5209V41.58V41.6391V41.6982V41.7573V41.8164V41.8755V41.9346V41.9936V42.0527V42.1118V42.1709V42.23V42.2891V42.3482V42.4073V42.4664V42.5255V42.5846V42.6437V42.7028V42.7619V42.821V42.8801V42.9391V42.9982V43.0573V43.1164V43.1755V43.2346V43.2937V43.3528V43.4119V43.471V43.5301V43.5892V43.6483V43.7074V43.7665V43.8255V43.8846V43.9437V44.0028V44.0619V44.121V44.1801V44.2392V44.2983V44.3574V44.4165V44.4756V44.5347V44.5938V44.6529V44.712V44.771V44.8301V44.8892V44.9483V45.0074V45.0665V45.1256V45.1847V45.2438V45.3029V45.362V45.4211V45.4802V45.5393V45.5984V45.6574V45.7165V45.7756V45.8347V45.8938V45.9529V46.012V46.0711V46.1302V46.1893V46.2484V46.3075V46.3666V46.4257V46.4848V46.5439V46.6029V46.662V46.7211V46.7802V46.8393V46.8984V46.9575V47.0166V47.0757V47.1348V47.1939V47.253V47.3121V47.3712V47.4303V47.4894V47.5484V47.6075V47.6666V47.7257V47.7848V47.8439V47.903V47.9621V48.0212V48.0803V48.1394V48.1985V48.2576V48.3167V48.3758V48.4348V48.4939V48.553V48.6121V48.6712V48.7303V48.7894V48.8485V48.9076V48.9667V49.0258V49.0849V49.144V49.2031V49.2622V49.3213V49.3803V49.4394V49.4985V49.5576V49.6167V49.6758V49.7349V49.794V49.8531V49.9122V49.9713V50.0304V50.0895V50.1486V50.2077V50.2668V50.3258V50.3849V50.444V50.5031V50.5622V50.6213V50.6804V50.7395V50.7986V50.8577V50.9168V50.9759V51.035V51.0941V51.1532V51.2122V51.2713V51.3304V51.3895V51.4486V51.5077V51.5668V51.6259V51.685V51.7441V51.8032V51.8623V51.9214V51.9805V52.0396V52.0987V52.1577V52.2168V52.2759V52.335V52.3941V52.4532V52.5123V52.5714V52.6305V52.6896V52.7487V52.8078V52.8669V52.926V52.9851V53.0442V53.1032V53.1623V53.2214V53.2805V53.3396V53.3987V53.4578V53.5169V53.576V53.6351V53.6942V53.7533V53.8124V53.8715V53.9306V53.9896V54.0487V54.1078V54.1669V54.226V54.2851V54.3442V54.4033V54.4624V54.5215V54.5806V54.6397V54.6988V54.7579V54.817V54.8761V54.9351V54.9942V55.0533C17.1906 56.023 17.8796 56.745 18.8517 56.8076L18.8526 56.8076C18.9211 56.8124 18.9842 56.8109 19.0544 56.8092C19.0933 56.8083 19.1344 56.8073 19.1799 56.8073C28.3111 56.8073 37.4428 56.8054 46.5748 56.8016H46.5774C46.8694 56.8066 47.1604 56.7663 47.4401 56.6823C48.1192 56.4627 48.5327 55.861 48.5732 55.0401C48.5787 54.9104 48.5787 54.7802 48.5786 54.6465L48.5786 54.6352C48.5784 54.506 48.5783 54.3734 48.5834 54.2403L48.5835 54.2373C48.61 53.7852 48.9373 53.4421 49.3686 53.4464L49.3721 53.4464V53.4465C49.5724 53.4532 49.7631 53.5339 49.9073 53.673C50.0512 53.8118 50.1386 53.9988 50.1528 54.1981C50.1528 54.1986 50.1529 54.1991 50.1529 54.1996L50.0033 54.21L48.5806 26.7ZM48.5806 26.7C48.6004 26.905 48.6781 27.0745 48.8109 27.196C48.9417 27.3157 49.1127 27.3765 49.2991 27.3912C49.4761 27.4104 49.6543 27.3653 49.8009 27.2643C49.9482 27.1628 50.054 27.0117 50.0988 26.8386L48.5806 26.7ZM22.7889 22.8775C21.6941 22.8903 20.6004 22.8877 19.5053 22.8852C19.1439 22.8843 18.7824 22.8835 18.4206 22.8832L23.5617 17.7441C23.5618 18.2132 23.5627 18.6814 23.5635 19.1495C23.5652 20.12 23.567 21.0898 23.5617 22.0651L23.5617 22.0654C23.5607 22.3474 23.4889 22.5437 23.3697 22.67C23.2517 22.7951 23.066 22.8739 22.7889 22.8775ZM22.7889 22.8775C22.7889 22.8775 22.789 22.8775 22.789 22.8775L22.7907 23.0275M22.7889 22.8775C22.7889 22.8775 22.7888 22.8775 22.7888 22.8775L22.7907 23.0275M22.7907 23.0275C23.3999 23.0196 23.7095 22.6773 23.7117 22.0659L18.2706 23.0331C18.6817 23.0332 19.0928 23.0342 19.5038 23.0352C20.5994 23.0377 21.6948 23.0403 22.7907 23.0275ZM49.1845 15.8691C48.5742 15.2628 47.7128 14.9172 46.7055 14.9171L49.1845 15.8691Z" fill="#4C005B" stroke="#4C005B" stroke-width="0.3"/>
<path id="Vector_2" d="M51.5599 53.4394C51.2086 53.2532 50.8707 53.0447 50.538 52.8361C50.4944 52.8087 50.451 52.7815 50.4076 52.7542C50.1199 52.5734 49.8352 52.3945 49.5435 52.2282C49.4842 52.2015 49.4199 52.1876 49.3548 52.1876C49.2896 52.1876 49.2251 52.2015 49.1657 52.2284C48.4959 52.6059 47.852 53.0105 47.202 53.4237L47.2013 53.4241C46.9423 53.5869 46.6715 53.6964 46.3901 53.7209C46.1064 53.7455 45.8215 53.6828 45.5389 53.5165L45.5388 53.5164C45.2686 53.357 45.0756 53.1508 44.9531 52.9026C44.8314 52.6557 44.7835 52.3758 44.7895 52.0737L44.7895 52.0735C44.8022 51.4658 44.7997 50.8597 44.7972 50.2515C44.7961 50.0031 44.7951 49.7543 44.7951 49.505C44.7951 49.2113 44.7943 48.917 44.7936 48.6225C44.7921 48.0325 44.7906 47.4412 44.7951 46.8506C44.795 46.7225 44.7843 46.669 44.7641 46.6369C44.7488 46.6124 44.7112 46.5751 44.5758 46.5405L44.5752 46.5404C44.0304 46.3989 43.5453 46.0867 43.1908 45.6495C42.8363 45.2123 42.6311 44.6731 42.6053 44.1108L42.6051 44.1054L42.6052 44.1054C42.6029 43.8742 42.532 43.649 42.4014 43.4582C42.2709 43.2674 42.0865 43.1198 41.8719 43.034L41.8652 43.0313L41.8653 43.0311C41.0081 42.6398 40.4353 42.0509 40.2018 41.3402C39.968 40.629 40.0823 39.8217 40.5477 39.011L40.5515 39.0044L40.5517 39.0045C40.673 38.8158 40.7376 38.5962 40.7376 38.3718C40.7376 38.1475 40.673 37.9278 40.5517 37.7391L40.5477 37.733L40.5479 37.7329C40.0875 36.9342 39.9759 36.1246 40.2033 35.4124C40.4309 34.7001 40.9904 34.108 41.8276 33.7303L41.8282 33.73C42.0899 33.6133 42.2736 33.4653 42.3972 33.2837C42.5211 33.1017 42.5921 32.875 42.6099 32.5887L42.61 32.5885C42.6346 32.2053 42.7421 31.8321 42.9251 31.4946C43.1081 31.1571 43.3623 30.8634 43.6699 30.6338C43.9776 30.4042 44.3315 30.2442 44.7072 30.1648C45.0828 30.0854 45.4711 30.0886 45.8454 30.1741L45.8461 30.1742C46.1648 30.2486 46.4322 30.246 46.6695 30.1707C46.9067 30.0955 47.1275 29.9432 47.3455 29.6954L47.3461 29.6948C48.4593 28.4435 50.2785 28.4597 51.38 29.7204C51.5794 29.9479 51.7815 30.0934 52.0003 30.1688C52.2185 30.2439 52.4661 30.2537 52.7641 30.1884L52.7641 30.1884C53.5893 30.0081 54.3627 30.16 54.9571 30.5748C55.5518 30.9898 55.9567 31.6604 56.0583 32.4967C56.099 32.8304 56.1888 33.0893 56.3377 33.2962C56.4861 33.5025 56.7014 33.6686 57.0123 33.8035C57.3593 33.9514 57.6703 34.1724 57.9242 34.4512C58.1783 34.7302 58.3693 35.0607 58.4841 35.4201C58.599 35.7795 58.6351 36.1594 58.59 36.534C58.545 36.9082 58.4199 37.2684 58.2234 37.5899C58.0567 37.8729 57.9813 38.1276 57.9829 38.3755C57.9845 38.6238 58.0635 38.8796 58.2294 39.1644C58.4248 39.4868 58.5486 39.8475 58.5922 40.222C58.6359 40.597 58.5983 40.977 58.4819 41.3361C58.3655 41.6952 58.1731 42.025 57.9178 42.3031C57.6627 42.5809 57.3508 42.8005 57.0033 42.947C56.7013 43.0792 56.4855 43.2392 56.3367 43.4386C56.188 43.6377 56.0977 43.8874 56.0654 44.213L51.5599 53.4394ZM51.5599 53.4394C51.9 53.6243 52.2868 53.7055 52.6725 53.6729L52.6726 53.6731L52.6798 53.6721C53.0757 53.6193 53.3914 53.4348 53.6058 53.1478C53.8185 52.8632 53.9235 52.4889 53.9235 52.0665V52.0563V52.0461V52.0359V52.0257V52.0155V52.0052V51.995V51.9848V51.9746V51.9644V51.9542V51.944V51.9338V51.9236V51.9134V51.9032V51.893V51.8828V51.8726V51.8624V51.8522V51.842V51.8317V51.8215V51.8113V51.8011V51.7909V51.7807V51.7705V51.7603V51.7501V51.7399V51.7297V51.7195V51.7093V51.6991V51.6889V51.6787V51.6685V51.6582V51.648V51.6378V51.6276V51.6174V51.6072V51.597V51.5868V51.5766V51.5664V51.5562V51.546V51.5358V51.5256V51.5154V51.5052V51.495V51.4847V51.4745V51.4643V51.4541V51.4439V51.4337V51.4235V51.4133V51.4031V51.3929V51.3827V51.3725V51.3623V51.3521V51.3419V51.3317V51.3215V51.3112V51.301V51.2908V51.2806V51.2704V51.2602V51.25V51.2398V51.2296V51.2194V51.2092V51.199V51.1888V51.1786V51.1684V51.1582V51.148V51.1377V51.1275V51.1173V51.1071V51.0969V51.0867V51.0765V51.0663V51.0561V51.0459V51.0357V51.0255V51.0153V51.0051V50.9949V50.9847V50.9745V50.9642V50.954V50.9438V50.9336V50.9234V50.9132V50.903V50.8928V50.8826V50.8724V50.8622V50.852V50.8418V50.8316V50.8214V50.8112V50.801V50.7907V50.7805V50.7703V50.7601V50.7499V50.7397V50.7295V50.7193V50.7091V50.6989V50.6887V50.6785V50.6683V50.6581V50.6479V50.6377V50.6275V50.6172V50.607V50.5968V50.5866V50.5764V50.5662V50.556V50.5458V50.5356V50.5254V50.5152V50.505V50.4948V50.4846V50.4744V50.4642V50.454V50.4437V50.4335V50.4233V50.4131V50.4029V50.3927V50.3825V50.3723V50.3621V50.3519V50.3417V50.3315V50.3213V50.3111V50.3009V50.2907V50.2805V50.2702V50.26V50.2498V50.2396V50.2294V50.2192V50.209V50.1988V50.1886V50.1784V50.1682V50.158V50.1478V50.1376V50.1274V50.1172V50.1069V50.0967V50.0865V50.0763V50.0661V50.0559V50.0457V50.0355V50.0253V50.0151V50.0049V49.9947V49.9845V49.9743V49.9641V49.9539V49.9437V49.9334V49.9232V49.913V49.9028V49.8926V49.8824V49.8722V49.862V49.8518V49.8416V49.8314V49.8212V49.811V49.8008V49.7906V49.7804V49.7702V49.7599V49.7497V49.7395V49.7293V49.7191V49.7089V49.6987V49.6885V49.6783V49.6681V49.6579V49.6477V49.6375V49.6273V49.6171V49.6069V49.5967V49.5864V49.5762V49.566V49.5558V49.5456V49.5354V49.5252V49.515V49.5048V49.4946V49.4844V49.4742V49.464V49.4538V49.4436V49.4334V49.4232V49.4129V49.4027V49.3925V49.3823V49.3721V49.3619V49.3517V49.3415V49.3313V49.3211V49.3109V49.3007V49.2905V49.2803V49.2701V49.2599V49.2497V49.2394V49.2292V49.219V49.2088V49.1986V49.1884V49.1782V49.168V49.1578V49.1476V49.1374V49.1272V49.117V49.1068V49.0966V49.0864V49.0762V49.0659V49.0557V49.0455V49.0353V49.0251V49.0149V49.0047V48.9945V48.9843V48.9741V48.9639V48.9537V48.9435V48.9333V48.9231V48.9129V48.9027V48.8924V48.8822V48.872V48.8618V48.8516V48.8414V48.8312V48.821V48.8108V48.8006V48.7904V48.7802V48.77V48.7598V48.7496V48.7394V48.7292V48.7189V48.7087V48.6985V48.6883V48.6781V48.6679V48.6577V48.6475V48.6373V48.6271V48.6169V48.6067V48.5965V48.5863V48.5761V48.5659V48.5557V48.5454V48.5352V48.525V48.5148V48.5046V48.4944V48.4842V48.474V48.4638V48.4536V48.4434V48.4332V48.423V48.4128V48.4026V48.3924V48.3822V48.3719V48.3617V48.3515V48.3413V48.3311V48.3209V48.3107V48.3005V48.2903V48.2801V48.2699V48.2597V48.2495V48.2393V48.2291V48.2189V48.2087V48.1984V48.1882V48.178V48.1678V48.1576V48.1474V48.1372V48.127V48.1168V48.1066V48.0964V48.0862V48.076V48.0658V48.0556V48.0454V48.0352V48.0249V48.0147V48.0045V47.9943V47.9841V47.9739V47.9637V47.9535V47.9433V47.9331V47.9229V47.9127V47.9025V47.8923V47.8821V47.8719V47.8617V47.8514V47.8412V47.831V47.8208V47.8106V47.8004V47.7902V47.78V47.7698V47.7596V47.7494V47.7392V47.729V47.7188V47.7086V47.6984V47.6882V47.6779V47.6677V47.6575V47.6473V47.6371V47.6269V47.6167V47.6065V47.5963V47.5861V47.5759V47.5657V47.5555V47.5453V47.5351V47.5249V47.5146V47.5044V47.4942V47.484V47.4738V47.4636V47.4534V47.4432V47.433V47.4228V47.4126V47.4024V47.3922V47.382V47.3718V47.3616V47.3514V47.3411V47.3309V47.3207V47.3105V47.3003V47.2901V47.2799V47.2697V47.2595V47.2493V47.2391V47.2289V47.2187V47.2085V47.1983V47.1881V47.1779V47.1676V47.1574V47.1472V47.137V47.1268V47.1166V47.1064V47.0962V47.086V47.0758V47.0656V47.0554V47.0452V47.035V47.0248V47.0146V47.0044V46.9941V46.9839V46.9737V46.9635V46.9533V46.9431V46.9329V46.9227V46.9125V46.9023V46.8921V46.8819V46.8717V46.8615V46.8513V46.8411C53.9235 46.8126 53.923 46.7918 53.9225 46.7732C53.9219 46.7516 53.9215 46.7329 53.922 46.7087C53.9228 46.672 53.9265 46.6499 53.9319 46.6347C53.9369 46.6207 53.95 46.5844 54.066 46.5521L54.0664 46.5519C54.6399 46.3903 55.1117 46.1142 55.4552 45.7194C55.7991 45.3242 56.0064 44.8191 56.0654 44.2133L51.5599 53.4394ZM42.7597 32.5981C42.7214 33.2106 42.4523 33.6159 41.8893 33.867C40.277 34.5943 39.7906 36.1189 40.6778 37.658C40.8148 37.8709 40.8876 38.1187 40.8876 38.3718C40.8876 38.625 40.8148 38.8728 40.6778 39.0857C39.7793 40.6507 40.2702 42.1381 41.9276 42.8947C42.1698 42.9915 42.3779 43.1582 42.5252 43.3735C42.6726 43.5888 42.7526 43.843 42.7551 44.1039C42.7795 44.6342 42.973 45.1427 43.3073 45.555L42.7597 32.5981ZM42.7597 32.5981C42.7829 32.2366 42.8843 31.8845 43.0569 31.5661M42.7597 32.5981L43.0569 31.5661M54.4942 44.083L54.4942 44.0827C54.5385 43.4833 54.7012 42.9633 55.002 42.5325C55.3032 42.1013 55.7361 41.7692 56.305 41.5354L56.3053 41.5353C56.6636 41.3889 56.8906 41.14 56.9834 40.8568C57.0762 40.5735 57.0403 40.2388 56.8397 39.9103L56.8397 39.9103C56.527 39.3977 56.3665 38.886 56.3668 38.3684C56.3671 37.8508 56.5282 37.3392 56.8395 36.8268L56.8399 36.8263C57.039 36.5019 57.0718 36.1682 56.976 35.884C56.8801 35.5994 56.65 35.349 56.2938 35.2026L54.4942 44.083ZM54.4942 44.083C54.4749 44.3495 54.3547 44.5987 54.1581 44.7797C53.9636 44.9589 53.7087 45.058 53.4444 45.0574C53.3391 45.0441 53.2352 45.0292 53.1321 45.0143C52.8815 44.9783 52.6362 44.943 52.3905 44.9347C51.5592 44.892 50.8797 45.2285 50.3346 45.8244C49.965 46.2284 49.6413 46.4004 49.3432 46.401C49.0454 46.4016 48.7242 46.2311 48.3593 45.8313L48.3593 45.8312C47.6368 45.041 46.7235 44.7797 45.6988 45.0045C45.2403 45.1051 44.8776 45.0385 44.6239 44.8544C44.3707 44.6707 44.1993 44.3508 44.1623 43.8894C44.0785 42.8156 43.5433 41.9937 42.5394 41.6214C42.1243 41.4673 41.8596 41.1713 41.7539 40.8305C41.6479 40.4887 41.6981 40.0902 41.937 39.7265L41.9371 39.7264M54.4942 44.083L41.9371 39.7264M54.4927 32.6891L54.4928 32.689C54.486 32.532 54.444 32.3785 54.3698 32.2399C54.2957 32.1013 54.1914 31.9811 54.0645 31.8883C53.9377 31.7954 53.7917 31.7322 53.6371 31.7034C53.4826 31.6746 53.3236 31.6808 53.1718 31.7217L53.1668 31.7231L53.1667 31.723C52.5788 31.8595 52.0349 31.8574 51.5343 31.6994C51.0333 31.5412 50.5868 31.2304 50.1885 30.7672C49.938 30.4764 49.6318 30.3442 49.3338 30.3491C49.035 30.3541 48.7268 30.4973 48.4751 30.7916L48.4751 30.7917C48.1029 31.2265 47.683 31.5291 47.2095 31.6898C46.7359 31.8505 46.2189 31.8656 45.6581 31.7413C45.215 31.6435 44.8637 31.7132 44.6169 31.8983C44.3698 32.0836 44.2021 32.4035 44.1657 32.8578L44.1657 32.8579C44.079 33.9271 43.5263 34.6873 42.5611 35.1314L42.561 35.1315C42.0762 35.3538 41.8159 35.6105 41.7233 35.8979C41.6306 36.1855 41.6915 36.5482 41.9536 37.0159L54.4927 32.6891ZM54.4927 32.6891L54.4932 32.6945M54.4927 32.6891L54.4932 32.6945M54.4932 32.6945C54.5404 33.2868 54.7053 33.7991 55.0052 34.2229M54.4932 32.6945L55.0052 34.2229M41.9371 39.7264C42.5068 38.8573 42.4544 37.9068 41.9537 37.0161L41.9371 39.7264ZM51.4144 46.9711C51.0754 47.2822 50.6728 47.6464 50.212 47.8069C49.6634 47.9984 49.1345 48.0281 48.6406 47.8946C48.1471 47.7612 47.6994 47.4677 47.308 47.03L47.3078 47.0297C47.0307 46.7185 46.75 46.5077 46.3516 46.5084V52.0775C46.4564 52.0193 46.5353 51.9746 46.614 51.9263C46.7329 51.8533 46.8517 51.7804 46.9705 51.7076C47.4733 51.3992 47.9752 51.0915 48.4734 50.7778C48.7566 50.5968 49.0459 50.5013 49.3413 50.5002C49.6368 50.4991 49.9263 50.5925 50.2095 50.7694C50.8627 51.1776 51.5207 51.578 52.1795 51.9789L52.1795 51.9789C52.2151 52.0006 52.2506 52.0192 52.2893 52.0381V46.5102M51.4144 46.9711C51.4143 46.9711 51.4142 46.9712 51.4141 46.9713L51.3133 46.8602L51.4148 46.9707C51.4146 46.9708 51.4145 46.9709 51.4144 46.9711ZM51.4144 46.9711C51.6984 46.7134 51.9472 46.5323 52.2893 46.5102M52.2893 46.5102C52.3346 46.5073 52.3816 46.5072 52.4305 46.51L52.4393 46.3603H52.2893V46.5102ZM55.0052 34.2229C55.3054 34.647 55.7342 34.9729 56.2937 35.2026L55.0052 34.2229ZM43.0569 31.5661C43.2296 31.2477 43.4694 30.9707 43.7597 30.754M43.0569 31.5661L43.7597 30.754M43.7597 30.754C44.0499 30.5374 44.3838 30.3865 44.7382 30.3116M43.7597 30.754L44.7382 30.3116M44.7382 30.3116C45.0925 30.2367 45.4589 30.2397 45.812 30.3203L44.7382 30.3116ZM55.9161 44.1985C55.8035 45.3571 55.128 46.0968 54.0257 46.4076C53.766 46.48 53.7691 46.6191 53.7726 46.7821C53.7731 46.8014 53.7735 46.8211 53.7735 46.8411V52.0665C53.7735 52.8636 53.3771 53.4277 52.6599 53.5234C52.3031 53.5536 51.9454 53.4784 51.6308 53.3073L55.9161 44.1985ZM44.9451 46.8512C44.9451 46.599 44.9124 46.4718 44.6129 46.3952L44.9451 46.8512Z" fill="#4C005B" stroke="#4C005B" stroke-width="0.3"/>
<path id="Vector_3" d="M43.0733 20.7173C43.0891 20.7283 43.1065 20.7398 43.1246 20.7517C43.2161 20.8122 43.3244 20.8838 43.3244 20.9515L43.0733 20.7173ZM43.0733 20.7173C43.0476 20.6992 43.0057 20.7054 42.9649 20.7114M43.0733 20.7173L42.9649 20.7114M31.1571 22.8879L31.1571 22.8879C31.4388 22.8933 31.6791 22.9599 31.8505 23.1007C32.0271 23.2459 32.1112 23.4543 32.1059 23.6976C32.1005 23.9405 32.0088 24.1438 31.8282 24.2829C31.6532 24.4176 31.4126 24.4785 31.1322 24.4815L31.1306 24.4816V24.4816H31.129H31.1275H31.1259H31.1244H31.1228H31.1213H31.1197H31.1181H31.1166H31.115H31.1135H31.1119H31.1104H31.1088H31.1072H31.1057H31.1041H31.1026H31.101H31.0995H31.0979H31.0963H31.0948H31.0932H31.0917H31.0901H31.0885H31.087H31.0854H31.0839H31.0823H31.0808H31.0792H31.0776H31.0761H31.0745H31.073H31.0714H31.0698H31.0683H31.0667H31.0652H31.0636H31.0621H31.0605H31.0589H31.0574H31.0558H31.0543H31.0527H31.0511H31.0496H31.048H31.0465H31.0449H31.0433H31.0418H31.0402H31.0387H31.0371H31.0355H31.034H31.0324H31.0309H31.0293H31.0277H31.0262H31.0246H31.0231H31.0215H31.0199H31.0184H31.0168H31.0153H31.0137H31.0121H31.0106H31.009H31.0075H31.0059H31.0043H31.0028H31.0012H30.9997H30.9981H30.9965H30.995H30.9934H30.9918H30.9903H30.9887H30.9872H30.9856H30.984H30.9825H30.9809H30.9794H30.9778H30.9762H30.9747H30.9731H30.9716H30.97H30.9684H30.9669H30.9653H30.9637H30.9622H30.9606H30.9591H30.9575H30.9559H30.9544H30.9528H30.9513H30.9497H30.9481H30.9466H30.945H30.9434H30.9419H30.9403H30.9388H30.9372H30.9356H30.9341H30.9325H30.9309H30.9294H30.9278H30.9263H30.9247H30.9231H30.9216H30.92H30.9184H30.9169H30.9153H30.9138H30.9122H30.9106H30.9091H30.9075H30.9059H30.9044H30.9028H30.9013H30.8997H30.8981H30.8966H30.895H30.8934H30.8919H30.8903H30.8888H30.8872H30.8856H30.8841H30.8825H30.8809H30.8794H30.8778H30.8762H30.8747H30.8731H30.8716H30.87H30.8684H30.8669H30.8653H30.8637H30.8622H30.8606H30.859H30.8575H30.8559H30.8544H30.8528H30.8512H30.8497H30.8481H30.8465H30.845H30.8434H30.8418H30.8403H30.8387H30.8372H30.8356H30.834H30.8325H30.8309H30.8293H30.8278H30.8262H30.8246H30.8231H30.8215H30.8199H30.8184H30.8168H30.8153H30.8137H30.8121H30.8106H30.809H30.8074H30.8059H30.8043H30.8027H30.8012H30.7996H30.798H30.7965H30.7949H30.7934H30.7918H30.7902H30.7887H30.7871H30.7855H30.784H30.7824H30.7808H30.7793H30.7777H30.7761H30.7746H30.773H30.7714H30.7699H30.7683H30.7668H30.7652H30.7636H30.7621H30.7605H30.7589H30.7574H30.7558H30.7542H30.7527H30.7511H30.7495H30.748H30.7464H30.7448H30.7433H30.7417H30.7401H30.7386H30.737H30.7354H30.7339H30.7323H30.7308H30.7292H30.7276H30.7261H30.7245H30.7229H30.7214H30.7198H30.7182H30.7167H30.7151H30.7135H30.712H30.7104H30.7088H30.7073H30.7057H30.7041H30.7026H30.701H30.6994H30.6979H30.6963H30.6948H30.6932H30.6916H30.6901H30.6885H30.6869H30.6854H30.6838H30.6822H30.6807H30.6791H30.6775H30.676H30.6744H30.6728H30.6713H30.6697H30.6681H30.6666H30.665H30.6634H30.6619H30.6603H30.6587H30.6572H30.6556H30.654H30.6525H30.6509H30.6493H30.6478H30.6462H30.6447H30.6431H30.6415H30.64H30.6384H30.6368H30.6353H30.6337H30.6321H30.6306H30.629H30.6274H30.6259H30.6243H30.6227H30.6212H30.6196H30.618H30.6165H30.6149H30.6133H30.6118H30.6102H30.6086H30.6071H30.6055H30.6039H30.6024H30.6008H30.5992H30.5977H30.5961H30.5945H30.593H30.5914H30.5898H30.5883H30.5867H30.5852H30.5836H30.582H30.5805H30.5789H30.5773H30.5758H30.5742H30.5726H30.5711H30.5695H30.5679H30.5664H30.5648H30.5632H30.5617H30.5601H30.5585H30.557H30.5554H30.5538H30.5523H30.5507H30.5491H30.5476H30.546H30.5444H30.5429H30.5413H30.5397H30.5382H30.5366H30.535H30.5335H30.5319H30.5304H30.5288H30.5272H30.5257H30.5241H30.5225H30.521H30.5194H30.5178H30.5163H30.5147H30.5131H30.5116H30.51H30.5084H30.5069H30.5053H30.5037H30.5022H30.5006H30.499H30.4975H30.4959H30.4943H30.4928H30.4912H30.4896H30.4881H30.4865H30.485H30.4834H30.4818H30.4803H30.4787H30.4771H30.4756H30.474H30.4724H30.4709H30.4693H30.4677H30.4662H30.4646H30.463H30.4615H30.4599H30.4583H30.4568H30.4552H30.4536H30.4521H30.4505H30.449H30.4474H30.4458H30.4443H30.4427H30.4411H30.4396H30.438H30.4364H30.4349H30.4333H30.4317H30.4302H30.4286H30.427H30.4255H30.4239H30.4223H30.4208H30.4192H30.4177H30.4161H30.4145H30.413H30.4114H30.4098H30.4083H30.4067H30.4051H30.4036H30.402H30.4004H30.3989H30.3973H30.3957H30.3942H30.3926H30.3911H30.3895H30.3879H30.3864H30.3848H30.3832H30.3817H30.3801H30.3785H30.377H30.3754H30.3738H30.3723H30.3707H30.3692H30.3676H30.366H30.3645H30.3629H30.3613H30.3598H30.3582H30.3566H30.3551H30.3535H30.352H30.3504H30.3488H30.3473H30.3457H30.3441H30.3426H30.341H30.3394H30.3379H30.3363H30.3347H30.3332H30.3316H30.3301H30.328L30.328 24.4815C29.8473 24.4749 29.4356 24.3241 29.1377 24.0445C28.8392 23.7643 28.6679 23.367 28.6467 22.8926L28.6467 22.8924C28.6172 22.2123 28.6184 21.5325 28.6467 20.8585C28.666 20.3842 28.8276 19.9863 29.1162 19.7064C29.405 19.4263 29.8067 19.2782 30.2801 19.277L30.2803 19.277C34.565 19.2695 38.8489 19.2695 43.1321 19.277C43.6204 19.2771 44.0288 19.4281 44.3178 19.7146C44.6066 20.0008 44.7607 20.407 44.7703 20.8877L44.7703 20.8878L31.1571 22.8879ZM31.1571 22.8879H31.1542M31.1571 22.8879H31.1542M31.1542 22.8879H31.1522H31.1502H31.1482H31.1462H31.1442H31.1422H31.1402H31.1381H31.1361H31.1341H31.1321H31.1301H31.1281H31.1261H31.1241H31.1221H31.12H31.118H31.116H31.114H31.112H31.11H31.108H31.106H31.1039H31.1019H31.0999H31.0979H31.0959H31.0939H31.0919H31.0899H31.0878H31.0858H31.0838H31.0818H31.0798H31.0778H31.0758H31.0738H31.0717H31.0697H31.0677H31.0657H31.0637H31.0617H31.0597H31.0576H31.0556H31.0536H31.0516H31.0496H31.0476H31.0456H31.0436H31.0415H31.0395H31.0375H31.0355H31.0335H31.0315H31.0295H31.0275H31.0254H31.0234H31.0214H31.0194H31.0174H31.0154H31.0134H31.0113H31.0093H31.0073H31.0053H31.0033H31.0013H30.9993H30.9972H30.9952H30.9932H30.9912H30.9892H30.9872H30.9852H30.9831H30.9811H30.9791H30.9771H30.9751H30.9731H30.9711H30.969H30.967H30.965H30.963H30.961H30.959H30.957H30.9549H30.9529H30.9509H30.9489H30.9469H30.9449H30.9428H30.9408H30.9388H30.9368H30.9348H30.9328H30.9307H30.9287H30.9267H30.9247H30.9227H30.9207H30.9186H30.9166H30.9146H30.9126H30.9106H30.9086H30.9065H30.9045H30.9025H30.9005H30.8985H30.8965H30.8944H30.8924H30.8904H30.8884H30.8864H30.8844H30.8823H30.8803H30.8783H30.8763H30.8743H30.8722H30.8702H30.8682H30.8662H30.8642H30.8621H30.8601H30.8581H30.8561H30.8541H30.8521H30.85H30.848H30.846H30.844H30.842H30.8399H30.8379H30.8359H30.8339H30.8319H30.8298H30.8278H30.8258H30.8238H30.8217H30.8197H30.8177H30.8157H30.8137H30.8116H30.8096H30.8076H30.8056H30.8036H30.8015H30.7995H30.7975H30.7955H30.7934H30.7914H30.7894H30.7874H30.7854H30.7833H30.7813H30.7793H30.7773H30.7752H30.7732H30.7712H30.7692H30.7671H30.7651H30.7631H30.7611H30.759H30.757H30.755H30.753H30.7509H30.7489H30.7469H30.7449H30.7428H30.7408H30.7388H30.7368H30.7347H30.7327H30.7307H30.7287H30.7266H30.7246H30.7226H30.7205H30.7185H30.7165H30.7145H30.7124H30.7104H30.7084H30.7064H30.7043H30.7023H30.7003H30.6982H30.6962H30.6942H30.6922H30.6901H30.6881H30.6861H30.684H30.682H30.68H30.6779H30.6759H30.6739H30.6718H30.6698H30.6678H30.6658H30.6637H30.6617H30.6597H30.6576H30.6556H30.6536H30.6515H30.6495H30.6475H30.6454H30.6434H30.6414H30.6393H30.6373H30.6353H30.6332H30.6312H30.6292H30.6271H30.6251H30.6231H30.621H30.619H30.617H30.6149H30.6129H30.6109H30.6088H30.6068H30.6047H30.6027H30.6007H30.5986H30.5966H30.5946H30.5925H30.5905H30.5884H30.5864H30.5844H30.5823H30.5803H30.5783H30.5762H30.5742H30.5721H30.5701H30.5681H30.566H30.564H30.5619H30.5599H30.5579H30.5558H30.5538H30.5517H30.5497H30.5477H30.5456H30.5436H30.5415H30.5395H30.5374H30.5354H30.5334H30.5313H30.5293H30.5272H30.5252H30.5231H30.5211H30.5191H30.517H30.515H30.5129H30.5109H30.5088H30.5068H30.5047H30.5027H30.5006H30.4986H30.4965H30.4945H30.4925H30.4904H30.4884H30.4863H30.4843H30.4822H30.4802H30.4781H30.4761H30.474H30.472H30.4699H30.4679H30.4658H30.4638H30.4617H30.4597H30.4576H30.4556H30.4535H30.4515H30.4494H30.4474H30.4453H30.4433H30.4412H30.4392H30.4371H30.435H30.433H30.4309H30.4289H30.4268H30.4248H30.4227H30.4207H30.4186H30.4166H30.4145H30.4124H30.4104H30.4083H30.4063H30.4042H30.4022H30.4001H30.398H30.396H30.3939H30.3919H30.3898H30.3878H30.3857H30.3836H30.3816H30.3795H30.3775H30.3754H30.3733H30.3713H30.3692H30.3672H30.3651H30.363H30.361H30.3589H30.3568H30.3548H30.3527H30.3507H30.3486H30.3465H30.3445H30.3424H30.3403H30.3383H30.3362H30.3341H30.3321H30.33H30.3279H30.3259H30.3238H30.3217H30.3197H30.3176H30.3155H30.3135H30.3114H30.3093H30.3073H30.3052H30.3031H30.3011H30.299H30.2969H30.2948H30.2928H30.2907H30.2886H30.2866H30.2845H30.2824H30.2803H30.2783H30.2762H30.2741H30.2721H30.27H30.2679H30.2658H30.2638H30.2617H30.2596H30.2594V20.8748C30.3467 20.8687 30.4122 20.8644 30.4805 20.8672L30.4805 20.8673H30.4866H42.9078C42.9322 20.8673 42.9555 20.8643 42.9715 20.8621C42.9789 20.861 42.9849 20.8601 42.99 20.8594C42.998 20.8582 43.0041 20.8573 43.0111 20.8565C43.0244 20.8654 43.0371 20.8738 43.0494 20.8819C43.0824 20.9037 43.1123 20.9234 43.1418 20.9467C43.1578 20.9593 43.1685 20.9692 43.1751 20.9762C43.1898 21.4792 43.1883 21.9817 43.1867 22.5025C43.1863 22.6219 43.1859 22.7423 43.1858 22.8639C43.1629 22.8656 43.1406 22.8673 43.1187 22.869C42.9952 22.8784 42.8859 22.8867 42.7727 22.8867H42.7564H42.7401H42.7238H42.7075H42.6912H42.675H42.6587H42.6424H42.6261H42.6098H42.5935H42.5772H42.5609H42.5446H42.5284H42.5121H42.4958H42.4795H42.4632H42.4469H42.4306H42.4143H42.398H42.3818H42.3655H42.3492H42.3329H42.3166H42.3003H42.284H42.2677H42.2514H42.2351H42.2189H42.2026H42.1863H42.17H42.1537H42.1374H42.1211H42.1048H42.0885H42.0723H42.056H42.0397H42.0234H42.0071H41.9908H41.9745H41.9582H41.9419H41.9256H41.9094H41.8931H41.8768H41.8605H41.8442H41.8279H41.8116H41.7953H41.779H41.7627H41.7465H41.7302H41.7139H41.6976H41.6813H41.665H41.6487H41.6324H41.6161H41.5998H41.5836H41.5673H41.551H41.5347H41.5184H41.5021H41.4858H41.4695H41.4532H41.4369H41.4207H41.4044H41.3881H41.3718H41.3555H41.3392H41.3229H41.3066H41.2903H41.274H41.2577H41.2415H41.2252H41.2089H41.1926H41.1763H41.16H41.1437H41.1274H41.1111H41.0948H41.0785H41.0623H41.046H41.0297H41.0134H40.9971H40.9808H40.9645H40.9482H40.9319H40.9156H40.8993H40.8831H40.8668H40.8505H40.8342H40.8179H40.8016H40.7853H40.769H40.7527H40.7364H40.7201H40.7038H40.6876H40.6713H40.655H40.6387H40.6224H40.6061H40.5898H40.5735H40.5572H40.5409H40.5246H40.5084H40.4921H40.4758H40.4595H40.4432H40.4269H40.4106H40.3943H40.378H40.3617H40.3454H40.3291H40.3128H40.2966H40.2803H40.264H40.2477H40.2314H40.2151H40.1988H40.1825H40.1662H40.1499H40.1336H40.1173H40.1011H40.0848H40.0685H40.0522H40.0359H40.0196H40.0033H39.987H39.9707H39.9544H39.9381H39.9218H39.9055H39.8893H39.873H39.8567H39.8404H39.8241H39.8078H39.7915H39.7752H39.7589H39.7426H39.7263H39.71H39.6937H39.6775H39.6612H39.6449H39.6286H39.6123H39.596H39.5797H39.5634H39.5471H39.5308H39.5145H39.4982H39.4819H39.4657H39.4494H39.4331H39.4168H39.4005H39.3842H39.3679H39.3516H39.3353H39.319H39.3027H39.2864H39.2701H39.2538H39.2376H39.2213H39.205H39.1887H39.1724H39.1561H39.1398H39.1235H39.1072H39.0909H39.0746H39.0583H39.042H39.0257H39.0094H38.9932H38.9769H38.9606H38.9443H38.928H38.9117H38.8954H38.8791H38.8628H38.8465H38.8302H38.8139H38.7976H38.7813H38.7651H38.7488H38.7325H38.7162H38.6999H38.6836H38.6673H38.651H38.6347H38.6184H38.6021H38.5858H38.5695H38.5532H38.5369H38.5206H38.5044H38.4881H38.4718H38.4555H38.4392H38.4229H38.4066H38.3903H38.374H38.3577H38.3414H38.3251H38.3088H38.2925H38.2762H38.26H38.2437H38.2274H38.2111H38.1948H38.1785H38.1622H38.1459H38.1296H38.1133H38.097H38.0807H38.0644H38.0481H38.0318H38.0155H37.9993H37.983H37.9667H37.9504H37.9341H37.9178H37.9015H37.8852H37.8689H37.8526H37.8363H37.82H37.8037H37.7874H37.7711H37.7548H37.7385H37.7223H37.706H37.6897H37.6734H37.6571H37.6408H37.6245H37.6082H37.5919H37.5756H37.5593H37.543H37.5267H37.5104H37.4941H37.4778H37.4615H37.4453H37.429H37.4127H37.3964H37.3801H37.3638H37.3475H37.3312H37.3149H37.2986H37.2823H37.266H37.2497H37.2334H37.2171H37.2008H37.1845H37.1682H37.152H37.1357H37.1194H37.1031H37.0868H37.0705H37.0542H37.0379H37.0216H37.0053H36.989H36.9727H36.9564H36.9401H36.9238H36.9075H36.8912H36.8749H36.8587H36.8424H36.8261H36.8098H36.7935H36.7772H36.7609H36.7446H36.7283H36.712H36.6957H36.6794H36.6631H36.6468H36.6305H36.6142H36.5979H36.5816H36.5653H36.5491H36.5328H36.5165H36.5002H36.4839H36.4676H36.4513H36.435H36.4187H36.4024H36.3861H36.3698H36.3535H36.3372H36.3209H36.3046H36.2883H36.272H36.2557H36.2395H36.2232H36.2069H36.1906H36.1743H36.158H36.1417H36.1254H36.1091H36.0928H36.0765H36.0602H36.0439H36.0276H36.0113H35.995H35.9787H35.9624H35.9461H35.9299H35.9136H35.8973H35.881H35.8647H35.8484H35.8321H35.8158H35.7995H35.7832H35.7669H35.7506H35.7343H35.718H35.7017H35.6854H35.6691H35.6528H35.6365H35.6202H35.604H35.5877H35.5714H35.5551H35.5388H35.5225H35.5062H35.4899H35.4736H35.4573H35.441H35.4247H35.4084H35.3921H35.3758H35.3595H35.3432H35.3269H35.3106H35.2943H35.2781H35.2618H35.2455H35.2292H35.2129H35.1966H35.1803H35.164H35.1477H35.1314H35.1151H35.0988H35.0825H35.0662H35.0499H35.0336H35.0173H35.001H34.9847H34.9684H34.9521H34.9359H34.9196H34.9033H34.887H34.8707H34.8544H34.8381H34.8218H34.8055H34.7892H34.7729H34.7566H34.7403H34.724H34.7077H34.6914H34.6751H34.6588H34.6425H34.6262H34.61H34.5937H34.5774H34.5611H34.5448H34.5285H34.5122H34.4959H34.4796H34.4633H34.447L34.4307 22.8867L34.4304 22.8867C34.145 22.8873 33.9047 22.9509 33.7354 23.0953C33.5612 23.2438 33.4861 23.4572 33.4926 23.7028L33.4926 23.7028M31.1542 22.8879L33.4926 23.7028M33.4926 23.7028L33.4927 23.7043M33.4926 23.7028L33.4927 23.7043M33.4927 23.7043C33.5013 23.9388 33.59 24.1396 33.762 24.2787M33.4927 23.7043L33.762 24.2787M33.762 24.2787C33.9304 24.4149 34.1613 24.4781 34.4304 24.4782L33.762 24.2787ZM42.9649 20.7114C42.9449 20.7144 42.9252 20.7173 42.9078 20.7173M42.9649 20.7114L42.9078 20.7173M42.9078 20.7173H30.4866H42.9078ZM44.3067 24.0262C44.6009 23.7335 44.7619 23.3194 44.7703 22.8311L34.4307 24.4782C37.3244 24.4834 40.2174 24.4834 43.1096 24.4782H43.1097C43.5983 24.477 44.0124 24.3191 44.3067 24.0262ZM42.9868 20.8399L42.9878 20.8406L42.9868 20.8399ZM43.1823 20.9851C43.1823 20.9851 43.1821 20.9847 43.1817 20.9841L43.1823 20.9851Z" fill="#4C005B" stroke="#4C005B" stroke-width="0.3"/>
<path id="Vector_4" d="M37.0126 31.6577V31.8077C37.0355 31.8077 37.0623 31.8082 37.0912 31.8088C37.1593 31.8101 37.2397 31.8117 37.3105 31.8072C37.4089 31.801 37.5379 31.782 37.6337 31.7024C37.8548 31.5309 38.0165 31.2941 38.0956 31.0256L38.0959 31.0257L38.0981 31.0158C38.1397 30.8286 38.0937 30.6562 37.9879 30.5215C37.8844 30.3899 37.7294 30.3004 37.5572 30.2568L37.5572 30.2568L37.5531 30.2558C37.3781 30.2168 37.199 30.1994 37.0198 30.2038H37.0067H36.9917H36.9767H36.9617H36.9467H36.9318H36.9168H36.9018H36.8868H36.8718H36.8568H36.8419H36.8269H36.8119H36.7969H36.7819H36.7669H36.752H36.737H36.722H36.707H36.692H36.677H36.6621H36.6471H36.6321H36.6171H36.6021H36.5871H36.5722H36.5572H36.5422H36.5272H36.5122H36.4972H36.4823H36.4673H36.4523H36.4373H36.4223H36.4074H36.3924H36.3774H36.3624H36.3474H36.3324H36.3175H36.3025H36.2875H36.2725H36.2575H36.2426H36.2276H36.2126H36.1976H36.1826H36.1676H36.1527H36.1377H36.1227H36.1077H36.0927H36.0778H36.0628H36.0478H36.0328H36.0178H36.0029H35.9879H35.9729H35.9579H35.9429H35.928H35.913H35.898H35.883H35.868H35.8531H35.8381H35.8231H35.8081H35.7931H35.7782H35.7632H35.7482H35.7332H35.7182H35.7033H35.6883H35.6733H35.6583H35.6433H35.6284H35.6134H35.5984H35.5834H35.5684H35.5535H35.5385H35.5235H35.5085H35.4936H35.4786H35.4636H35.4486H35.4336H35.4187H35.4037H35.3887H35.3737H35.3588H35.3438H35.3288H35.3138H35.2988H35.2839H35.2689H35.2539H35.2389H35.224H35.209H35.194H35.179H35.164H35.1491H35.1341H35.1191H35.1041H35.0892H35.0742H35.0592H35.0442H35.0293H35.0143H34.9993H34.9843H34.9693H34.9544H34.9394H34.9244H34.9094H34.8945H34.8795H34.8645H34.8495H34.8346H34.8196H34.8046H34.7896H34.7747H34.7597H34.7447H34.7297H34.7148H34.6998H34.6848H34.6698H34.6549H34.6399H34.6249H34.6099H34.595H34.58H34.565H34.55H34.5351H34.5201H34.5051H34.4901H34.4752H34.4602H34.4452H34.4302H34.4153H34.4003H34.3853H34.3703H34.3554H34.3404H34.3254H34.3105H34.2955H34.2805H34.2655H34.2506H34.2356H34.2206H34.2056H34.1907H34.1757H34.1607H34.1457H34.1308H34.1158H34.1008H34.0859H34.0709H34.0559H34.0409H34.026H34.011H33.996H33.981H33.9661H33.9511H33.9361H33.9212H33.9062H33.8912H33.8762H33.8613H33.8463H33.8313H33.8164H33.8014H33.7864H33.7714H33.7565H33.7415H33.7265H33.7116H33.6966H33.6816H33.6666H33.6517H33.6367H33.6217H33.6068H33.5918H33.5768H33.5618H33.5469H33.5319H33.5169H33.502H33.487H33.472H33.4571H33.4421H33.4271H33.4121H33.3972H33.3822H33.3672H33.3523H33.3373H33.3223H33.3074H33.2924H33.2774H33.2624H33.2475H33.2325H33.2175H33.2026H33.1876H33.1726H33.1577H33.1427H33.1277H33.1128H33.0978H33.0828H33.0678H33.0529H33.0379H33.0229H33.008H32.993H32.978H32.9631H32.9481H32.9331H32.9182H32.9032H32.8882H32.8733H32.8583H32.8433H32.8284H32.8134H32.7984H32.7835H32.7685H32.7535H32.7386H32.7236H32.7086H32.6936H32.6787H32.6637H32.6487H32.6338H32.6188H32.6038H32.5889H32.5739H32.5589H32.544H32.529H32.514H32.4991H32.4841H32.4691H32.4542H32.4392H32.4242H32.4093H32.3943H32.3794H32.3644H32.3494H32.3345H32.3195H32.3045H32.2896H32.2746H32.2596H32.2447H32.2297H32.2147H32.1998H32.1848H32.1698H32.1549H32.1399H32.1249H32.11H32.095H32.08H32.0651H32.0501H32.0352H32.0202H32.0052H31.9903H31.9753H31.9603H31.9454H31.9304H31.9154H31.9005H31.8855H31.8705H31.8556H31.8406H31.8257H31.8107H31.7957H31.7808H31.7658H31.7508H31.7359H31.7209H31.7059H31.691H31.676H31.6611H31.6461H31.6311H31.6162H31.6012H31.5862H31.5713H31.5563H31.5414H31.5264H31.5114H31.4965H31.4815H31.4665H31.4516H31.4366H31.4217H31.4067H31.3917H31.3768H31.3618H31.3468H31.3319H31.3169H31.302H31.287H31.272H31.2571H31.2421H31.2272H31.2122H31.1972H31.1823H31.1673H31.1524H31.1374H31.1224H31.1075H31.0925H31.0775H31.0626H31.0476H31.0327H31.0177H31.0027H30.9878H30.9728H30.9579H30.9429H30.9279H30.913H30.898H30.8831H30.8681H30.8531H30.8382H30.8232H30.8083H30.7933H30.7783H30.7634H30.7484H30.7335H30.7185H30.7035H30.6886H30.6736H30.6587H30.6437H30.6288H30.6138H30.5988H30.5839H30.5689H30.554H30.539H30.524H30.5091H30.4941H30.4792H30.4642H30.4493H30.4343H30.4193H30.4044H30.3894H30.3745H30.3595H30.3445H30.3296H30.3146H30.2997H30.2847H30.2698H30.2548H30.2398H30.2249H30.2099H30.195H30.18H30.1651H30.1501H30.1351H30.1202H30.1052H30.0903H30.0753H30.0604H30.0454H30.0304H30.0155H30.0005H29.9856H29.9706H29.9557H29.9407H29.9258H29.9108H29.8958H29.8809H29.8659H29.851H29.836H29.8211H29.8061H29.7912H29.7762H29.7612H29.7463H29.7313H29.7164H29.7014H29.6865H29.6715H29.6566H29.6416H29.6266H29.6117H29.5967H29.5818H29.5668H29.5519H29.5369H29.522H29.507H29.4921H29.4771H29.4621H29.4472H29.4322H29.4173H29.4023H29.3874H29.3724H29.3575H29.3418H29.326H29.3103H29.2946H29.2789H29.2632H29.2475H29.2318H29.2161H29.2004H29.1847H29.1689H29.1532H29.1375H29.1218H29.1061H29.0904H29.0747H29.059H29.0433H29.0276H29.0118H28.9961H28.9804H28.9647H28.949H28.9333H28.9176H28.9019H28.8862H28.8705H28.8547H28.839H28.8233H28.8076H28.7919H28.7762H28.7605H28.7448H28.7291H28.7134H28.6976H28.6819H28.6662H28.6505H28.6348H28.6191H28.6034H28.5877H28.572H28.5563H28.5406H28.5248H28.5091H28.4934H28.4777H28.462H28.4463H28.4306H28.4149H28.3992H28.3835H28.3677H28.352H28.3363H28.3206H28.3049H28.2892H28.2735H28.2578H28.2421H28.2264H28.2106H28.1949H28.1792H28.1635H28.1478H28.1321H28.1164H28.1007H28.085H28.0693H28.0536H28.0378H28.0221H28.0064H27.9907H27.975H27.9593H27.9436H27.9279H27.9122H27.8965H27.8807H27.865H27.8493H27.8336H27.8179H27.8022H27.7865H27.7708H27.7551H27.7394H27.7237H27.7079H27.6922H27.6765H27.6608H27.6451H27.6294H27.6137H27.598H27.5823H27.5666H27.5509H27.5351H27.5194H27.5037H27.488H27.4723H27.4566H27.4409H27.4252H27.4095H27.3938H27.3781H27.3623H27.3466H27.3309H27.3152H27.2995H27.2838H27.2681H27.2524H27.2367H27.221H27.2053H27.1895H27.1738H27.1581H27.1424H27.1267H27.111H27.0953H27.0796H27.0639H27.0482H27.0325H27.0167H27.001H26.9853H26.9696H26.9539H26.9382H26.9225H26.9068H26.8911H26.8754H26.8597H26.8439H26.8282H26.8125H26.7968H26.7811H26.7654H26.7497H26.734H26.7183H26.7026H26.6869H26.6711H26.6554H26.6397H26.624H26.6083H26.5926H26.5769H26.5612H26.5455H26.5298H26.5141H26.4984H26.4826H26.4669H26.4512H26.4355H26.4198H26.4041H26.3884H26.3727H26.357H26.3413H26.3256H26.3098H26.2941H26.2784H26.2627H26.247H26.2313H26.2156H26.1999H26.1842H26.1685H26.1528H26.1371H26.1213H26.1056H26.0899H26.0742H26.0585H26.0428H26.0271H26.0114H25.9957H25.98H25.9643H25.9486H25.9328H25.9171H25.9014H25.8857H25.87H25.8543H25.8386H25.8229H25.8072H25.7915H25.7758H25.7601H25.7443H25.7286H25.7129H25.6972H25.6815H25.6658H25.6501H25.6344H25.6187H25.603H25.5873H25.5716H25.5558H25.5401H25.5244H25.5087H25.493H25.4773H25.4616H25.4459H25.4302H25.4145H25.3988H25.3831H25.3674H25.3516H25.3359H25.3202H25.3045H25.2888H25.2731H25.2574H25.2417H25.226H25.2103H25.1946H25.1789H25.1631H25.1474H25.1317H25.116H25.1003H25.0846H25.0689H25.0532H25.0375H25.0218H25.0061H24.9904H24.9747H24.9589H24.9432H24.9275H24.9118H24.8961H24.8804H24.8647H24.849H24.8333H24.8176H24.8019H24.7862H24.7705H24.7547H24.739H24.7233H24.7076H24.6919H24.6762H24.6605H24.6448H24.6291H24.6134H24.5977H24.582H24.5663H24.5505H24.5348H24.5191H24.5034H24.4877H24.472H24.4563H24.4406H24.4249H24.4092H24.3935H24.3778H24.3621H24.3463H24.3306H24.3149H24.2992H24.2835H24.2678H24.2521H24.2364H24.2207H24.205H24.1893H24.1736H24.1579H24.1421H24.1264H24.1107H24.095H24.0793H24.0636H24.0479H24.0322H24.0165H24.0008H23.9851H23.9694H23.9537H23.938H23.9222H23.9065H23.8908H23.8751H23.8594H23.8437H23.828H23.8123H23.7966H23.7809H23.7652H23.7495H23.7338H23.7181H23.7023H23.6866H23.6709H23.6552H23.6395H23.6238H23.6081H23.5924H23.5767H23.561H23.5453H23.5296H23.5139H23.4982H23.4824H23.4667H23.451H23.4353H23.4196H23.4039H23.3882H23.3725H23.3568H23.3411H23.3254H23.3097H23.294H23.2783H23.2626H23.2468H23.2311H23.2154H23.1997H23.184H23.1683H23.1526H23.1369H23.1212H23.1055H23.0898H23.0741H23.0584H23.0427H23.0269H23.0112H22.9955H22.9798H22.9641H22.9484H22.9327H22.917H22.9013H22.8856H22.8699H22.8542H22.8385H22.8228H22.8071H22.7913H22.7756H22.7599H22.7442H22.7285H22.7128H22.6971H22.6814H22.6657H22.65H22.6343H22.6186H22.6029H22.5872H22.5715H22.5557H22.54H22.5243H22.5086H22.4929H22.4772H22.4615H22.4458H22.4301H22.4144H22.3987H22.383H22.3673H22.3516H22.3359H22.3202H22.3044H22.2887H22.273H22.2573H22.2416H22.2259H22.2102H22.1945H22.1788H22.1631H22.1474H22.1317H22.116H22.1003H22.0846H22.0689H22.0531H22.0374H22.0217H22.006H21.9903H21.9746H21.9589H21.9432H21.9275H21.9118H21.8961H21.8804H21.8647H21.849H21.8333H21.8176H21.8018H21.7861H21.7704H21.7547H21.739H21.7233H21.7076H21.6919H21.6762H21.6605H21.6448H21.6291H21.6134H21.5977H21.582H21.5663H21.5506H21.5348H21.5191H21.5034H21.4877H21.472H21.4563H21.4406H21.4249H21.4092H21.3935H21.3778H21.3621H21.3464H21.3307L21.315 30.2038L21.3146 30.2038C21.0367 30.2045 20.7991 30.2856 20.6285 30.433C20.4566 30.5815 20.3622 30.7895 20.3622 31.0204C20.3622 31.2537 20.4598 31.4521 20.6323 31.5911C20.8012 31.7272 21.0325 31.7994 21.295 31.8087L21.295 31.8088H21.3003H21.3009H21.3015H21.302H21.3026H21.3032H21.3038H21.3043H21.3049H21.3055H21.3061H21.3066H21.3072H21.3078H21.3084H21.3089H21.3095H21.3101H21.3107H21.3112H21.3118H21.3124H21.313H21.3135H21.3141H21.3147H21.3152H21.3158H21.3164H21.317H21.3175H21.3181H21.3187H21.3193H21.3198H21.3204H21.321H21.3216H21.3221H21.3227H21.3233H21.3239H21.3244H21.325H21.3256H21.3262H21.3267H21.3273H21.3279H21.3285H21.329H21.3296H21.3302H21.3307H21.3313H21.3319H21.3325H21.333H21.3336H21.3342H21.3348H21.3353H21.3359H21.3365H21.3371H21.3376H21.3382H21.3388H21.3394H21.3399H21.3405H21.3411H21.3417H21.3422H21.3428H21.3434H21.344H21.3445H21.3451H21.3457H21.3462H21.3468H21.3474H21.348H21.3485H21.3491H21.3497H21.3503H21.3508H21.3514H21.352H21.3526H21.3531H21.3537H21.3543H21.3549H21.3554H21.356H21.3566H21.3572H21.3577H21.3583H21.3589H21.3595H21.36H21.3606H21.3612H21.3617H21.3623H21.3629H21.3635H21.364H21.3646H21.3652H21.3658H21.3663H21.3669H21.3675H21.3681H21.3686H21.3692H21.3698H21.3704H21.3709H21.3715H21.3721H21.3727H21.3732H21.3738H21.3744H21.375H21.3755H21.3761H21.3767H21.3773H21.3778H21.3784H21.379H21.3796H21.3801H21.3807H21.3813H21.3819H21.3824H21.383H21.3836H21.3841H21.3847H21.3853H21.3859H21.3864H21.387H21.3876H21.3882H21.3887H21.3893H21.3899H21.3905H21.391H21.3916H21.3922H21.3928H21.3933H21.3939H21.3945H21.3951H21.3956H21.3962H21.3968H21.3974H21.3979H21.3985H21.3991H21.3997H21.4002H21.4008H21.4014H21.402H21.4025H21.4031H21.4037H21.4043H21.4048H21.4054H21.406H21.4066H21.4071H21.4077H21.4083H21.4089H21.4094H21.41H21.4106H21.4112H21.4117H21.4123H21.4129H21.4135H21.414H21.4146H21.4152H21.4158H21.4163H21.4169H21.4175H21.4181H21.4186H21.4192H21.4198H21.4204H21.4209H21.4215H21.4221H21.4227H21.4232H21.4238H21.4244H21.425H21.4255H21.4261H21.4267H21.4273H21.4278H21.4284H21.429H21.4296H21.4301H21.4307H21.4313H21.4319H21.4324H21.433H21.4336H21.4342H21.4347H21.4353H21.4359H21.4365H21.437H21.4376H21.4382H21.4388H21.4393H21.4399H21.4405H21.4411H21.4416H21.4422H21.4428H21.4434H21.4439H21.4445H21.4451H21.4457H21.4462H21.4468H21.4474H21.448H21.4486H21.4491H21.4497H21.4503H21.4509H21.4514H21.452H21.4526H21.4532H21.4537H21.4543H21.4549H21.4555H21.456H21.4566H21.4572H21.4578H21.4583H21.4589H21.4595H21.4601H21.4606H21.4612H21.4618H21.4624H21.4629H21.4635H21.4641H21.4647H21.4653H21.4658H21.4664H21.467H21.4676H21.4681H21.4687H21.4693H21.4699H21.4704H21.471H21.4716H21.4722H21.4727H21.4733H21.4739H21.4745H21.475H21.4756H21.4762H21.4768H21.4773H21.4779H21.4785H21.4791H21.4797H21.4802H21.4808H21.4814H21.482H21.4825H21.4831H21.4837H21.4843H21.4848H21.4854H21.486H21.4866H21.4872H21.4877H21.4883H21.4889H21.4895H21.49H21.4906H21.4912H21.4918H21.4923H21.4929H21.4935H21.4941H21.4946H21.4952H21.4958H21.4964H21.497H21.4975H21.4981H21.4987H21.4993H21.4998H21.5004H21.501H21.5016H21.5021H21.5027H21.5033H21.5039H21.5045H21.505H21.5056H21.5062H21.5068H21.5073H21.5079H21.5085H21.5091H21.5097H21.5102H21.5108H21.5114H21.512H21.5125H21.5131H21.5137H21.5143H21.5148H21.5154H21.516H21.5166H21.5172H21.5177H21.5183H21.5189H21.5195H21.52H21.5206H21.5212H21.5218H21.5224H21.5229H21.5235H21.5241H21.5247H21.5252H21.5258H21.5264H21.527H21.5276H21.5281H21.5287H21.5293H21.5299H21.5304H21.531H21.5316H21.5322H21.5328H21.5333H21.5339H21.5345H21.5351H21.5356H21.5362H21.5368H21.5374H21.538H21.5385H21.5391H21.5397H21.5403H21.5409H21.5414H21.542H21.5426H21.5432H21.5437H21.5443H21.5449H21.5455H21.5461H21.5466H21.5472H21.5478H21.5484H21.549H21.5495H21.5501H21.5507H21.5513H21.5518H21.5524H21.553H21.5536H21.5542H21.5547H21.5553H21.5559H21.5565H21.5571H21.5576H21.5582H21.5588H21.5594H21.56H21.5605H21.5611H21.5617H21.5623H21.5628H21.5634H21.564H21.5646H21.5652H21.5657H21.5663H21.5669H21.5675H21.5681H21.5686H21.5692H21.5698H21.5704H21.571H21.5715H21.5721H21.5727H21.5733H21.5739H21.5744H21.575H21.5756H21.5762H21.5768H21.5773H21.5779H21.5785H21.5791H21.5797H21.5802H21.5808H21.5814H21.582H21.5826H21.5831H21.5837H21.5843H21.5849H21.5855H21.586H21.5866H21.5872H21.5878H21.5884H21.5889H21.5895H21.5901H21.5907H21.5913H21.5918H21.5924H21.593H21.5936H21.5942H21.5947H21.5953H29.2166C31.8123 31.811 34.4111 31.8107 37.0128 31.8077L37.0126 31.6577ZM37.0126 31.6577C34.411 31.6607 31.8124 31.661 29.2167 31.6588L37.9517 30.9832C37.8812 31.2224 37.737 31.4332 37.5396 31.5856C37.4452 31.6658 37.2645 31.6622 37.103 31.6589C37.0719 31.6583 37.0416 31.6577 37.0126 31.6577Z" fill="#4C005B" stroke="#4C005B" stroke-width="0.3"/>
<path id="Vector_5" d="M37.4935 43.5651L37.4935 43.565L37.4869 43.5639C37.3123 43.5354 37.1354 43.5235 36.9586 43.5282H36.9455H36.9305H36.9154H36.9004H36.8853H36.8703H36.8553H36.8402H36.8252H36.8101H36.7951H36.78H36.765H36.7499H36.7349H36.7198H36.7048H36.6897H36.6747H36.6597H36.6446H36.6296H36.6145H36.5995H36.5844H36.5694H36.5543H36.5393H36.5242H36.5092H36.4941H36.4791H36.464H36.449H36.434H36.4189H36.4039H36.3888H36.3738H36.3587H36.3437H36.3286H36.3136H36.2985H36.2835H36.2684H36.2534H36.2383H36.2233H36.2082H36.1932H36.1782H36.1631H36.1481H36.133H36.118H36.1029H36.0879H36.0728H36.0578H36.0427H36.0277H36.0126H35.9976H35.9825H35.9675H35.9524H35.9374H35.9224H35.9073H35.8923H35.8772H35.8622H35.8471H35.8321H35.817H35.802H35.7869H35.7719H35.7568H35.7418H35.7267H35.7117H35.6966H35.6816H35.6665H35.6515H35.6365H35.6214H35.6064H35.5913H35.5763H35.5612H35.5462H35.5311H35.5161H35.501H35.486H35.4709H35.4559H35.4408H35.4258H35.4107H35.3957H35.3806H35.3656H35.3505H35.3355H35.3205H35.3054H35.2904H35.2753H35.2603H35.2452H35.2302H35.2151H35.2001H35.185H35.17H35.1549H35.1399H35.1248H35.1098H35.0947H35.0797H35.0646H35.0496H35.0345H35.0195H35.0044H34.9894H34.9743H34.9593H34.9442H34.9292H34.9141H34.8991H34.8841H34.869H34.854H34.8389H34.8239H34.8088H34.7938H34.7787H34.7637H34.7486H34.7336H34.7185H34.7035H34.6884H34.6734H34.6583H34.6433H34.6282H34.6132H34.5981H34.5831H34.568H34.553H34.5379H34.5229H34.5078H34.4928H34.4777H34.4627H34.4476H34.4326H34.4175H34.4025H34.3874H34.3724H34.3573H34.3423H34.3272H34.3122H34.2972H34.2821H34.2671H34.252H34.237H34.2219H34.2069H34.1918H34.1768H34.1617H34.1467H34.1316H34.1166H34.1015H34.0865H34.0714H34.0564H34.0413H34.0263H34.0112H33.9962H33.9811H33.9661H33.951H33.936H33.9209H33.9059H33.8908H33.8758H33.8607H33.8457H33.8306H33.8156H33.8005H33.7855H33.7704H33.7554H33.7403H33.7253H33.7102H33.6952H33.6801H33.6651H33.65H33.635H33.6199H33.6049H33.5898H33.5748H33.5597H33.5447H33.5296H33.5146H33.4995H33.4845H33.4694H33.4544H33.4393H33.4243H33.4092H33.3942H33.3791H33.3641H33.349H33.334H33.3189H33.3039H33.2888H33.2738H33.2587H33.2437H33.2286H33.2136H33.1985H33.1835H33.1684H33.1534H33.1383H33.1233H33.1082H33.0932H33.0781H33.0631H33.048H33.033H33.0179H33.0029H32.9878H32.9728H32.9577H32.9427H32.9276H32.9126H32.8975H32.8825H32.8674H32.8524H32.8373H32.8223H32.8072H32.7922H32.7771H32.7621H32.747H32.7319H32.7169H32.7018H32.6868H32.6717H32.6567H32.6416H32.6266H32.6115H32.5965H32.5814H32.5664H32.5513H32.5363H32.5212H32.5062H32.4911H32.4761H32.461H32.446H32.4309H32.4159H32.4008H32.3858H32.3707H32.3557H32.3406H32.3256H32.3105H32.2955H32.2804H32.2654H32.2503H32.2353H32.2202H32.2052H32.1901H32.1751H32.16H32.145H32.1299H32.1148H32.0998H32.0847H32.0697H32.0546H32.0396H32.0245H32.0095H31.9944H31.9794H31.9643H31.9493H31.9342H31.9192H31.9041H31.8891H31.874H31.859H31.8439H31.8289H31.8138H31.7988H31.7837H31.7687H31.7536H31.7386H31.7235H31.7084H31.6934H31.6783H31.6633H31.6482H31.6332H31.6181H31.6031H31.588H31.573H31.5579H31.5429H31.5278H31.5128H31.4977H31.4827H31.4676H31.4526H31.4375H31.4225H31.4074H31.3924H31.3773H31.3622H31.3472H31.3321H31.3171H31.302H31.287H31.2719H31.2569H31.2418H31.2268H31.2117H31.1967H31.1816H31.1666H31.1515H31.1365H31.1214H31.1064H31.0913H31.0762H31.0612H31.0461H31.0311H31.016H31.001H30.9859H30.9709H30.9558H30.9408H30.9257H30.9107H30.8956H30.8806H30.8655H30.8505H30.8354H30.8203H30.8053H30.7902H30.7752H30.7601H30.7451H30.73H30.715H30.6999H30.6849H30.6698H30.6548H30.6397H30.6247H30.6096H30.5945H30.5795H30.5644H30.5494H30.5343H30.5193H30.5042H30.4892H30.4741H30.4591H30.444H30.429H30.4139H30.3989H30.3838H30.3687H30.3537H30.3386H30.3236H30.3085H30.2935H30.2784H30.2634H30.2483H30.2333H30.2182H30.2032H30.1881H30.173H30.158H30.1429H30.1279H30.1128H30.0978H30.0827H30.0677H30.0526H30.0376H30.0225H30.0075H29.9924H29.9773H29.9623H29.9472H29.9322H29.9171H29.9021H29.887H29.872H29.8569H29.8419H29.8268H29.8118H29.7967H29.7816H29.7666H29.7515H29.7365H29.7214H29.7064H29.6913H29.6763H29.6612H29.6462H29.6311H29.616H29.601H29.5859H29.5709H29.5558H29.5408H29.5257H29.5107H29.4956H29.4806H29.4655H29.4504H29.4354H29.4203H29.4053H29.3902H29.3752H29.3601H29.3451H29.33H29.315H29.2999H29.2848H29.2698H29.2547C26.6306 43.5267 24.006 43.5259 21.3811 43.5259C21.0885 43.5259 20.8367 43.5839 20.6529 43.7165C20.4622 43.854 20.3624 44.0591 20.3563 44.3084C20.3501 44.5619 20.4505 44.7757 20.644 44.9211C20.8316 45.062 21.0928 45.1286 21.3969 45.1286H21.4813H21.5117H21.542H21.5724H21.6027H21.633H21.6634H21.6937H21.7241H21.7544H21.7848H21.8151H21.8455H21.8758H21.9062H21.9365H21.9669H21.9972H22.0276H22.0579H22.0883H22.1186H22.149H22.1793H22.2096H22.24H22.2703H22.3007H22.331H22.3614H22.3917H22.4221H22.4524H22.4828H22.5131H22.5435H22.5738H22.6042H22.6345H22.6649H22.6952H22.7255H22.7559H22.7862H22.8166H22.8469H22.8773H22.9076H22.938H22.9683H22.9987H23.029H23.0594H23.0897H23.1201H23.1504H23.1808H23.2111H23.2415H23.2718H23.3021H23.3325H23.3628H23.3932H23.4235H23.4539H23.4842H23.5146H23.5449H23.5753H23.6056H23.636H23.6663H23.6967H23.727H23.7574H23.7877H23.8181H23.8484H23.8787H23.9091H23.9394H23.9698H24.0001H24.0305H24.0608H24.0912H24.1215H24.1519H24.1822H24.2126H24.2429H24.2733H24.3036H24.334H24.3643H24.3947H24.425H24.4553H24.4857H24.516H24.5464H24.5767H24.6071H24.6374H24.6678H24.6981H24.7285H24.7588H24.7892H24.8195H24.8499H24.8802H24.9106H24.9409H24.9712H25.0016H25.0319H25.0623H25.0926H25.123H25.1533H25.1837H25.214H25.2444H25.2747H25.3051H25.3354H25.3658H25.3961H25.4265H25.4568H25.4872H25.5175H25.5478H25.5782H25.6085H25.6389H25.6692H25.6996H25.7299H25.7603H25.7906H25.821H25.8513H25.8817H25.912H25.9424H25.9727H26.0031H26.0334H26.0638H26.0941H26.1244H26.1548H26.1851H26.2155H26.2458H26.2762H26.3065H26.3369H26.3672H26.3976H26.4279H26.4583H26.4886H26.519H26.5493H26.5797H26.61H26.6404H26.6707H26.701H26.7314H26.7617H26.7921H26.8224H26.8528H26.8831H26.9135H26.9438H26.9742H27.0045H27.0349H27.0652H27.0956H27.1259H27.1563H27.1866H27.2169H27.2473H27.2776H27.308H27.3383H27.3687H27.399H27.4294H27.4597H27.4901H27.5204H27.5508H27.5811H27.6115H27.6418H27.6722H27.7025H27.7329H27.7632H27.7935H27.8239H27.8542H27.8846H27.9149H27.9453H27.9756H28.006H28.0363H28.0667H28.097H28.1274H28.1577H28.1881H28.2184H28.2488H28.2791H28.3095H28.3398H28.3701H28.4005H28.4308H28.4612H28.4915H28.5219H28.5522H28.5826H28.6129H28.6433H28.6736H28.704H28.7343H28.7647H28.795H28.8254H28.8557H28.8861H28.9164H28.9467H28.9771H29.0074H29.0378H29.0681H29.0985H29.1288H29.1592H29.1895H29.2199H29.2502H29.2806H29.3109H29.3413H29.3716H29.402H29.4323H29.4626H29.493H29.5233H29.5537H29.584H29.6144H29.6447H29.6751H29.7054H29.7358H29.7661H29.7965H29.8268H29.8572H29.8875H29.9179H29.9482H29.9786H30.0089H30.0392H30.0696H30.0999H30.1303H30.1606H30.191H30.2213H30.2517H30.282H30.3124H30.3427H30.3731H30.4034H30.4338H30.4641H30.4945H30.5248H30.5552H30.5855H30.6158H30.6462H30.6765H30.7069H30.7372H30.7676H30.7979H30.8283H30.8586H30.889H30.9193H30.9497H30.98H31.0104H31.0407H31.0711H31.1014H31.1318H31.1621H31.1924H31.2228H31.2531H31.2835H31.3138H31.3442H31.3745H31.4049H31.4352H31.4656H31.4959H31.5263H31.5566H31.587H31.6173H31.6477H31.678H31.7084H31.7387H31.769H31.7994H31.8297H31.8601H31.8904H31.9208H31.9511H31.9815H32.0118H32.0422H32.0725H32.1029H32.1332H32.1636H32.1939H32.2243H32.2546H32.2849H32.3153H32.3456H32.376H32.4063H32.4367H32.467H32.4974H32.5277H32.5581H32.5884H32.6188H32.6491H32.6795H32.7098H32.7402H32.7705H32.8009H32.8312H32.8615H32.8919H32.9222H32.9526H32.9829H33.0133H33.0436H33.074H33.1043H33.1347H33.165H33.1954H33.2257H33.2561H33.2864H33.3168H33.3471H33.3775H33.4078H33.4381H33.4685H33.4988H33.5292H33.5595H33.5899H33.6202H33.6506H33.6809H33.7113H33.7416H33.772H33.8023H33.8327H33.863H33.8934H33.9237H33.9541H33.9844H34.0147H34.0451H34.0754H34.1058H34.1361H34.1665H34.1968H34.2272H34.2575H34.2879H34.3182H34.3486H34.3789H34.4093H34.4396H34.47H34.5003H34.5306H34.561H34.5913H34.6217H34.652H34.6824H34.7127H34.7431H34.7734H34.8038H34.8341H34.8645H34.8948H34.9252H34.9555H34.9859H35.0162H35.0466H35.0769H35.1072H35.1376H35.1679H35.1983H35.2286H35.259H35.2893H35.3197H35.35H35.3804H35.4107H35.4411H35.4714H35.5018H35.5321H35.5625H35.5928H35.6232H35.6535H35.6838H35.7142H35.7445H35.7749H35.8052H35.8356H35.8659H35.8963H35.9266H35.957H35.9873H36.0177H36.048H36.0784H36.1087H36.1391H36.1694H36.1997H36.2301H36.2604H36.2908H36.3211H36.3515H36.3818H36.4122H36.4425H36.4729H36.5032H36.5336H36.5639H36.5943H36.6246H36.655H36.6853H36.7157H36.746H36.7763H36.8067H36.837H36.8674H36.8977H36.9281H36.9584H36.9888H37.0165C37.1962 45.1348 37.3759 45.1172 37.551 45.0762L37.551 45.0766L37.5604 45.0737C37.726 45.0234 37.8701 44.9194 37.9701 44.7781C38.07 44.6369 38.1201 44.4663 38.1124 44.2934C38.1048 44.1206 38.0398 43.9551 37.9277 43.8233C37.8156 43.6914 37.6629 43.6006 37.4935 43.5651Z" fill="#4C005B" stroke="#4C005B" stroke-width="0.3"/>
<path id="Vector_6" d="M20.3623 35.4909C20.3846 35.6851 20.4511 35.8612 20.5778 35.994C20.706 36.1283 20.8822 36.2037 21.0955 36.2201L21.0955 36.2201L20.5114 35.4738M20.3623 35.4909L20.5114 35.4738M20.3623 35.4909C20.3623 35.491 20.3623 35.491 20.3624 35.4911L20.5114 35.4738M20.3623 35.4909C20.3142 35.0752 20.6511 34.7159 21.0654 34.6597L21.0721 34.6588L21.0721 34.659C21.1901 34.6483 21.3087 34.6459 21.4271 34.6516M20.5114 35.4738C20.4742 35.154 20.7365 34.8556 21.0856 34.8084C21.1979 34.7982 21.3108 34.796 21.4234 34.8016M21.4271 34.6516H21.4234V34.8016M21.4271 34.6516C21.4283 34.6517 21.4296 34.6517 21.4309 34.6518L21.4234 34.8016M21.4271 34.6516H37.058M21.4234 34.8016H37.0614M37.0614 34.8016L37.0545 34.6518C37.0557 34.6517 37.0568 34.6517 37.058 34.6516M37.0614 34.8016C37.174 34.7965 37.2868 34.7987 37.3991 34.8084L37.3897 36.2199C37.3897 36.2199 37.3898 36.2199 37.3898 36.2199C37.5953 36.2019 37.7725 36.133 37.9021 36.0014C38.0316 35.8699 38.0975 35.692 38.1117 35.4869C38.1271 35.285 38.0626 35.0851 37.932 34.9303C37.8013 34.7753 37.6149 34.6778 37.4131 34.659V34.659L37.412 34.6589C37.2943 34.6488 37.176 34.6464 37.058 34.6516M37.0614 34.8016V34.6516H37.058" fill="#4C005B" stroke="#4C005B" stroke-width="0.3"/>
<path id="Vector_7" d="M37.4595 40.6619L37.4595 40.6623L37.4713 40.6597C37.6661 40.6156 37.8342 40.5278 37.9507 40.3854C38.0672 40.243 38.1194 40.0613 38.1107 39.8534C38.115 39.6663 38.0465 39.4847 37.9195 39.347C37.7919 39.2086 37.6154 39.1254 37.4274 39.1151C37.2688 39.1011 37.1095 39.0968 36.9503 39.1023H29.2392H21.5279C21.3689 39.0972 21.2097 39.1018 21.0513 39.1163C20.8637 39.1281 20.6877 39.2115 20.5597 39.3492C20.4322 39.4863 20.362 39.6669 20.3632 39.854C20.3537 40.0598 20.4089 40.2417 20.527 40.3843C20.6448 40.5266 20.8146 40.6168 21.0115 40.6599L21.0114 40.6604L21.0231 40.662C21.1571 40.6805 21.2927 40.6847 21.4276 40.6746H37.0538C37.1891 40.6854 37.3251 40.6811 37.4595 40.6619Z" fill="#4C005B" stroke="#4C005B" stroke-width="0.3"/>
<path id="Vector_8" d="M30.0626 50.8518L30.0624 50.8518C30.0533 51.0515 29.9711 51.2409 29.8312 51.3837C29.6918 51.5262 29.5049 51.6125 29.306 51.6262C29.1958 51.6358 29.077 51.6324 28.9695 51.6294C28.9206 51.628 28.874 51.6267 28.8317 51.6267H21.467C21.4357 51.6267 21.4015 51.6273 21.3657 51.628C21.2876 51.6296 21.2017 51.6312 21.121 51.6264M30.0626 50.8518L21.1292 51.4767M30.0626 50.8518L30.0625 50.8433C30.0603 50.6422 29.9814 50.4495 29.8419 50.3046C29.703 50.1603 29.5145 50.0742 29.3146 50.0637C29.1849 50.0529 29.0546 50.0491 28.9245 50.0521H25.2659L22.8294 50.051L22.8291 50.051C22.6772 50.0513 22.5246 50.0508 22.3717 50.0504C21.9622 50.0492 21.5497 50.048 21.1383 50.0611M30.0626 50.8518L22.8294 50.201C22.6758 50.2013 22.5223 50.2008 22.3688 50.2004C21.9594 50.1992 21.5499 50.198 21.1405 50.2111M21.121 51.6264C21.1207 51.6264 21.1205 51.6264 21.1202 51.6264L21.1292 51.4767M21.121 51.6264C21.1212 51.6264 21.1215 51.6265 21.1217 51.6265L21.1292 51.4767M21.121 51.6264C20.9217 51.6163 20.7332 51.5329 20.5917 51.3922C20.45 51.2513 20.3656 51.0629 20.3545 50.8634L20.3542 50.8578L20.3543 50.8578C20.3525 50.7535 20.3715 50.6499 20.4103 50.553C20.449 50.4562 20.5068 50.368 20.5801 50.2938C20.6534 50.2196 20.7408 50.1607 20.8372 50.1208C20.9327 50.0812 21.035 50.0609 21.1383 50.0611M21.1292 51.4767C20.9667 51.4686 20.8129 51.4006 20.6975 51.2858C20.5821 51.171 20.5133 51.0176 20.5043 50.8551C20.5028 50.7708 20.5182 50.687 20.5495 50.6088C20.5809 50.5305 20.6275 50.4592 20.6868 50.3992C20.7461 50.3392 20.8167 50.2917 20.8946 50.2594C20.9725 50.2271 21.0561 50.2107 21.1405 50.2111M21.1383 50.0611C21.1374 50.0611 21.1366 50.0612 21.1357 50.0612L21.1405 50.2111M21.1383 50.0611C21.1393 50.0611 21.1403 50.0611 21.1413 50.0611L21.1405 50.2111" fill="#4C005B" stroke="#4C005B" stroke-width="0.3"/>
<path id="Vector_9" d="M54.7966 38.3909C54.8035 35.3686 52.3271 32.8918 49.3312 32.9115C46.3375 32.9312 43.8814 35.4006 43.8814 38.3815L43.8814 38.3827C43.8926 39.826 44.4725 41.2066 45.4951 42.2251C46.5178 43.2437 47.9007 43.8179 49.3441 43.8234H49.3443C50.0591 43.8247 50.7671 43.6853 51.4279 43.413C52.0887 43.1407 52.6895 42.7409 53.1958 42.2365C53.7021 41.732 54.104 41.1327 54.3787 40.4729C54.6534 39.813 54.7954 39.1056 54.7966 38.3909ZM54.7966 38.3909L54.6466 38.3905L54.7966 38.3908C54.7966 38.3908 54.7966 38.3908 54.7966 38.3909ZM46.6076 35.6433C47.332 34.9189 48.3145 34.512 49.339 34.512C49.8463 34.512 50.3486 34.6119 50.8172 34.806C51.2859 35.0001 51.7117 35.2847 52.0704 35.6433C52.4291 36.002 52.7136 36.4279 52.9077 36.8965C53.1019 37.3652 53.2018 37.8675 53.2018 38.3748C53.2018 38.882 53.1019 39.3843 52.9077 39.853C52.7136 40.3217 52.4291 40.7475 52.0704 41.1062C51.7117 41.4649 51.2859 41.7494 50.8172 41.9435C50.3486 42.1377 49.8463 42.2376 49.339 42.2376C48.3145 42.2376 47.332 41.8306 46.6076 41.1062C45.8832 40.3818 45.4762 39.3992 45.4762 38.3748C45.4762 37.3503 45.8832 36.3678 46.6076 35.6433Z" fill="#4C005B" stroke="#4C005B" stroke-width="0.3"/>
</g>
</g>
</svg>
