<svg width="24" height="24" viewBox="0 0 24 24" fill="none" xmlns="http://www.w3.org/2000/svg">
<g id="Group 1000005620">
<g id="Group 1000005619">
<path id="Vector" d="M17.4774 22.3997H7.32135C7.11823 22.3621 6.91267 22.3342 6.71248 22.2854C4.54896 21.7576 3.15886 20.4241 2.56073 18.2762C2.48797 18.0155 2.45233 17.744 2.3996 17.4779C2.3996 14.0927 2.3996 10.7071 2.3996 7.3219C2.4328 7.13734 2.45721 6.95082 2.50018 6.76869C3.01433 4.58662 4.34389 3.17698 6.50497 2.56469C6.77107 2.48901 7.0489 2.45386 7.32135 2.40015C10.7065 2.40015 14.0922 2.40015 17.4774 2.40015C17.6805 2.43774 17.886 2.46557 18.0862 2.5144C20.2497 3.04222 21.6398 4.37568 22.238 6.52358C22.3107 6.78432 22.3464 7.05531 22.3991 7.3219V17.4779C22.3659 17.6625 22.3415 17.849 22.2985 18.0311C21.7844 20.2137 20.4548 21.6233 18.2937 22.2356C18.0276 22.3113 17.7498 22.3464 17.4774 22.4001V22.3997ZM3.57193 12.3979C3.57193 13.8818 3.56607 15.3657 3.57633 16.85C3.57877 17.1864 3.59927 17.5306 3.67349 17.8568C4.13881 19.8963 5.81358 21.2254 7.90679 21.2278C10.9009 21.2312 13.8944 21.2317 16.8885 21.2244C17.2117 21.2234 17.5423 21.1985 17.8563 21.1267C19.8953 20.6604 21.2248 18.9862 21.2273 16.893C21.2307 13.8989 21.2312 10.9053 21.2238 7.91124C21.2229 7.58801 21.198 7.25745 21.1262 6.94349C20.6648 4.92499 19.0159 3.58615 16.951 3.57639C13.9179 3.56223 10.8852 3.56223 7.8521 3.57736C6.3995 3.58469 5.2257 4.18624 4.36439 5.36443C3.81265 6.11978 3.57388 6.97914 3.57242 7.90734C3.56998 9.40437 3.57193 10.9014 3.57193 12.3984V12.3979Z" fill="#E2E2E2"/>
<path id="Vector_2" d="M17.8686 12.3946C17.872 15.4121 15.415 17.8706 12.397 17.8686C9.38685 17.8667 6.93622 15.417 6.9328 12.4068C6.92939 9.38935 9.38636 6.93091 12.4044 6.93286C15.4145 6.93482 17.8652 9.38446 17.8686 12.3946ZM8.11393 12.2379C8.02164 14.4761 9.74475 16.5816 12.2432 16.687C14.4849 16.7813 16.5747 15.0513 16.687 12.5734C16.7885 10.3268 15.0561 8.22482 12.5689 8.11496C10.3273 8.01584 8.22574 9.74578 8.11393 12.2379Z" fill="#E2E2E2"/>
<path id="Vector_3" d="M17.9909 8.21941C17.1042 8.21599 16.383 7.48798 16.3859 6.59933C16.3889 5.71605 17.1227 4.98218 18.0011 4.98413C18.8761 4.98609 19.6144 5.7224 19.6212 6.59982C19.6285 7.4831 18.8839 8.22283 17.9904 8.21941H17.9909ZM18.0094 6.17356C17.7707 6.16916 17.5685 6.36008 17.5612 6.5964C17.5544 6.82149 17.7599 7.03584 17.9904 7.04414C18.2204 7.05244 18.4259 6.85225 18.4313 6.61544C18.4367 6.37277 18.2506 6.17844 18.0099 6.17405L18.0094 6.17356Z" fill="#E2E2E2"/>
</g>
</g>
</svg>
