<svg width="74" height="74" viewBox="0 0 74 74" fill="none" xmlns="http://www.w3.org/2000/svg">
<rect opacity="0.05" width="74" height="74" rx="37" fill="#4C005B"/>
<path d="M58.7239 45.6202C58.6686 45.7779 58.6092 45.9335 58.5559 46.0933C58.3347 46.7748 57.9031 47.3687 57.3232 47.7897C56.7433 48.2106 56.0449 48.4369 55.3284 48.4361C51.029 48.4361 46.7283 48.4361 42.4262 48.4361H41.8426C42.1846 49.8165 42.5163 51.1558 42.8665 52.532C43.3355 52.532 43.8025 52.532 44.2694 52.532C44.8121 52.532 45.0517 52.7717 45.0558 53.3082C45.0558 54.1615 45.0558 55.0155 45.0558 55.8702C45.0558 56.3822 44.806 56.63 44.294 56.63H29.4381C28.9015 56.63 28.664 56.3863 28.6619 55.8456C28.6619 55.006 28.6619 54.1663 28.6619 53.3266C28.6619 52.7635 28.8995 52.5361 29.4811 52.532H30.7611C30.7985 52.5239 30.8349 52.5115 30.8696 52.4952C31.1993 51.1681 31.5332 49.8328 31.8793 48.4382H18.543C16.4602 48.4382 15 46.978 15 44.8952V20.5512C15 18.4438 16.454 17 18.5757 17H55.1317C56.9749 17 58.1812 17.9339 58.6706 19.7156C58.6878 19.7535 58.7113 19.7881 58.7402 19.818L58.7239 45.6202ZM16.3496 42.2574H57.3579V20.7539C57.3579 19.1729 56.5489 18.368 54.9618 18.368H18.7457C17.1565 18.368 16.3496 19.1708 16.3496 20.7519V42.2554V42.2574ZM16.3496 43.6705C16.3496 44.1846 16.3271 44.6536 16.3496 45.1205C16.3625 45.4206 16.4429 45.714 16.5847 45.9788C16.7265 46.2437 16.9261 46.4732 17.1688 46.6503C17.6026 46.9548 18.1264 47.1041 18.6556 47.0742H55.0396C55.1399 47.0742 55.2444 47.0742 55.3386 47.0742C56.2397 47.023 57.0589 46.4496 57.2329 45.6181C57.364 44.9915 57.3394 44.3341 57.3845 43.6767L16.3496 43.6705ZM40.4151 48.4505H33.2923C32.9565 49.8042 32.6206 51.1476 32.2684 52.5177H41.4166C41.0869 51.1517 40.751 49.8083 40.4151 48.4505ZM43.6919 53.9308H30.0525V55.2476H43.6714C43.6714 55.1596 43.6878 55.092 43.6878 55.0224C43.6898 54.6722 43.6878 54.3199 43.6878 53.9349L43.6919 53.9308Z" fill="#4C005B"/>
<path d="M28.0262 23.834C27.6699 22.6728 28.446 22.3636 29.2366 22.126C31.8989 21.3273 34.3093 21.9335 36.515 23.535C36.6194 23.6108 36.7198 23.6948 36.814 23.7746C36.814 23.7746 36.8406 23.7746 36.8836 23.7849C37.9972 22.8131 39.3569 22.1669 40.8137 21.9171C42.2657 21.6448 43.6931 21.7267 45.0652 22.3595C45.5526 22.5848 45.8291 22.8797 45.739 23.4388C45.7305 23.5704 45.7305 23.7024 45.739 23.834H46.98C47.5699 23.834 47.789 24.0388 47.789 24.6163V36.7423C47.789 37.2666 47.5658 37.4939 47.0435 37.5021C43.6855 37.564 40.3652 38.2228 37.2379 39.4476C36.9888 39.5357 36.717 39.5357 36.4679 39.4476C33.3547 38.2236 30.0479 37.5654 26.7032 37.5041C26.1257 37.4918 25.9209 37.2809 25.9209 36.6952C25.9209 32.6826 25.9209 28.6693 25.9209 24.6553C25.9209 24.0409 26.1257 23.8361 26.7401 23.8361L28.0262 23.834ZM44.3443 32.9884C44.3569 32.9207 44.3651 32.8523 44.3689 32.7836C44.3689 29.8079 44.3689 26.8445 44.3689 23.8606C44.3689 23.5412 44.1928 23.4715 43.9736 23.4121C41.682 22.7978 39.6484 23.3446 37.8421 24.815C37.6489 25.0128 37.5402 25.2779 37.539 25.5543C37.5164 28.2863 37.5246 31.0183 37.5246 33.7461V34.168C39.677 32.886 41.9114 32.3433 44.3443 32.9884ZM36.1382 34.1557C36.1517 34.1046 36.1612 34.0526 36.1668 34.0001C36.1668 31.1329 36.1668 28.2801 36.1668 25.4212C36.154 25.1983 36.054 24.9893 35.8883 24.8396C34.0677 23.363 32.03 22.7916 29.7199 23.4162C29.4209 23.4961 29.3349 23.6559 29.3369 23.963C29.3492 26.8302 29.3369 29.7117 29.3369 32.587V32.9638C32.6874 32.5747 33.5434 32.7242 36.1382 34.1557ZM45.7369 25.2164V33.9694C45.7369 34.6861 45.2331 34.9688 44.5921 34.6308C44.3445 34.4916 44.0812 34.3823 43.8078 34.3052C41.5878 33.7646 39.6217 34.3278 37.8687 35.7388C37.7008 35.8719 37.627 36.1341 37.5328 36.3532C37.4886 36.4961 37.3992 36.6209 37.2781 36.7087C37.157 36.7966 37.0107 36.8429 36.8611 36.8406C36.712 36.8443 36.5655 36.8012 36.4421 36.7175C36.3187 36.6338 36.2246 36.5135 36.173 36.3737C36.0317 36.1095 35.9129 35.7716 35.6835 35.6262C35.032 35.1748 34.3329 34.7964 33.5987 34.4977C32.1098 33.9632 30.578 33.8629 29.1342 34.6431C28.5198 34.979 27.9361 34.596 27.9463 33.9632C27.9914 31.2005 27.9668 28.4337 27.9668 25.6751V25.2389H27.3094V36.1197C27.3439 36.1331 27.3796 36.1434 27.4159 36.1504C30.5586 36.2725 33.6612 36.899 36.6051 38.0059C36.8021 38.0594 37.0111 38.0479 37.2011 37.9731C39.0468 37.272 40.9623 36.7708 42.9149 36.4781C44.0658 36.3143 45.2229 36.2057 46.3964 36.0685V25.2143L45.7369 25.2164Z" fill="#4C005B"/>
</svg>
