<svg width="32" height="32" viewBox="0 0 32 32" fill="none" xmlns="http://www.w3.org/2000/svg">
<g id="Group 1000010209">
<g id="Group 1000010207">
<path id="Vector" d="M28.1321 13.222C28.1321 15.2324 28.1321 17.2412 28.1321 19.2482C28.1321 20.3494 27.3963 21.0904 26.3012 21.0904C25.9686 21.0904 25.6274 21.118 25.306 21.0533C24.4245 20.881 23.8886 20.159 23.8877 19.2026C23.8877 16.6992 23.8877 14.1962 23.8877 11.6934C23.8877 10.2218 23.9076 8.75009 23.8817 7.27842C23.8619 6.15829 24.6692 5.25961 25.8324 5.33802C26.1943 5.36215 26.5709 5.33802 26.9155 5.43022C27.6453 5.62495 28.1304 6.30908 28.1321 7.06732C28.1344 9.11858 28.1344 11.1701 28.1321 13.222ZM24.8226 13.1944C24.8226 15.1825 24.8226 17.1702 24.8226 19.1577C24.8226 19.8832 25.1328 20.1857 25.8669 20.1917H25.9315C26.9827 20.1917 27.2283 19.9513 27.2283 18.9122V7.59378C27.2283 6.44522 27.0301 6.24877 25.8781 6.24963C25.1147 6.24963 24.8226 6.53655 24.8217 7.29307C24.8217 9.26046 24.822 11.2276 24.8226 13.1944Z" fill="#121212"/>
<path id="Vector_2" d="M10.6651 25.4139H8.55405C7.19956 25.4139 5.84506 25.4139 4.49058 25.4139C4.21313 25.4139 4.03823 25.2846 4.00549 25.0063C3.97619 24.7573 4.10887 24.5945 4.33893 24.5238C4.43406 24.5059 4.53129 24.5018 4.62758 24.5118C6.53093 24.5118 8.43342 24.5074 10.3359 24.5169C10.5677 24.5169 10.6892 24.4773 10.7745 24.23C10.9196 23.8224 11.1871 23.4696 11.5404 23.2199C11.8937 22.9702 12.3155 22.8357 12.7482 22.835C13.1809 22.8342 13.6032 22.9672 13.9573 23.2157C14.3115 23.4641 14.5803 23.816 14.7268 24.2231C14.8129 24.4644 14.9258 24.5161 15.1628 24.5161C19.259 24.5086 23.3549 24.5069 27.4505 24.5109C27.5469 24.5036 27.6437 24.5036 27.74 24.5109C27.983 24.5497 28.1269 24.6953 28.1312 24.9417C28.1364 25.2071 27.9925 25.3622 27.7331 25.4018C27.6369 25.4106 27.5401 25.412 27.4436 25.4061C23.3583 25.4061 19.2733 25.4047 15.1886 25.4018C14.9491 25.4018 14.8147 25.4397 14.7233 25.6999C14.5774 26.1073 14.3081 26.4591 13.9529 26.7062C13.5977 26.9533 13.1743 27.0835 12.7416 27.0786C12.3095 27.0757 11.8885 26.9411 11.535 26.6926C11.1814 26.444 10.9122 26.0935 10.7633 25.6879C10.7331 25.6112 10.7064 25.5302 10.6651 25.4139ZM13.9444 24.9555C13.9424 24.7981 13.9094 24.6426 13.8472 24.498C13.7851 24.3534 13.6951 24.2224 13.5824 24.1125C13.4697 24.0027 13.3364 23.9161 13.1902 23.8578C13.044 23.7994 12.8878 23.7704 12.7304 23.7725C12.573 23.7745 12.4175 23.8075 12.2729 23.8696C12.1283 23.9318 11.9973 24.0217 11.8874 24.1345C11.7776 24.2472 11.691 24.3805 11.6326 24.5267C11.5743 24.6729 11.5453 24.8291 11.5474 24.9865C11.5515 25.3044 11.6817 25.6076 11.9094 25.8295C12.137 26.0513 12.4435 26.1736 12.7614 26.1695C13.0793 26.1654 13.3825 26.0352 13.6043 25.8075C13.8262 25.5798 13.9485 25.2734 13.9444 24.9555Z" fill="#121212"/>
<path id="Vector_3" d="M21.4988 14.933C21.4988 16.3409 21.4669 17.7488 21.5083 19.155C21.5453 20.4225 20.5475 21.1945 19.5661 21.0937C19.2215 21.0592 18.8725 21.0937 18.5451 21.0179C17.8489 20.8524 17.3681 20.2614 17.2845 19.5531C17.2679 19.4254 17.259 19.2968 17.2578 19.1679C17.2578 16.3424 17.2578 13.5168 17.2578 10.6912C17.2578 9.71153 17.7386 8.99723 18.6132 8.83697C19.1401 8.74518 19.6793 8.74956 20.2046 8.84989C20.9741 8.99551 21.4574 9.66758 21.4971 10.4543C21.4971 10.4973 21.5014 10.5404 21.5014 10.5826C21.4996 12.0331 21.4988 13.4832 21.4988 14.933ZM20.5863 14.9434C20.5863 13.4924 20.5863 12.0414 20.5863 10.5904C20.5863 10.0863 20.2934 9.73824 19.8108 9.6874C19.5324 9.65939 19.2518 9.65939 18.9733 9.6874C18.5046 9.73307 18.1979 10.0613 18.1979 10.5189C18.1927 13.4639 18.1927 16.4087 18.1979 19.3532C18.1885 19.5386 18.2474 19.7209 18.3635 19.8658C18.4796 20.0106 18.6448 20.1078 18.8277 20.139C19.0919 20.1826 19.3598 20.1991 19.6273 20.1881C20.2589 20.1829 20.5915 19.8383 20.5915 19.2007C20.5875 17.7813 20.5854 16.3622 20.5854 14.9434H20.5863Z" fill="#121212"/>
<path id="Vector_4" d="M10.6347 16.4265C10.6347 15.4916 10.6304 14.5576 10.6347 13.6228C10.6408 12.4518 11.3568 11.7358 12.5217 11.7418C12.8663 11.7418 13.211 11.7306 13.5436 11.8047C14.2786 11.9701 14.7645 12.5552 14.8507 13.2979C14.8656 13.4151 14.8736 13.5331 14.8748 13.6512C14.8748 15.4985 14.88 17.3459 14.8748 19.1932C14.8748 20.166 14.3811 20.8768 13.5014 21.0319C12.9735 21.1197 12.4342 21.1121 11.9091 21.0095C11.1629 20.8674 10.658 20.1867 10.6442 19.4224C10.627 18.4238 10.6442 17.4251 10.6442 16.4265H10.6347ZM13.9451 16.386C13.9451 15.4296 13.9494 14.4732 13.9451 13.5176C13.9451 13.0567 13.6772 12.7267 13.2257 12.6707C12.9061 12.6302 12.5827 12.6302 12.2632 12.6707C12.0624 12.6923 11.8773 12.7894 11.7454 12.9423C11.6134 13.0953 11.5444 13.2926 11.5524 13.4944C11.5466 15.4394 11.5466 17.3838 11.5524 19.3276C11.5524 19.805 11.891 20.1401 12.3864 20.1798C12.5904 20.1918 12.7949 20.1936 12.999 20.185C13.6203 20.172 13.9468 19.8403 13.9468 19.2182C13.9511 18.2782 13.946 17.3304 13.9451 16.3826V16.386Z" fill="#121212"/>
<path id="Vector_5" d="M4.00093 18.0383V16.8458C4.00093 15.83 4.60408 15.1226 5.5984 14.9993C5.95054 14.9575 6.3065 14.9593 6.65821 15.0045C7.51985 15.1148 8.14194 15.6637 8.20053 16.5193C8.27119 17.5574 8.26601 18.5993 8.18502 19.6366C8.11695 20.4983 7.35095 21.0911 6.49018 21.0885C6.08435 21.0885 5.66561 21.1049 5.27615 21.0153C4.51274 20.8429 4.00782 20.1424 4.00179 19.3592C3.99835 18.9189 4.00093 18.4786 4.00093 18.0383ZM7.307 18.0607C7.307 17.6523 7.31131 17.2439 7.307 16.8363C7.29839 16.2332 6.99166 15.9265 6.39455 15.9187C6.20154 15.9187 6.00768 15.9187 5.81467 15.9187C5.26236 15.9273 4.91685 16.2418 4.90737 16.7864C4.89272 17.6239 4.89444 18.4622 4.90737 19.2997C4.91426 19.7616 5.18482 20.0993 5.62425 20.1614C5.95395 20.2053 6.288 20.2053 6.6177 20.1614C7.04421 20.1019 7.29063 19.7892 7.307 19.3558C7.32337 18.9224 7.307 18.4898 7.307 18.0607Z" fill="#121212"/>
</g>
</g>
</svg>
