<svg width="74" height="74" viewBox="0 0 74 74" fill="none" xmlns="http://www.w3.org/2000/svg">
<rect opacity="0.05" width="74" height="74" rx="37" fill="#4C005B"/>
<path d="M18.3028 58.2284C18.1621 58.1743 18.0225 58.1158 17.8795 58.0674C17.2826 57.8689 16.7605 57.4931 16.3827 56.9902C16.0049 56.4873 15.7894 55.8811 15.765 55.2526C15.7549 55.0566 15.7537 54.8596 15.7537 54.6626C15.7537 44.8295 15.7492 34.9964 15.7402 25.1633C15.7402 23.9405 16.1309 22.9835 17.0047 22.1334C19.0313 20.1653 21.013 18.1555 23.0002 16.1502C23.3378 15.794 23.7465 15.5127 24.1998 15.3246C24.6531 15.1364 25.1409 15.0456 25.6315 15.0581C32.6562 15.075 39.6808 15.066 46.7055 15.0671C48.65 15.0671 49.9932 16.3991 49.9955 18.3379C49.9955 21.0199 49.9955 23.7026 49.9955 26.386C50.0034 26.5255 49.9893 26.6653 49.9538 26.8004C49.9181 26.9388 49.8336 27.0596 49.7159 27.1407C49.5982 27.2218 49.4552 27.2577 49.3132 27.2417C48.9878 27.217 48.7637 27.0346 48.7299 26.6855C48.7172 26.5316 48.7123 26.3772 48.7153 26.2228C48.7153 23.6519 48.7153 21.0814 48.7153 18.5113C48.7153 17.0611 47.9868 16.3304 46.5467 16.3304H25.7238C25.6398 16.3349 25.5556 16.3349 25.4716 16.3304C25.1271 16.2943 25.0123 16.434 25.0213 16.7864C25.0382 18.4584 25.0291 20.1304 25.028 21.8013C25.028 23.4474 24.1475 24.3301 22.5116 24.3301H17.0688C17.0576 24.5012 17.0407 24.6487 17.0407 24.7973C17.0407 34.8827 17.0407 44.968 17.0407 55.0533C17.0407 56.1038 17.7928 56.8897 18.8422 56.9572C18.9548 56.9651 19.0674 56.9572 19.1799 56.9572C28.3112 56.9572 37.4429 56.9553 46.5749 56.9516C46.8828 56.9568 47.1897 56.9143 47.4846 56.8255C48.2356 56.5834 48.6804 55.918 48.7232 55.0465C48.7344 54.7797 48.7232 54.5128 48.7333 54.246C48.7558 53.862 49.0272 53.5929 49.3672 53.5963C49.5304 53.6018 49.6857 53.6675 49.8032 53.7809C49.9207 53.8942 49.992 54.0471 50.0033 54.2099C50.1835 56.2062 49.3762 57.6846 47.5364 58.1597C47.515 58.1597 47.5015 58.2002 47.4846 58.2205L18.3028 58.2284ZM18.0867 23.0049C18.11 23.0203 18.1366 23.0299 18.1644 23.033C19.7069 23.033 21.2483 23.0454 22.7908 23.0274C23.3999 23.0195 23.7096 22.6772 23.7118 22.0658C23.7197 20.6021 23.7118 19.1497 23.7118 17.6916C23.7118 17.588 23.7005 17.4833 23.6949 17.3989L18.0867 23.0049Z" fill="#4C005B"/>
<path d="M44.9453 49.5049C44.9453 48.621 44.9385 47.736 44.9453 46.8511C44.9453 46.5989 44.9126 46.4716 44.6131 46.3951C44.0993 46.2617 43.6418 45.9672 43.3075 45.5549C42.9732 45.1426 42.7797 44.6341 42.7553 44.1038C42.7528 43.8429 42.6727 43.5887 42.5254 43.3734C42.378 43.1581 42.17 42.9914 41.9278 42.8946C40.2704 42.1379 39.7795 40.6506 40.678 39.0855C40.8149 38.8726 40.8877 38.6248 40.8877 38.3717C40.8877 38.1186 40.8149 37.8708 40.678 37.6579C39.7908 36.1187 40.2772 34.5942 41.8895 33.8669C42.4525 33.6158 42.7216 33.2105 42.7598 32.598C42.783 32.2365 42.8845 31.8844 43.0571 31.566C43.2298 31.2476 43.4696 30.9705 43.7598 30.7539C44.0501 30.5373 44.384 30.3863 44.7383 30.3115C45.0927 30.2366 45.4591 30.2395 45.8122 30.3202C46.4878 30.4778 46.9956 30.3202 47.4583 29.7944C48.5111 28.611 50.2247 28.6257 51.2674 29.8192C51.6907 30.3022 52.1591 30.4745 52.7963 30.3348C54.3726 29.9903 55.7159 30.9203 55.9095 32.5146C55.9951 33.2161 56.2935 33.6552 56.9533 33.9412C57.2806 34.0807 57.574 34.2891 57.8135 34.5521C58.0531 34.8152 58.2331 35.1267 58.3415 35.4656C58.4498 35.8045 58.4838 36.1628 58.4413 36.516C58.3988 36.8692 58.2806 37.2091 58.095 37.5126C57.7403 38.1139 57.7493 38.6386 58.1006 39.2409C58.2853 39.5452 58.4022 39.8857 58.4434 40.2393C58.4846 40.5928 58.4491 40.9511 58.3394 41.2897C58.2297 41.6283 58.0482 41.9393 57.8075 42.2015C57.5667 42.4637 57.2723 42.6709 56.9443 42.809C56.3059 43.0882 55.985 43.5059 55.9163 44.1984C55.8037 45.357 55.1282 46.0967 54.0259 46.4074C53.7354 46.4885 53.7737 46.6529 53.7737 46.8409C53.7737 48.5827 53.7737 50.3246 53.7737 52.0664C53.7737 52.8635 53.3773 53.4276 52.6601 53.5233C52.3033 53.5534 51.9455 53.4783 51.631 53.3071C50.9386 52.9401 50.2945 52.483 49.6122 52.0945C49.5316 52.057 49.4438 52.0375 49.355 52.0375C49.2661 52.0375 49.1783 52.057 49.0977 52.0945C48.4221 52.4751 47.7736 52.8827 47.1217 53.297C46.6308 53.6055 46.1297 53.6899 45.6152 53.3871C45.1209 53.0955 44.9284 52.6462 44.9396 52.0765C44.9576 51.2185 44.9453 50.3617 44.9453 49.5049ZM53.4348 45.2072C53.7402 45.2103 54.0353 45.0968 54.2599 44.8899C54.4846 44.6831 54.622 44.3983 54.644 44.0937C54.7296 42.9362 55.2689 42.1233 56.3622 41.6741C57.1503 41.352 57.4093 40.5549 56.9679 39.832C56.3655 38.8446 56.3678 37.8921 56.9679 36.9046C57.4081 36.1874 57.1346 35.3857 56.3509 35.0637C55.2756 34.6224 54.7341 33.8252 54.6429 32.6824C54.6351 32.5029 54.587 32.3275 54.5023 32.1691C54.4175 32.0106 54.2983 31.8733 54.1533 31.7671C54.0084 31.661 53.8415 31.5888 53.6648 31.5558C53.4882 31.5229 53.3065 31.53 53.133 31.5767C51.9981 31.8402 51.0692 31.561 50.3024 30.6692C49.7496 30.0275 48.913 30.0489 48.3613 30.694C47.6452 31.5306 46.7681 31.8334 45.6906 31.5947C44.7426 31.3853 44.0941 31.8762 44.0164 32.8457C43.9342 33.859 43.4162 34.5728 42.4986 34.9951C41.4943 35.4556 41.2804 36.121 41.8231 37.0893C42.3016 37.9405 42.3455 38.83 41.8118 39.644C41.2882 40.4412 41.5742 41.423 42.4873 41.7619C43.4286 42.1109 43.933 42.8765 44.013 43.9011C44.0918 44.8863 44.7561 45.3648 45.7311 45.1509C46.7062 44.937 47.5642 45.1836 48.2487 45.9323C49.002 46.7576 49.6832 46.7587 50.4454 45.9256C50.9656 45.357 51.604 45.044 52.3843 45.0845C52.7254 45.0957 53.0565 45.1599 53.4348 45.2072ZM46.2097 52.3276C46.4349 52.2026 46.5643 52.1328 46.6927 52.054C47.3142 51.6723 47.9368 51.2929 48.5539 50.9044C49.0819 50.5666 49.6021 50.5666 50.1302 50.8965C50.7843 51.3052 51.443 51.7061 52.1017 52.1069C52.1996 52.1666 52.3077 52.2105 52.4394 52.2758V46.3602C51.9575 46.332 51.6412 46.5628 51.3135 46.8601C50.9701 47.1753 50.5895 47.5165 50.1628 47.6651C49.1146 48.031 48.171 47.7698 47.42 46.9299C47.1003 46.5707 46.7445 46.3061 46.2018 46.3669V52.3276H46.2097Z" fill="#4C005B"/>
<path d="M30.1097 20.7342V23.0378C30.4678 23.0378 30.8112 23.0378 31.1546 23.0378C31.6793 23.0479 31.9653 23.2855 31.9563 23.6942C31.9473 24.1029 31.6557 24.3259 31.131 24.3315C30.8653 24.3315 30.5973 24.3315 30.3304 24.3315C29.4297 24.3191 28.8363 23.7685 28.7969 22.8858C28.7677 22.2102 28.7688 21.5347 28.7969 20.8648C28.833 19.9775 29.397 19.4292 30.2809 19.427C34.5654 19.4194 38.8492 19.4194 43.1322 19.427C44.0465 19.427 44.6027 19.9899 44.6207 20.8907C44.6331 21.5358 44.632 22.1821 44.6207 22.8284C44.605 23.7415 44.0217 24.3259 43.1097 24.3281C40.2176 24.3334 37.3247 24.3334 34.4311 24.3281C33.9357 24.3281 33.6576 24.095 33.6429 23.6987C33.6317 23.2754 33.8985 23.0378 34.4311 23.0367C37.2121 23.0367 39.9931 23.0367 42.7731 23.0367C42.9509 23.0367 43.1288 23.0164 43.336 23.004C43.336 22.2958 43.345 21.6236 43.3248 20.9515C43.3248 20.8704 43.1694 20.7837 43.0737 20.7173C43.0354 20.6902 42.9611 20.7173 42.9082 20.7173H30.4869C30.3766 20.7128 30.2663 20.7252 30.1097 20.7342Z" fill="#4C005B"/>
<path d="M29.2172 31.6588H21.5958C21.4968 31.6588 21.3988 31.6588 21.3008 31.6588C20.8212 31.6419 20.5127 31.3964 20.5127 31.0204C20.5127 30.6443 20.8167 30.355 21.3155 30.3538C23.9959 30.3538 26.6768 30.3538 29.358 30.3538C31.9101 30.3538 34.4648 30.3538 37.0222 30.3538C37.1898 30.3495 37.3573 30.3658 37.521 30.4022C37.8148 30.4766 38.0153 30.6995 37.9522 30.9832C37.8817 31.2224 37.7375 31.4332 37.5401 31.5856C37.4275 31.6813 37.1922 31.6577 37.0132 31.6577C34.4115 31.6607 31.8129 31.661 29.2172 31.6588Z" fill="#4C005B"/>
<path d="M29.2545 43.6782C31.8239 43.6782 34.3925 43.6782 36.9604 43.6782C37.1285 43.6736 37.2966 43.6849 37.4626 43.7119C37.5993 43.7406 37.7227 43.8139 37.8132 43.9204C37.9037 44.0269 37.9562 44.1605 37.9624 44.3001C37.9686 44.4397 37.9281 44.5774 37.8474 44.6915C37.7667 44.8056 37.6503 44.8896 37.5166 44.9302C37.3536 44.9683 37.1862 44.9846 37.0189 44.9786C31.8397 44.9786 26.6604 44.9786 21.4811 44.9786H21.3967C20.827 44.9786 20.496 44.7275 20.5061 44.3121C20.5162 43.8966 20.8292 43.6759 21.3809 43.6759C24.0058 43.6759 26.6304 43.6767 29.2545 43.6782Z" fill="#4C005B"/>
<path d="M29.2418 36.0794H21.528C21.3873 36.0794 21.2466 36.0794 21.1069 36.0704C20.7399 36.0423 20.5507 35.8171 20.5113 35.4737C20.4742 35.1539 20.7365 34.8555 21.0856 34.8082C21.1979 34.7981 21.3107 34.7958 21.4233 34.8015H37.0613C37.174 34.7963 37.2868 34.7986 37.3991 34.8082C37.5618 34.8234 37.712 34.9019 37.8173 35.0268C37.9226 35.1517 37.9746 35.313 37.9621 35.4759C37.9373 35.8351 37.7369 36.0389 37.3766 36.0704C37.237 36.0828 37.0962 36.0794 36.9555 36.0794H29.2418Z" fill="#4C005B"/>
<path d="M29.2397 39.2522H36.9535C37.1082 39.2467 37.2631 39.2509 37.4174 39.2646C37.5672 39.2722 37.7081 39.3382 37.8097 39.4485C37.9114 39.5589 37.9658 39.7046 37.9612 39.8546C37.9781 40.216 37.7822 40.4356 37.4387 40.5133C37.3135 40.5312 37.1866 40.5349 37.0604 40.5245H21.4224C21.2963 40.5343 21.1694 40.5306 21.0441 40.5133C20.6996 40.4378 20.4958 40.2081 20.5138 39.8568C20.5118 39.7066 20.5678 39.5613 20.6701 39.4512C20.7724 39.3411 20.9132 39.2747 21.0633 39.2657C21.2171 39.2516 21.3716 39.2471 21.526 39.2522H29.2397Z" fill="#4C005B"/>
<path d="M25.2656 50.202H28.9259C29.0522 50.199 29.1784 50.2028 29.3043 50.2133C29.467 50.2213 29.6205 50.2912 29.7335 50.4085C29.8465 50.5259 29.9104 50.682 29.9122 50.845C29.9049 51.0078 29.8378 51.1622 29.7237 51.2787C29.6097 51.3953 29.4568 51.4657 29.2941 51.4766C29.141 51.4901 28.9856 51.4766 28.8314 51.4766H21.4667C21.3541 51.4766 21.2415 51.4834 21.1289 51.4766C20.9664 51.4685 20.8126 51.4005 20.6972 51.2858C20.5818 51.171 20.513 51.0176 20.504 50.8551C20.5025 50.7708 20.5179 50.687 20.5492 50.6087C20.5806 50.5304 20.6272 50.4591 20.6865 50.3991C20.7458 50.3391 20.8164 50.2916 20.8943 50.2593C20.9722 50.227 21.0558 50.2106 21.1402 50.2111C21.7031 50.193 22.2661 50.202 22.829 50.2009L25.2656 50.202Z" fill="#4C005B"/>
<path d="M49.3445 43.6733C47.9407 43.668 46.5955 43.1095 45.6008 42.1188C44.6062 41.1281 44.0422 39.7853 44.0312 38.3815C44.0312 35.4833 46.4204 33.0806 49.3321 33.0615C52.2437 33.0423 54.6532 35.4507 54.6465 38.3905C54.6453 39.0855 54.5072 39.7735 54.2401 40.4151C53.973 41.0568 53.5821 41.6396 53.0898 42.1301C52.5974 42.6207 52.0133 43.0095 51.3706 43.2743C50.728 43.5391 50.0395 43.6747 49.3445 43.6733ZM49.3389 34.3619C48.2746 34.3619 47.2539 34.7847 46.5014 35.5372C45.7488 36.2898 45.3261 37.3104 45.3261 38.3747C45.3261 39.439 45.7488 40.4596 46.5014 41.2122C47.2539 41.9647 48.2746 42.3875 49.3389 42.3875C49.8658 42.3875 50.3876 42.2837 50.8745 42.0821C51.3614 41.8804 51.8037 41.5848 52.1764 41.2122C52.549 40.8396 52.8445 40.3972 53.0462 39.9103C53.2479 39.4235 53.3517 38.9017 53.3517 38.3747C53.3517 37.8477 53.2479 37.3259 53.0462 36.8391C52.8445 36.3522 52.549 35.9098 52.1764 35.5372C51.8037 35.1646 51.3614 34.869 50.8745 34.6674C50.3876 34.4657 49.8658 34.3619 49.3389 34.3619Z" fill="#4C005B"/>
</svg>
