<svg width="32" height="32" viewBox="0 0 32 32" fill="none" xmlns="http://www.w3.org/2000/svg">
<g id="Group 1000010210">
<g id="Group 1000010203">
<path id="Vector" d="M5.51916 28.2596C5.43573 28.2275 5.35296 28.1928 5.26819 28.1641C4.91436 28.0464 4.60482 27.8237 4.38086 27.5255C4.1569 27.2274 4.02916 26.868 4.01469 26.4954C4.00868 26.3793 4.00801 26.2625 4.00801 26.1457C4.00801 20.3164 4.00534 14.4872 4 8.65796C4 7.93309 4.23162 7.36574 4.74958 6.8618C5.95102 5.69506 7.12577 4.50363 8.30385 3.31486C8.50399 3.10369 8.74627 2.93693 9.01499 2.82539C9.28371 2.71385 9.57288 2.66003 9.86373 2.66742C14.0281 2.67743 18.1924 2.67209 22.3568 2.67276C23.5095 2.67276 24.3058 3.46237 24.3071 4.61176C24.3071 6.20167 24.3071 7.79203 24.3071 9.38283C24.3118 9.4655 24.3035 9.54839 24.2824 9.62847C24.2612 9.71051 24.2112 9.78215 24.1414 9.83022C24.0716 9.87829 23.9868 9.89956 23.9026 9.89011C23.7097 9.87543 23.5769 9.7673 23.5569 9.56038C23.5493 9.46915 23.5464 9.37759 23.5482 9.28605C23.5482 7.762 23.5482 6.23816 23.5482 4.71455C23.5482 3.85485 23.1163 3.42166 22.2627 3.42166H9.91846C9.86866 3.42433 9.81875 3.42433 9.76895 3.42166C9.5647 3.4003 9.49662 3.48307 9.50196 3.69198C9.51197 4.68318 9.50663 5.67437 9.50596 6.6649C9.50596 7.64074 8.984 8.16404 8.01417 8.16404H4.78762C4.78094 8.26549 4.77093 8.35293 4.77093 8.44103C4.77093 14.4198 4.77093 20.3985 4.77093 26.3773C4.77093 27 5.2168 27.4659 5.83888 27.506C5.90563 27.5107 5.97238 27.506 6.03912 27.506C11.4523 27.506 16.8657 27.5049 22.2793 27.5026C22.4619 27.5057 22.6438 27.4805 22.8187 27.4279C23.2639 27.2844 23.5275 26.8899 23.5529 26.3733C23.5596 26.2151 23.5529 26.0569 23.5589 25.8987C23.5722 25.6711 23.7331 25.5116 23.9347 25.5136C24.0314 25.5168 24.1235 25.5558 24.1931 25.623C24.2628 25.6902 24.3051 25.7808 24.3118 25.8774C24.4186 27.0608 23.94 27.9372 22.8494 28.2188C22.8367 28.2188 22.8287 28.2429 22.8187 28.2549L5.51916 28.2596ZM5.39101 7.37842C5.40482 7.38757 5.42061 7.39329 5.43707 7.39511C6.3515 7.39511 7.26526 7.40245 8.1797 7.39177C8.5408 7.3871 8.72436 7.18419 8.72569 6.82175C8.73036 5.95404 8.72569 5.093 8.72569 4.22863C8.72569 4.16722 8.71902 4.10515 8.71568 4.05509L5.39101 7.37842Z" fill="#121212"/>
<path id="Vector_2" d="M21.3127 23.0881C21.3127 22.5642 21.3087 22.0395 21.3127 21.5149C21.3127 21.3654 21.2934 21.29 21.1158 21.2446C20.8112 21.1655 20.54 20.991 20.3418 20.7465C20.1436 20.5021 20.0289 20.2006 20.0145 19.8863C20.013 19.7316 19.9655 19.5809 19.8782 19.4533C19.7908 19.3256 19.6675 19.2268 19.5239 19.1694C18.5414 18.7209 18.2504 17.8392 18.783 16.9114C18.8642 16.7852 18.9073 16.6383 18.9073 16.4882C18.9073 16.3381 18.8642 16.1912 18.783 16.065C18.257 15.1526 18.5454 14.2488 19.5012 13.8176C19.8349 13.6688 19.9945 13.4285 20.0172 13.0654C20.0309 12.8511 20.091 12.6424 20.1934 12.4537C20.2958 12.2649 20.4379 12.1006 20.61 11.9722C20.7821 11.8438 20.98 11.7543 21.1901 11.7099C21.4001 11.6655 21.6173 11.6673 21.8267 11.7151C22.2271 11.8086 22.5282 11.7151 22.8025 11.4034C23.4266 10.7019 24.4425 10.7106 25.0606 11.4181C25.3115 11.7044 25.5892 11.8066 25.967 11.7238C26.9014 11.5195 27.6977 12.0709 27.8125 13.016C27.8633 13.4318 28.0402 13.6922 28.4313 13.8617C28.6253 13.9444 28.7992 14.0679 28.9412 14.2239C29.0833 14.3798 29.19 14.5645 29.2542 14.7654C29.3184 14.9663 29.3386 15.1787 29.3134 15.3881C29.2882 15.5975 29.2182 15.799 29.1081 15.9789C28.8978 16.3353 28.9032 16.6464 29.1114 17.0035C29.2209 17.1839 29.2902 17.3857 29.3147 17.5953C29.3391 17.8049 29.3181 18.0173 29.253 18.218C29.188 18.4188 29.0804 18.6031 28.9377 18.7586C28.795 18.914 28.6204 19.0368 28.4259 19.1187C28.0475 19.2842 27.8573 19.5319 27.8165 19.9423C27.7498 20.6292 27.3493 21.0677 26.6959 21.2519C26.5237 21.3 26.5464 21.3974 26.5464 21.5089C26.5464 22.5415 26.5464 23.5741 26.5464 24.6066C26.5464 25.0792 26.3114 25.4136 25.8862 25.4703C25.6747 25.4882 25.4626 25.4436 25.2762 25.3422C24.8657 25.1246 24.4839 24.8536 24.0794 24.6233C24.0316 24.6011 23.9796 24.5895 23.9269 24.5895C23.8742 24.5895 23.8221 24.6011 23.7744 24.6233C23.3739 24.8489 22.9894 25.0905 22.6029 25.3362C22.3119 25.5191 22.0149 25.5691 21.7099 25.3896C21.4168 25.2167 21.3027 24.9504 21.3094 24.6126C21.3201 24.104 21.3127 23.5961 21.3127 23.0881ZM26.3454 20.5404C26.5265 20.5422 26.7014 20.475 26.8346 20.3523C26.9678 20.2297 27.0492 20.0609 27.0623 19.8803C27.113 19.1941 27.4328 18.7122 28.0809 18.4459C28.5481 18.255 28.7016 17.7824 28.44 17.3539C28.0829 16.7685 28.0842 16.2039 28.44 15.6185C28.7009 15.1933 28.5387 14.7181 28.0742 14.5272C27.4368 14.2655 27.1157 13.7929 27.0616 13.1155C27.057 13.0091 27.0285 12.9051 26.9783 12.8111C26.9281 12.7172 26.8574 12.6358 26.7714 12.5729C26.6855 12.5099 26.5865 12.4671 26.4818 12.4476C26.3771 12.4281 26.2694 12.4323 26.1666 12.46C25.4937 12.6162 24.9431 12.4507 24.4885 11.922C24.1608 11.5416 23.6649 11.5543 23.3378 11.9367C22.9133 12.4326 22.3934 12.6122 21.7546 12.4707C21.1926 12.3465 20.8081 12.6376 20.7621 13.2122C20.7133 13.813 20.4063 14.2361 19.8623 14.4864C19.2669 14.7594 19.1401 15.1539 19.4618 15.7279C19.7455 16.2325 19.7715 16.7599 19.4551 17.2424C19.1448 17.715 19.3143 18.297 19.8556 18.4979C20.4136 18.7049 20.7127 19.1587 20.76 19.7661C20.8068 20.3502 21.2006 20.6339 21.7786 20.507C22.3566 20.3802 22.8653 20.5264 23.2711 20.9703C23.7176 21.4595 24.1214 21.4602 24.5733 20.9663C24.8817 20.6292 25.2601 20.4436 25.7227 20.4676C25.9249 20.4743 26.1212 20.5124 26.3454 20.5404ZM22.0623 24.7615C22.1958 24.6874 22.2725 24.646 22.3486 24.5993C22.7171 24.373 23.0862 24.1481 23.452 23.9178C23.765 23.7176 24.0734 23.7176 24.3864 23.9131C24.7742 24.1554 25.1647 24.393 25.5552 24.6307C25.6132 24.666 25.6773 24.6921 25.7554 24.7308V21.2239C25.4697 21.2072 25.2822 21.344 25.0879 21.5203C24.8844 21.7071 24.6587 21.9094 24.4058 21.9975C23.7844 22.2144 23.225 22.0596 22.7798 21.5616C22.5903 21.3487 22.3793 21.1919 22.0576 21.2279V24.7615H22.0623Z" fill="#121212"/>
<path id="Vector_3" d="M12.5191 6.03218V7.39782C12.7313 7.39782 12.9349 7.39782 13.1385 7.39782C13.4495 7.40383 13.6191 7.54466 13.6137 7.78696C13.6084 8.02925 13.4355 8.1614 13.1245 8.16474C12.9669 8.16474 12.8081 8.16474 12.6499 8.16474C12.1159 8.1574 11.7642 7.83101 11.7408 7.30771C11.7234 6.90723 11.7241 6.50675 11.7408 6.1096C11.7622 5.58364 12.0966 5.25858 12.6205 5.25724C15.1605 5.25279 17.7 5.25279 20.239 5.25724C20.781 5.25724 21.1107 5.59098 21.1214 6.12495C21.1288 6.50741 21.1281 6.89054 21.1214 7.27367C21.1121 7.81499 20.7663 8.16141 20.2257 8.16274C18.5112 8.16586 16.7962 8.16586 15.0808 8.16274C14.7871 8.16274 14.6223 8.02457 14.6136 7.78962C14.6069 7.53866 14.7651 7.39782 15.0808 7.39715C16.7295 7.39715 18.3781 7.39715 20.0261 7.39715C20.1316 7.39715 20.237 7.38514 20.3598 7.3778C20.3598 6.95796 20.3652 6.55948 20.3532 6.161C20.3532 6.11294 20.2611 6.06154 20.2043 6.02216C20.1816 6.00614 20.1376 6.02216 20.1062 6.02216H12.7427C12.6773 6.01949 12.6118 6.02684 12.5191 6.03218Z" fill="#121212"/>
<path id="Vector_4" d="M11.9888 12.5086H7.47072C7.41198 12.5086 7.35391 12.5086 7.29584 12.5086C7.0115 12.4986 6.82861 12.3531 6.82861 12.1302C6.82861 11.9072 7.00883 11.7357 7.30452 11.735C8.89354 11.735 10.4828 11.735 12.0723 11.735C13.5852 11.735 15.0997 11.735 16.6157 11.735C16.7151 11.7325 16.8144 11.7421 16.9114 11.7637C17.0856 11.8078 17.2044 11.9399 17.1671 12.1081C17.1253 12.2499 17.0398 12.3749 16.9228 12.4652C16.856 12.522 16.7165 12.508 16.6104 12.508C15.0681 12.5097 13.5276 12.51 11.9888 12.5086Z" fill="#121212"/>
<path id="Vector_5" d="M12.0121 19.6339C13.5352 19.6339 15.058 19.6339 16.5802 19.6339C16.6799 19.6312 16.7795 19.6379 16.8779 19.6539C16.959 19.6709 17.0322 19.7144 17.0858 19.7775C17.1395 19.8406 17.1706 19.9198 17.1742 20.0026C17.1779 20.0854 17.1539 20.167 17.1061 20.2346C17.0582 20.3023 16.9892 20.352 16.91 20.3761C16.8133 20.3987 16.7141 20.4084 16.6149 20.4048C13.5446 20.4048 10.4742 20.4048 7.40384 20.4048H7.35378C7.01604 20.4048 6.81981 20.256 6.82582 20.0097C6.83182 19.7634 7.01738 19.6326 7.34444 19.6326C8.90054 19.6326 10.4564 19.633 12.0121 19.6339Z" fill="#121212"/>
<path id="Vector_6" d="M12.0038 15.1292H7.43098C7.34755 15.1292 7.26411 15.1292 7.18135 15.1239C6.96375 15.1072 6.85161 14.9737 6.82825 14.7701C6.80623 14.5806 6.96175 14.4037 7.16867 14.3757C7.23524 14.3697 7.30215 14.3683 7.36891 14.3717H16.6394C16.7062 14.3686 16.7731 14.37 16.8396 14.3757C16.9361 14.3847 17.0251 14.4312 17.0875 14.5052C17.15 14.5793 17.1808 14.6749 17.1734 14.7715C17.1587 14.9844 17.0399 15.1052 16.8263 15.1239C16.7435 15.1312 16.6601 15.1292 16.5767 15.1292H12.0038Z" fill="#121212"/>
<path id="Vector_7" d="M12.0031 17.0102H16.576C16.6677 17.0069 16.7596 17.0094 16.851 17.0175C16.9398 17.022 17.0233 17.0612 17.0836 17.1266C17.1439 17.192 17.1761 17.2784 17.1734 17.3673C17.1834 17.5815 17.0672 17.7117 16.8637 17.7577C16.7894 17.7684 16.7142 17.7706 16.6394 17.7644H7.3689C7.29412 17.7702 7.21892 17.768 7.14462 17.7577C6.94037 17.713 6.81956 17.5769 6.83024 17.3686C6.82906 17.2795 6.86224 17.1934 6.9229 17.1281C6.98356 17.0629 7.06703 17.0235 7.15597 17.0182C7.24716 17.0098 7.33878 17.0072 7.4303 17.0102H12.0031Z" fill="#121212"/>
<path id="Vector_8" d="M9.64701 23.5014H11.817C11.8918 23.4996 11.9666 23.5019 12.0412 23.5081C12.1377 23.5129 12.2287 23.5542 12.2957 23.6238C12.3627 23.6934 12.4006 23.786 12.4017 23.8825C12.3973 23.9791 12.3575 24.0706 12.2899 24.1397C12.2223 24.2088 12.1316 24.2505 12.0352 24.257C11.9444 24.265 11.8523 24.257 11.7609 24.257H7.39496C7.32821 24.257 7.26147 24.261 7.19472 24.257C7.09836 24.2522 7.0072 24.2119 6.9388 24.1439C6.87039 24.0758 6.8296 23.9849 6.82428 23.8886C6.82339 23.8386 6.8325 23.7889 6.85108 23.7425C6.86965 23.6961 6.89732 23.6538 6.93246 23.6183C6.96759 23.5827 7.00948 23.5545 7.05567 23.5354C7.10185 23.5162 7.1514 23.5065 7.2014 23.5068C7.53514 23.4961 7.86887 23.5014 8.20261 23.5008L9.64701 23.5014Z" fill="#121212"/>
<path id="Vector_9" d="M23.9213 19.6311C23.0891 19.6279 22.2916 19.2968 21.702 18.7095C21.1123 18.1222 20.778 17.3262 20.7715 16.494C20.7715 14.7759 22.1878 13.3515 23.9139 13.3402C25.64 13.3288 27.0684 14.7565 27.0644 16.4993C27.0637 16.9113 26.9818 17.3192 26.8235 17.6996C26.6651 18.0799 26.4334 18.4254 26.1415 18.7162C25.8497 19.0071 25.5034 19.2375 25.1224 19.3945C24.7415 19.5515 24.3333 19.6319 23.9213 19.6311ZM23.9179 14.1111C23.287 14.1111 22.682 14.3617 22.2358 14.8078C21.7897 15.254 21.5391 15.859 21.5391 16.4899C21.5391 17.1209 21.7897 17.7259 22.2358 18.1721C22.682 18.6182 23.287 18.8688 23.9179 18.8688C24.2303 18.8688 24.5397 18.8073 24.8283 18.6877C25.1169 18.5682 25.3792 18.393 25.6001 18.1721C25.8209 17.9512 25.9962 17.6889 26.1157 17.4003C26.2353 17.1117 26.2968 16.8023 26.2968 16.4899C26.2968 16.1776 26.2353 15.8682 26.1157 15.5796C25.9962 15.291 25.8209 15.0287 25.6001 14.8078C25.3792 14.5869 25.1169 14.4117 24.8283 14.2922C24.5397 14.1726 24.2303 14.1111 23.9179 14.1111Z" fill="#121212"/>
</g>
</g>
</svg>
