<svg width="24" height="24" viewBox="0 0 24 24" fill="none" xmlns="http://www.w3.org/2000/svg">
<g id="Group 1000005617">
<g id="Group">
<path id="Vector" d="M20.6115 20.4769H16.0437C16.0437 20.3955 16.0437 20.3238 16.0437 20.2522C16.0428 18.1422 16.0433 16.0327 16.0396 13.9228C16.0387 13.2804 15.627 12.7649 15.0076 12.6123C14.2301 12.4207 13.4362 12.9983 13.3801 13.7969C13.3732 13.8938 13.3714 13.9917 13.3714 14.0891C13.3709 16.1357 13.3714 18.1827 13.3714 20.2292V20.4631H8.81836V8.48756H13.1729V9.14416C13.2492 9.08857 13.2965 9.05457 13.3438 9.01965C15.6146 7.33105 18.8774 8.07403 20.1428 10.5681C20.3753 11.0262 20.5228 11.511 20.5802 12.0224C20.5839 12.0545 20.6013 12.0853 20.6124 12.1166V20.4769H20.6115ZM12.327 19.4366C12.327 19.352 12.327 19.284 12.327 19.216C12.327 17.4502 12.321 15.6844 12.3288 13.9187C12.3362 12.2737 13.9434 11.1356 15.4887 11.6713C16.4614 12.0086 17.0766 12.8991 17.0799 13.9871C17.0849 15.7299 17.0858 17.4728 17.0881 19.2156C17.0881 19.2873 17.0881 19.3589 17.0881 19.4325H19.5795C19.5795 19.3713 19.5795 19.3208 19.5795 19.2703C19.5795 17.0289 19.5818 14.7871 19.5749 12.5457C19.5739 12.3017 19.5432 12.0522 19.4876 11.8147C19.0386 9.88715 17.0583 8.73477 15.1376 9.27696C14.243 9.52967 13.5575 10.0599 13.0644 10.8456C13.0281 10.9031 12.9666 10.9816 12.9124 10.9849C12.6629 10.9996 12.412 10.9913 12.1413 10.9913V9.52691H9.85311V19.4375H12.3265L12.327 19.4366Z" fill="#E2E2E2"/>
<path id="Vector_2" d="M7.82025 8.48633V20.4641H3.27734V8.48633H7.82025ZM6.77355 19.4349V9.52982H4.3121V19.4349H6.77355Z" fill="#E2E2E2"/>
<path id="Vector_3" d="M5.55013 8.09981C4.14411 8.10164 3.00138 6.96396 3 5.5607C2.99862 4.14136 4.13263 3.00092 5.546 3C6.96029 2.99908 8.10026 4.14182 8.09613 5.55657C8.09199 6.96672 6.95937 8.09843 5.55059 8.09981H5.55013ZM5.53865 7.06137C6.37536 7.06367 7.05632 6.39512 7.06045 5.56805C7.06459 4.7272 6.39374 4.04165 5.55794 4.03338C4.73179 4.02511 4.032 4.72031 4.032 5.54921C4.032 6.37582 4.7125 7.05908 5.53911 7.06137H5.53865Z" fill="#E2E2E2"/>
</g>
</g>
</svg>
