<svg width="32" height="32" viewBox="0 0 32 32" fill="none" xmlns="http://www.w3.org/2000/svg">
<g id="Group 1000010214">
<g id="Group 1000010213">
<g id="Group 1000010201">
<path id="Vector" d="M19.6074 15.3982C19.6074 17.9704 19.5886 20.5426 19.6137 23.1149C19.6305 24.8053 17.8145 26.0324 16.1952 25.0885C13.8365 23.7162 11.4443 22.4026 9.06248 21.0701C8.94149 21.0066 8.80703 20.9731 8.67041 20.9724C7.98322 20.9633 7.29534 20.9724 6.60816 20.9675C5.10543 20.9605 4.00663 19.8631 4.00314 18.359C3.99895 16.3712 3.99895 14.3833 4.00314 12.3955C4.00663 10.8886 5.10263 9.7898 6.60327 9.78282C7.30092 9.78282 7.99857 9.787 8.69133 9.77794C8.81971 9.77618 8.9458 9.74365 9.059 9.68306C11.4524 8.34078 13.8458 6.99455 16.2392 5.64437C17.774 4.77301 19.6074 5.82925 19.6095 7.60406C19.61 10.2021 19.6093 12.8001 19.6074 15.3982ZM18.4849 15.3745C18.4849 12.8546 18.4849 10.3347 18.4849 7.81475C18.4859 7.6927 18.4805 7.57069 18.4689 7.44919C18.4521 7.26886 18.3907 7.09554 18.2902 6.94486C18.1897 6.79418 18.0533 6.67089 17.8933 6.58609C17.7333 6.5013 17.5546 6.45768 17.3735 6.45916C17.1924 6.46064 17.0145 6.50717 16.8559 6.59457C14.4839 7.92429 12.1133 9.25726 9.74409 10.5935C9.69002 10.6169 9.64476 10.6569 9.61481 10.7077C9.58486 10.7584 9.57174 10.8174 9.57735 10.876C9.58153 13.8755 9.58153 16.8753 9.57735 19.8757C9.57174 19.9344 9.58486 19.9933 9.61481 20.0441C9.64476 20.0948 9.69002 20.1348 9.74409 20.1582C12.1161 21.4884 14.4865 22.8216 16.8552 24.1579C17.0935 24.2908 17.3733 24.3288 17.6384 24.2641C17.9036 24.1994 18.1344 24.0368 18.2847 23.809C18.4654 23.5502 18.4856 23.26 18.4849 22.9607C18.4844 20.4319 18.4844 17.9034 18.4849 15.3752V15.3745ZM8.44576 10.9228C7.78369 10.9228 7.14186 10.9179 6.50072 10.9228C6.32192 10.9219 6.14471 10.9563 5.9793 11.0242C5.81389 11.0921 5.66355 11.1921 5.53696 11.3184C5.41036 11.4446 5.31002 11.5947 5.2417 11.7599C5.17338 11.9252 5.13845 12.1023 5.13891 12.2811C5.13333 14.3461 5.13333 16.4114 5.13891 18.4769C5.14102 18.7707 5.23848 19.0559 5.41664 19.2895C5.5948 19.5232 5.84401 19.6926 6.12678 19.7724C6.16657 19.7898 6.20861 19.8016 6.25166 19.8073C6.97931 19.8073 7.70625 19.8073 8.44576 19.8073V10.9228Z" fill="#121212"/>
<path id="Vector_2" d="M28.5311 15.414C28.5187 17.8722 27.7735 20.2709 26.3907 22.3033C26.2512 22.5126 26.0698 22.6919 25.8179 22.6277C25.6335 22.5705 25.4729 22.4543 25.361 22.297C25.2138 22.0877 25.3226 21.8679 25.4565 21.6691C26.0711 20.7806 26.5465 19.8036 26.8665 18.7718C27.8874 15.3905 27.4499 12.2078 25.5542 9.22377C25.5033 9.14354 25.4447 9.0668 25.3979 8.98378C25.2382 8.69984 25.3003 8.39147 25.5479 8.22125C25.6073 8.17596 25.6755 8.14363 25.7482 8.12634C25.8209 8.10905 25.8963 8.10717 25.9698 8.12085C26.0432 8.13452 26.1129 8.16343 26.1745 8.20572C26.2361 8.24801 26.2881 8.30273 26.3272 8.36636C26.5853 8.74797 26.8344 9.13796 27.0535 9.54259C28.035 11.3621 28.5115 13.312 28.5311 15.414Z" fill="#121212"/>
<path id="Vector_3" d="M24.0667 15.3813C24.0695 16.8264 23.638 18.239 22.8284 19.436C22.6463 19.7102 22.4098 19.8162 22.1733 19.7499C21.7778 19.6404 21.6257 19.2197 21.8671 18.8521C22.2717 18.2537 22.57 17.5901 22.7489 16.8903C23.1779 15.1399 22.8884 13.5116 21.9305 11.9942C21.8508 11.8815 21.7921 11.7553 21.7575 11.6216C21.7059 11.3586 21.8594 11.1242 22.1133 11.0238C22.3673 10.9233 22.6017 10.9986 22.7754 11.24C23.2219 11.8679 23.5742 12.553 23.7591 13.3002C23.9279 13.979 24.0165 14.678 24.14 15.3687L24.0667 15.3813Z" fill="#121212"/>
</g>
</g>
</g>
</svg>
