<svg width="60" height="20" viewBox="0 0 60 20" fill="none" xmlns="http://www.w3.org/2000/svg">
<g id="Group 1000009855">
<g id="Group 1000009852">
<g id="Group">
<path id="Vector" d="M25.3801 11.5352H0V19.9902H25.3801V11.5352Z" fill="#84B740"/>
<path id="Vector_2" d="M25.3801 -0.00390625H0V8.45863H25.3801V-0.00390625Z" fill="#259BD6"/>
<path id="Vector_3" d="M50.7602 18.2702L50.6471 18.2929C50.2552 18.3682 50.1121 18.3984 49.8257 18.3984C49.1625 18.3984 48.3787 18.0593 48.3787 16.4617C48.3787 15.6403 48.5143 14.5476 49.7502 14.5476H49.7578C49.9687 14.5627 50.2099 14.5854 50.662 14.721L50.76 14.7511L50.7602 18.2702ZM50.9636 10.305L50.7602 10.3428V13.2967L50.5794 13.2439L50.5266 13.2288C50.3231 13.1686 49.8559 13.033 49.4038 13.033C46.9321 13.033 46.4121 14.9019 46.4121 16.4692C46.4121 18.6169 47.6178 19.8527 49.7203 19.8527C50.6095 19.8527 51.2651 19.7623 51.9283 19.5438C52.5387 19.3479 52.7572 19.069 52.7572 18.4737V9.99609C52.1694 10.1016 51.559 10.207 50.9636 10.305Z" fill="#27292D"/>
<path id="Vector_4" d="M58.1071 18.3239L58.0017 18.354L57.6249 18.452C57.2708 18.5424 56.9542 18.5952 56.713 18.5952C56.1328 18.5952 55.7861 18.3088 55.7861 17.8191C55.7861 17.5026 55.9293 16.9675 56.8788 16.9675H58.107V18.3239H58.1071ZM57.2405 12.9961C56.4794 12.9961 55.6957 13.1317 54.7236 13.4332L54.0905 13.6216L54.3016 15.0533L54.9196 14.8498C55.5677 14.6387 56.374 14.5031 56.9769 14.5031C57.2482 14.5031 58.0771 14.5031 58.0771 15.3999V15.7918H56.9242C54.8217 15.7918 53.8496 16.4624 53.8496 17.9018C53.8496 19.13 54.7464 19.8685 56.2534 19.8685C56.7206 19.8685 57.3688 19.7781 57.9263 19.6424L57.9565 19.6348L57.9866 19.6424L58.175 19.6725C58.7627 19.778 59.3731 19.8836 59.9684 19.9965V15.2942C59.9684 13.7722 59.0491 12.9961 57.2405 12.9961Z" fill="#27292D"/>
<path id="Vector_5" d="M43.4665 18.3239L43.3611 18.354L42.9843 18.452C42.6301 18.5424 42.3211 18.5952 42.0724 18.5952C41.4921 18.5952 41.1455 18.3088 41.1455 17.8191C41.1455 17.5026 41.2887 16.9675 42.2307 16.9675H43.4589V18.3239H43.4665ZM42.6075 12.9961C41.8388 12.9961 41.0627 13.1317 40.0906 13.4332L39.4575 13.6216L39.6684 15.0533L40.2864 14.8498C40.9346 14.6387 41.7408 14.5031 42.3437 14.5031C42.6151 14.5031 43.444 14.5031 43.444 15.3999V15.7918H42.2911C40.1886 15.7918 39.209 16.4624 39.209 17.9017C39.209 19.13 40.1058 19.8685 41.6204 19.8685C42.0876 19.8685 42.7357 19.7781 43.2933 19.6424L43.3235 19.6348L43.3536 19.6424L43.5344 19.6725C44.1297 19.778 44.7325 19.8836 45.3278 20.0041V15.3018C45.3354 13.7647 44.4161 12.9961 42.6075 12.9961Z" fill="#27292D"/>
<path id="Vector_6" d="M35.5313 13.0115C34.5743 13.0115 33.7831 13.328 33.4892 13.4636L33.4139 13.5014L33.346 13.4486C32.9391 13.1547 32.3438 13.0039 31.5148 13.0039C30.7839 13.0039 30.0982 13.1094 29.3521 13.3279C28.7116 13.5238 28.4629 13.8328 28.4629 14.4131V19.7861H30.4674V14.82L30.5654 14.7899C30.9723 14.6543 31.2135 14.6316 31.4471 14.6316C32.0274 14.6316 32.3212 14.9405 32.3212 15.5435V19.7935H34.2956V15.4605C34.2956 15.2043 34.2428 15.0536 34.2353 15.0235L34.1675 14.8953L34.3031 14.8351C34.6045 14.6995 34.9361 14.6316 35.2826 14.6316C35.682 14.6316 36.1568 14.7899 36.1568 15.5435V19.7935H38.1235V15.3476C38.1235 13.7726 37.2795 13.0115 35.5313 13.0115Z" fill="#27292D"/>
<path id="Vector_7" d="M56.6313 5.51214C56.3375 5.51214 55.8476 5.48201 55.4633 5.40668L55.3503 5.38401V2.48272C55.3503 2.24152 55.3051 2.09086 55.2975 2.06819L55.2372 1.94766L55.3653 1.89486C55.3955 1.8798 55.4256 1.8722 55.4633 1.85713L55.486 1.84207C55.5312 1.827 55.5764 1.81193 55.6216 1.79687C55.6443 1.78927 55.6593 1.7818 55.6744 1.7818C56.1191 1.66127 56.526 1.67633 56.7068 1.66127H56.7144C57.9426 1.66127 58.0858 2.75392 58.0858 3.57537C58.0782 5.17308 57.2869 5.51214 56.6313 5.51214ZM56.6239 -0.00390625C56.6088 -0.00390625 56.5861 -0.00390625 56.5711 -0.00390625C55.4181 -0.00390625 54.235 0.312622 53.813 0.930479C53.5868 1.23194 53.4588 1.60874 53.4512 2.05326V5.04495C53.4512 5.30121 53.3984 5.39908 53.391 5.42174L53.3231 5.54987H49.6834V3.47004H49.6758C49.6306 1.27714 48.3345 0.0714262 46.4581 0.0714262H46.2396H44.627C44.5516 0.606485 44.4914 0.983279 44.416 1.51834H46.2396C47.1967 1.51834 47.7016 2.33219 47.7016 3.5831V5.67801L47.5735 5.61014C47.5508 5.60254 47.3927 5.54987 47.1439 5.54987H43.9939C43.9337 5.9492 43.8583 6.46919 43.7754 6.98919H53.4587C53.7903 6.92132 54.1746 6.86105 54.5062 6.80839C54.996 7.04958 55.9077 7.17758 56.5332 7.17758C58.6357 7.17758 59.9997 5.7684 59.9997 3.59817C59.9922 1.45047 58.6736 0.041293 56.6239 -0.00390625Z" fill="#27292D"/>
<path id="Vector_8" d="M39.646 7.87H39.7364C41.839 7.87 42.8185 7.17668 42.8185 5.46618C42.8185 4.23779 41.9217 3.25821 40.4147 3.25821H38.4781C37.8978 3.25821 37.5511 2.92661 37.5511 2.36902C37.5511 1.99223 37.6943 1.52504 38.6438 1.52504H42.8788C42.9692 0.974912 43.0144 0.62825 43.0973 0.078125H38.6965C36.6468 0.078125 35.6144 0.937179 35.6144 2.36902C35.6144 3.78567 36.5112 4.52419 38.0182 4.52419H39.9548C40.5351 4.52419 40.8818 4.98392 40.8818 5.46618C40.8818 5.7827 40.7386 6.43829 39.7966 6.43829H39.4726L33.2707 6.42323H32.1403C31.1832 6.42323 30.5126 5.8807 30.5126 4.62219V3.75554C30.5126 2.44436 31.0326 1.6305 32.1403 1.6305H33.9789C34.0619 1.07291 34.1145 0.718649 34.19 0.191191H31.8991H31.6806C29.8042 0.191191 28.5081 1.4497 28.4629 3.64247V3.7254V4.62219C28.5081 6.81509 29.8042 7.86254 31.6806 7.86254H31.8991H33.5117L36.8726 7.87014H38.8771L39.646 7.87Z" fill="#27292D"/>
</g>
</g>
</g>
</svg>
