<svg width="49" height="29" viewBox="0 0 49 29" fill="none" xmlns="http://www.w3.org/2000/svg">
<g id="Group 1000009856">
<g id="Group">
<path id="Vector" fill-rule="evenodd" clip-rule="evenodd" d="M24.0945 25.2412C26.6336 27.5808 30.0435 29 33.7525 29C41.7181 29 48.1652 22.5031 48.1652 14.5123C48.1652 6.49721 41.7181 0 33.7525 0C30.0435 0 26.6336 1.41886 24.0945 3.75881C21.182 6.42221 19.3398 10.2557 19.3398 14.5123C19.3401 18.7689 21.182 22.6027 24.0945 25.2412Z" fill="#E9B040"/>
<path id="Vector_2" fill-rule="evenodd" clip-rule="evenodd" d="M46.25 22.5769C46.25 22.3278 46.4492 22.1289 46.698 22.1289C46.9716 22.1289 47.1705 22.3281 47.1705 22.5769C47.1705 22.8511 46.9713 23.05 46.698 23.05C46.4492 23.05 46.25 22.8511 46.25 22.5769ZM46.698 22.9507C46.8972 22.9507 47.0709 22.7761 47.0709 22.5772C47.0709 22.3782 46.8969 22.2288 46.698 22.2288C46.5233 22.2288 46.3496 22.3782 46.3496 22.5772C46.3496 22.7761 46.5236 22.9507 46.698 22.9507ZM46.6481 22.8013H46.5485V22.3779H46.7226C46.7478 22.3779 46.7976 22.3779 46.8222 22.4031C46.872 22.4277 46.872 22.4529 46.872 22.5027C46.872 22.5525 46.8474 22.6023 46.7976 22.6023L46.8972 22.8016H46.7724L46.7226 22.627H46.6481V22.8013V22.5522H46.7478C46.7724 22.5522 46.7724 22.5271 46.7724 22.5024C46.7724 22.4772 46.7724 22.4772 46.7478 22.4526H46.6481V22.8013Z" fill="#E9B040"/>
<path id="Vector_3" fill-rule="evenodd" clip-rule="evenodd" d="M28.7507 12.9692C28.7009 12.4466 28.6013 11.9488 28.5017 11.4259H19.6897C19.7893 10.9032 19.9387 10.4054 20.0878 9.90739H28.0786C27.9051 9.38336 27.7058 8.86827 27.4812 8.36402H20.7104C20.9594 7.83675 21.2336 7.32171 21.5319 6.82065H26.6351C26.3068 6.28902 25.9408 5.78157 25.54 5.30218H22.6273C23.0778 4.75197 23.5688 4.23608 24.096 3.75881C21.5322 1.44376 18.1466 0 14.4127 0C6.47202 0 0 6.49721 0 14.5123C0 22.5031 6.47202 29 14.4127 29C18.1466 29 21.5319 27.5808 24.096 25.2412C24.6151 24.7723 25.0979 24.2645 25.54 23.7224H22.6273C22.2289 23.2247 21.8805 22.7269 21.5319 22.1791H26.6351C26.956 21.6868 27.239 21.1709 27.4815 20.6357H20.7104C20.4863 20.1379 20.2624 19.6402 20.0878 19.1169H28.0786C28.2526 18.6192 28.3774 18.0968 28.5014 17.5736C28.601 17.0758 28.7006 16.5534 28.7504 16.0302C28.8008 15.5255 28.8259 15.0186 28.8254 14.5114C28.8254 13.9896 28.8005 13.467 28.7507 12.9692Z" fill="#CC2131"/>
<path id="Vector_4" fill-rule="evenodd" clip-rule="evenodd" d="M46.25 17.8749C46.25 17.6013 46.4492 17.4023 46.698 17.4023C46.9716 17.4023 47.1705 17.6016 47.1705 17.8749C47.1705 18.1239 46.9713 18.3481 46.698 18.3481C46.4492 18.3481 46.25 18.1236 46.25 17.8749ZM46.698 18.2232C46.8972 18.2232 47.0709 18.0738 47.0709 17.8749C47.0709 17.676 46.8969 17.5266 46.698 17.5266C46.5233 17.5266 46.3496 17.676 46.3496 17.8749C46.3496 18.0738 46.5236 18.2232 46.698 18.2232ZM46.6481 18.0738H46.5485V17.6757H46.8222C46.872 17.7009 46.872 17.7507 46.872 17.8005C46.872 17.8251 46.8474 17.8749 46.7976 17.9001L46.8972 18.0741H46.7724L46.7226 17.9247H46.6481V18.0738V17.85H46.698C46.7226 17.85 46.7478 17.85 46.7478 17.8248C46.7724 17.8248 46.7724 17.8002 46.7724 17.775C46.7724 17.775 46.7724 17.7504 46.7478 17.7504C46.7478 17.7252 46.7226 17.7504 46.698 17.7504H46.6481V18.0738Z" fill="white"/>
<path id="Vector_5" fill-rule="evenodd" clip-rule="evenodd" d="M19.191 18.6932C18.7182 18.8174 18.3695 18.8924 18.0212 18.8924C17.2744 18.8924 16.8262 18.4193 16.8262 17.5729C16.8262 17.3989 16.8511 17.2246 16.876 17.0253L16.9756 16.4532L17.0503 15.98L17.7224 11.8978H19.2159L19.0416 12.794H19.9876L19.7635 14.2875H18.8175L18.4194 16.7268C18.3944 16.8516 18.3945 16.926 18.3945 16.9758C18.3945 17.2996 18.5439 17.4238 18.9171 17.4238C19.0914 17.4238 19.2406 17.3992 19.39 17.374L19.191 18.6932ZM24.0204 18.6434C23.4728 18.7928 22.975 18.8672 22.4272 18.8672C20.7344 18.8672 19.7635 17.971 19.7635 16.2041C19.7635 14.1378 20.9087 12.6442 22.5016 12.6442C23.771 12.6442 24.5925 13.4906 24.5925 14.8096C24.5925 15.2581 24.5427 15.6812 24.4185 16.2785H21.3069C21.282 16.3782 21.282 16.428 21.282 16.4778C21.282 17.1747 21.7548 17.5231 22.651 17.5231C23.2235 17.5231 23.7212 17.3989 24.2691 17.1501L24.0204 18.6434ZM23.0993 15.0838V14.785C23.0993 14.2872 22.8253 14.0133 22.3525 14.0133C21.8544 14.0133 21.5061 14.3865 21.3567 15.0835L23.0993 15.0838ZM7.24252 18.7676H5.69915L6.59535 13.1174L4.57913 18.7676H3.5089L3.38439 13.1423L2.43839 18.7676H0.919922L2.13956 11.4246H4.40481L4.45461 15.9554L5.97308 11.4246H8.46245L7.24252 18.7676ZM11.0016 16.1045C10.8522 16.0793 10.8024 16.0793 10.7028 16.0793C9.8066 16.0793 9.35865 16.4277 9.35865 16.9755C9.35865 17.3491 9.58277 17.5981 9.93111 17.5981C10.6779 17.5981 10.9764 16.9755 11.0016 16.1045ZM12.2462 18.7676H10.902L10.9269 18.1456C10.5783 18.6182 10.1054 18.8672 9.28394 18.8672C8.53716 18.8672 7.88999 18.1955 7.88999 17.2246C7.88999 16.9509 7.93979 16.7022 8.0145 16.4532C8.26323 15.5318 9.18433 14.9596 10.6032 14.9344C10.7775 14.9344 11.0511 14.9344 11.3002 14.9596C11.3497 14.7604 11.3497 14.6854 11.3497 14.5612C11.3497 14.1627 11.0262 14.0382 10.3044 14.0382C9.85641 14.0382 9.35836 14.1129 9.01001 14.2374L8.78589 14.2872L8.68628 14.3118L8.9104 12.9677C9.63228 12.7436 10.1549 12.6442 10.7277 12.6442C12.0718 12.6442 12.7937 13.2665 12.7937 14.4114C12.7937 14.7103 12.8186 14.9344 12.719 15.5816L12.3707 17.7223L12.3209 18.0958L12.296 18.3947L12.2711 18.5939L12.2462 18.7676ZM31.538 12.8435C31.9859 12.8435 32.3844 12.968 32.9319 13.2416L33.2056 11.6484C33.0562 11.5737 33.0064 11.5737 32.8074 11.499L32.1855 11.3247C31.9862 11.2749 31.7375 11.25 31.4633 11.25C30.6913 11.25 30.2434 11.2749 29.7708 11.5488C29.5218 11.7231 29.198 11.9473 28.8494 12.3454L28.6502 12.2956L27.057 13.4156L27.132 12.7934H25.4887L24.5184 18.7673H26.087L26.6592 15.5567C26.6592 15.5567 26.8836 15.1081 26.9829 14.9593C27.2817 14.5858 27.5304 14.5858 27.8539 14.5858H27.9787C27.9264 14.9651 27.9014 15.3478 27.9037 15.7307C27.9037 17.6722 28.9988 18.8921 30.6916 18.8921C31.1149 18.8921 31.4888 18.8423 32.0609 18.6929L32.3352 17.0004C31.8374 17.2741 31.3892 17.3986 31.0156 17.3986C30.0948 17.3986 29.5467 16.7016 29.5467 15.6065C29.5461 13.9884 30.3679 12.8435 31.538 12.8435ZM44.7554 11.4246L44.4073 13.5155C44.0338 12.9431 43.5855 12.6692 42.9882 12.6692C42.1664 12.6692 41.395 13.142 40.9218 14.0382V14.0136L39.9263 13.4159L40.0259 12.7937H38.3581L37.4121 18.7676H38.9554L39.4784 15.557C39.4784 15.557 39.8765 15.1084 39.9761 14.9596C40.2252 14.6608 40.4739 14.6107 40.6731 14.5861C40.4991 15.0838 40.3995 15.6812 40.3995 16.3535C40.3995 17.8471 41.1709 18.8426 42.3158 18.8426C42.8886 18.8426 43.3365 18.6434 43.7596 18.1703L43.6851 18.7676H45.1541L46.3488 11.4246H44.7554ZM42.839 17.3491C42.3161 17.3491 42.0425 16.9509 42.0425 16.1789C42.0425 15.0088 42.5402 14.1627 43.2618 14.1627C43.8094 14.1627 44.0836 14.5861 44.0836 15.3328C44.0836 16.5276 43.5858 17.3491 42.839 17.3491ZM35.6454 16.1045C35.496 16.0793 35.4462 16.0793 35.3466 16.0793C34.4498 16.0793 34.0019 16.4277 34.0019 16.9755C34.0019 17.3491 34.2263 17.5981 34.5746 17.5981C35.3214 17.5981 35.6202 16.9755 35.6454 16.1045ZM36.89 18.7676H35.5206L35.5704 18.1456C35.2221 18.6182 34.7487 18.8672 33.9278 18.8672C33.1558 18.8672 32.484 18.2201 32.484 17.2246C32.484 15.806 33.5539 14.9347 35.2467 14.9347C35.4213 14.9347 35.6947 14.9347 35.9191 14.9599C35.9689 14.7607 35.9941 14.6857 35.9941 14.5614C35.9941 14.163 35.6703 14.0385 34.9236 14.0385C34.5002 14.0385 33.9776 14.1132 33.6292 14.2377L33.43 14.2875L33.3304 14.3121L33.5542 12.968C34.2764 12.7439 34.7993 12.6445 35.3715 12.6445C36.7157 12.6445 37.4126 13.2668 37.4126 14.4117C37.4126 14.7106 37.4624 14.9347 37.3382 15.5819L37.0145 17.7226L36.9647 18.0961L36.9149 18.395L36.8903 18.5942V18.7676H36.89ZM15.5069 14.0631C15.8058 14.0631 16.2288 14.088 16.6771 14.1627L16.9012 12.7688C16.4529 12.719 15.8556 12.6442 15.5069 12.6442C13.7646 12.6442 13.1922 13.5902 13.1922 14.6854C13.1922 15.4075 13.5156 15.9299 14.362 16.3281C14.9843 16.6269 15.0839 16.6764 15.0839 16.9506C15.0839 17.3236 14.7604 17.548 14.1628 17.548C13.6899 17.548 13.2417 17.473 12.7439 17.299L12.5696 18.6677L12.5942 18.6929L12.893 18.7427C12.9927 18.7673 13.1172 18.7925 13.2915 18.8171C13.6647 18.8423 13.9885 18.8669 14.1877 18.8669C15.9303 18.8669 16.6522 18.1952 16.6522 16.8756C16.6522 16.0544 16.2537 15.5567 15.482 15.2083C14.81 14.9092 14.7352 14.86 14.7352 14.5858C14.7352 14.3121 15.0341 14.0631 15.5069 14.0631Z" fill="#1B3771"/>
<path id="Vector_6" fill-rule="evenodd" clip-rule="evenodd" d="M33.6304 11.1779L33.3562 12.7711C32.8086 12.4972 32.4102 12.373 31.9622 12.373C30.7921 12.373 29.9709 13.5179 29.9709 15.136C29.9709 16.2563 30.5185 16.9281 31.4398 16.9281C31.8128 16.9281 32.261 16.8038 32.7588 16.5551L32.4852 18.2224C31.9124 18.3718 31.5392 18.4468 31.1158 18.4468C29.4233 18.4468 28.3777 17.2269 28.3777 15.2608C28.3777 12.6469 29.8215 10.8047 31.8875 10.8047C32.1611 10.8047 32.4099 10.8296 32.6091 10.8794L33.2317 11.0288C33.4312 11.1035 33.481 11.1284 33.6304 11.1779ZM28.6018 12.2733H28.4524C27.9301 12.2733 27.6312 12.5224 27.1581 13.244L27.3075 12.3229H25.8883L24.918 18.2971H26.4866C27.0588 14.6379 27.2082 14.0156 27.955 14.0156H28.0546C28.204 13.2938 28.4029 12.7708 28.6519 12.298L28.6018 12.2733ZM19.5909 18.2224C19.1679 18.3718 18.8193 18.4216 18.4709 18.4216C17.6743 18.4216 17.2261 17.9737 17.2261 17.1027C17.2261 16.9533 17.251 16.7543 17.2759 16.5797L17.3755 15.9824L17.4502 15.5098L18.1223 11.427H19.6656L19.4913 12.3232H20.2879L20.0887 13.7918H19.2921L18.8691 16.2812C18.8442 16.3808 18.8442 16.4558 18.8442 16.5302C18.8442 16.829 18.9936 16.9536 19.3668 16.9536C19.5411 16.9536 19.6903 16.9536 19.7899 16.9038L19.5909 18.2224ZM13.5918 14.2149C13.5918 14.9619 13.9401 15.4843 14.7616 15.8827C15.4088 16.1816 15.5084 16.2809 15.5084 16.5299C15.5084 16.9035 15.2345 17.0775 14.6122 17.0775C14.1393 17.0775 13.716 17.0031 13.2182 16.8537L12.9941 18.2224L13.0688 18.2476L13.3428 18.2974C13.4421 18.322 13.5669 18.3472 13.7658 18.3472C14.1141 18.397 14.413 18.397 14.6122 18.397C16.2549 18.397 17.0269 17.7745 17.0269 16.4057C17.0269 15.5839 16.7034 15.1108 15.9317 14.7378C15.2597 14.439 15.185 14.3646 15.185 14.0906C15.185 13.7672 15.4589 13.6178 15.9566 13.6178C16.2555 13.6178 16.6785 13.6427 17.077 13.6925L17.3008 12.3234C16.9026 12.2487 16.2804 12.1989 15.9317 12.1989C14.1891 12.1986 13.5669 13.1197 13.5918 14.2149ZM45.554 18.2974H44.085L44.1601 17.7247C43.7367 18.1726 43.2885 18.3718 42.7157 18.3718C41.5708 18.3718 40.824 17.4015 40.824 15.9079C40.824 13.9163 41.9941 12.2235 43.3629 12.2235C43.9854 12.2235 44.4334 12.4975 44.857 13.045L45.2054 10.9541H46.7487L45.554 18.2974ZM43.2636 16.9035C43.9857 16.9035 44.4835 16.0571 44.4835 14.8869C44.4835 14.1153 44.2093 13.7168 43.6617 13.7168C42.9647 13.7168 42.4424 14.5383 42.4424 15.7084C42.4424 16.5053 42.716 16.9035 43.2636 16.9035ZM24.3702 18.1726C23.8223 18.3472 23.3246 18.4216 22.7521 18.4216C21.0095 18.4216 20.1133 17.5008 20.1133 15.7333C20.1133 13.6922 21.2585 12.1737 22.8268 12.1737C24.1211 12.1737 24.9423 13.0201 24.9423 14.3394C24.9423 14.7876 24.8925 15.211 24.7431 15.8329H21.657C21.6321 15.9079 21.6321 15.9577 21.6321 16.0076C21.6321 16.7045 22.1052 17.0529 23.0011 17.0529C23.5736 17.0529 24.0713 16.9533 24.6192 16.6793L24.3702 18.1726ZM23.4989 14.613V14.3145C23.4989 13.8167 23.2249 13.5428 22.7521 13.5428C22.2543 13.5428 21.9057 13.9163 21.7563 14.613H23.4989ZM7.64242 18.2974H6.09906L6.99525 12.6466L4.97903 18.2974H3.90851L3.784 12.6964L2.83829 18.2974H1.39453L2.61417 10.9541H4.85452L4.92922 15.5095L6.42249 10.9541H8.86206L7.64242 18.2974ZM11.5008 15.6337C11.3514 15.6337 11.2767 15.6091 11.1522 15.6091C10.2809 15.6091 9.83297 15.9326 9.83297 16.5299C9.83297 16.9035 10.0322 17.1273 10.3805 17.1273C11.0277 17.1273 11.4759 16.5299 11.5008 15.6337ZM12.6458 18.2974H11.3511L11.376 17.6748C10.9776 18.1726 10.4549 18.397 9.73306 18.397C8.88667 18.397 8.31421 17.7499 8.31421 16.7789C8.31421 15.3106 9.30972 14.4642 11.0523 14.4642C11.2266 14.4642 11.4508 14.4891 11.6995 14.5137C11.7493 14.3148 11.7493 14.2401 11.7493 14.1405C11.7493 13.7423 11.4754 13.5929 10.7535 13.5929C10.3055 13.5929 9.80748 13.6427 9.45914 13.7423L9.23501 13.817L9.0856 13.8419L9.30972 12.4978C10.0814 12.2736 10.6041 12.1989 11.1768 12.1989C12.521 12.1989 13.2429 12.7963 13.2429 13.9412C13.2429 14.2401 13.2179 14.4642 13.1183 15.1363L12.7697 17.2524L12.7199 17.6253L12.695 17.9242L12.6701 18.1486L12.6458 18.2974ZM36.1447 15.6337C35.9701 15.6337 35.8956 15.6091 35.7963 15.6091C34.9001 15.6091 34.4516 15.9326 34.4516 16.5299C34.4516 16.9035 34.676 17.1273 35.0243 17.1273C35.6469 17.1273 36.1195 16.5299 36.1447 15.6337ZM37.2896 18.2974H35.9953L36.0199 17.6748C35.6217 18.1726 35.099 18.397 34.3772 18.397C33.5308 18.397 32.958 17.7499 32.958 16.7789C32.958 15.3106 33.9535 14.4642 35.6961 14.4642C35.8707 14.4642 36.0949 14.4891 36.3187 14.5137C36.3685 14.3148 36.3937 14.2401 36.3937 14.1405C36.3937 13.7423 36.1195 13.5929 35.3982 13.5929C34.9496 13.5929 34.4273 13.6427 34.0786 13.7423L33.8794 13.817L33.73 13.8419L33.9538 12.4978C34.7258 12.2736 35.2482 12.1989 35.8209 12.1989C37.1651 12.1989 37.8621 12.7963 37.8621 13.9412C37.8621 14.2401 37.8621 14.4642 37.7378 15.1363L37.4141 17.2524L37.3643 17.6253L37.3145 17.9242L37.2899 18.1486L37.2896 18.2974ZM41.4715 12.2733H41.322C40.7997 12.2733 40.5008 12.5224 40.0277 13.244L40.1771 12.3229H38.758L37.812 18.2971H39.3553C39.9281 14.6379 40.0775 14.0156 40.8243 14.0156H40.9239C41.0733 13.2938 41.2722 12.7708 41.5213 12.298L41.4715 12.2733Z" fill="white"/>
</g>
</g>
</svg>
