<svg width="1421" height="200" viewBox="0 0 1421 200" fill="none" xmlns="http://www.w3.org/2000/svg">
<g clip-path="url(#clip0_53_817)">
<path opacity="0.17" d="M1421 0H-19V200H1421V0Z" fill="url(#paint0_linear_53_817)"/>
<mask id="mask0_53_817" style="mask-type:luminance" maskUnits="userSpaceOnUse" x="452" y="48" width="66" height="57">
<path d="M517.549 65.3621L464.096 48.882L452.08 88.5192L505.532 104.999L517.549 65.3621Z" fill="white"/>
</mask>
<g mask="url(#mask0_53_817)">
<g opacity="0.2">
<path d="M466.017 73.928C464.17 74.2949 462.425 74.7282 460.643 74.9904C459.92 75.0832 459.234 75.3469 458.566 75.4451C458.12 75.5108 457.8 75.9787 457.582 76.513C457.201 77.5868 456.56 78.5225 456.026 79.4696C455.896 79.6788 455.982 79.9104 455.852 80.1195C455.227 80.8901 455.183 81.8872 454.823 82.7408C454.459 83.6494 454.04 84.5524 453.838 85.4777C453.658 86.1828 453.321 86.816 453.196 87.5266C453.087 88.0718 453.228 88.3088 453.788 88.1994C454.625 88.0626 455.56 88.0472 456.31 87.6788C456.886 87.4041 457.51 87.1901 458.131 87.0309C458.978 86.784 459.826 86.537 460.619 86.2847C461.527 85.9881 462.483 85.7525 463.397 85.4008C464.022 85.1868 464.701 84.9783 465.37 84.8798C465.815 84.8144 466.174 84.5171 466.619 84.4517C467.18 84.342 467.473 84.706 467.777 84.9599C467.874 85.0813 468.021 85.2632 468.125 85.3293C468.705 85.556 469.037 86.0905 469.493 86.471C469.797 86.7254 470.156 86.9849 470.46 87.2384C471.123 87.7514 471.829 88.3803 472.491 88.8933C472.948 89.2739 473.344 89.7048 473.92 89.9858C474.447 90.2075 474.892 90.6978 475.234 91.1227C475.728 91.6745 476.37 91.851 476.968 91.3564C477.44 91.015 477.865 90.6138 478.332 90.3276C478.974 89.948 479.561 89.5633 480.202 89.1837C480.789 88.799 481.387 88.3035 481.969 87.9733C482.55 87.644 483.088 87.1979 483.616 86.8624C484.084 86.577 484.453 86.1697 484.964 85.9996C485.763 85.6918 486.269 85.02 486.965 84.6464C487.487 84.3663 487.911 83.9643 488.329 83.6176C488.807 83.2217 489.341 82.8307 489.867 82.4954C490.335 82.2101 490.705 81.8028 491.172 81.5166C491.819 81.0826 492.461 80.703 493.059 80.2075C493.837 79.5638 494.7 79.1518 495.423 78.5025C495.908 78.0512 496.587 77.8427 497.07 77.3915C497.739 76.7368 498.55 76.319 499.273 75.6697C500.115 74.9214 501.001 74.2889 501.893 73.6013C502.073 73.4526 502.203 73.2435 502.383 73.0949C503.274 72.4074 504.35 72.0725 505.328 71.6164C506.649 71.0285 507.97 70.4405 509.286 69.9076C509.916 69.6385 510.601 69.3747 511.225 69.1608C511.682 68.985 512.204 68.7046 512.661 68.5287C513.514 68.2268 514.226 67.6877 515.079 67.3858C515.536 67.21 515.895 66.9128 516.253 66.6159C516.792 66.1702 516.673 65.7127 516.054 65.3152C515.586 65.0447 515.043 64.9892 514.565 64.8288C513.712 64.5742 512.837 64.5402 512.044 64.2362C511.408 64.0041 510.685 64.0969 510.066 63.6995C509.599 63.429 508.882 63.4667 508.295 63.2951C507.496 63.0463 506.675 63.0179 505.925 62.8297C504.317 62.4421 502.617 62.4345 501.014 61.992C500.802 61.9144 500.574 62.0023 500.362 61.9249C499.39 61.7695 498.428 61.504 497.504 61.4093C496.2 61.2754 494.885 61.2518 493.591 61.008C493.266 60.9744 492.972 61.167 492.603 61.0177C492.288 60.8741 491.842 60.9399 491.516 60.9062C490.37 60.8443 489.293 60.6226 488.147 60.5608C487.55 60.4993 486.887 60.5427 486.256 60.2555C485.881 60.1614 485.343 60.0506 484.941 60.2319C484.713 60.3197 484.572 60.0826 484.3 60.0548C483.594 59.9823 482.822 60.0144 482.127 59.8319C481.002 59.5495 479.937 59.7742 478.856 59.6076C478.53 59.5741 478.193 59.6508 477.817 59.5569C476.416 59.3017 474.927 59.3716 473.514 59.2267C472.862 59.1598 472.15 59.1424 471.498 59.0755C471.335 59.0587 471.112 59.0917 471.009 59.0253C470.498 58.639 470.189 58.9968 469.884 59.2996C469.09 60.1086 468.351 60.9229 467.513 61.6161C466.736 62.2599 466.067 62.9148 465.393 63.6246C464.969 64.0263 464.409 64.1358 464.137 64.6644C463.871 65.1378 463.256 65.242 462.887 65.649C462.582 65.9518 462.169 66.2433 461.968 66.6121C461.772 66.926 461.445 66.8926 461.206 67.0906C460.962 67.3436 460.771 67.6025 460.527 67.8557C460.097 68.3123 459.576 68.5927 459.249 69.1157C458.988 69.5342 458.972 69.6993 459.379 70.0194C460.145 70.5989 461.042 70.9689 461.818 71.4381C462.905 72.1061 464.067 72.5593 465.088 73.3318C465.398 73.5305 465.713 73.6741 466.017 73.928ZM515.357 66.2456C514.036 66.8336 512.77 67.4271 511.564 67.971C510.699 68.3832 509.7 68.5032 508.867 69.1414C508.808 69.1908 508.699 69.1798 508.59 69.1685C507.906 69.4322 507.226 69.6407 506.536 69.9594C506.248 70.0969 505.959 70.2343 505.666 70.4268C505.252 70.7183 504.72 70.5524 504.313 70.7887C503.785 71.1243 503.204 71.454 502.633 71.6738C500.628 72.5254 498.573 73.3164 496.518 74.1072C496.176 74.2391 495.735 74.2496 495.502 74.3925C494.855 74.8269 494.138 74.8646 493.502 75.189C492.409 75.6891 491.132 75.8364 490.034 76.3915C489.86 76.485 489.687 76.5784 489.523 76.5618C489.089 76.5171 488.687 76.6983 488.338 76.8855C487.474 77.2976 486.545 77.2579 485.73 77.7307C485.034 78.1046 484.225 77.9657 483.479 78.279C482.789 78.5977 482.072 78.6354 481.388 78.899C480.817 79.1188 480.202 79.2228 479.638 79.3872C478.73 79.6837 477.822 79.9802 476.92 80.2215C476.637 80.3039 476.311 80.2704 476.078 80.4133C474.925 80.963 473.697 81.1709 472.501 81.6047C471.479 81.9451 470.408 82.2248 469.338 82.5045C468.604 82.7075 467.865 82.9657 467.131 83.1686C466.055 83.5034 464.968 83.9484 463.892 84.283C462.93 84.5739 461.962 84.9199 460.995 85.2658C460.027 85.6119 458.967 85.7814 458 86.1273C456.924 86.4621 455.799 86.7361 454.723 87.0711C454.609 87.115 454.435 87.2085 454.337 87.0871C454.239 86.9659 454.31 86.8061 454.381 86.6464C454.533 86.217 454.849 85.8041 454.887 85.4183C454.942 84.8675 455.263 84.3996 455.366 83.9093C455.469 83.4192 455.791 82.9512 455.943 82.5217C456.155 82.0426 456.416 81.6244 456.58 81.0844C456.754 80.4346 457.2 79.8126 457.428 79.1682C457.674 78.3585 458.125 77.6815 458.419 76.9326C458.566 76.5581 458.81 76.3051 459.202 76.2337C459.767 76.0692 460.37 76.0754 460.898 75.7398C461.185 75.6026 461.615 75.7022 461.902 75.5649C462.767 75.1526 463.652 75.0766 464.55 74.8903C465.392 74.6986 466.223 74.6169 467.06 74.4801C467.897 74.3433 468.75 74.0414 469.631 74.0204C470.516 73.9443 471.321 73.5816 472.212 73.4505C473.549 73.2538 474.859 72.7758 476.153 72.4635C476.995 72.2716 477.892 72.0853 478.783 71.9541C479.114 71.9325 479.31 71.6187 479.636 71.6522C480.342 71.7246 480.984 71.3452 481.745 71.4232C482.125 71.4623 482.593 71.1763 482.984 71.1052C483.543 70.9957 484.098 70.9412 484.658 70.8316C485.718 70.662 486.783 70.4375 487.842 70.268C488.57 70.1201 489.304 69.9172 490.027 69.8243C490.582 69.7698 491.087 69.6548 491.646 69.5453C492.207 69.4357 492.777 69.2161 493.391 69.1121C494.288 68.9259 495.125 68.789 496.016 68.6578C496.744 68.5101 497.521 68.4228 498.196 68.2692C498.869 68.1158 499.576 68.1882 500.206 67.9191C500.723 67.6937 501.32 67.7551 501.88 67.6454C502.38 67.5855 502.837 67.4098 503.385 67.4104C503.988 67.4167 504.614 67.2025 505.228 67.0985C506.347 66.8795 507.51 66.7762 508.624 66.6122C509.853 66.4044 511.162 66.483 512.384 66.3303C513.319 66.3149 514.308 66.3049 515.357 66.2456ZM460.325 69.3372C460.689 68.9852 460.945 68.6218 461.298 68.3798C462.19 67.6922 462.984 66.8831 463.827 66.135C464.43 65.5848 465.088 65.0401 465.691 64.49C466.235 63.9893 466.675 63.4223 467.159 62.9711C468.128 62.0687 469.041 61.1606 470.008 60.2584C470.552 59.7576 470.987 59.8022 471.585 59.8635C472.182 59.9249 472.786 59.931 473.378 60.0473C474.03 60.1142 474.687 60.1261 475.344 60.138C475.948 60.144 476.535 60.3156 477.138 60.3219C477.741 60.328 478.399 60.3399 478.997 60.4011C480.844 60.5906 482.696 60.7251 484.539 60.9696C485.511 61.1251 486.549 61.176 487.527 61.2762C488.451 61.3709 489.32 61.4602 490.244 61.5548C491.548 61.6887 492.776 62.0372 494.097 62.0057C494.591 62.0007 495.058 62.2714 495.612 62.217C495.944 62.1951 496.264 62.2837 496.585 62.3723C497.123 62.4831 497.677 62.4286 498.166 62.4789C498.872 62.5513 499.568 62.7339 500.22 62.8007C501.253 62.9066 502.274 63.1228 503.246 63.2783C503.899 63.3451 504.485 63.5167 505.077 63.633C505.567 63.6831 506.056 63.7333 506.534 63.8937C507.175 64.0707 507.822 64.1926 508.468 64.3146C509.006 64.4254 509.598 64.5419 510.142 64.5975C511.115 64.7529 512.021 65.0131 513 65.1134C513.434 65.158 513.81 65.252 514.238 65.3518C513.228 65.5819 512.222 65.757 511.227 65.822C510.168 65.9914 509.184 65.9463 508.19 66.0112C507.804 66.0272 507.418 66.0434 507.027 66.1145C505.75 66.2617 504.467 66.4641 503.153 66.4404C501.391 66.4825 499.62 66.6346 497.908 66.7373C496.582 66.8239 495.267 66.8003 493.985 67.0027C492.985 67.1226 491.996 67.1325 491.05 67.258C489.442 67.427 487.844 67.4857 486.241 67.5995C484.633 67.7683 483.089 67.8326 481.486 67.9464C480.432 68.061 479.383 68.1202 478.334 68.1796C477.617 68.2172 476.938 68.4259 476.285 68.359C475.307 68.2588 474.297 68.4889 473.356 68.5595C471.916 68.6901 470.477 68.8204 469.031 69.006C467.248 69.2685 465.39 69.1891 463.564 69.3357C463.009 69.3902 462.428 69.1635 461.863 69.3281C461.298 69.4928 460.858 69.5033 460.325 69.3372ZM500.523 73.5721C499.953 74.3481 499.191 74.8268 498.534 75.3713C497.816 75.9654 496.989 76.5485 496.224 77.0818C495.397 77.6651 494.674 78.3143 493.804 78.7815C493.108 79.1554 492.451 79.6999 491.798 80.1895C491.14 80.7343 490.336 81.097 489.678 81.6416C489.319 81.9383 488.911 82.1752 488.498 82.4666C487.797 82.8953 487.101 83.2697 486.552 83.8248C486.188 84.1775 485.726 84.4083 485.318 84.6443C484.557 85.1226 483.991 85.8437 483.089 86.0857C483.089 86.0857 483.084 86.1401 483.024 86.1902C482.486 86.6355 481.844 87.0152 481.312 87.4059C480.779 87.7958 480.148 88.0656 479.665 88.516C479.116 89.0719 478.376 89.3304 477.773 89.8803C477.408 90.2332 476.789 90.3922 476.424 90.7441C476.06 91.0959 475.919 90.8589 475.718 90.6713C475.115 90.1089 474.523 89.436 473.915 88.9282C473.149 88.3487 472.568 87.5657 471.737 87.0907C470.651 86.4228 469.82 85.3919 468.744 84.6138C468.538 84.4815 468.223 84.3377 468.153 83.941C468.473 84.0296 468.701 83.9417 468.978 83.9145C469.483 83.7995 470 83.5741 470.555 83.5196C471.054 83.4597 471.609 83.4052 472.125 83.18C472.707 82.8502 473.38 82.6967 474.011 82.4274C474.527 82.2022 475.136 82.1532 475.701 81.9886C475.984 81.9063 476.229 81.6532 476.506 81.626C477.566 81.4564 478.528 81.1656 479.55 80.8251C480.457 80.5287 481.37 80.1772 482.273 79.9358C483.006 79.7328 483.751 79.4198 484.49 79.1616C485.397 78.8653 486.257 78.5081 487.164 78.2117C488.072 77.9152 489.017 77.7897 489.93 77.4383C490.669 77.1801 491.457 76.9827 492.202 76.6696C492.659 76.4938 493.11 76.3732 493.512 76.1917C493.8 76.0545 494.039 75.8564 494.377 75.7794C494.887 75.6095 495.398 75.4392 495.909 75.269C496.306 75.1427 496.708 74.9615 497.105 74.8352C497.67 74.6706 498.192 74.3903 498.757 74.2256C499.322 74.0611 499.898 73.7863 500.523 73.5721ZM461.564 70.1322C461.569 70.0772 461.574 70.0221 461.58 69.9669C462.183 69.9732 462.808 69.759 463.346 69.8697C463.884 69.9808 464.395 69.8106 464.889 69.8057C465.824 69.7902 466.715 69.659 467.655 69.5886C468.596 69.5179 469.628 69.6237 470.574 69.4981C471.405 69.4165 472.297 69.2854 473.128 69.2037C474.29 69.1005 475.502 69.0578 476.665 68.9545C477.443 68.8673 478.22 68.78 478.991 68.748C480.04 68.6885 481.148 68.5798 482.197 68.5203C483.301 68.4665 484.464 68.3631 485.578 68.1992C486.578 68.0792 487.572 68.0143 488.512 67.9437C488.898 67.9278 489.192 67.7351 489.577 67.7192C490.452 67.7533 491.333 67.7322 492.278 67.6067C493.284 67.4315 494.316 67.5373 495.365 67.4781C495.919 67.4236 496.462 67.4795 497.027 67.3148C497.196 67.2765 497.419 67.2436 497.451 67.4696C497.484 67.6955 497.212 67.6676 497.104 67.6565C496.43 67.8099 495.761 67.9083 495.038 68.0012C494.033 68.1761 492.968 68.4008 491.962 68.576C491.012 68.7566 490.055 68.9924 489.061 69.0573C488.729 69.079 488.419 69.4368 488.066 69.1223C487.473 69.5623 486.702 69.5945 486.033 69.6929C485.31 69.7857 484.572 70.0437 483.799 70.0759C482.805 70.1407 481.843 70.4317 480.892 70.6124C479.773 70.8313 478.653 71.0505 477.528 71.3245C476.74 71.5221 475.898 71.7139 475.115 71.8561C474.892 71.8889 474.572 71.8004 474.397 71.8939C473.653 72.2071 472.876 72.2943 472.148 72.4421C471.082 72.6667 470.018 72.8914 468.946 73.1713C468.382 73.3356 467.871 73.5058 467.322 73.5052C466.392 73.4656 465.702 72.6715 464.981 72.2077C464.361 71.8104 463.758 71.2477 463.085 70.8447C462.552 70.6787 462.085 70.4082 461.564 70.1322Z" fill="#4C005B"/>
<path d="M461.638 82.6605C462.111 82.3195 462.72 82.2707 463.236 82.0455C463.981 81.7322 464.774 81.4799 465.562 81.2824C466.296 81.0794 466.991 80.7057 467.725 80.5027C468.454 80.3547 469.15 79.9809 469.872 79.8882C470.318 79.8225 470.73 79.5311 471.182 79.4103C472.084 79.1689 472.997 78.8174 473.851 78.5154C474.704 78.2135 475.562 77.8564 476.465 77.6151C476.916 77.4943 477.335 77.1477 477.873 77.2585C477.981 77.2697 478.226 77.0165 478.4 76.9232C478.802 76.7418 479.253 76.6211 479.644 76.55C480.205 76.4404 480.629 76.0386 481.237 75.9898C481.845 75.9411 482.466 75.7819 482.982 75.5567C483.732 75.1884 484.661 75.2281 485.368 74.7441C485.661 74.5517 485.933 74.5795 486.216 74.4971C486.841 74.283 487.45 74.2341 488.074 74.0201C488.639 73.8556 489.21 73.6358 489.83 73.4767C490.726 73.2905 491.58 72.9884 492.477 72.8021C493.205 72.6543 493.938 72.4513 494.612 72.2978C496.183 71.9581 497.754 71.6184 499.33 71.2236C500.178 70.9767 501.117 70.9062 501.971 70.6041C502.651 70.3956 503.33 70.187 503.954 69.973C504.069 69.929 504.183 69.8851 504.091 69.7086C504.047 69.5929 503.933 69.6368 503.873 69.6864C503.411 69.9171 502.911 69.9772 502.466 70.0428C501.346 70.2619 500.265 70.6518 499.053 70.6943C498.39 70.7376 497.759 71.0069 497.085 71.1603C496.466 71.3194 495.803 71.3627 495.178 71.5768C494.384 71.8293 493.548 71.9659 492.705 72.158C491.803 72.3992 490.89 72.7507 489.944 72.8763C489.498 72.9421 489.042 73.1176 488.537 73.2327C488.031 73.3479 487.531 73.4079 487.069 73.6388C486.438 73.908 485.765 74.0613 485.145 74.2204C484.189 74.4562 483.221 74.8022 482.259 75.0931C481.183 75.4279 480.156 75.8233 479.031 76.0974C478.243 76.2948 477.552 76.6137 476.813 76.8716C475.96 77.1737 475.074 77.2497 474.307 77.7833C474.014 77.9758 473.574 77.9863 473.183 78.0574C472.449 78.2604 471.704 78.5735 470.971 78.7765C469.666 79.1992 468.307 79.6164 466.992 80.1493C466.247 80.4623 465.422 80.4888 464.726 80.8627C463.687 81.3684 462.579 81.4772 461.546 81.9278C461.03 82.153 460.53 82.2131 460.068 82.4439C459.894 82.5374 459.888 82.5925 459.931 82.7083C459.975 82.824 460.024 82.8846 460.138 82.8406C460.692 82.7864 461.144 82.6654 461.638 82.6605Z" fill="#4C005B"/>
<path d="M464.331 77.0939C464.054 77.121 464.097 77.2367 464.135 77.4076C464.216 77.6942 464.368 77.8212 464.657 77.6837C464.831 77.5902 464.999 77.5518 464.912 77.3204C464.765 77.1385 464.624 76.9015 464.331 77.0939Z" fill="#4C005B"/>
<path d="M486.401 73.1807C486.423 72.9604 486.662 72.7623 486.401 72.6242C486.298 72.558 486.021 72.5852 486.01 72.6953C485.988 72.9158 486.26 72.9436 486.401 73.1807Z" fill="#4C005B"/>
<path d="M504.278 65.0534C504.202 64.7119 503.871 64.7334 503.707 64.7168C502.24 64.5662 500.855 64.1457 499.443 64.0009C498.464 63.9006 497.492 63.7451 496.519 63.5897C495.649 63.5007 494.786 63.3563 493.916 63.2672C493.427 63.217 492.813 63.321 492.389 63.1662C491.541 62.8567 490.656 62.9328 489.793 62.7884C488.874 62.6386 487.89 62.5934 486.967 62.4986C486.26 62.4261 485.488 62.4584 484.793 62.2756C484.532 62.1376 484.206 62.1043 483.869 62.1809C483.532 62.2577 483.158 62.1635 482.837 62.0751C482.028 61.9363 481.196 62.0179 480.386 61.8794C479.474 61.6743 478.528 61.7999 477.55 61.6996C476.626 61.605 475.637 61.6149 474.659 61.5144C474.061 61.4532 473.398 61.4964 472.812 61.3248C472.708 61.2587 472.546 61.2419 472.42 61.3961C472.295 61.5502 472.176 61.6492 472.496 61.7377C473.295 61.9868 474.099 62.1805 474.925 62.1537C475.311 62.1377 475.692 62.1767 476.017 62.2103C477.147 62.4375 478.25 62.3837 479.343 62.4401C480.109 62.4629 480.858 62.6513 481.679 62.6798C482.505 62.6531 483.304 62.9021 484.124 62.9305C484.939 63.0142 485.755 63.0977 486.575 63.1263C487.287 63.1436 487.988 63.2712 488.748 63.3493C489.515 63.3722 490.324 63.5108 491.085 63.5889C491.954 63.6781 492.818 63.8223 493.687 63.9116C494.666 64.0118 495.638 64.1673 496.627 64.1574C497.122 64.1525 497.654 64.3184 498.198 64.3741C499.23 64.4799 500.251 64.6961 501.333 64.8626C502.142 65.0014 503.023 64.9803 503.827 65.1741C503.941 65.1301 504.115 65.0368 504.278 65.0534Z" fill="#4C005B"/>
<path d="M471.133 61.6534C471.198 61.5489 471.415 61.5712 471.268 61.3893C471.171 61.2679 471.149 60.9318 470.807 61.0636C470.693 61.1075 470.47 61.1403 470.611 61.3773C470.757 61.5594 470.969 61.6368 471.133 61.6534Z" fill="#4C005B"/>
<path d="M475.693 87.6079C475.644 87.5472 475.763 87.4488 475.611 87.3216C474.633 86.665 473.65 86.0628 472.684 85.2963C472.429 85.1034 472.119 84.9042 471.864 84.7111C471.706 84.6394 471.543 84.6225 471.483 84.6721C471.363 84.7712 471.515 84.8982 471.668 85.0249C472.173 85.4666 472.738 85.8584 473.314 86.1397C473.993 86.4875 474.476 87.1491 475.22 87.3923C475.372 87.5195 475.53 87.5913 475.693 87.6079Z" fill="#4C005B"/>
<path d="M481.776 83.2797C481.939 82.7398 481.695 82.4363 481.457 82.078C481.364 81.9016 481.158 81.7691 480.929 81.857C480.815 81.901 480.695 82.0001 480.581 82.0441C480.674 82.2203 480.766 82.3969 480.918 82.5236C481.282 82.7279 481.597 82.8717 481.776 83.2797Z" fill="#4C005B"/>
<path d="M477.471 85.1756C477.482 85.6217 477.921 85.6107 478.09 85.5727C478.367 85.545 478.129 85.1868 478.259 84.9775C477.998 84.84 477.874 84.437 477.591 84.5199C477.248 84.6514 477.33 84.9386 477.471 85.1756Z" fill="#4C005B"/>
</g>
</g>
<g opacity="0.1">
<mask id="mask1_53_817" style="mask-type:luminance" maskUnits="userSpaceOnUse" x="188" y="-27" width="323" height="121">
<path d="M501.76 -26.9107L188.541 6.01001L197.78 93.9207L511 61L501.76 -26.9107Z" fill="white"/>
</mask>
<g mask="url(#mask1_53_817)">
<path d="M318.49 -30.4374C287.581 -35.4886 260.842 -33.2092 239.796 -28.9748C209.6 -22.8972 186.147 -12.0175 189.503 4.57303C190.142 7.71405 191.946 11.2142 197.575 14.5213C206.36 19.6807 221.39 22.7003 234.393 24.5006C266.787 28.9897 296.985 29.5572 325.828 29.4344C352.691 29.3216 378.887 28.6562 404.412 27.4387C424.337 26.4961 444.169 25.1434 458.648 21.0456C460.717 20.4575 462.777 19.6828 462.121 18.358C461.607 17.4948 460.293 16.5827 458.452 15.8103C450.955 12.5212 440.635 12.1272 433.078 12.5379C395.078 14.659 372.807 26.2047 360.705 39.8701C356.826 44.2609 353.937 49.3547 360.031 55.3451C368.198 63.3944 390.745 70.5178 410.388 73.1725C430.031 75.8276 447.255 74.9605 463.195 73.6932C503.384 70.4753 539.83 64.8523 571.746 56.9453" stroke="#4C005B" stroke-width="2" stroke-miterlimit="10"/>
</g>
</g>
<mask id="mask2_53_817" style="mask-type:luminance" maskUnits="userSpaceOnUse" x="1332" y="7" width="60" height="54">
<path d="M1392 7H1332V61H1392V7Z" fill="white"/>
</mask>
<g mask="url(#mask2_53_817)">
<g opacity="0.2">
<path d="M1373.53 54.2734C1373.32 54.8662 1373.2 55.4588 1372.7 55.5577C1372.3 55.6565 1371.91 56.1505 1371.62 56.7431C1371.34 57.3359 1370.9 57.3359 1370.5 57.731C1369.77 58.6202 1368.87 59.4104 1368.08 60.102C1367.92 60.2996 1367.63 60.102 1367.41 60.2008C1367.12 60.2996 1367.69 60.8923 1367.3 60.7936C1367.07 60.7936 1367.02 60.4972 1366.96 60.2008C1366.9 60.2008 1366.84 60.2008 1366.79 60.2996C1365.89 61.09 1364.93 60.6947 1364.03 60.8923C1363.36 61.09 1362.62 60.991 1361.95 60.7936C1361.5 60.6947 1361.11 60.4973 1360.6 60.4973C1360.26 60.4973 1359.82 59.8057 1359.36 59.5093C1359.31 59.5093 1359.25 59.2129 1359.13 59.3116C1357.84 60.2008 1357.06 58.4225 1356.1 57.4347C1355.71 56.9408 1354.91 56.4467 1354.42 56.4467C1354.36 56.4467 1354.3 56.4467 1354.3 56.4467C1353.85 54.8663 1352.83 54.2734 1352.16 52.9892C1351.54 51.9026 1351.26 50.3218 1350.48 49.6304C1349.8 49.0377 1349.86 47.6546 1349.23 47.0618C1349.18 46.963 1348.9 46.074 1348.84 45.3824C1348.79 44.2958 1348.45 43.3079 1348.12 42.4187C1347.83 41.5296 1347.89 40.6404 1347.71 39.7515C1347.5 38.4672 1348.12 36.9853 1347.38 35.7999C1347.1 35.3059 1346.71 35.4048 1346.42 34.7132C1346.37 34.5156 1346.09 34.5156 1346.09 34.1205C1346.09 33.9228 1345.86 33.8242 1345.81 33.9228C1345.42 35.0095 1345.35 33.8242 1345.13 33.6265C1344.57 33.1326 1344.18 32.1448 1343.5 32.0458C1343.39 32.0458 1343.28 32.0458 1343.28 31.9471C1343.28 30.6628 1342.31 31.0579 1342.15 30.07C1342.1 29.8726 1341.98 29.8726 1341.87 29.7736C1341.13 29.5762 1340.63 28.4895 1340.02 27.8968C1339.22 27.2052 1338.55 26.2174 1337.81 25.5258C1336.98 24.7354 1336.24 23.4512 1335.34 22.6609C1335.18 22.5622 1335.18 22.0682 1335.01 21.8706C1334.9 21.6731 1334.83 21.3766 1334.72 21.8706C1334.67 22.0682 1334.56 21.9694 1334.5 21.8706C1334.11 20.5863 1334.11 20.5863 1333.31 19.9937C1332.98 19.6972 1332.98 18.9069 1332.59 18.8081C1332.08 18.6106 1332.13 17.6227 1332.08 17.03C1332.02 15.8444 1331.8 14.659 1332.48 13.7699C1332.59 13.6712 1332.7 13.3747 1332.82 13.4735C1333.1 13.4735 1333.38 13.8687 1333.43 12.9796C1333.82 13.4735 1334.16 12.3868 1334.62 12.7821C1334.78 12.9796 1335.11 13.0784 1335.18 12.3868C1335.23 11.9917 1335.4 12.0905 1335.52 12.1893C1336.19 12.5844 1336.81 12.1893 1337.48 11.9917C1338.04 11.7941 1338.55 12.4856 1339.12 12.6832C1339.61 12.7821 1340.18 13.2759 1340.69 12.8808C1340.92 12.6832 1341.02 13.0784 1341.25 13.0784C1342.21 13.0784 1343.11 14.4615 1344.18 13.4735C1344.23 13.4735 1344.73 14.165 1345.08 14.2638C1346.09 14.659 1346.99 15.3506 1348.06 15.4493C1348.84 15.5481 1349.69 15.9433 1350.36 16.8324C1350.7 17.3263 1351.15 17.8203 1351.38 16.536C1351.43 16.1409 1351.66 16.2396 1351.77 16.0421C1352 15.7456 1352.28 15.6469 1352.44 15.153C1352.95 13.7699 1353.73 12.9796 1354.58 12.1893C1355.03 11.8929 1355.32 11.399 1355.65 11.0038C1356.04 10.5099 1356.43 9.32438 1357.12 9.81836C1357.22 9.91714 1357.51 9.71959 1357.56 9.6207C1357.73 8.33651 1358.41 8.83039 1358.86 8.53406C1359.36 8.04008 1359.92 8.04008 1360.49 7.84253C1360.82 7.74375 1361.16 7.64497 1361.5 7.64497C1361.95 7.74375 1362.4 7.44742 1362.85 7.34865C1363.35 7.24976 1363.91 6.75589 1364.26 7.15099C1365.1 8.04008 1366.12 7.5462 1366.9 8.53406C1367.12 8.73161 1367.35 8.83039 1367.58 8.83039C1368.25 8.92927 1368.87 9.6207 1369.43 10.3122C1370.16 11.1025 1370.9 11.7941 1371.62 12.4856C1372.3 13.0784 1372.81 13.9675 1373.32 14.8566C1373.88 15.8444 1374.38 16.8324 1374.89 17.8203C1375.56 19.0057 1376.12 20.3888 1376.63 21.6731C1377.2 23.056 1377.48 24.7354 1377.76 26.3161C1378.03 28.1932 1378.54 30.07 1378.49 32.1448C1378.49 32.935 1378.66 33.6265 1378.72 34.4169C1378.77 35.3059 1378.66 36.195 1378.6 37.183C1378.49 38.2696 1378.77 39.0599 1379.44 39.3564C1379.78 39.5538 1380.01 39.8502 1380.29 40.1466C1381.42 41.4309 1382.6 42.4187 1383.66 43.8018C1384.73 45.1848 1385.8 46.3703 1386.92 47.5557C1388.05 48.84 1389.11 50.2232 1390.08 51.8037C1390.86 53.0879 1391.81 54.1747 1391.99 56.348C1392.04 57.5335 1391.93 58.4225 1391.26 58.6202C1390.52 58.8178 1389.8 59.1142 1389.01 59.0153C1387.49 59.0153 1386.13 57.8299 1384.68 57.6322C1384.33 57.6322 1383.89 57.0395 1383.5 57.731C1383.32 58.0274 1382.99 57.2371 1382.71 57.0395C1382.42 56.842 1382.26 56.5456 1381.91 56.7431C1381.24 57.1385 1380.68 56.842 1380.23 56.0516C1380.11 55.8542 1380.06 56.1505 1380.01 56.1505C1379.9 56.2493 1379.62 56.2493 1379.56 56.1505C1379.28 54.8662 1378.38 55.6565 1377.98 54.7673C1377.87 54.471 1377.36 54.471 1377.2 54.9649C1377.13 55.1626 1377.02 55.2614 1377.02 55.1626C1376.63 54.0759 1375.9 54.471 1375.4 53.6806C1374.94 52.9892 1373.81 53.3843 1373.53 54.2734ZM1353.68 23.8463C1352.95 25.6246 1353.34 27.2052 1353.4 28.7857C1353.4 29.6749 1353.8 30.3664 1354.08 31.0579C1354.47 32.1448 1354.86 32.935 1355.42 33.8242C1356.61 35.4048 1357.96 35.5036 1359.13 35.3059C1360.15 35.2071 1361.28 35.0095 1362.29 34.5156C1363.91 33.7252 1365.61 33.0338 1367.3 32.4411C1367.63 32.3422 1368.02 32.5399 1368.2 32.3422C1368.92 31.2556 1369.82 31.3544 1370.62 31.2556C1371.52 31.1568 1372.42 31.2556 1373.37 31.4532C1374.61 31.7494 1375.79 32.2434 1376.8 33.429C1377.08 33.7252 1377.13 33.3301 1377.13 33.0337C1377.2 31.0579 1376.8 29.1811 1376.51 27.304C1376.46 27.0076 1376.3 26.7112 1376.12 26.6125C1375.28 26.1185 1374.38 25.7234 1373.48 25.3282C1372.42 24.8342 1371.34 25.5258 1370.33 26.2174C1369.54 26.81 1368.7 27.304 1367.86 27.6991C1366.4 28.3907 1364.93 28.5883 1363.42 28.4895C1362.46 28.3906 1361.33 28.3907 1360.77 26.9089C1360.03 25.0319 1359.92 22.6609 1360.49 20.4875C1360.88 18.9069 1361.56 17.7215 1362.34 16.7336C1363.19 15.7456 1364.03 14.8566 1364.88 13.9675C1365.38 13.3747 1365.94 12.9796 1366.51 12.4856C1366.79 12.1893 1366.96 11.7941 1367.02 11.3002C1367.07 11.0038 1366.96 10.905 1366.79 10.905C1366.17 10.905 1365.66 9.91714 1365.04 10.0159C1364.48 10.1147 1363.98 10.2135 1363.42 10.1147C1362.62 10.0159 1361.78 10.2135 1361 10.1147C1360.72 10.1147 1360.54 10.3122 1360.43 10.8062C1360.15 12.4856 1359.76 14.0662 1358.86 15.0541C1358.3 15.6469 1357.84 16.4372 1357.33 17.1287C1357 17.6227 1356.32 17.4251 1356.32 18.5118C1355.93 18.413 1355.99 19.4009 1355.76 19.4997C1355.37 19.5984 1355.14 19.9936 1354.98 20.5863C1354.52 21.673 1353.68 22.5623 1353.68 23.8463ZM1359.92 11.1026C1359.48 11.2014 1359.2 11.399 1358.97 11.4978C1358.46 11.5965 1357.79 11.8929 1357.45 12.3868C1356.83 13.2759 1355.99 13.6711 1355.37 14.659C1354.75 15.6469 1354.08 16.536 1353.4 17.3263C1352.67 18.1166 1352.39 19.6972 1351.6 20.4875C1351.49 20.5863 1351.43 20.8827 1351.43 21.0803C1351.49 21.6731 1351.31 21.9694 1351.1 22.3646C1350.76 22.9574 1350.48 23.7476 1350.31 24.538C1350.2 25.0319 1349.92 25.5258 1350.08 26.4148C1350.2 26.9089 1349.97 27.6004 1349.69 28.0942C1349.02 29.4774 1349.35 31.1568 1349.23 32.6387C1349.18 33.3301 1349.41 33.9228 1350.08 33.8242C1350.82 33.6265 1351.31 35.0095 1351.93 35.6022C1352.95 36.4914 1353.91 37.4793 1354.98 38.0721C1355.76 38.5659 1356.61 39.0599 1357.4 39.5538C1357.56 39.6526 1357.79 39.7515 1357.79 39.8502C1357.9 40.7393 1358.35 40.6404 1358.69 40.9369C1358.92 41.1345 1359.13 41.1345 1359.36 41.2332C1359.7 41.4309 1359.98 41.6284 1360.31 41.7273C1360.77 41.9247 1361.11 43.0115 1361.72 42.4187C1361.83 42.3201 1362.01 42.1224 1362.01 42.5175C1362.01 43.4067 1362.23 43.1103 1362.57 43.0115C1362.8 42.9126 1363.13 42.8139 1363.36 43.209C1363.58 43.6041 1363.86 43.4067 1364.2 43.3079C1364.81 43.1103 1365.22 42.1224 1365.83 42.0236C1366.4 41.9247 1366.9 41.5296 1367.41 41.3321C1368.31 40.8381 1369.26 40.8381 1370.16 40.3442C1370.39 40.2453 1370.67 39.949 1370.95 40.1466C1371.57 40.5418 1372.19 40.6404 1372.81 40.6404C1373.88 40.7393 1374.83 41.3321 1375.79 42.2212C1375.96 42.3201 1376.35 42.3201 1376.35 42.1224C1376.74 40.7393 1377.25 39.4551 1377.25 37.7757C1377.31 34.9108 1377.31 34.9108 1375.79 33.7252C1373.71 32.1448 1371.52 32.0458 1369.38 32.6387C1367.69 33.1326 1366.06 34.0216 1364.37 34.6144C1363.98 34.7131 1363.63 35.2071 1363.24 35.2071C1362.52 35.1084 1361.83 35.5036 1361.16 35.7999C1360.03 36.2938 1358.92 36.195 1357.79 36.195C1357.06 36.195 1356.22 35.8987 1355.42 35.1084C1353.96 33.5277 1353.01 31.3543 1352.5 28.5883C1352 25.7234 1352.78 23.1548 1353.57 20.784C1354.01 19.4009 1354.75 18.5118 1355.48 17.5239C1356.16 16.6347 1356.94 15.9433 1357.61 14.9553C1358.41 13.6712 1359.13 12.6832 1359.92 11.1026ZM1350.53 19.2033C1350.02 18.1166 1349.23 18.7094 1348.73 18.1166C1348.68 18.0178 1348.51 18.2154 1348.4 18.2154C1348.33 18.2154 1348.33 18.6106 1348.22 18.413C1347.94 17.6227 1347.43 17.6227 1347.04 17.5239C1345.91 17.1287 1344.85 16.3384 1343.72 16.536C1343.62 16.536 1343.56 16.6347 1343.5 16.4372C1343.05 15.7456 1342.43 15.6469 1341.92 15.5481C1340.74 15.2518 1339.56 15.153 1338.38 14.8566C1338.04 14.7578 1337.88 15.3506 1337.53 15.153C1336.24 14.2638 1335.11 15.2518 1333.93 15.7456C1333.66 15.8444 1333.6 16.4372 1333.72 16.7336C1333.93 17.3263 1334.21 18.0178 1334.5 18.1166C1335.29 18.413 1335.62 19.796 1336.47 20.0924C1337.09 20.29 1337.42 22.0682 1338.32 21.8706C1338.38 21.8706 1338.43 22.0681 1338.43 22.1669C1338.43 23.2537 1339.06 23.7476 1339.45 23.9452C1340.07 24.3403 1340.51 25.2295 1341.2 25.427C1341.76 25.6246 1342.1 26.4148 1342.54 27.0076C1343.33 27.8968 1344.34 28.2919 1345.08 29.4774C1345.36 29.8726 1345.98 29.3785 1345.98 30.564C1346.48 30.0701 1346.6 30.9593 1346.88 31.3544C1347.32 31.9471 1347.66 31.7494 1347.83 30.7616C1348 29.9713 1347.83 28.9834 1348.22 28.2919C1348.33 28.0942 1348.33 27.6991 1348.28 27.5017C1347.89 25.2295 1348.9 23.6488 1349.3 21.8706C1349.41 21.3766 1349.74 20.6852 1349.92 20.0924C1350.02 19.4997 1350.2 19.2033 1350.53 19.2033ZM1376.23 25.1306C1375.9 24.1426 1375.51 23.4512 1375.33 22.5622C1375 20.6852 1374.22 19.4997 1373.53 18.2154C1372.98 17.1287 1372.13 16.4372 1371.52 15.3505C1371.18 14.8566 1370.83 14.7578 1370.44 14.9553C1369.77 15.2518 1369.15 15.8444 1368.64 16.536C1368.13 17.1287 1367.58 17.8203 1367.41 19.0057C1367.35 19.4997 1367.41 20.1912 1367.58 20.1912C1367.92 20.29 1368.02 21.0803 1368.41 20.784C1368.7 20.6852 1368.98 20.4875 1369.31 20.5863C1370.16 20.6852 1371.01 20.784 1371.8 20.1912C1372.19 19.8949 1372.42 20.0924 1372.7 20.0924C1372.81 20.0924 1372.86 20.1912 1372.86 20.3888C1372.86 20.6852 1372.7 20.5863 1372.63 20.6852C1371.91 21.6731 1371.01 21.1791 1370.28 21.6731C1369.77 22.0682 1369.21 21.9694 1368.59 21.9694C1368.02 21.8706 1367.46 21.9694 1367.02 21.2778C1366.45 20.4875 1366.56 19.4009 1366.73 18.5118C1367.02 17.4251 1367.23 16.1409 1368.25 15.8444C1368.7 15.7456 1369.15 14.659 1369.72 14.2638C1369.77 14.2638 1370.05 14.2638 1370 13.8687C1369.93 13.4735 1369.77 13.2759 1369.6 13.3747C1369.03 13.5724 1368.82 12.1893 1368.25 12.6832L1368.13 12.4856C1367.8 11.7941 1367.58 11.7941 1367.3 12.5844C1367.18 12.9796 1367.02 13.3747 1366.79 13.5724C1365.83 14.4615 1364.93 15.4493 1363.98 16.3384C1363.08 17.1287 1362.4 18.413 1361.62 19.4997C1361 20.3888 1360.93 21.7718 1360.82 22.9574C1360.72 24.044 1360.77 25.2295 1361.28 26.2174C1361.67 27.0076 1362.29 27.5017 1362.73 27.5017C1363.98 27.5017 1365.22 27.8968 1366.45 27.1063C1366.68 26.9089 1366.68 27.6004 1366.96 27.304C1367.74 26.4148 1368.76 26.3161 1369.6 25.7234C1370.16 25.3282 1370.72 25.1306 1371.29 24.8342C1372.13 24.4391 1372.98 24.044 1373.88 24.3403C1374.71 24.4391 1375.45 24.7354 1376.23 25.1306ZM1375.61 49.8279C1375.51 50.1243 1375.4 50.3218 1375.51 50.6183C1375.56 50.8157 1375.73 50.8157 1375.9 50.7171C1376.12 50.6183 1376.35 50.6183 1376.46 50.8157C1377.08 51.9026 1377.98 50.8157 1378.6 51.9026C1379.05 51.211 1379.21 52.0013 1379.44 52.4951C1379.56 52.7916 1379.67 52.6928 1379.83 52.594C1380.01 52.4951 1380.29 52.3965 1380.4 52.4951C1381.01 53.2856 1382.03 52.1989 1382.53 53.7794C1382.53 53.7794 1382.65 53.6807 1382.71 53.7794C1383.04 54.0759 1383.43 53.582 1383.78 54.1747C1383.89 54.3722 1384.06 54.8662 1384.28 54.6686C1384.56 54.3722 1384.9 54.471 1385.02 54.5699C1385.58 54.965 1386.08 55.1626 1386.7 54.9649C1386.87 54.8662 1387.43 54.471 1387.54 55.4588C1387.93 55.2614 1388.16 56.1505 1388.5 55.9528C1389.01 55.6565 1389.46 55.8542 1389.96 55.9528C1390.13 55.9528 1390.3 56.348 1390.36 55.7553C1390.42 55.36 1390.42 55.1626 1390.19 54.9649C1389.29 53.8783 1388.44 52.6928 1387.54 51.6062C1386.75 50.7171 1385.92 49.9268 1385.23 48.6425C1384.33 46.9631 1383.32 45.58 1382.03 44.8884C1381.98 44.8884 1381.86 44.8884 1381.86 44.7897C1381.36 43.4067 1380.4 43.0115 1379.78 42.0236C1379.62 41.7273 1379.39 41.4309 1379.21 41.5296C1378.93 41.6284 1378.82 41.5296 1378.72 41.1345C1378.6 40.8381 1378.43 40.443 1378.21 40.6404C1377.98 40.8381 1377.92 41.2332 1377.98 41.6284C1377.98 41.9247 1378.15 42.3201 1377.98 42.6163C1377.41 43.4067 1377.92 44.8884 1377.31 45.58C1377.31 45.58 1377.31 45.6789 1377.31 45.7775C1377.31 46.1727 1377.36 46.4691 1377.02 46.5678C1376.74 46.6667 1376.74 47.0618 1376.8 47.3583C1376.86 47.6546 1376.86 47.8521 1376.69 47.951C1376.23 48.2474 1376.02 49.2352 1375.61 49.8279ZM1368.82 55.1626C1368.92 55.7553 1369.21 55.8541 1369.38 55.6565C1370.05 54.7673 1370.9 54.2734 1371.46 53.0879C1371.57 52.8905 1371.62 52.3965 1371.52 52.3965C1371.18 52.594 1371.06 51.9026 1370.78 51.9026C1370.21 51.8037 1369.77 50.5194 1369.1 51.211C1368.76 50.4206 1368.31 50.4206 1367.8 50.5194C1367.74 50.5194 1367.69 50.4206 1367.63 50.3219C1367.41 49.7291 1366.96 49.4328 1366.56 49.5315C1366.45 49.5315 1366.28 49.7291 1366.22 49.4328C1365.83 48.1485 1364.81 48.84 1364.42 47.6546H1364.32C1363.52 48.1485 1362.96 47.5557 1362.4 46.963C1362.06 46.6667 1361.83 46.6667 1361.55 47.0618C1361.16 47.6546 1360.6 48.2473 1360.21 48.3461C1359.36 48.5436 1358.8 49.7291 1358.02 50.0255C1357.51 50.2232 1356.94 50.7171 1356.43 50.7171C1355.6 50.7171 1354.7 50.6183 1353.85 50.7171C1353.8 50.7171 1353.73 50.3218 1353.62 50.6183C1353.52 50.8157 1353.62 51.0134 1353.73 51.1122C1354.19 51.6062 1354.36 52.4951 1354.86 52.8904C1355.42 53.3843 1355.99 53.8783 1356.5 54.471C1356.89 54.965 1357.12 54.965 1357.45 54.471C1358.18 53.582 1359.02 53.1868 1359.87 52.8904C1361.16 52.3965 1362.45 51.9026 1363.75 52.4951C1364.88 52.9892 1366.17 52.594 1367.18 53.8783C1367.3 53.9771 1367.23 54.471 1367.58 54.3722C1368.02 54.0759 1368.36 54.8662 1368.82 55.1626ZM1351.82 48.3461C1351.82 48.3461 1351.93 48.4449 1352 48.4449C1353.01 48.9389 1353.96 49.6304 1355.14 49.4328C1356.66 49.2352 1357.96 48.3461 1359.25 47.2595C1359.53 47.0618 1359.7 46.6667 1359.98 46.4691C1360.1 46.3703 1360.31 46.5678 1360.26 45.9752C1360.26 45.4812 1360.1 45.3824 1359.92 45.2836C1358.97 44.8884 1358.18 43.9995 1357.33 43.3079C1357.17 43.209 1357.06 43.209 1357 43.4067C1356.71 43.9006 1356.55 43.5054 1356.32 43.3079C1355.81 42.8139 1355.42 41.4309 1354.63 42.2212C1354.52 42.3201 1354.47 42.0236 1354.47 41.826C1354.24 41.1345 1353.68 41.0358 1353.57 40.2453C1353.52 39.949 1353.4 40.2453 1353.29 40.2453C1353.01 40.2453 1352.44 40.2453 1352.44 40.0479C1352.33 39.0599 1351.82 39.0599 1351.43 38.8624C1351.1 38.6647 1350.7 38.8624 1350.41 38.1708C1350.36 37.9732 1349.92 38.2696 1349.8 37.5781C1349.8 37.4793 1349.41 37.6769 1349.46 37.8744C1349.63 38.6647 1349.41 39.4551 1349.51 40.2453C1349.69 41.5296 1349.92 42.8139 1350.31 43.9995C1350.7 45.58 1351.21 46.963 1351.82 48.3461ZM1374.5 47.8521C1374.89 47.3583 1374.89 46.4691 1375.17 45.8763C1375.51 45.1848 1375.22 43.9006 1375.9 43.4067C1376.07 43.3079 1375.9 43.0115 1375.79 42.9126C1375.45 42.5175 1375.12 42.6163 1374.78 42.5175C1373.88 42.4187 1372.98 42.0236 1372.08 41.9247C1371.34 41.826 1370.72 42.2212 1370 42.1224C1369.6 42.0236 1369.15 42.1224 1368.82 42.3201C1367.58 43.0115 1366.33 43.8018 1365.04 44.2958C1364.93 44.3946 1364.71 44.3946 1364.71 44.7897C1364.71 45.1848 1364.93 45.0861 1365.1 45.1848C1365.83 45.4812 1366.68 45.0861 1367.35 46.074C1367.8 46.6667 1368.53 46.3703 1369.03 47.2595C1369.26 47.6546 1369.6 48.1485 1369.93 47.2595C1370.05 46.9631 1370.16 47.2595 1370.21 47.4569C1370.33 47.6546 1370.33 47.951 1370.56 47.951C1371.29 47.951 1371.85 48.9389 1372.63 49.1363C1373.71 49.4328 1373.71 49.7291 1374.38 48.3461C1374.43 47.951 1374.5 47.8521 1374.5 47.8521ZM1368.36 56.348C1367.97 56.0516 1367.8 55.7553 1367.51 55.6565C1367.23 55.4588 1366.84 55.6565 1366.73 55.4588C1366.33 54.3722 1365.61 54.471 1365.04 54.0759C1364.53 53.6806 1363.81 53.6806 1363.19 53.582C1362.62 53.4831 1362.01 53.582 1361.44 53.582C1360.38 53.6806 1359.31 53.8783 1358.3 54.5699C1358.12 54.6686 1357.96 54.7673 1357.96 55.1626C1357.96 55.5577 1358.07 55.8542 1358.23 55.8542C1358.74 55.8542 1359.08 56.6444 1359.53 56.842C1359.92 56.9408 1360.38 56.0516 1360.72 56.9408C1361.28 56.1505 1361.16 57.2371 1361.28 57.6322C1361.5 57.731 1361.44 56.9408 1361.72 57.1384C1362.4 57.731 1363.19 57.4347 1363.86 57.6322C1365.5 57.9287 1366.84 57.3359 1368.36 56.348Z" fill="#4C005B"/>
<path d="M1361.83 30.9591C1362.11 31.2556 1362.11 31.4532 1361.95 31.9471C1361.67 32.7373 1361.33 32.2434 1361.05 32.3422C1361.05 31.9471 1361 31.5519 1361.16 31.2556C1361.33 30.8605 1361.5 30.2677 1361.83 30.9591Z" fill="#4C005B"/>
<path d="M1357.06 29.7736C1356.89 29.675 1356.71 29.3785 1357 29.0822C1357.33 28.687 1357.68 28.4895 1358.07 28.7857C1358.23 28.8846 1358.12 29.2797 1358.02 29.2797C1357.68 29.4774 1357.56 30.6628 1357.06 29.7736Z" fill="#4C005B"/>
<path d="M1357.06 23.1548C1356.89 23.056 1356.61 22.9573 1356.89 22.3646C1357.17 21.7718 1357.33 22.3646 1357.56 22.4632C1357.73 22.5622 1357.84 22.7597 1357.68 23.1548C1357.4 23.7475 1357.22 23.7475 1357.06 23.1548Z" fill="#4C005B"/>
<path d="M1364.81 22.0682C1364.6 22.7597 1365.22 22.6609 1365.04 23.2537C1364.93 23.6488 1364.65 23.5501 1364.42 23.2537C1364.2 23.056 1364.14 22.6609 1364.26 22.3646C1364.32 21.9694 1364.53 22.167 1364.81 22.0682Z" fill="#4C005B"/>
</g>
</g>
<mask id="mask3_53_817" style="mask-type:luminance" maskUnits="userSpaceOnUse" x="42" y="22" width="74" height="78">
<path d="M116 22H42V100H116V22Z" fill="white"/>
</mask>
<g mask="url(#mask3_53_817)">
<g opacity="0.2">
<path d="M74.1596 98.8076C73.7801 98.1542 73.285 97.3729 72.6874 96.6588C72.2256 96.1467 71.996 95.4532 71.5616 94.8941C71.2628 94.537 70.977 94.3751 70.4516 94.5158C69.9262 94.6564 69.3056 94.7431 68.7615 94.3722C68.571 94.2643 68.2852 94.1024 68.0051 94.2569C67.9027 94.3239 67.637 94.2361 67.6169 94.1622C67.0669 93.475 66.1403 93.3257 65.5354 92.7326C65.3045 92.4766 64.9986 92.2407 64.8904 91.9915C64.7013 91.4461 64.1571 91.0754 64.0705 90.4628C64.0099 90.2406 63.8064 89.9376 63.6706 89.7354C63.2968 89.3985 63.3258 88.9139 63.3199 88.5976C63.3012 88.0862 62.9072 87.6751 63.1612 87.1303C63.2435 86.989 62.7599 86.8405 62.4944 86.7525C61.6702 86.5361 61.0856 86.0172 60.3437 85.6595C59.8876 85.4638 59.8011 84.8512 59.2352 84.8438C59.0375 84.857 59.2497 84.6015 59.0866 84.4465C58.6449 84.0086 58.3605 83.4092 58.0214 82.904C57.4989 82.1698 57.7269 81.2347 57.2044 80.5003C57.1366 80.3993 57.2391 80.3321 57.2939 80.238C57.5884 79.8413 57.2767 79.2891 57.6187 78.9194C57.4758 78.8384 57.538 78.6232 57.2998 78.4883C56.5174 77.9826 55.7077 77.5239 55.0278 76.9509C54.0897 76.1691 53.2337 75.2459 52.8354 74.0812C52.7343 73.7108 52.7357 73.2734 52.7098 72.883C52.717 72.762 52.7718 72.6677 52.704 72.5667C52.3173 72.0346 52.7892 71.5507 52.8658 71.0931C52.8729 70.972 52.9753 70.9048 52.8326 70.8239C51.8394 70.1361 51.1814 69.1999 50.5506 68.2165C49.9675 67.2601 49.4868 66.2365 49.2862 65.0585C49.2126 64.6412 49.139 64.2239 49.1881 63.8134C49.2574 63.4769 49.1766 63.1808 48.9455 62.9247C48.3885 62.3587 47.8313 61.7927 47.5341 60.9982C47.4459 60.8231 47.3377 60.5738 47.1746 60.4188C46.6246 59.7317 46.7503 58.8638 46.4255 58.1163C46.2768 57.719 46.4832 57.1473 46.5598 56.6898C46.6782 55.9429 46.59 55.7678 45.8958 55.4372C45.2968 55.1604 44.9303 54.7023 44.591 54.1971C44.4351 53.9211 44.1219 53.8062 43.9387 53.5771C43.8232 53.4492 43.66 53.2942 43.6673 53.173C43.5475 52.2912 43.0799 51.4628 42.8849 50.6012C42.5415 49.3422 42.5184 48.077 42.5704 46.7917C42.5863 46.112 42.875 45.3989 43.0886 44.7061C43.2401 44.2284 43.5346 43.8318 43.6386 43.3272C43.6804 43.0379 44.213 42.7761 44.3848 42.3725C44.776 41.5924 45.4933 41.1223 46.1833 40.6992C46.778 40.2221 47.4751 39.6779 48.334 39.7262C48.627 39.767 48.9141 39.4913 49.2822 39.5121C50.066 39.5804 50.8223 39.6958 51.5715 39.9323C52.0073 40.0539 52.247 39.7515 52.5069 39.523C53.1015 39.046 53.7438 38.5958 54.3586 38.1929C55.616 37.3399 56.9208 36.5137 58.3137 35.8628C58.9964 35.5609 59.6864 35.1378 60.3691 34.8359C61.0041 34.5069 61.7345 34.2319 62.3018 33.802C63.354 33.0832 64.5549 32.7618 65.5999 32.1642C66.6998 31.4724 67.8603 31.0029 69.028 30.4121C70.6533 29.5798 72.2785 28.7474 73.8764 27.9622C74.8666 27.4587 75.9924 27.1573 76.922 26.4317C77.7216 25.8203 78.7319 25.3909 79.6876 25.0557C80.9707 24.5931 82.1861 24.0293 83.4692 23.5666C84.5749 23.1912 85.6127 22.7148 86.8597 22.8577C87.1052 22.8714 87.3707 22.9593 87.554 23.1883C87.9206 23.6465 88.2397 24.0776 88.5586 24.5087C88.9252 24.9668 88.9844 25.6264 89.6108 25.856C89.6584 25.8831 89.644 26.1253 89.7119 26.2263C89.9081 26.6505 90.1045 27.0749 90.3555 27.4048C90.7698 27.89 91.0541 28.4893 91.3183 29.0145C91.6705 29.7149 92.0703 30.4423 92.4499 31.0956C92.8973 31.85 93.2696 32.6243 93.7171 33.3786C94.0563 33.8839 94.3204 34.4091 94.5571 34.9814C94.8213 35.5068 94.9281 36.1933 95.4723 36.5642C95.6628 36.6721 95.4579 36.8065 95.4982 36.9546C95.8966 38.1193 96.6023 39.0826 97.2331 40.066C97.4164 40.2951 97.4222 40.6114 97.5305 40.8605C97.7743 41.3117 98.0182 41.7629 98.2896 42.1671C98.8251 43.0966 99.1831 44.1132 99.746 44.9955C100.261 45.8508 100.674 46.7734 101.067 47.6219C101.391 48.3694 101.614 49.184 102.089 49.8911C102.726 50.7534 102.907 51.8573 103.47 52.7397C103.945 53.4469 104.112 54.3557 104.539 55.036C105.014 55.7432 105.209 56.6049 105.656 57.3592C105.88 57.7364 105.926 58.2008 106.15 58.5779C106.774 59.6825 107.295 60.8541 107.843 61.9787C108.263 62.7801 108.703 63.6556 109.048 64.4771C109.4 65.1775 109.65 65.945 109.975 66.6924C110.388 67.615 110.8 68.5375 111.213 69.4601C111.762 70.5846 112.358 71.7361 112.981 72.8407C113.497 73.6961 113.834 74.6386 114.124 75.5544C114.314 76.0996 114.122 76.4292 113.664 76.6709C113.459 76.8051 113.479 76.8792 113.465 77.1215C113.476 77.7541 113.515 78.3397 113.554 78.9252C113.702 79.7599 113.624 80.6548 114.071 81.4092C114.207 81.6113 114.363 81.8873 114.643 81.733C114.793 81.6928 114.95 81.5314 115.086 81.7336C115.174 81.9086 115.064 82.0969 114.907 82.2582C114.155 82.8966 113.159 83.0838 112.346 83.4999C111.534 83.9161 110.633 84.1573 109.963 84.6543C109.731 84.8357 109.41 84.842 109.205 84.9764C108.898 85.1779 108.543 85.3524 108.215 85.4799C107.28 85.8891 106.392 86.3254 105.505 86.7617C104.692 87.1779 103.804 87.6142 102.944 88.0033C101.858 88.4528 100.746 88.9494 99.728 89.4999C99.448 89.6544 99.0323 89.6067 98.7248 89.8081C97.7275 90.4327 96.6015 90.7342 95.5637 91.2106C94.7036 91.5997 93.7682 92.0091 92.9079 92.3983C91.6651 93.0091 90.3618 93.3978 89.119 94.0085C88.1562 94.4648 87.1935 94.9213 86.1629 95.2765C85.0298 95.6991 83.917 96.1957 82.8518 96.7192C82.2167 97.0481 81.5066 97.3971 80.8584 97.5309C80.1078 97.7318 79.4454 98.1078 78.6948 98.3087C78.217 98.4763 77.7392 98.6439 77.3294 98.9126C76.687 99.3626 75.8556 99.2674 75.2134 99.7174C75.1036 99.9057 74.3689 99.4269 74.1596 98.8076ZM96.183 85.3631C96.183 85.3631 96.1556 85.4102 96.108 85.3832C95.9997 85.1342 95.8021 85.1474 95.597 85.2816C95.4469 85.3218 95.3647 85.463 95.1871 85.5503C94.1969 86.0537 93.0985 86.3081 92.156 86.8385C91.9784 86.9258 91.8687 87.114 91.671 87.1272C90.5927 87.4555 89.5752 88.0061 88.5375 88.4825C88.3599 88.5698 88.2097 88.6099 88.0322 88.6972C86.8717 89.1668 85.7314 89.7105 84.6185 90.2069C84.1134 90.4217 83.6082 90.6364 83.103 90.851C82.5502 91.0387 82.0175 91.3006 81.3897 91.5084C79.8814 92.0314 78.4812 92.8034 77.1764 93.6295C76.6915 93.9182 76.6351 94.4497 76.5861 94.8602C76.5442 95.1496 76.9743 94.955 77.1922 95.0159C77.1648 95.0629 77.1851 95.137 77.1577 95.1841C76.3869 95.3109 76.2281 95.9096 76.1169 96.5354C76.1097 96.6565 76.0751 96.8247 76.1227 96.8516C76.218 96.9056 76.368 96.8655 76.4706 96.7983C76.7852 96.4757 77.1807 96.4493 77.5761 96.4229C77.849 96.3896 78.142 96.4303 78.2993 96.269C78.9143 95.8661 79.6171 95.6381 80.2523 95.3093C81.4199 94.7185 82.6079 94.2019 83.728 93.5842C84.773 92.9866 85.906 92.5642 86.9712 92.0405C87.8315 91.6514 88.6918 91.2622 89.4568 90.819C90.3993 90.2886 91.4025 89.9803 92.345 89.4498C92.9051 89.1411 93.5878 88.8392 94.2633 88.6582C94.6386 88.5579 95.0616 88.4844 95.3689 88.2828C96.2638 87.7254 97.2194 87.3902 98.1822 86.9338C99.1174 86.5246 100.025 86.1622 100.961 85.753C101.971 85.3236 102.989 84.7731 104.067 84.4447C104.695 84.2369 105.255 83.928 105.863 83.6462C108.088 82.6531 110.374 81.8822 112.6 80.8891C112.778 80.8019 113.241 80.8765 113.12 80.4321C113.059 80.21 113.046 80.0148 113.033 79.8196C112.981 79.0388 112.743 78.904 112.04 79.1319C111.487 79.3196 110.935 79.5073 110.354 79.7421C109.371 80.1244 108.436 80.5337 107.433 80.8419C106.477 81.1772 105.59 81.6135 104.682 81.9756C103.876 82.2708 103.159 82.7409 102.341 82.8408C102.253 82.6657 102.26 82.5446 102.533 82.5112C103.133 82.3506 103.618 82.0618 104.198 81.827C104.881 81.525 105.584 81.2972 106.192 81.0152C107.202 80.5859 108.185 80.2035 109.215 79.8483C110.123 79.4861 111.079 79.1508 111.987 78.7886C112.465 78.6209 113.201 78.6623 112.836 77.7668C112.815 77.6927 112.932 77.3832 112.837 77.3294C112.722 77.2013 112.509 77.4567 112.434 77.4768C112.094 77.4091 111.929 77.6916 111.676 77.7989C110.564 78.2954 109.471 78.8661 108.358 79.3627C107.648 79.7116 106.938 80.0606 106.16 80.3086C105.532 80.5164 104.952 80.7512 104.392 81.06C103.934 81.3017 103.477 81.5434 102.971 81.7581C101.886 82.2076 100.916 82.7851 99.8305 83.2346C99.0727 83.5567 98.3553 84.0268 97.5774 84.2748C97.0996 84.4423 96.7576 84.8121 96.2322 84.9527C96.0546 85.0399 96.0676 85.2352 96.183 85.3631ZM57.3333 58.097C57.3852 58.8776 58.1546 59.1882 58.1862 59.8949C58.2324 60.3593 58.7015 60.7502 58.8227 61.1946C59.045 62.0092 59.6975 62.6291 59.8923 63.4909C59.9053 63.686 60.2243 64.1172 60.7973 64.0034C61.8682 63.7962 62.9798 63.7371 64.0551 64.2837C65.1304 64.8302 65.9256 65.5311 66.4814 66.5347C66.5694 66.7097 66.6026 66.9789 66.9374 66.7304C67.0674 66.6162 67.3127 66.6299 67.4282 66.758C67.5912 66.913 67.7746 67.1419 67.6374 67.3773C67.473 67.6598 67.356 67.9692 67.0009 68.1437C66.5159 68.4325 66.1147 68.1426 65.8362 67.8595C65.6051 67.6035 65.7423 67.3681 65.9747 67.1867C66.0772 67.1195 66.057 67.0456 66.0093 67.0185C65.7235 66.8566 65.6225 66.4864 65.4118 66.3044C64.5616 65.6976 63.6292 65.2321 62.5799 65.0758C62.1165 65.0012 61.6532 64.9266 61.1827 64.9732C60.9098 65.0064 60.7251 65.2148 60.8882 65.3698C61.2751 65.902 61.6069 66.5283 61.9663 67.1075C62.3936 67.7877 62.5957 68.5283 62.9955 69.2556C63.3953 69.983 63.7952 70.7103 64.14 71.5318C64.2685 71.855 64.6293 71.9968 64.8545 71.9365C65.5372 71.6346 66.1838 71.9383 66.8176 72.0468C67.5739 72.1622 68.4457 72.4056 69.0303 72.9246C69.3362 73.1605 69.684 73.1072 69.9424 73.3161C70.3841 73.7541 70.8807 74.098 71.2198 74.6031C71.4031 74.8322 71.5388 75.0343 71.8318 75.075C72.1725 75.1428 72.2258 75.4861 72.1364 75.7485C72.0122 76.179 71.6572 76.3535 71.3021 76.528C70.947 76.7025 70.6136 76.5136 70.5053 76.2645C70.3971 76.0153 70.0507 75.6314 70.5357 75.3425C70.6381 75.2753 70.6251 75.0802 70.4822 74.9993C70.2239 74.7903 70.0406 74.5613 69.7823 74.3523C69.3333 74.0354 68.857 73.7655 68.3807 73.4958C67.9521 73.2529 67.4338 73.2725 66.9778 73.0767C66.474 72.8539 65.9558 72.8734 65.39 72.866C65.2197 72.8322 65.0696 72.8723 64.967 72.9395C64.8849 73.0806 64.8978 73.2759 65.1158 73.3366C65.6874 73.6605 65.6239 74.3132 65.9904 74.7713C66.2892 75.1284 66.4783 75.6738 66.7497 76.0778C67.3197 76.8391 67.5348 77.7748 68.1323 78.4889C68.4311 78.8461 68.7704 79.3512 68.8843 79.9167C68.9046 79.9907 69.0604 80.2668 69.2784 80.3277C70.4706 80.5649 71.6499 80.6068 72.8349 80.9649C73.802 81.2623 74.5294 81.8623 75.3868 82.3479C75.9583 82.6717 76.3379 83.3251 76.5949 83.9714C76.7233 84.2946 76.7767 84.6378 77.2472 84.5914C77.37 84.5983 77.4104 84.7464 77.4306 84.8204C77.5792 85.2177 77.393 85.8636 76.9904 86.011C76.615 86.1115 76.2051 86.3801 75.8587 85.9962C75.4849 85.6591 75.5816 85.2757 75.8962 84.953C76.081 84.7446 76.0478 84.4754 75.9049 84.3945C75.5036 84.1046 75.2324 83.7005 74.9061 83.3905C74.349 82.8243 73.6201 82.6619 73.008 82.19C72.6342 81.853 72.1565 82.0207 71.748 81.8519C71.1216 81.6223 70.6178 81.3995 69.8947 81.5533C69.5194 81.6538 69.6623 81.7347 69.6754 81.93C69.7966 82.3742 70.143 82.7583 70.2916 83.1556C70.6423 84.2934 71.328 85.1826 71.8836 86.1861C72.575 87.3916 73.3689 88.53 74.0877 89.6885C74.5827 90.4697 75.2625 91.0426 75.8124 91.7299C75.9279 91.8579 76.0433 91.986 76.0563 92.1811C76.1169 92.4033 76.1631 92.8677 76.5933 92.6731C76.921 92.5457 77.3165 92.5192 77.5488 92.3378C78.1911 91.8878 78.9691 91.6397 79.6994 91.3648C80.9898 90.781 82.2528 90.2443 83.5432 89.6604C84.3011 89.3385 85.0588 89.0164 85.7964 88.6202C86.739 88.0898 87.7146 87.8287 88.6774 87.3722C89.6878 86.9429 90.6304 86.4125 91.5931 85.9562C92.7059 85.4596 93.7437 84.9831 94.8567 84.4865C95.6894 84.1444 96.5223 83.8022 97.2873 83.3591C98.0999 82.943 98.9054 82.6478 99.6905 82.2787C100.551 81.8895 101.411 81.5004 102.271 81.1111C102.954 80.8092 103.609 80.5543 104.292 80.2524C105.18 79.8161 106.108 79.5278 106.9 79.0377C108.28 78.1915 109.789 77.6685 111.141 76.8694C111.756 76.4665 112.499 76.3867 113.067 75.9567C113.326 75.7282 113.334 75.6071 113.205 75.2839C113.036 74.8126 112.587 74.4957 112.514 74.0784C112.341 72.8533 111.607 71.9371 111.154 70.8664C110.85 70.1931 110.62 69.4996 110.241 68.8464C109.745 68.065 109.503 67.1764 109.035 66.348C108.615 65.5466 108.298 64.678 107.878 63.8766C107.634 63.4254 107.588 62.961 107.241 62.5769C107.01 62.3209 106.787 61.9437 106.733 61.6004C106.606 60.8398 106.076 60.2267 105.799 59.5062C105.563 58.9338 105.223 58.4287 104.987 57.8563C104.534 56.7857 104.005 55.7352 103.477 54.6846C103.057 53.8832 102.739 53.0146 102.319 52.2132C102.055 51.688 101.894 51.0956 101.554 50.5903C100.849 49.627 100.546 48.5163 100.065 47.4927C99.4891 46.4152 98.9406 45.2906 98.4195 44.1189C98.2636 43.8427 98.0052 43.6339 97.9446 43.4117C97.3096 41.6746 96.0812 39.9771 95.2558 38.132C94.5859 36.563 93.6637 35.1014 92.8439 33.5726C92.7357 33.3235 92.5999 33.1215 92.4917 32.8723C91.8754 31.6467 90.904 30.5955 90.4927 29.2356C90.4724 29.1615 90.357 29.0335 90.3094 29.0065C89.9904 28.5753 89.4938 28.2315 89.5574 27.5788C89.5645 27.4577 89.5444 27.3836 89.5242 27.3096C89.1243 26.5822 88.6698 25.949 88.2425 25.2688C87.9509 24.7906 87.6868 24.2653 87.3476 23.7601C87.1917 23.484 86.9333 23.275 86.6534 23.4295C85.998 23.6844 85.35 23.8181 84.647 24.0459C83.4937 24.3944 82.3809 24.891 81.2954 25.3405C80.1826 25.837 79.0971 26.2864 78.0593 26.763C77.5542 26.9776 77.1168 27.2934 76.6116 27.508C75.8264 27.8771 75.021 28.1723 74.256 28.6154C74.0785 28.7027 73.9413 28.938 73.7436 28.9513C73.1503 28.9909 72.6379 29.3267 72.153 29.6154C71.4904 29.9914 70.828 30.3675 70.0975 30.6423C69.9201 30.7297 69.7626 30.8909 69.565 30.9041C69.3398 30.9644 69.298 31.2538 69.1002 31.267C68.3366 31.2726 67.8574 31.8778 67.1545 32.1056C66.3491 32.4007 65.5292 32.9381 64.744 33.3072C63.9039 33.7704 62.9484 34.1057 62.1559 34.5959C60.6462 35.5563 59.0758 36.2946 57.5457 37.1809C56.1933 37.9799 54.8134 38.8261 53.4334 39.6722C52.7435 40.0953 52.7637 40.1694 53.4233 40.6682C53.471 40.6953 53.5186 40.7222 53.5662 40.7493C54.0758 41.2882 54.5304 41.9214 55.0125 42.5075C55.4744 43.0197 55.6086 43.6592 55.9954 44.1913C56.2264 44.4473 55.9796 44.8711 56.2856 45.1069C56.7344 45.4238 56.733 45.8613 56.5886 46.2178C56.4717 46.5272 56.0618 46.7959 55.6663 46.8223C55.3935 46.8555 55.128 46.7677 54.9922 46.5657C54.8566 46.3636 54.871 46.1213 55.0558 45.913C55.1582 45.8458 55.1381 45.7717 55.1452 45.6506C54.7946 44.5128 54.5462 43.3078 53.6153 42.4047C53.4045 42.2228 53.1663 42.088 53.0581 41.8387C52.8142 41.3876 52.3509 41.3129 52.0247 41.0029C51.9092 40.8749 51.7591 40.9151 51.5064 41.0224C51.254 41.1298 51.0418 41.3852 50.7414 41.4656C50.1136 41.6734 50.1064 41.7946 50.4181 42.3467C50.7501 42.9731 51.1095 43.5524 51.3665 44.1987C52.2468 45.9496 52.7722 47.8751 53.5228 49.7403C53.6715 50.1374 53.9097 50.2724 54.2099 50.192C55.9491 49.9251 57.1803 50.7477 58.2398 51.974C58.4029 52.129 58.5112 52.3781 58.6541 52.4591C59.2328 52.6617 59.2588 53.052 59.0597 53.5026C58.9427 53.8121 58.26 54.1141 57.9266 53.9252C57.5455 53.7093 57.3146 53.4533 57.5889 52.9826C57.6436 52.8885 57.6234 52.8144 57.583 52.6663C57.2107 51.8918 56.4197 51.9446 55.8005 51.5939C55.3718 51.3511 54.8262 51.4176 54.4177 51.2488C53.8663 50.9991 54.0424 51.3493 54.0279 51.5916C54.0062 51.955 54.3672 52.0967 54.4205 52.4401C54.4941 52.8574 54.6631 53.3286 54.8594 53.753C55.2996 54.6284 55.7398 55.5038 56.0775 56.4465C56.206 56.7697 56.4643 56.9787 56.7097 56.9924C57.2958 57.0739 57.9294 57.1825 58.488 57.311C59.5777 57.6152 60.6747 57.7984 61.4556 58.7416C61.6388 58.9707 61.8756 59.543 62.5583 59.241C62.9884 59.0464 63.2857 59.841 62.9912 60.2377C62.7242 60.5873 62.3764 60.6406 61.9809 60.6671C61.3877 60.7067 61.1971 60.5987 61.2535 60.0671C61.2405 59.872 61.2477 59.7508 61.0572 59.6429C60.6285 59.4001 60.3022 59.0901 59.901 58.8002C59.1938 58.2743 58.2873 58.1991 57.3333 58.097ZM113.797 81.8799C113.716 81.5838 113.355 81.4419 113.322 81.1726C113.302 81.0987 113.206 81.0447 112.981 81.105C112.449 81.3668 111.991 81.6084 111.438 81.7961C110.278 82.2656 109.09 82.7823 107.929 83.2518C106.141 83.9293 104.413 84.8288 102.577 85.4792C101.444 85.9017 100.352 86.4724 99.2662 86.9217C98.2283 87.3983 97.1905 87.8747 96.0848 88.2501C95.7846 88.3305 95.4368 88.3839 95.2318 88.5182C94.8695 88.8139 94.4668 88.9614 94.0367 89.1559C93.1288 89.5183 92.2887 89.9815 91.3808 90.3437C90.1453 90.8333 88.9703 91.5451 87.7074 92.0819C87.2773 92.2766 86.9424 92.525 86.492 92.6457C86.1442 92.699 85.8093 92.9476 85.4542 93.1221C84.8192 93.451 84.1162 93.6789 83.549 94.1089C83.214 94.3574 82.7912 94.4309 82.361 94.6255C81.5008 95.0147 80.6405 95.404 79.8279 95.8201C79.0903 96.2162 78.3325 96.5383 77.5546 96.7862C77.1518 96.9338 76.7896 97.2294 76.2713 97.2489C75.9509 97.2552 75.6421 97.8942 75.8383 98.3184C75.9668 98.6416 76.2742 98.4401 76.4994 98.3798C77.2225 98.2261 77.8576 97.8971 78.5403 97.5952C79.6532 97.0986 80.7589 96.7232 81.8241 96.1996C82.3567 95.9379 82.869 95.602 83.4422 95.4884C84.2952 95.2203 85.0529 94.8982 85.8381 94.5291C86.6984 94.1399 87.511 93.7237 88.3439 93.3816C89.4293 92.9321 90.5075 92.6038 91.5526 92.0062C91.7576 91.8718 91.9149 91.7106 92.1877 91.6772C93.0609 91.4832 93.8533 90.993 94.6862 90.6509C95.8742 90.1342 97.062 89.6175 98.2499 89.101C98.9802 88.8259 99.7786 88.6521 100.441 88.276C100.544 88.2089 100.49 87.8655 100.776 88.0274C101.014 88.1623 101.199 87.954 101.424 87.8937C102.202 87.6457 102.729 87.0677 103.479 86.8668C104.23 86.6658 104.879 86.0946 105.63 85.8936C106.483 85.6257 107.248 85.1825 108.061 84.7663C108.696 84.4373 109.379 84.1354 110.034 83.8805C111.194 83.411 112.267 82.7662 113.475 82.3236C113.748 82.2904 113.905 82.1291 113.797 81.8799ZM47.3522 54.1334C47.2569 54.0795 47.2569 54.0795 47.2093 54.0525C47.5096 53.9721 47.3133 53.5479 47.5384 53.4877C48.1259 53.1318 48.455 52.5669 48.9948 52.1839C49.1248 52.0697 49.2272 52.0025 49.0366 51.8946C48.7307 51.6587 48.8751 51.3022 48.8895 51.06C48.9963 49.6805 48.7827 48.3073 48.9645 46.9077C49.0628 46.0869 49.1133 45.2389 49.2114 44.418C49.288 43.9605 49.3645 43.5029 49.3458 42.9915C49.2736 42.1367 49.2967 41.3359 50.2796 40.9536C50.3547 40.9334 50.3822 40.8864 50.4096 40.8393C50.512 40.7722 50.5669 40.6779 50.499 40.5769C50.4586 40.4288 50.336 40.4219 50.2132 40.4151C49.9679 40.4013 49.8106 40.5626 49.5925 40.5017C48.3931 40.3858 47.3482 40.9834 46.4662 41.736C46.2064 41.9644 45.8918 42.287 45.6117 42.4415C45.0993 42.7773 44.8726 43.2749 44.5984 43.7457C44.2145 44.4047 43.9734 45.1447 43.8001 45.9857C43.5909 47.4324 43.6067 48.8187 43.8954 50.1718C44.0166 50.6161 44.2331 51.1145 44.3543 51.5588C44.4756 52.003 44.8768 52.293 44.9707 52.7844C45.0716 53.1547 45.3907 53.5858 45.7646 53.9227C45.9276 54.0777 46.2207 54.1185 46.3289 54.3677C46.3895 54.5899 46.6277 54.7247 46.7777 54.6846C47.0779 54.6042 47.1949 54.2947 47.3522 54.1334ZM73.9952 97.0239C74.1235 97.3471 74.3473 97.7242 74.496 98.1215C74.5364 98.2696 74.6995 98.4246 74.8092 98.2363C74.9535 97.8799 75.0979 97.5233 75.1195 97.16C75.121 96.7226 75.2451 96.2919 75.362 95.9826C75.5684 95.4108 75.8702 94.893 75.9062 94.2873C75.9207 94.045 75.86 93.823 75.6969 93.6679C74.9969 93.021 74.7819 92.0852 74.1367 91.3441C73.5593 90.704 73.1668 89.8555 72.6443 89.1213C72.2372 88.5151 71.9052 87.8888 71.4982 87.2825C71.0912 86.6763 70.739 85.9759 70.2843 85.3427C70.0332 85.0126 70.0346 84.5752 69.7836 84.2452C69.3014 83.6591 69.1745 82.8984 68.9175 82.2519C68.789 81.9287 68.7833 81.6125 68.2103 81.7262C67.7123 81.8197 67.2143 81.9133 66.6889 82.0539C66.341 82.1072 66.074 82.4569 65.7463 82.5843C65.7189 82.6314 65.6641 82.7256 65.6641 82.7256C65.8951 82.9816 65.6281 83.3312 65.9816 83.5942C66.1722 83.7021 66.3483 84.0522 66.5041 84.3284C66.6803 84.6785 66.5965 85.2572 67.2099 85.2917C67.2576 85.3186 67.2778 85.3927 67.298 85.4668C67.6212 86.6516 68.2449 87.7561 68.8755 88.7395C69.5539 89.7499 70.0548 90.8475 70.7057 91.9049C71.2687 92.7872 71.859 93.6226 72.292 94.6191C72.7596 95.4475 73.4048 96.1886 73.9952 97.0239ZM68.1525 80.6291C67.8552 79.8346 67.223 79.2887 67.0961 78.5281C67.0758 78.454 67.0556 78.3799 67.0079 78.3529C66.5461 77.8409 66.2618 77.2416 65.95 76.6893C65.3063 75.5107 64.7102 74.3591 64.114 73.2076C64.0463 73.1065 63.9784 73.0054 63.8282 73.0457C63.2278 73.2063 62.5869 73.219 62.0745 73.5548C61.9721 73.622 61.9447 73.669 61.8219 73.6621C61.4062 73.6146 61.1868 73.9911 60.927 74.2196C60.7221 74.3539 61.0006 74.6369 61.0411 74.7851C61.1074 75.3235 61.604 75.6673 61.6978 76.1587C61.7714 76.5762 62.0225 76.9062 62.226 77.2094C62.2939 77.3104 62.4368 77.3913 62.4498 77.5865C62.6316 78.2529 62.9361 78.9264 63.4254 79.3913C64.0302 79.9844 64.3073 80.7049 64.6118 81.3782C64.8284 81.8765 65.081 81.7692 65.3336 81.6618C66.1535 81.1244 67.0209 80.6142 68.1525 80.6291ZM58.531 81.3769C58.5237 81.4981 58.694 81.5319 58.7345 81.6801C58.7661 82.3868 59.1804 82.8719 59.5471 83.33C60.185 84.1922 61.1853 84.7589 61.9805 85.4597C62.1437 85.6147 62.376 85.4333 62.4641 85.6084C62.5449 85.9047 62.7499 85.7704 62.8523 85.7032C63.0025 85.663 63.2002 85.6498 63.2147 85.4075C63.1902 84.5797 63.5265 83.8937 63.9104 83.2347C64.0475 82.9993 64.2193 82.5958 64.1717 82.5688C63.7848 82.0367 63.6579 81.276 63.1959 80.7639C62.9174 80.4809 62.6864 80.2249 62.5652 79.7806C62.4843 79.4843 62.3906 78.9929 61.9749 78.9452C61.5592 78.8977 61.0135 78.9642 60.5907 79.0377C59.9426 79.1714 59.3767 79.164 58.7431 79.0554C58.6204 79.0486 58.5122 78.7994 58.3751 79.0348C58.2928 79.176 58.1629 79.2903 58.2711 79.5394C58.3794 79.7885 58.453 80.2059 58.4457 80.327C58.274 80.7306 58.4775 81.0337 58.531 81.3769ZM57.7157 66.1395C57.0054 66.4886 56.8958 66.6768 57.0993 66.98C57.3028 67.2831 57.4515 67.6804 57.5799 68.0036C57.9119 68.6299 58.3189 69.2361 58.5007 69.9026C58.6221 70.3469 58.8933 70.7511 59.0897 71.1753C59.4216 71.8016 59.8286 72.4078 60.0582 73.1013C60.0783 73.1754 60.1389 73.3975 60.2688 73.2833C60.5287 73.0548 60.8968 73.0755 61.1566 72.847C61.5189 72.5514 61.9216 72.4038 62.3921 72.3574C63.5108 72.1771 63.4631 72.15 62.955 71.1737C62.6433 70.6214 62.2089 70.0622 62.0674 69.5438C61.913 68.8303 61.2937 68.4795 61.1393 67.7659C61.0527 67.1534 60.4955 66.5874 60.2387 65.941C60.1377 65.5707 59.9342 65.2676 59.3539 65.5024C58.8761 65.67 58.1804 65.7768 57.7157 66.1395ZM55.9822 64.6568C56.1654 64.8859 56.3892 65.2629 56.6128 65.6401C56.701 65.8152 56.776 65.7952 56.8309 65.701C57.453 65.1768 58.2107 64.8548 58.9483 64.4587C59.3308 64.2372 59.3582 64.19 59.1822 63.8399C58.7896 62.9915 58.4244 62.0958 57.9567 61.2675C57.4689 60.365 57.0561 59.4425 56.5683 58.5401C56.4124 58.2639 56.3445 58.1629 56.0717 58.1962C55.3559 58.2289 54.7077 58.3627 54.1 58.6446C53.8474 58.7519 53.4793 58.7312 53.3147 59.0137C53.1228 59.3432 53.5587 59.4649 53.6396 59.7611C53.6597 59.8351 53.7074 59.8622 53.68 59.9092C53.9974 60.7778 54.4652 61.6061 54.8852 62.4076C55.0411 62.6836 55.3196 62.9667 55.3326 63.1619C55.399 63.7004 55.7455 64.0843 55.9822 64.6568ZM54.654 74.5479C54.7753 74.9921 55.1347 75.5715 55.6991 76.0163C56.2837 76.5353 56.923 76.9601 57.5625 77.385C57.61 77.4119 57.8482 77.5468 57.7876 77.3247C57.7342 76.9814 57.9666 76.8 58.0085 76.5106C58.2221 75.8177 58.5584 75.1318 59.0853 74.5537C59.4548 74.1369 59.3538 73.7667 59.13 73.3895C58.8457 72.7901 58.4863 72.2109 58.2019 71.6116C58.1413 71.3894 58.0331 71.1402 57.7531 71.2947C57.2478 71.5093 56.7976 71.63 56.2317 71.6224C55.448 71.5541 54.6699 71.8021 53.9353 71.3234C53.7924 71.2423 53.6422 71.2826 53.6553 71.4777C53.8905 72.4876 54.1055 73.4232 54.654 74.5479ZM65.9282 91.5151C66.2067 91.7981 66.4579 92.1281 66.7638 92.3641C67.4509 92.8159 68.2751 93.0323 69.0169 93.39C69.5207 93.6128 69.9378 93.223 70.3738 93.3447C70.4964 93.3516 70.4835 93.1563 70.4156 93.0553C70.2799 92.8533 70.1717 92.6042 69.9812 92.4962C69.7906 92.3883 69.6751 92.2602 69.7098 92.092C69.7517 91.8028 69.5886 91.6477 69.4053 91.4187C69.0386 90.9605 68.597 90.5226 68.4628 89.883C68.3819 89.5868 68.1985 89.3577 68.0428 89.0816C67.7309 88.5294 67.3441 87.9972 67.1897 87.2837C67.1291 87.0615 66.9198 86.442 66.4622 86.6837C65.9023 86.9926 65.3638 86.9381 64.7908 87.0517C64.3203 87.0982 64.033 87.3738 64.1268 87.8652C64.2004 88.2825 64.3014 88.6527 64.6002 89.0099C64.6681 89.1109 64.7907 89.1178 64.7359 89.2119C64.5367 89.6625 65.013 89.9324 65.039 90.3227C65.1805 90.8411 65.7592 91.0438 65.9282 91.5151ZM52.238 56.8385C52.3738 57.0406 52.4344 57.2627 52.57 57.4648C52.7865 57.9631 53.1343 57.9098 53.5371 57.7622C54.24 57.5344 54.8824 57.0842 55.6531 56.9574C55.9259 56.9241 55.7629 56.7691 55.7427 56.695C55.5738 56.2237 55.3775 55.7995 55.1812 55.3753C54.7553 54.2576 54.0769 53.2471 53.8288 52.0421C53.6541 51.2546 53.123 51.079 52.3854 51.475C51.8527 51.7368 51.2999 51.9245 50.8149 52.2132C50.7125 52.2804 50.1669 52.347 50.4454 52.63C50.9823 53.1219 50.584 54.0232 51.3808 54.2868C51.2292 54.7643 51.603 55.1014 51.7517 55.4987C51.7979 55.963 52.0418 56.4143 52.238 56.8385ZM53.0823 69.5253C53.3623 69.371 53.459 68.9874 53.5686 68.7992C53.9945 67.8509 54.8144 67.3135 55.4509 66.5471C55.6631 66.2916 55.7179 66.1975 55.5419 65.8474C55.2979 65.3961 54.8491 65.0792 54.7827 64.5408C54.6079 63.7531 54.6354 63.706 53.9181 64.1762C53.9181 64.1762 53.9181 64.1762 53.8429 64.1963C52.8268 64.3094 51.7833 64.4696 50.7686 64.1452C50.5983 64.1113 50.3948 63.8082 50.2576 64.0436C50.1003 64.2049 50.1061 64.5211 50.1392 64.7905C50.2259 65.4029 50.6676 65.841 50.8565 66.3863C51.1135 67.0327 51.3704 67.6791 51.8525 68.2653C52.1238 68.6694 52.4702 69.0534 52.7892 69.4846C52.8571 69.5856 52.9047 69.6127 53.0823 69.5253ZM49.9664 42.9048C49.9967 44.0489 49.9245 45.2602 49.9072 46.3773C49.9115 47.131 49.7657 47.925 49.695 48.6988C49.5967 49.5197 49.5736 50.3205 49.871 51.1151C49.9518 51.4112 50.1221 51.4452 50.327 51.3108C50.6144 51.0353 51.0372 50.9619 51.4125 50.8613C51.8152 50.7138 52.1573 50.3441 52.6957 50.3986C52.866 50.4326 53.2211 50.258 53.0724 49.8608C52.9035 49.3894 52.7621 48.8711 52.5932 48.3998C52.1805 47.4773 51.7676 46.5547 51.4299 45.6121C50.9218 44.6355 50.4817 43.7602 49.9664 42.9048ZM48.8764 61.1951C49.012 61.3971 49.1476 61.5992 49.2631 61.7272C49.3989 61.9293 49.5489 61.8891 49.611 61.6738C49.7294 60.927 50.1061 60.389 50.6056 59.8581C50.9202 59.5354 51.2348 59.2129 51.6447 58.9441C51.8498 58.8098 52.0071 58.6485 51.8036 58.3454C51.4168 57.8133 51.2551 57.2208 51.0935 56.6284C50.8438 55.8609 50.6922 56.3384 50.392 56.4188C49.7438 56.5526 49.1233 56.6392 48.4767 56.3355C48.286 56.2276 48.0956 56.1198 47.9252 56.0858C47.7073 56.0251 47.5167 55.9171 47.5153 56.3545C47.4301 57.3706 47.8905 58.3201 48.1331 59.2087C48.2874 59.9223 48.6194 60.5487 48.8764 61.1951ZM53.7174 62.9983C53.7448 62.9512 54.0855 63.0189 53.9296 62.7427C53.7939 62.5407 53.6857 62.2916 53.5774 62.0424C53.3277 61.2748 52.6205 60.7491 52.5209 59.9413C52.4804 59.7932 52.4054 59.8133 52.2279 59.9005C51.7631 60.2633 51.652 60.8891 51.1193 61.1509C51.0443 61.1709 51.1395 61.2249 51.1122 61.2719C51.2204 61.5212 50.9881 61.7026 50.8105 61.7898C50.428 62.0114 50.5492 62.4557 50.3573 62.7853C50.3024 62.8794 50.4582 63.1555 50.5608 63.0883C50.9634 62.9408 51.1669 63.244 51.4326 63.3318C52.2567 63.5482 52.925 63.4885 53.7174 62.9983ZM56.1105 67.046C56.164 67.3893 56.1972 67.6585 55.7815 67.6108C55.6587 67.604 55.4062 67.7113 55.3441 67.9266C55.2821 68.1418 55.1925 68.4043 55.0352 68.5656C54.6455 68.9083 54.5213 69.3388 54.2744 69.7625C54.1374 69.9979 54.1907 70.3411 54.4838 70.3818C54.9948 70.4835 55.4855 70.511 56.0167 70.6867C56.4526 70.8084 56.9304 70.6407 57.3129 70.4192C57.5178 70.2848 57.5251 70.1638 57.5121 69.9686C57.4731 69.3831 57.0314 68.945 56.8899 68.4267C56.6937 68.0025 56.4772 67.5041 56.1105 67.046ZM60.4652 75.7735C60.3497 75.6456 60.2617 75.4705 60.1259 75.2684C60.0379 75.0933 59.8401 75.1065 59.7578 75.2477C59.5385 75.6243 59.1762 75.92 59.2224 76.3843C59.2685 76.8488 58.9336 77.0974 58.7893 77.4538C58.645 77.8103 58.7128 77.9114 58.9784 77.9992C59.6799 78.2088 60.3554 78.028 61.0512 77.9212C61.399 77.8678 61.386 77.6726 61.2503 77.4705C61.0613 76.9252 60.7494 76.3729 60.4652 75.7735ZM49.666 53.3154C49.5851 53.0192 49.4422 52.9383 49.2099 53.1197C49.08 53.2339 48.9501 53.3481 48.8404 53.5365C48.5661 54.0071 48.2919 54.4779 48.0176 54.9487C47.8804 55.184 48.0233 55.2649 48.2211 55.2517C48.8144 55.2121 49.4278 55.2466 50.0211 55.2069C50.1437 55.2139 50.2939 55.1737 50.2534 55.0255C50.1727 54.7294 50.0168 54.4532 50.011 54.137C49.9777 53.8677 49.6226 54.0422 49.7049 53.9009C49.8897 53.6926 49.7541 53.4906 49.666 53.3154ZM64.9525 83.512C64.3636 84.3053 64.2452 85.0522 64.1745 85.8261C64.1326 86.1154 64.2351 86.0483 64.453 86.109C65.0117 86.2377 65.3407 85.6729 65.8314 85.7004C65.9542 85.7072 66.1188 85.4248 65.9556 85.2698C65.6092 84.8858 65.5904 84.3743 65.169 84.0103C65.1489 83.9362 64.8284 83.9425 64.9525 83.512Z" fill="#4C005B"/>
<path d="M96.1833 85.3631C96.524 85.4309 96.7362 85.1754 97.0638 85.048C97.9717 84.6858 98.8796 84.3236 99.6995 83.7863C100.464 83.3431 101.29 83.122 102.048 82.8001C102.225 82.7128 102.218 82.8339 102.286 82.9349C101.616 83.4321 100.858 83.7541 100.101 84.0761C99.3156 84.4452 98.5303 84.8144 97.7927 85.2105C97.4852 85.412 97.11 85.5125 96.7073 85.6599C95.5944 86.1565 94.4743 86.7742 93.3139 87.2438C92.1808 87.6663 91.2311 88.3178 90.173 88.7203C89.3676 89.0153 88.6027 89.4585 87.8174 89.8276C87.2574 90.1364 86.6973 90.4452 86.0695 90.653C85.3391 90.9281 84.717 91.4522 83.9866 91.7271C83.1061 92.0423 82.3816 92.6335 81.5011 92.9486C80.8458 93.2035 80.2308 93.6066 79.5958 93.9355C79.5756 93.8615 79.528 93.8344 79.5078 93.7605C79.7344 93.2626 80.2525 93.2432 80.635 93.0216C81.4275 92.5313 82.308 92.2162 83.1004 91.7259C84.0703 91.1485 85.1082 90.672 86.0983 90.1686C86.8633 89.7254 87.7236 89.3362 88.5088 88.9671C89.3691 88.5779 90.2365 88.0675 91.1444 87.7053C91.9022 87.3832 92.7351 87.0411 93.4726 86.645C94.3401 86.1347 95.2884 85.9206 96.0607 85.3562C96.1083 85.3833 96.1357 85.3362 96.1833 85.3631Z" fill="#4C005B"/>
<path d="M67.9525 56.7245C67.7835 56.2532 67.4574 55.9432 67.2337 55.566C66.9218 55.0138 66.6852 54.4415 66.4485 53.869C66.1915 53.2226 65.8595 52.5964 65.6027 51.95C65.265 51.0073 64.8521 50.0848 64.4394 49.1622C63.7624 47.7145 63.1606 46.2466 62.3061 44.8861C62.0824 44.5089 61.9337 44.1116 61.6623 43.7075C61.4387 43.3304 61.8962 43.0887 62.1488 42.9814C63.1245 42.7201 63.9242 42.1088 64.8797 41.7735C65.5827 41.5457 66.3331 41.3448 66.8731 40.9618C67.3855 40.626 67.9859 40.4652 68.5184 40.2034C69.0035 39.9147 69.604 39.7541 70.1365 39.4923C71.4543 38.8613 72.7044 38.1294 74.09 37.5996C74.9705 37.2845 75.8105 36.8211 76.6708 36.432C77.8111 35.8884 78.9514 35.3447 80.0917 34.8011C80.9317 34.3378 81.8122 34.0227 82.7201 33.6605C83.2253 33.4458 83.6627 33.1301 84.1678 32.9153C84.7755 32.6335 85.4106 32.3046 86.0659 32.0497C86.3185 31.9424 86.5581 31.6398 86.7963 31.7748C87.2249 32.0176 87.606 32.2335 87.8701 32.7587C88.3984 33.8092 88.8242 34.9269 89.3524 35.9775C89.8128 36.9269 90.2459 37.9236 90.6789 38.9201C91.044 39.8157 91.4568 40.7382 91.9245 41.5666C92.5003 42.6441 93.199 43.7285 93.4198 44.9806C93.5669 45.8153 93.4025 46.0977 92.6649 46.4938C91.5996 47.0174 90.4463 47.3657 89.3739 48.0105C88.759 48.4134 88.0012 48.7355 87.3734 48.9432C86.5203 49.2113 85.6875 49.5535 84.9023 49.9226C84.2196 50.2246 83.5845 50.5535 82.9017 50.8555C82.1439 51.1775 81.3587 51.5467 80.5533 51.8417C79.898 52.0966 79.2153 52.3985 78.648 52.8285C78.3131 53.077 77.9104 53.2245 77.5351 53.3251C76.5046 53.6803 75.6774 54.3388 74.7148 54.7951C73.6496 55.3187 72.6045 55.9163 71.6345 56.4937C71.0745 56.8026 70.487 57.1585 69.927 57.4674C69.0667 57.8566 68.5831 57.7079 68.1905 56.8595C67.9452 56.8456 67.9525 56.7245 67.9525 56.7245ZM87.3577 33.0945C86.8901 32.2662 86.5293 32.1243 85.9346 32.6013C85.3399 33.0784 84.6774 33.4544 84.0221 33.7093C83.0116 34.1387 81.9738 34.6151 80.936 35.0916C79.8232 35.5881 78.7377 36.0376 77.6451 36.6083C77.1875 36.8499 76.6549 37.1116 76.1498 37.3264C75.6719 37.4939 75.1668 37.7087 74.7092 37.9504C74.0943 38.3533 73.4116 38.6553 72.7289 38.9572C71.7936 39.3666 70.9333 39.7557 69.9979 40.1651C68.7827 40.7288 67.5673 41.2924 66.3043 41.8292C65.4989 42.1243 64.6458 42.3923 63.9285 42.8625C63.5186 43.1312 62.9802 43.0766 62.5703 43.3453C62.2902 43.4997 62.2556 43.6679 62.3912 43.8699C62.9528 45.1898 63.7393 46.4492 64.3758 47.7489C64.9445 48.9476 65.4381 50.1663 65.9794 51.412C66.5481 52.6107 67.0894 53.8565 67.658 55.0551C67.8947 55.6274 68.3089 56.1125 68.5456 56.6848C68.7347 57.2302 68.9931 57.4392 69.4781 57.1505C69.7581 56.9961 70.0381 56.8416 70.3456 56.6402C71.1178 56.0758 71.9579 55.6126 72.7979 55.1494C73.713 54.666 74.6556 54.1355 75.5706 53.6522C76.6633 53.0816 77.7834 52.4639 78.8963 51.9674C79.579 51.6654 80.3093 51.3904 80.917 51.1086C82.46 50.4174 83.9828 49.6523 85.546 49.0351C86.3789 48.693 87.1914 48.2768 88.0243 47.9346C89.4922 47.2636 90.9328 46.6396 92.4007 45.9685C92.6533 45.8612 92.9059 45.7538 92.7774 45.4306C92.5277 44.6632 92.2781 43.8956 91.9259 43.1952C91.5939 42.5689 91.1869 41.9627 90.9574 41.2693C90.4912 40.0034 89.7724 38.845 89.2788 37.6262C88.9612 36.7576 88.5413 35.9562 88.1486 35.1078C87.8715 34.3873 87.5193 33.6869 87.3577 33.0945Z" fill="#4C005B"/>
<path d="M106.761 73.9498C105.845 74.4331 105.013 74.7753 104.207 75.0703C103.204 75.3786 102.261 75.909 101.258 76.2173C100.555 76.4452 99.8452 76.7943 99.2982 77.2983C98.9834 77.6208 98.4249 77.4923 98.0713 77.2293C97.2485 76.5755 97.3135 75.4853 96.6684 74.7441C96.5529 74.6162 96.4374 74.4881 96.397 74.34C96.3364 74.1179 96.0376 73.7608 96.6583 73.6742C97.1288 73.6276 97.5185 73.2849 97.8808 72.9893C98.0857 72.8549 98.2705 72.6466 98.5837 72.7614C98.6458 72.5462 98.8912 72.5599 99.0687 72.4727C99.7312 72.0967 100.434 71.8687 101.117 71.5668C101.977 71.1776 102.953 70.9164 103.705 70.278C103.965 70.0495 104.415 69.929 104.79 69.8286C105.043 69.7212 105.268 69.6609 105.501 69.4795C105.91 69.2109 106.074 69.3659 106.27 69.7901C106.378 70.0392 106.561 70.2683 106.67 70.5174C107.049 71.1707 107.476 71.8511 107.631 72.5645C107.771 73.5204 107.621 73.5605 106.761 73.9498ZM97.8996 73.5008C96.8892 73.9302 96.9094 74.0043 97.377 74.8326C97.5329 75.1087 97.6815 75.506 97.7826 75.8763C98.0453 76.8389 98.549 77.0617 99.4165 76.5513C100.127 76.2024 100.789 75.8263 101.52 75.5514C102.175 75.2965 102.925 75.0956 103.465 74.7127C104.155 74.2896 104.974 74.1897 105.616 73.7397C105.848 73.5583 106.278 73.3637 106.654 73.2633C106.879 73.203 107.186 73.0015 107.078 72.7524C106.902 72.4021 106.876 72.0117 106.673 71.7087C106.354 71.2775 106.11 70.8263 105.996 70.2609C105.935 70.0387 105.772 69.8837 105.547 69.944C105.124 70.0175 104.653 70.0639 104.393 70.2923C103.641 70.9308 102.721 71.0978 101.908 71.5139C101.655 71.6214 101.423 71.8028 101.123 71.883C100.795 72.0105 100.42 72.111 100.092 72.2385C99.252 72.7017 98.6502 73.2999 97.8996 73.5008Z" fill="#4C005B"/>
<path d="M79.4996 28.2051C79.055 28.6419 78.3997 28.8968 77.8873 29.2326C77.0675 29.7699 76.187 30.085 75.2992 30.5213C73.4489 31.4141 71.6056 32.1855 69.7754 33.1522C68.8602 33.6356 67.9928 34.146 67.1253 34.6562C65.8753 35.3882 64.5301 36.0661 63.2801 36.7981C61.7775 37.6373 60.2951 38.5507 58.8402 39.4169C58.4577 39.6384 58.0622 39.6648 57.7273 39.9134C57.5498 40.0007 57.2842 39.9128 57.1486 39.7108C57.0605 39.5356 57.3333 39.5024 57.4358 39.4352C58.4534 38.8847 59.546 38.314 60.6113 37.7906C60.9663 37.6161 61.2261 37.3876 61.5812 37.2131C63.5414 36.1322 65.5491 35.0782 67.4616 33.9703C68.6091 33.3056 69.7365 32.5667 70.9517 32.003C72.0647 31.5064 73.0693 30.7608 74.2976 30.3921C74.7479 30.2716 75.165 29.8819 75.6703 29.6671C76.5579 29.2309 77.4932 28.8216 78.381 28.3853C78.8385 28.1436 79.2686 27.949 79.7262 27.7073C79.9037 27.6201 80.1563 27.5128 80.2444 27.6878C80.3324 27.8629 80.0798 27.9702 79.9499 28.0845C79.7998 28.1247 79.7176 28.2659 79.4996 28.2051Z" fill="#4C005B"/>
<path d="M75.5068 60.5031C76.3324 60.282 76.9546 59.7579 77.7123 59.436C78.395 59.1339 79.0374 58.6839 79.6724 58.355C80.5601 57.9187 81.4276 57.4083 82.22 56.9181C82.91 56.495 83.7558 56.3481 84.4256 55.851C85.4577 55.0582 86.6658 54.6156 87.806 54.072C88.4137 53.7902 89.069 53.5353 89.7041 53.2063C89.9567 53.099 90.2973 53.1667 90.5572 52.9382C90.6596 52.871 90.8775 52.9319 90.9454 53.0329C91.0133 53.1339 90.8357 53.2213 90.7332 53.2884C89.8455 53.7247 88.9304 54.2081 88.0427 54.6444C86.9025 55.188 85.7622 55.7316 84.6421 56.3493C83.6519 56.8527 82.7296 57.4572 81.787 57.9876C81.3021 58.2764 80.7968 58.491 80.2917 58.7058C79.1239 59.2965 77.9361 59.8131 76.7683 60.4038C76.3382 60.5984 75.9427 60.6248 75.5068 60.5031Z" fill="#4C005B"/>
<path d="M103.268 58.1974C102.947 58.2037 102.907 58.0556 102.771 57.8535C102.21 56.5338 101.573 55.2341 100.937 53.9344C100.152 52.2375 99.2913 50.5606 98.4585 48.8367C98.154 48.1632 97.8769 47.4429 97.5449 46.8165C97.0974 46.0621 96.9502 45.2275 96.3729 44.5874C96.2574 44.4594 96.3397 44.3182 96.2992 44.17C96.2314 44.069 95.973 43.86 96.1506 43.7728C96.3555 43.6385 96.6067 43.9686 96.6269 44.0426C97.1407 45.3354 97.8321 46.541 98.4484 47.7666C99.0647 48.9922 99.5237 50.3792 100.215 51.5847C100.839 52.6892 101.237 53.854 101.813 54.9315C102.341 55.9821 102.767 57.0998 103.268 58.1974Z" fill="#4C005B"/>
<path d="M79.7002 62.44C82.9089 61.0647 86.0569 59.467 89.3536 58.2667C86.334 60.1874 83.173 61.5899 79.7002 62.44Z" fill="#4C005B"/>
<path d="M90.2405 84.6892C86.4098 86.5888 82.4982 88.192 78.5664 89.7213C82.3698 87.8688 86.241 86.1174 90.2405 84.6892Z" fill="#4C005B"/>
<path d="M96.2958 82.234C95.7343 82.9803 95.0315 83.2081 94.288 83.288C94.0903 83.3011 93.933 83.4625 93.8031 83.5767C93.7006 83.6439 93.5779 83.637 93.5101 83.536C93.4423 83.435 93.5447 83.3678 93.5721 83.3207C93.5996 83.2735 93.6472 83.3006 93.6746 83.2535C94.5276 82.9854 95.232 82.3201 96.2958 82.234Z" fill="#4C005B"/>
<path d="M82.4907 26.7688C82.8805 26.4261 83.3986 26.4066 83.761 26.1109C83.8909 25.9967 84.0886 25.9835 84.1766 26.1586C84.285 26.4077 84.0395 26.3939 83.937 26.4611C83.6094 26.5885 83.2818 26.7159 82.9541 26.8434C82.8517 26.9106 82.6265 26.9708 82.4907 26.7688Z" fill="#4C005B"/>
<path d="M78.0327 69.7599C78.2765 70.2111 78.0644 70.4665 77.8046 70.695C77.6473 70.8564 77.539 70.6072 77.5188 70.5332C77.3427 70.183 77.5346 69.8535 77.8421 69.6519C77.897 69.5578 78.0673 69.5917 78.0327 69.7599Z" fill="#4C005B"/>
<path d="M93.3659 79.7603C93.1825 79.5313 93.0195 79.3763 92.8837 79.1741C92.816 79.0731 92.6528 78.9181 92.7625 78.7299C92.8448 78.5886 93.0151 78.6225 93.1855 78.6564C93.3284 78.7373 93.5463 78.7982 93.5319 79.0404C93.5175 79.2827 93.5303 79.4778 93.3659 79.7603Z" fill="#4C005B"/>
<path d="M92.3658 64.7313C92.5908 64.671 92.8507 64.4426 92.9113 64.6647C92.9994 64.8397 92.8074 65.1692 92.6025 65.3036C92.4249 65.3909 92.1998 65.4512 92.0915 65.2021C92.0107 64.9058 92.2156 64.7714 92.3658 64.7313Z" fill="#4C005B"/>
<path d="M104.629 60.9718C104.975 61.3559 105.226 61.686 105.15 62.1436C104.974 61.7933 104.47 61.5706 104.629 60.9718Z" fill="#4C005B"/>
<path d="M98.3651 54.5433C98.5556 54.6513 98.8155 54.4228 98.8689 54.7661C98.9295 54.9883 98.7244 55.1227 98.5945 55.2369C98.492 55.304 98.3565 55.1019 98.3363 55.0279C98.2481 54.8528 98.3304 54.7115 98.3651 54.5433Z" fill="#4C005B"/>
<path d="M76.1663 75.4643C76.3165 75.4242 76.4594 75.5051 76.4521 75.6262C76.4651 75.8215 76.4708 76.1377 76.2659 76.2721C76.0883 76.3593 76.1028 76.117 76.0349 76.016C75.8791 75.7399 76.084 75.6056 76.1663 75.4643Z" fill="#4C005B"/>
<path d="M104.104 83.4017C104.071 83.1325 104.344 83.0992 104.494 83.059C105.47 82.7979 106.297 82.1394 107.361 82.0533C107.765 81.4683 108.514 81.7048 109.006 81.295C109.239 81.1135 109.532 81.1543 109.804 81.121C109.77 81.2892 109.62 81.3294 109.517 81.3966C108.582 81.8059 107.599 82.1882 106.616 82.5705C105.961 82.8254 105.305 83.0803 104.623 83.3822C104.397 83.4425 104.22 83.5298 104.104 83.4017Z" fill="#4C005B"/>
<path d="M79.555 93.7873C79.5752 93.8614 79.6229 93.8884 79.643 93.9625C79.0829 94.2713 78.4075 94.4521 77.8878 94.909C77.758 95.0233 77.54 94.9624 77.3423 94.9756C78.0323 94.5525 78.6471 94.1495 79.3371 93.7265C79.4121 93.7065 79.5074 93.7604 79.555 93.7873Z" fill="#4C005B"/>
<path d="M92.6135 88.6629C91.8557 88.9849 91.0502 89.28 90.2651 89.6491C90.2449 89.575 90.2449 89.575 90.2246 89.5009C90.9825 89.179 91.7676 88.8099 92.5731 88.5147C92.5457 88.5618 92.5932 88.5888 92.6135 88.6629Z" fill="#4C005B"/>
<path d="M104.104 83.4017C104.125 83.4758 104.077 83.4487 104.104 83.4017C103.517 83.7576 102.834 84.0595 102.159 84.2403C102.671 83.9045 103.299 83.6967 103.811 83.3609C103.914 83.2937 104.029 83.4218 104.104 83.4017Z" fill="#4C005B"/>
<path d="M100.213 85.0791C100.63 84.6893 101.135 84.4746 101.708 84.361C101.311 84.8248 100.65 84.7633 100.213 85.0791Z" fill="#4C005B"/>
<path d="M69.0206 44.9958C69.9631 44.4654 70.8032 44.0021 71.6908 43.5658C72.2235 43.304 72.7835 42.9952 73.3637 42.7604C73.944 42.5257 74.4838 42.1427 75.0915 41.8609C76.0744 41.4786 76.9492 40.847 77.9321 40.4647C79.5703 39.8276 81.1682 39.0422 82.8267 38.4791C83.4545 38.2713 83.9872 38.0096 84.5674 37.7747C84.7925 37.7145 84.8878 37.7684 85.0235 37.9706C85.227 38.2737 84.9139 38.1588 84.8387 38.1789C84.3062 38.4407 83.7938 38.7765 83.1731 38.8632C82.9003 38.8965 82.5249 38.9969 82.2652 39.2254C81.8754 39.5681 81.2418 39.4596 80.8044 39.7753C80.0872 40.2456 79.2614 40.4665 78.4763 40.8356C77.9163 41.1444 77.3287 41.5003 76.6604 41.5601C76.2375 41.6336 75.9705 41.9832 75.5678 42.1306C74.3048 42.6675 73.0621 43.2782 71.8193 43.889C71.1092 44.238 70.3514 44.5601 69.6686 44.862C69.341 44.9895 68.9932 45.0428 68.7334 45.2713C68.6308 45.3385 68.4331 45.3517 68.4129 45.2776C68.3249 45.1026 68.4749 45.0623 68.6251 45.0222C68.768 45.1031 68.9456 45.0159 69.0206 44.9958Z" fill="#4C005B"/>
<path d="M70.9746 47.7306C75.0321 45.3334 79.1631 43.3534 83.5655 41.7777C83.2637 42.2955 82.7657 42.389 82.3832 42.6107C81.4956 43.047 80.6555 43.5102 79.7953 43.8994C78.9898 44.1945 78.2248 44.6377 77.4671 44.9596C76.8594 45.2415 76.1492 45.5905 75.5343 45.9935C75.0219 46.3294 74.3392 46.6313 73.6363 46.8592C73.1109 46.9998 72.6461 47.3626 72.1134 47.6244C71.7656 47.6778 71.4784 47.9533 70.9746 47.7306Z" fill="#4C005B"/>
<path d="M70.0267 54.1428C70.1075 54.4391 70.3111 54.7422 69.9286 54.9637C69.6485 55.1182 69.3902 54.9092 69.3296 54.6871C69.2213 54.438 69.4334 54.1825 69.6385 54.0481C69.7885 54.008 69.9387 53.9678 70.0267 54.1428Z" fill="#4C005B"/>
<path d="M68.3606 50.695C68.2452 50.5671 67.9998 50.5533 67.9392 50.3311C67.8583 50.0349 67.8526 49.7185 68.1601 49.5171C68.2899 49.4029 68.4733 49.6319 68.466 49.753C68.4242 50.0424 68.798 50.3794 68.3606 50.695Z" fill="#4C005B"/>
<path d="M87.4931 43.6269C87.2882 43.7612 87.1929 43.7072 87.1048 43.5321C86.9489 43.256 87.1467 43.2428 87.3243 43.1555C87.5566 42.9742 87.6172 43.1962 87.7327 43.3243C87.916 43.5534 87.4527 43.4788 87.4931 43.6269Z" fill="#4C005B"/>
</g>
</g>
</g>
<defs>
<linearGradient id="paint0_linear_53_817" x1="-19" y1="100" x2="1421" y2="100" gradientUnits="userSpaceOnUse">
<stop stop-color="#EEAD1F"/>
<stop offset="1" stop-color="#4C005B"/>
</linearGradient>
<clipPath id="clip0_53_817">
<rect width="1421" height="200" fill="white"/>
</clipPath>
</defs>
</svg>
