<svg width="32" height="32" viewBox="0 0 32 32" fill="none" xmlns="http://www.w3.org/2000/svg">
<g id="Group 1000010208">
<g id="Group 1000010206">
<path id="Vector" d="M21.1737 4.70333C21.1888 4.40805 21.1668 4.12723 21.2225 3.86224C21.387 3.08447 22.0822 2.59991 22.8786 2.67424C23.6061 2.74307 24.1815 3.38319 24.218 4.16853C24.2256 4.33922 24.218 4.51267 24.218 4.72535C24.3329 4.72535 24.4314 4.72535 24.5298 4.72535C25.1644 4.7343 25.8114 4.66892 26.4322 4.76734C28.1075 5.03234 29.1854 6.35041 29.1992 8.0622C29.2088 9.37684 29.1992 10.6908 29.1992 12.0054C29.1992 16.3435 29.1992 20.6818 29.1992 25.0203C29.1992 26.0252 28.8867 26.8911 28.144 27.5787C27.5534 28.1422 26.7659 28.4524 25.9497 28.4432C19.7496 28.4432 13.5501 28.426 7.35001 28.4542C5.67057 28.4618 3.98632 27.141 4.00008 25.1229C4.00972 23.7828 4.00008 22.4427 4.00008 21.1026C4.00008 16.7815 4.00008 12.4604 4.00008 8.13929C4.00008 7.12337 4.3222 6.25405 5.07932 5.56645C5.65818 5.04128 6.3389 4.7405 7.12837 4.73086C7.73544 4.72191 8.34321 4.73086 8.96129 4.73086C8.98263 4.44109 8.98332 4.17541 9.02531 3.9173C9.15264 3.13333 9.83887 2.61918 10.6607 2.67493C11.3937 2.72518 12.0008 3.3825 12.0139 4.14375C12.0139 4.32339 12.0139 4.50372 12.0139 4.70539L21.1737 4.70333ZM8.97024 5.57058C8.25373 5.57058 7.5441 5.50175 6.85236 5.58641C5.80341 5.71168 4.8164 6.64913 4.82053 8.1386C4.83361 13.7654 4.82466 19.3922 4.8281 25.0197C4.82322 25.2507 4.84399 25.4815 4.89004 25.7079C5.15916 26.8877 6.10488 27.6221 7.3562 27.6228C10.9202 27.6269 14.4839 27.6269 18.0474 27.6228C20.7088 27.6228 23.3702 27.6212 26.0316 27.618C26.5617 27.6154 27.0738 27.4252 27.477 27.0811C28.1364 26.5422 28.3897 25.8291 28.3883 24.9907C28.3815 20.861 28.3815 16.7289 28.3883 12.5946C28.3883 11.0996 28.3925 9.60466 28.3883 8.11038C28.3828 6.78197 27.6037 5.76192 26.362 5.58435C25.6799 5.48661 24.9744 5.55544 24.2799 5.55062C24.2669 5.55062 24.2538 5.57058 24.2256 5.59467C24.2256 5.73233 24.2256 5.88926 24.2256 6.04275C24.2015 6.92514 23.5373 7.59485 22.692 7.58521C21.8351 7.57626 21.2019 6.91413 21.1957 6.01935C21.1957 5.86723 21.1957 5.71512 21.1957 5.56232H12.0201C12.0201 5.75573 12.0201 5.92642 12.0201 6.09781C12.0077 6.89829 11.4123 7.51982 10.6008 7.58039C10.2295 7.60549 9.86231 7.49091 9.57119 7.25914C9.28008 7.02737 9.08611 6.69515 9.02737 6.3277C8.98814 6.08198 8.98882 5.83213 8.97024 5.57058ZM11.2031 5.12044C11.2031 4.8286 11.2031 4.53676 11.2031 4.24493C11.1982 3.78377 10.9277 3.48781 10.5148 3.48781C10.1018 3.48781 9.82647 3.78928 9.81133 4.24493C9.80514 4.52024 9.81133 4.79556 9.81133 5.07088C9.81133 5.41502 9.79619 5.75917 9.81959 6.10332C9.8485 6.52249 10.1637 6.79161 10.5526 6.76958C10.9415 6.74756 11.1982 6.46398 11.2051 6.05238C11.2072 5.73852 11.2031 5.43292 11.2031 5.12112V5.12044ZM22.0093 5.13076V6.00627C22.0161 6.46398 22.2908 6.76339 22.6975 6.76752C23.1043 6.77165 23.39 6.46674 23.4017 6.0104C23.4092 5.7103 23.4017 5.40952 23.4017 5.10942C23.4017 4.80933 23.4113 4.50855 23.4017 4.20845C23.3831 3.77276 23.0906 3.48574 22.6893 3.49056C22.288 3.49538 22.0154 3.78721 22.0106 4.23116C22.0037 4.53126 22.0072 4.83135 22.0065 5.13145L22.0093 5.13076Z" fill="#121212"/>
<path id="Vector_2" d="M16.5922 24.0217C16.1379 24.0217 15.6836 24.0217 15.2287 24.0217C14.859 24.0217 14.7193 23.8793 14.7179 23.5035C14.7138 22.5944 14.7138 21.6852 14.7179 20.7758C14.7179 20.411 14.8742 20.2616 15.2404 20.2602C16.1498 20.257 17.0588 20.257 17.9674 20.2602C18.3349 20.2602 18.4891 20.4096 18.4912 20.7744C18.4958 21.6921 18.4958 22.6098 18.4912 23.5275C18.4912 23.882 18.3425 24.0176 17.9818 24.0211C17.5186 24.0252 17.0554 24.0217 16.5922 24.0217ZM17.6528 23.191V21.0917H15.5528V23.191H17.6528Z" fill="#121212"/>
<path id="Vector_3" d="M16.6061 14.0446C17.0604 14.0446 17.5147 14.0446 17.9696 14.0446C18.3461 14.0446 18.4893 14.1823 18.4914 14.5533C18.496 15.4627 18.496 16.3722 18.4914 17.2817C18.4914 17.6616 18.3386 17.8075 17.9538 17.8089C17.0535 17.8116 16.153 17.8116 15.2523 17.8089C14.8689 17.8089 14.7188 17.6602 14.7175 17.2789C14.7133 16.3694 14.7133 15.4602 14.7175 14.5512C14.7175 14.1919 14.8613 14.0501 15.2158 14.0453C15.6797 14.0405 16.1429 14.0446 16.6061 14.0446ZM17.6572 16.9788V14.8823H15.553V16.9788H17.6572Z" fill="#121212"/>
<path id="Vector_4" d="M16.581 10.9867H10.9914C10.8886 10.9903 10.7858 10.986 10.6837 10.9737C10.5923 10.965 10.5077 10.9217 10.4471 10.8528C10.3865 10.7839 10.3544 10.6944 10.3575 10.6027C10.3485 10.3893 10.4511 10.2393 10.6679 10.1897C10.7608 10.1732 10.8551 10.1663 10.9494 10.1691H22.2574C22.343 10.167 22.4286 10.1718 22.5134 10.1835C22.744 10.2214 22.8576 10.3687 22.8527 10.5965C22.8565 10.6927 22.8219 10.7865 22.7566 10.8573C22.6914 10.9282 22.6007 10.9702 22.5045 10.9744C22.4107 10.9834 22.3164 10.9867 22.2223 10.984L16.581 10.9867Z" fill="#121212"/>
<path id="Vector_5" d="M11.9278 15.9434C11.9278 16.4066 11.9319 16.8698 11.9278 17.3331C11.9237 17.6552 11.7777 17.8066 11.4529 17.8087C10.5182 17.8142 9.58347 17.8142 8.64876 17.8087C8.32114 17.8087 8.16696 17.64 8.16696 17.3076C8.16375 16.3812 8.16375 15.4547 8.16696 14.5283C8.16696 14.2055 8.31632 14.0499 8.63775 14.0465C9.58071 14.0405 10.5239 14.0405 11.4673 14.0465C11.7936 14.0465 11.9264 14.1931 11.9298 14.5283C11.9312 15.0004 11.9278 15.4719 11.9278 15.9434ZM11.0949 14.8889H8.99979V16.9731H11.0949V14.8889Z" fill="#121212"/>
<path id="Vector_6" d="M21.2817 15.9293C21.2817 15.4661 21.2817 15.0029 21.2817 14.5397C21.2817 14.19 21.4152 14.0489 21.758 14.0469C22.6927 14.0413 23.6274 14.0413 24.5621 14.0469C24.9 14.0469 25.0439 14.2003 25.0439 14.541C25.0471 15.4588 25.0471 16.3765 25.0439 17.2942C25.0439 17.6439 24.8897 17.8056 24.5456 17.8077C23.6191 17.8132 22.6929 17.8132 21.7669 17.8077C21.4228 17.8077 21.2851 17.6583 21.2796 17.319C21.2782 16.8585 21.2817 16.3926 21.2817 15.9293ZM24.22 14.8845H22.12V16.9769H24.22V14.8845Z" fill="#121212"/>
<path id="Vector_7" d="M11.9274 22.1473C11.9274 22.6106 11.9274 23.0738 11.9274 23.537C11.9274 23.8812 11.7898 24.0188 11.4456 24.0188C10.5192 24.0229 9.59298 24.0229 8.667 24.0188C8.31321 24.0188 8.16799 23.8694 8.16662 23.5164C8.16386 22.5986 8.16386 21.6809 8.16662 20.7632C8.16662 20.419 8.32699 20.26 8.6732 20.258C9.59092 20.2539 10.5086 20.2539 11.4264 20.258C11.7822 20.258 11.9281 20.4046 11.9316 20.7563C11.9309 21.2209 11.9274 21.6841 11.9274 22.1473ZM11.096 21.0943H8.99807V23.1798H11.096V21.0943Z" fill="#121212"/>
</g>
</g>
</svg>
