<svg width="24" height="24" viewBox="0 0 24 24" fill="none" xmlns="http://www.w3.org/2000/svg">
<path d="M6.83203 20.8619C9.83239 20.7338 12.5658 19.8209 14.9849 18.037C17.9634 15.8406 19.85 12.916 20.6606 9.29779C20.8707 8.35903 20.9597 7.40705 20.9968 6.44744C21.0624 4.73825 20.115 3.77254 18.8035 3.29757C18.4175 3.1562 18.0162 3.06095 17.6079 3.01381C16.9468 2.94261 16.3737 3.14348 15.948 3.69219C15.3993 4.39957 14.8415 5.10033 14.2856 5.80211C13.532 6.75358 13.5788 7.80473 14.4163 8.68551C14.6706 8.95249 14.9172 9.22609 15.1791 9.48595C15.2834 9.58766 15.2976 9.68936 15.2732 9.82667C15.1647 10.3958 14.9357 10.935 14.6014 11.4082C13.4969 13.0177 12.071 14.2397 10.2468 14.968C9.76729 15.1582 9.76272 15.1449 9.38691 14.7854C9.17129 14.5789 8.95415 14.3745 8.737 14.1696C8.39043 13.8367 7.9362 13.6388 7.45642 13.6117C6.97665 13.5845 6.503 13.7299 6.12109 14.0216C5.30031 14.6517 4.48564 15.2899 3.69131 15.954C3.28804 16.2907 3.14208 16.7855 3.17158 17.294C3.22803 18.2602 3.53061 19.1476 4.16832 19.8936C4.7277 20.5446 5.4544 20.8385 6.29959 20.865C6.47656 20.8665 6.65404 20.8619 6.83203 20.8619ZM6.62861 20.0315H6.36214C5.57628 20.0345 4.97061 19.7052 4.54514 19.0434C4.23239 18.5542 4.06355 18.01 3.98575 17.441C3.93489 17.085 3.99134 16.7361 4.2985 16.492C5.04435 15.8998 5.79241 15.3111 6.54267 14.7259C7.08324 14.3033 7.7123 14.3409 8.21219 14.8159C8.57173 15.1566 8.93533 15.4928 9.29537 15.833C9.43064 15.9606 9.58066 16.0161 9.76475 15.9586C10.1207 15.8477 10.4899 15.7709 10.8327 15.6245C12.4219 14.9415 13.7247 13.8792 14.7993 12.5346C15.3993 11.7855 15.8743 10.9699 16.0706 10.0113C16.1576 9.58562 16.1367 9.22558 15.769 8.91486C15.4639 8.66059 15.2127 8.34174 14.9386 8.05035C14.4835 7.56571 14.4504 6.92496 14.8583 6.40574C15.4349 5.67193 16.0192 4.94421 16.5908 4.20633C16.6666 4.10435 16.7634 4.01981 16.8746 3.95841C16.9859 3.897 17.109 3.86015 17.2357 3.85035C17.8851 3.78577 18.4729 4.00037 19.0313 4.29786C19.7941 4.70469 20.2009 5.3485 20.1623 6.21708C20.1277 7.01497 20.0941 7.81998 19.9589 8.60414C19.49 11.3207 18.3046 13.6966 16.4042 15.6926C13.7451 18.4845 10.4681 19.9008 6.6281 20.0315H6.62861Z" fill="white"/>
</svg>
