<svg width="9" height="9" viewBox="0 0 9 9" fill="none" xmlns="http://www.w3.org/2000/svg">
<path id="Vector" d="M3.71097 3.68911C3.71097 3.58624 3.71097 3.49392 3.71097 3.40213C3.71097 2.53064 3.70834 1.65968 3.71203 0.788189C3.71414 0.326595 3.93991 0.0454175 4.3234 0.00426963C4.68421 -0.0342405 4.99226 0.191017 5.05925 0.54816C5.07771 0.647337 5.08141 0.750734 5.08194 0.852549C5.08352 1.7003 5.08299 2.54805 5.08299 3.3958C5.08299 3.48865 5.08299 3.5815 5.08299 3.71127C5.19429 3.71127 5.28502 3.71127 5.37575 3.71127C6.25455 3.71127 7.13389 3.70863 8.01269 3.71285C8.45368 3.71496 8.72165 3.91912 8.786 4.28365C8.8493 4.64343 8.62353 4.98316 8.26431 5.05649C8.15775 5.07812 8.04645 5.08234 7.93726 5.08234C7.08957 5.08445 6.24189 5.08339 5.39474 5.08339C5.30243 5.08339 5.20959 5.08339 5.08404 5.08339C5.08404 5.1984 5.08404 5.28966 5.08404 5.3804C5.08404 6.26718 5.08879 7.1545 5.08194 8.04129C5.07824 8.54825 4.72218 8.86636 4.27328 8.78354C3.98844 8.73078 3.78061 8.52399 3.73471 8.2349C3.71731 8.12728 3.71308 8.0165 3.71308 7.90677C3.7115 7.05902 3.71256 6.21127 3.7115 5.36351C3.7115 5.27911 3.70464 5.1947 3.69937 5.08286C3.59123 5.08286 3.49945 5.08286 3.40819 5.08286C2.52939 5.08286 1.65006 5.08656 0.771251 5.08128C0.246921 5.07812 -0.0701057 4.73047 0.0132385 4.26571C0.0622954 3.9935 0.266965 3.78249 0.542317 3.73606C0.665223 3.71549 0.79182 3.7118 0.916837 3.71127C1.81147 3.70863 2.7061 3.70863 3.60073 3.70758C3.62341 3.70758 3.64662 3.69966 3.71097 3.68806V3.68911Z" fill="#4C005B"/>
</svg>
