<svg width="32" height="32" viewBox="0 0 32 32" fill="none" xmlns="http://www.w3.org/2000/svg">
<g id="Group 1000010212">
<g id="Group 1000010205">
<path id="Vector" d="M16.4096 28.6178C9.99597 28.6214 4.00405 23.6118 4 16.335C3.99616 9.50899 9.50131 4.00081 16.3267 4C23.1426 3.99899 28.613 9.52293 28.613 16.4063C28.6128 23.11 23.1133 28.6132 16.4096 28.6178ZM24.6836 24.0763C26.5714 21.982 27.5806 19.5635 27.7197 16.7518H27.3869C26.9474 16.7518 26.5078 16.7561 26.0685 16.7482C25.8083 16.7437 25.6298 16.5632 25.6238 16.3237C25.6173 16.0734 25.8033 15.8842 26.0725 15.8719C26.1736 15.8672 26.2747 15.8719 26.3745 15.8706H27.7223C27.5751 13.0535 26.57 10.635 24.6876 8.55282C24.3003 8.94357 23.9312 9.32382 23.5527 9.69476C23.292 9.95028 22.9356 9.90419 22.8003 9.60683C22.7037 9.39417 22.7718 9.21607 22.9281 9.06102L24.062 7.92454C21.9744 6.04596 19.5591 5.03137 16.7476 4.89977C16.7476 5.46134 16.7595 5.98269 16.7399 6.50282C16.7346 6.64169 16.6683 6.82242 16.5662 6.90085C16.4642 6.97928 16.2737 6.99202 16.1405 6.95887C15.9467 6.91055 15.8654 6.73873 15.8664 6.53294C15.8692 5.99502 15.8674 5.4571 15.8674 4.92039C13.5168 4.8561 9.80676 6.40154 8.57728 7.95324C8.93307 8.3068 9.29128 8.66077 9.64645 9.01695C9.91147 9.28298 9.93593 9.52718 9.72448 9.73317C9.51303 9.93916 9.27834 9.90904 9.00867 9.63836C8.65369 9.28177 8.30276 8.92093 7.95102 8.56313C6.28955 10.0645 4.74796 13.7962 4.93151 15.8607C4.97376 15.8638 5.01803 15.8696 5.0625 15.8696C5.55696 15.8696 6.05142 15.8658 6.54568 15.8727C6.8109 15.8763 7.00698 16.0803 6.9997 16.3224C6.99263 16.5586 6.80807 16.7373 6.55113 16.7494C6.41408 16.7559 6.27661 16.7518 6.13915 16.7518H4.89815C5.04107 19.5756 6.05041 21.9897 7.93566 24.0765C8.26415 23.7407 8.57748 23.4199 8.89122 23.0997C8.9553 23.0344 9.01797 22.9671 9.0867 22.9069C9.29269 22.7249 9.55468 22.7249 9.72711 22.9018C9.90399 23.0838 9.90642 23.3368 9.70689 23.5398C9.33029 23.9239 8.94216 24.2964 8.54575 24.6866C10.6356 26.5761 13.0537 27.579 15.8674 27.7271V27.4191C15.8674 26.9612 15.8607 26.5031 15.8715 26.0457C15.8771 25.7968 16.0841 25.6195 16.3237 25.6274C16.5543 25.6351 16.7294 25.8071 16.7456 26.0481C16.7522 26.1492 16.748 26.2502 16.748 26.3503C16.748 26.8051 16.748 27.26 16.748 27.7265C19.5659 27.5806 21.9837 26.5743 24.047 24.7094C24.0368 24.6882 24.0247 24.6679 24.0108 24.6488C23.708 24.3434 23.4043 24.0384 23.0997 23.7337C23.0352 23.6688 22.9677 23.6065 22.9067 23.5384C22.7229 23.3324 22.7191 23.0734 22.8941 22.8982C23.0692 22.7229 23.3373 22.7185 23.5331 22.9109C23.9176 23.2881 24.291 23.6769 24.6836 24.0757V24.0763Z" fill="#121212"/>
<path id="Vector_2" d="M15.8669 12.8519C15.8669 11.744 15.8669 10.636 15.8669 9.52777C15.8669 9.17846 16.0236 8.98722 16.3048 8.98561C16.586 8.98399 16.7465 9.17259 16.7467 9.52211C16.7477 11.5917 16.7503 13.6613 16.7422 15.7311C16.7422 15.9375 16.8009 16.0281 16.9986 16.1017C18.0417 16.4902 19.0794 16.8924 20.1117 17.3081C20.2586 17.3675 20.426 17.5264 20.466 17.672C20.5671 18.0427 20.216 18.2881 19.8178 18.1392C19.0656 17.8574 18.3174 17.565 17.5678 17.2766C17.15 17.1161 16.7327 16.9552 16.3157 16.7938C15.9213 16.642 15.8659 16.5636 15.8657 16.149C15.8664 15.05 15.8668 13.9509 15.8669 12.8519Z" fill="#121212"/>
</g>
</g>
</svg>
