<svg width="50" height="49" viewBox="0 0 50 49" fill="none" xmlns="http://www.w3.org/2000/svg">
<rect x="0.5" width="49" height="49" rx="24.5" fill="#FAC960"/>
<path d="M33.6155 17.5425C35.2354 19.4254 36.1314 21.5827 36.3222 24.0715L35.3034 24.0715L35.2998 24.0715C35.2758 24.0718 35.2441 24.0715 35.2087 24.0712C35.1399 24.0706 35.0572 24.0699 34.9897 24.073L33.6155 17.5425ZM33.6155 17.5425C33.5782 17.5804 33.5409 17.6182 33.5037 17.6559C33.2387 17.9249 32.9765 18.191 32.7107 18.4516L32.7107 18.4516C32.5259 18.6327 32.2852 18.7265 32.0443 18.6974C31.7988 18.6678 31.5891 18.5135 31.4803 18.2742L31.4803 18.2741C31.4062 18.1112 31.3888 17.9426 31.4331 17.7791C31.4755 17.6224 31.5676 17.4956 31.6686 17.3953C31.6687 17.3952 31.6688 17.3951 31.669 17.3949L32.5683 16.4935C30.68 14.8747 28.5251 13.9716 26.0425 13.7931M33.6155 17.5425L26.0425 13.7931M26.0425 13.7931C26.0428 13.8369 26.0431 13.8806 26.0433 13.9242C26.0457 14.3152 26.048 14.6985 26.0337 15.0783L26.0337 15.0783C26.0296 15.1859 26.0031 15.3002 25.9608 15.402C25.9203 15.4999 25.8524 15.6171 25.7442 15.7002C25.6338 15.785 25.5011 15.8186 25.3958 15.8307C25.2861 15.8433 25.1695 15.8368 25.0661 15.8111L25.066 15.811C24.8905 15.7673 24.7562 15.662 24.672 15.5204C24.5921 15.386 24.5656 15.2341 24.5663 15.0954L24.5663 15.0953C24.5683 14.7122 24.568 14.3295 24.5676 13.9462C24.5675 13.896 24.5675 13.8458 24.5674 13.7956C23.5009 13.8265 22.1739 14.1648 20.9446 14.6765C19.722 15.1853 18.6469 15.8443 18.0367 16.4922C18.0681 16.5234 18.0996 16.5546 18.1311 16.5858C18.3875 16.8402 18.6451 17.0958 18.9008 17.3523L18.9009 17.3524C19.0564 17.5085 19.18 17.6953 19.2029 17.9103C19.2276 18.1413 19.1301 18.3395 18.9752 18.4904C18.822 18.6396 18.6239 18.7337 18.393 18.7034C18.1803 18.6754 17.997 18.5483 17.8424 18.3931L17.8423 18.393C17.6001 18.1497 17.3592 17.9038 17.1196 17.6593C17.0793 17.6181 17.0389 17.5769 16.9986 17.5358C16.2914 18.2626 15.6033 19.4128 15.0949 20.6424C14.5856 21.8738 14.2775 23.134 14.2909 24.0704C14.3676 24.0703 14.4445 24.0701 14.5215 24.07C14.8837 24.0692 15.2487 24.0685 15.6127 24.0735L26.0425 13.7931ZM36.3204 25.5467C36.1362 28.0298 35.2373 30.1872 33.6122 32.0808C33.5751 32.0428 33.538 32.0048 33.501 31.9669C33.2309 31.6906 32.9634 31.4169 32.6915 31.1502C32.385 30.8491 31.9301 30.8434 31.6343 31.1395C31.3305 31.4437 31.3642 31.8834 31.6351 32.1871L31.6356 32.1876C31.684 32.2416 31.7411 32.2976 31.7885 32.344C31.8068 32.362 31.8237 32.3785 31.838 32.3929L31.8386 32.3935C32.0821 32.6371 32.325 32.8809 32.5674 33.1249C30.6975 34.737 28.5373 35.6373 26.0419 35.8275V35.8259V35.8232V35.8205V35.8178V35.8151V35.8125V35.8098V35.8071V35.8044V35.8017V35.799V35.7963V35.7937V35.791V35.7883V35.7856V35.7829V35.7802V35.7776V35.7749V35.7722V35.7695V35.7668V35.7641V35.7615V35.7588V35.7561V35.7534V35.7507V35.748V35.7454V35.7427V35.74V35.7373V35.7346V35.732V35.7293V35.7266V35.7239V35.7212V35.7186V35.7159V35.7132V35.7105V35.7078V35.7052V35.7025V35.6998V35.6971V35.6945V35.6918V35.6891V35.6864V35.6837V35.6811V35.6784V35.6757V35.673V35.6704V35.6677V35.665V35.6623V35.6597V35.657V35.6543V35.6516V35.649V35.6463V35.6436V35.6409V35.6383V35.6356V35.6329V35.6302V35.6276V35.6249V35.6222V35.6195V35.6169V35.6142V35.6115V35.6088V35.6062V35.6035V35.6008V35.5982V35.5955V35.5928V35.5901V35.5875V35.5848V35.5821V35.5795V35.5768V35.5741V35.5715V35.5688V35.5661V35.5634V35.5608V35.5581V35.5554V35.5528V35.5501V35.5474V35.5448V35.5421V35.5394V35.5368V35.5341V35.5314V35.5287V35.5261V35.5234V35.5207V35.5181V35.5154V35.5127V35.5101V35.5074V35.5047V35.5021V35.4994V35.4967V35.4941V35.4914V35.4887V35.4861V35.4834V35.4808V35.4781V35.4754V35.4728V35.4701V35.4674V35.4648V35.4621V35.4594V35.4568V35.4541V35.4514V35.4488V35.4461V35.4435V35.4408V35.4381V35.4355V35.4328V35.4301V35.4275V35.4248V35.4221V35.4195V35.4168V35.4142V35.4115V35.4088V35.4062V35.4035V35.4009V35.3982V35.3955V35.3929V35.3902V35.3876V35.3849V35.3822V35.3796V35.3769V35.3742V35.3716V35.3689V35.3663V35.3636V35.3609V35.3583V35.3556V35.353V35.3503V35.3477V35.345V35.3423V35.3397V35.337V35.3344V35.3317V35.329V35.3264V35.3237V35.3211V35.3184V35.3158V35.3131V35.3104V35.3078V35.3051V35.3025V35.2998V35.2972V35.2945V35.2918V35.2892V35.2865V35.2839V35.2812V35.2786V35.2759V35.2732V35.2706V35.2679V35.2653V35.2626V35.26V35.2573V35.2547V35.252V35.2493V35.2467V35.244V35.2414V35.2387V35.2361V35.2334V35.2308V35.2281V35.2254V35.2228V35.2201V35.2175V35.2148V35.2122V35.2095V35.2069V35.2042V35.2016V35.1989V35.1963V35.1936V35.1909V35.1883V35.1856V35.183V35.1803V35.1777V35.175V35.1724V35.1697V35.1671V35.1644V35.1618V35.1591V35.1565V35.1538V35.1512V35.1485V35.1459V35.1432V35.1406V35.1379V35.1352V35.1326V35.1299V35.1273V35.1246V35.122V35.1193V35.1167V35.114V35.1114V35.1087V35.1061V35.1034V35.1008V35.0981V35.0955V35.0928V35.0902V35.0875V35.0849V35.0822V35.0796V35.0769V35.0743V35.0716V35.069V35.0663V35.0637V35.061V35.0584V35.0557V35.0531V35.0504V35.0478V35.0451V35.0425V35.0398V35.0372V35.0345V35.0319V35.0292V35.0266V35.0239V35.0213V35.0186V35.016V35.0133V35.0107V35.008V35.0054V35.0027V35.0001V34.9974V34.9948V34.9921V34.9895V34.9868V34.9842V34.9815V34.9789V34.9762V34.9736V34.971V34.9683V34.9657V34.963V34.9604V34.9577V34.9551V34.9524V34.9498V34.9471V34.9445V34.9418V34.9392V34.9365V34.9339V34.9312V34.9286V34.9259V34.9233V34.9206V34.918V34.9153V34.9127V34.91V34.9074V34.9048V34.9021V34.8995V34.8968V34.8942V34.8915V34.8889V34.8862V34.8836V34.8809V34.8783V34.8756V34.873V34.8703V34.8677V34.865V34.8624V34.8597V34.8571V34.8545V34.8518V34.8492V34.8465V34.8439V34.8412V34.8386V34.8359V34.8333V34.8306V34.828V34.8253V34.8227V34.82V34.8174V34.8147V34.8121V34.8095V34.8068V34.8042V34.8015V34.7989V34.7962V34.7936V34.7909V34.7883V34.7856V34.783V34.7803C26.0419 34.7597 26.0422 34.7365 26.0425 34.7115C26.0434 34.6365 26.0445 34.5455 26.0389 34.4604L26.0388 34.4601C26.0129 34.0742 25.7206 33.7755 25.3305 33.7625L25.3303 33.7625C24.9388 33.7496 24.5812 34.044 24.5714 34.4707L36.3204 25.5467ZM36.3204 25.5467H36.309C36.1975 25.5467 36.0853 25.547 35.9728 25.5473C35.6485 25.5481 35.3206 25.5489 34.9941 25.543M36.3204 25.5467L34.2578 24.8292M34.9941 25.543L34.9994 25.2442L34.9943 25.543C34.9942 25.543 34.9942 25.543 34.9941 25.543ZM34.9941 25.543C34.5811 25.5359 34.2682 25.2335 34.2578 24.8292M34.2578 24.8292C34.2467 24.4003 34.5766 24.092 34.9897 24.073L34.2578 24.8292ZM17.724 31.3418L17.7241 31.3416C17.7349 31.3307 17.7463 31.3189 17.7583 31.3065C17.8091 31.2542 17.8704 31.1909 17.9347 31.1346C18.241 30.8647 18.6845 30.8392 18.9833 31.1457L18.9836 31.146C19.1208 31.2872 19.2026 31.4705 19.1986 31.6702C19.1946 31.8691 19.1064 32.0525 18.9626 32.1989C18.9625 32.199 18.9624 32.1991 18.9623 32.1991L18.7484 31.9888L17.724 31.3418ZM17.724 31.3418C17.521 31.5489 17.3182 31.7563 17.1114 31.9679C17.0745 32.0055 17.0376 32.0433 17.0005 32.0812C15.3779 30.1943 14.4788 28.0403 14.2916 25.5467H15.2048C15.2375 25.5467 15.2722 25.547 15.3082 25.5473C15.4094 25.5481 15.5208 25.549 15.6281 25.544C16.0228 25.5253 16.3471 25.2369 16.3594 24.8293L17.724 31.3418ZM24.5673 35.8278C22.0816 35.6363 19.9247 34.7419 18.0354 33.1163L24.5673 35.8278ZM24.5673 35.8278C24.5673 35.709 24.5668 35.5891 24.5663 35.4686C24.565 35.1386 24.5636 34.8036 24.5714 34.4709L24.5673 35.8278ZM25.406 37.3325H25.406C32.23 37.3278 37.8265 31.7276 37.8267 24.9036C37.8267 17.9038 32.2618 12.28 25.3234 12.2811C18.3785 12.2819 12.7762 17.8872 12.7801 24.8329C12.7842 32.2432 18.8875 37.3362 25.406 37.3325ZM16.3594 24.8292C16.3719 24.4104 16.0327 24.0793 15.6127 24.0735L16.3594 24.8292Z" fill="#121212" stroke="#121212" stroke-width="0.6"/>
<path d="M29.4345 26.1609C29.3947 26.0163 29.2285 25.8585 29.0825 25.7995C28.0572 25.3865 27.0265 24.9871 25.9904 24.6012C25.7941 24.5281 25.7358 24.4382 25.7358 24.2332C25.7428 22.447 25.7418 20.661 25.7407 18.8751C25.7405 18.6054 25.7404 18.3358 25.7402 18.0661C25.74 17.7189 25.5806 17.5316 25.3013 17.5332C25.022 17.5348 24.8664 17.7248 24.8664 18.0717V21.3734C24.8663 22.465 24.8659 23.5566 24.8652 24.6482L29.4345 26.1609ZM29.4345 26.1609C29.5349 26.5291 29.1861 26.7729 28.7906 26.6249C28.2426 26.4196 27.6968 26.2087 27.1511 25.9979C26.9527 25.9212 26.7543 25.8445 26.5558 25.7682L29.4345 26.1609ZM26.0402 18.0659V18.0659C26.0401 17.8517 25.9914 17.6399 25.8562 17.4772C25.7136 17.3055 25.5113 17.232 25.2996 17.2332C25.0871 17.2344 24.8864 17.311 24.7461 17.484C24.6136 17.6476 24.5664 17.8588 24.5664 18.0717V18.0782V18.0846V18.0911V18.0975V18.104V18.1104V18.1169V18.1233V18.1298V18.1362V18.1427V18.1491V18.1556V18.162V18.1685V18.1749V18.1814V18.1878V18.1943V18.2007V18.2072V18.2136V18.2201V18.2265V18.2329V18.2394V18.2458V18.2523V18.2587V18.2652V18.2716V18.2781V18.2845V18.291V18.2974V18.3039V18.3103V18.3168V18.3232V18.3297V18.3361V18.3426V18.349V18.3555V18.3619V18.3684V18.3748V18.3813V18.3877V18.3942V18.4006V18.4071V18.4135V18.42V18.4264V18.4329V18.4393V18.4458V18.4522V18.4587V18.4651V18.4716V18.478V18.4845V18.4909V18.4974V18.5038V18.5103V18.5167V18.5232V18.5296V18.5361V18.5425V18.549V18.5554V18.5619V18.5683V18.5748V18.5812V18.5877V18.5941V18.6006V18.607V18.6135V18.6199V18.6264V18.6328V18.6393V18.6457V18.6521V18.6586V18.665V18.6715V18.6779V18.6844V18.6908V18.6973V18.7037V18.7102V18.7166V18.7231V18.7295V18.736V18.7424V18.7489V18.7553V18.7618V18.7682V18.7747V18.7811V18.7876V18.794V18.8005V18.8069V18.8134V18.8198V18.8263V18.8327V18.8392V18.8456V18.8521V18.8585V18.865V18.8714V18.8779V18.8843V18.8908V18.8972V18.9037V18.9101V18.9166V18.923V18.9295V18.9359V18.9424V18.9488V18.9553V18.9617V18.9682V18.9746V18.9811V18.9875V18.9939V19.0004V19.0068V19.0133V19.0197V19.0262V19.0326V19.0391V19.0455V19.052V19.0584V19.0649V19.0713V19.0778V19.0842V19.0907V19.0971V19.1036V19.11V19.1165V19.1229V19.1294V19.1358V19.1423V19.1487V19.1552V19.1616V19.1681V19.1745V19.181V19.1874V19.1939V19.2003V19.2068V19.2132V19.2197V19.2261V19.2326V19.239V19.2455V19.2519V19.2584V19.2648V19.2713V19.2777V19.2841V19.2906V19.297V19.3035V19.3099V19.3164V19.3228V19.3293V19.3357V19.3422V19.3486V19.3551V19.3615V19.368V19.3744V19.3809V19.3873V19.3938V19.4002V19.4067V19.4131V19.4196V19.426V19.4325V19.4389V19.4454V19.4518V19.4583V19.4647V19.4712V19.4776V19.4841V19.4905V19.497V19.5034V19.5099V19.5163V19.5228V19.5292V19.5357V19.5421V19.5485V19.555V19.5614V19.5679V19.5743V19.5808V19.5872V19.5937V19.6001V19.6066V19.613V19.6195V19.6259V19.6324V19.6388V19.6453V19.6517V19.6582V19.6646V19.6711V19.6775V19.684V19.6904V19.6969V19.7033V19.7098V19.7162V19.7227V19.7291V19.7356V19.742V19.7485V19.7549V19.7614V19.7678V19.7743V19.7807V19.7871V19.7936V19.8V19.8065V19.8129V19.8194V19.8258V19.8323V19.8387V19.8452V19.8516V19.8581V19.8645V19.871V19.8774V19.8839V19.8903V19.8968V19.9032V19.9097V19.9161V19.9226V19.929V19.9355V19.9419V19.9484V19.9548V19.9613V19.9677V19.9742V19.9806V19.9871V19.9935V19.9999V20.0064V20.0128V20.0193V20.0257V20.0322V20.0386V20.0451V20.0515V20.058V20.0644V20.0709V20.0773V20.0838V20.0902V20.0967V20.1031V20.1096V20.116V20.1225V20.1289V20.1354V20.1418V20.1483V20.1547V20.1612V20.1676V20.1741V20.1805V20.187V20.1934V20.1999V20.2063V20.2127V20.2192V20.2256V20.2321V20.2385V20.245V20.2514V20.2579V20.2643V20.2708V20.2772V20.2837V20.2901V20.2966V20.303V20.3095V20.3159V20.3224V20.3288V20.3353V20.3417V20.3482V20.3546V20.3611V20.3675V20.374V20.3804V20.3869V20.3933V20.3997V20.4062V20.4126V20.4191V20.4255V20.432V20.4384V20.4449V20.4513V20.4578V20.4642V20.4707V20.4771V20.4836V20.49V20.4965V20.5029V20.5094V20.5158V20.5223V20.5287V20.5352V20.5416V20.5481V20.5545V20.561V20.5674V20.5739V20.5803V20.5867V20.5932V20.5996V20.6061V20.6125V20.619V20.6254V20.6319V20.6383V20.6448V20.6512V20.6577V20.6641V20.6706V20.677V20.6835V20.6899V20.6964V20.7028V20.7093V20.7157V20.7222V20.7286V20.7351V20.7415V20.748V20.7544V20.7608V20.7673V20.7737V20.7802V20.7866V20.7931V20.7995V20.806V20.8124V20.8189V20.8253V20.8318V20.8382V20.8447V20.8511V20.8576V20.864V20.8705V20.8769V20.8834V20.8898V20.8963V20.9027V20.9092V20.9156V20.9221V20.9285V20.9349V20.9414V20.9478V20.9543V20.9607V20.9672V20.9736V20.9801V20.9865V20.993V20.9994V21.0059V21.0123V21.0188V21.0252V21.0317V21.0381V21.0446V21.051V21.0575V21.0639V21.0704V21.0768V21.0833V21.0897V21.0961V21.1026V21.109V21.1155V21.1219V21.1284V21.1348V21.1413V21.1477V21.1542V21.1606V21.1671V21.1735V21.18V21.1864V21.1929V21.1993V21.2058V21.2122V21.2187V21.2251V21.2316V21.238V21.2444V21.2509V21.2573V21.2638V21.2702V21.2767V21.2831V21.2896V21.296V21.3025V21.3089V21.3154V21.3218V21.3283V21.3347V21.3412V21.3476V21.3541V21.3605V21.367V21.3734C24.5664 21.3734 24.5664 21.3734 24.5664 21.3734C24.5663 22.4649 24.5659 23.5565 24.5652 24.648L24.5652 24.6483C24.5653 24.8445 24.5721 25.0609 24.696 25.2382C24.8185 25.4135 25.0188 25.4972 25.2042 25.5686C25.6185 25.7289 26.0332 25.8887 26.4482 26.0482C26.6458 26.1242 26.8435 26.2006 27.0415 26.2771C27.5877 26.4882 28.1357 26.7 28.6853 26.9058L28.6854 26.9059C28.9585 27.0081 29.2528 26.9875 29.4727 26.8308C29.7041 26.6657 29.8055 26.3813 29.7239 26.082L29.7237 26.0814C29.6851 25.9408 29.5959 25.8216 29.5107 25.7362C29.4231 25.6484 29.3122 25.5688 29.195 25.5214L29.1946 25.5212C28.1668 25.1073 27.1337 24.7069 26.0951 24.3201L26.0951 24.3201C26.066 24.3092 26.0489 24.3007 26.0396 24.2954C26.0379 24.2848 26.0359 24.2655 26.0358 24.2337C26.0428 22.4471 26.0418 20.6606 26.0407 18.8749C26.0405 18.6052 26.0404 18.3356 26.0402 18.0659Z" fill="#121212" stroke="#121212" stroke-width="0.6"/>
</svg>
