<svg width="74" height="74" viewBox="0 0 74 74" fill="none" xmlns="http://www.w3.org/2000/svg">
<rect opacity="0.05" width="74" height="74" rx="37" fill="#4C005B"/>
<path d="M44.7589 58.9378C43.8939 58.765 43.0147 58.6431 42.1686 58.4088C39.92 57.8023 37.8922 56.5642 36.3253 54.8411C36.1712 54.6531 35.975 54.5039 35.7526 54.4057C35.5302 54.3074 35.2878 54.2628 35.045 54.2755C30.3531 54.2979 25.6612 54.2932 20.9634 54.2861C18.5861 54.2861 16.6798 52.8129 16.1343 50.5646C16.047 50.1895 16.0037 49.8054 16.0053 49.4203C15.9982 40.9682 15.9982 32.5161 16.0053 24.0641C16.0053 21.3294 18.0797 19.2456 20.8203 19.2018C20.9599 19.2018 21.0995 19.2018 21.2936 19.2018C21.2179 17.8031 21.5161 16.576 22.6662 15.7063C23.316 15.1994 24.1303 14.9508 24.9524 15.0081C25.4471 15.032 25.9306 15.1634 26.3693 15.3931C26.8081 15.6228 27.1915 15.9453 27.493 16.3382C27.9332 16.8896 28.0149 17.1949 28.2444 19.1604H40.6587C40.6137 17.8161 40.8953 16.602 42.0278 15.7347C42.6293 15.2631 43.3772 15.0173 44.1412 15.0401C44.6432 15.0429 45.138 15.159 45.5888 15.3799C46.0396 15.6008 46.4347 15.9207 46.7445 16.3157C47.4237 17.144 47.5432 18.1191 47.5113 19.132C48.1029 19.1971 48.6768 19.1994 49.2212 19.332C51.4281 19.8668 52.8966 21.8004 52.9037 24.1528C52.9131 27.657 52.9131 31.1608 52.9037 34.6643C52.8941 34.7956 52.9205 34.9271 52.9802 35.0445C53.0398 35.1619 53.1304 35.2608 53.2421 35.3305C56.2892 37.5374 58.1671 40.5028 58.6357 44.2279C59.1942 48.6547 57.7908 52.4567 54.5142 55.5156C52.4552 57.4361 49.9963 58.5212 47.2001 58.849C47.1034 58.8675 47.0084 58.8941 46.9161 58.9283L44.7589 58.9378ZM34.3669 52.3325C31.8216 46.9199 32.1293 41.7831 36.168 37.3043C40.2066 32.8254 45.3091 31.9793 50.937 33.9744V28.982H17.9057V29.389C17.9057 35.9943 17.9057 42.6004 17.9057 49.2073C17.9066 49.5359 17.9463 49.8631 18.0241 50.1824C18.2962 51.3101 19.3612 52.3703 21.0309 52.3585C25.3358 52.3254 29.6419 52.3478 33.9469 52.3466C34.0877 52.3466 34.2273 52.3336 34.3717 52.3265L34.3669 52.3325ZM45.7611 57.022C51.9144 56.951 56.8181 52.1218 56.8252 45.9508C56.8243 43.7622 56.1744 41.623 54.9577 39.8037C53.741 37.9844 52.0122 36.5667 49.9899 35.7299C47.9675 34.8931 45.7425 34.6748 43.5961 35.1025C41.4496 35.5302 39.4782 36.5848 37.9311 38.1329C36.384 39.681 35.3307 41.6531 34.9043 43.7998C34.478 45.9465 34.6978 48.1714 35.5359 50.1932C36.374 52.215 37.7927 53.9429 39.6128 55.1584C41.4329 56.3739 43.5725 57.0224 45.7611 57.022ZM17.9531 27.0034H50.9263C50.9263 25.813 51.0352 24.6368 50.8991 23.4819C50.7145 21.9199 49.0058 20.8123 47.5255 21.1531C47.5157 21.179 47.5093 21.206 47.5065 21.2336C47.5065 21.7629 47.5065 22.2918 47.5065 22.8204C47.5065 23.7174 47.2036 24.0203 46.296 24.0215C44.8374 24.0215 43.3779 24.0215 41.9177 24.0215C40.9628 24.0215 40.6646 23.7245 40.6622 22.7731C40.6622 22.2228 40.6622 21.6714 40.6622 21.1271H28.2077C28.2077 21.7187 28.2077 22.2725 28.2077 22.8287C28.2077 23.7043 27.8989 24.0179 27.0244 24.0203C25.5255 24.025 24.0243 24.025 22.5207 24.0203C21.6001 24.0203 21.3019 23.7126 21.2983 22.7778C21.2983 22.224 21.2983 21.6714 21.2983 21.1211C19.3245 20.9141 18.0122 22.3305 17.9637 23.6972C17.927 24.7788 17.9578 25.8639 17.9578 26.9975L17.9531 27.0034ZM26.299 22.1009C26.299 20.8158 26.331 19.5615 26.2872 18.3143C26.2612 17.5653 25.608 16.9996 24.8672 16.9641C24.0484 16.9251 23.3881 17.4008 23.2354 18.164C23.204 18.3902 23.1945 18.6188 23.207 18.8468C23.207 19.9272 23.207 21.0075 23.207 22.1057L26.299 22.1009ZM45.5872 22.1069C45.5872 20.8371 45.6274 19.6112 45.5742 18.3889C45.5339 17.4422 44.8642 16.9121 43.953 16.9582C43.1507 16.9996 42.6076 17.6197 42.6005 18.5261C42.5922 19.6112 42.6005 20.6963 42.6005 21.7803C42.6061 21.8897 42.618 21.9987 42.636 22.1069H45.5872Z" fill="#4C005B"/>
<path d="M46.0832 45.9213H46.6027C47.7469 45.9213 48.89 45.9095 50.0343 45.9213C50.8461 45.9331 51.2981 46.4597 51.1147 47.1342C50.9963 47.5519 50.6638 47.8324 50.155 47.8371C48.5114 47.8525 46.8666 47.8572 45.2229 47.8371C44.5591 47.8288 44.1745 47.4099 44.1721 46.7366C44.1627 44.6216 44.1627 42.5066 44.1721 40.3916C44.1721 39.8 44.4538 39.445 44.9673 39.3266C45.1707 39.2825 45.3832 39.3111 45.5677 39.4076C45.7522 39.504 45.8969 39.6621 45.9767 39.8544C46.0527 40.0831 46.0876 40.3235 46.0797 40.5644C46.0879 42.1796 46.0797 43.7949 46.0797 45.4101L46.0832 45.9213Z" fill="#4C005B"/>
</svg>
