<svg width="50" height="49" viewBox="0 0 50 49" fill="none" xmlns="http://www.w3.org/2000/svg">
<rect x="0.5" width="49" height="49" rx="24.5" fill="#FAC960"/>
<path d="M25.4058 37.0325C19.0355 37.0361 13.0841 32.0603 13.0801 24.8327C13.0763 18.0528 18.5442 12.5819 25.3235 12.5811C32.0933 12.5801 37.5267 18.0667 37.5267 24.9036C37.5265 31.562 32.0642 37.0279 25.4058 37.0325ZM33.6239 32.5217C35.499 30.4416 36.5013 28.0394 36.6395 25.2467H36.309C35.8725 25.2467 35.4358 25.2509 34.9995 25.2431C34.7411 25.2387 34.5638 25.0594 34.5577 24.8214C34.5513 24.5729 34.736 24.3849 35.0035 24.3727C35.1039 24.3681 35.2043 24.3727 35.3034 24.3715H36.6421C36.4959 21.5734 35.4976 19.1712 33.6279 17.1031C33.2432 17.4912 32.8766 17.8689 32.5007 18.2373C32.2417 18.4911 31.8877 18.4454 31.7534 18.15C31.6574 17.9388 31.7251 17.7619 31.8803 17.6079L33.0065 16.4791C30.933 14.6132 28.534 13.6055 25.7415 13.4747C25.7415 14.0325 25.7534 14.5503 25.7339 15.067C25.7287 15.2049 25.6628 15.3844 25.5614 15.4623C25.46 15.5402 25.2709 15.5529 25.1386 15.5199C24.946 15.4719 24.8653 15.3013 24.8663 15.0969C24.8691 14.5626 24.8673 14.0283 24.8673 13.4952C22.5326 13.4314 18.8476 14.9664 17.6264 16.5076C17.9798 16.8588 18.3356 17.2103 18.6884 17.5641C18.9516 17.8283 18.9759 18.0709 18.7659 18.2755C18.5559 18.4801 18.3227 18.4502 18.0549 18.1813C17.7023 17.8271 17.3538 17.4687 17.0044 17.1134C15.3542 18.6046 13.823 22.311 14.0053 24.3617C14.0473 24.3647 14.0912 24.3705 14.1354 24.3705C14.6265 24.3705 15.1176 24.3667 15.6086 24.3735C15.872 24.3771 16.0667 24.5797 16.0595 24.8202C16.0525 25.0548 15.8692 25.2323 15.614 25.2443C15.4778 25.2507 15.3413 25.2467 15.2048 25.2467H13.9722C14.1141 28.0515 15.1166 30.4492 16.9891 32.5219C17.3154 32.1884 17.6266 31.8698 17.9382 31.5517C18.0019 31.4869 18.0641 31.42 18.1324 31.3602C18.337 31.1795 18.5972 31.1795 18.7685 31.3552C18.9442 31.5359 18.9466 31.7872 18.7484 31.9888C18.3744 32.3703 17.9888 32.7404 17.5951 33.1279C19.6708 35.0046 22.0726 36.0007 24.8673 36.1479V35.8419C24.8673 35.3871 24.8607 34.9321 24.8713 34.4778C24.8769 34.2306 25.0825 34.0545 25.3205 34.0623C25.5496 34.07 25.7234 34.2408 25.7395 34.4802C25.7461 34.5806 25.7419 34.6809 25.7419 34.7803C25.7419 35.2321 25.7419 35.6839 25.7419 36.1473C28.5408 36.0023 30.9422 35.0028 32.9916 33.1506C32.9815 33.1294 32.9695 33.1093 32.9557 33.0903C32.6549 32.787 32.3533 32.484 32.0507 32.1814C31.9867 32.1169 31.9196 32.0551 31.859 31.9874C31.6765 31.7828 31.6727 31.5256 31.8466 31.3515C32.0204 31.1775 32.2867 31.173 32.4812 31.3642C32.8631 31.7389 33.234 32.125 33.6239 32.5211V32.5217Z" fill="#121212"/>
<path d="M24.8664 21.3734C24.8664 20.273 24.8664 19.1724 24.8664 18.0717C24.8664 17.7248 25.022 17.5348 25.3013 17.5332C25.5806 17.5316 25.74 17.7189 25.7402 18.0661C25.7413 20.1217 25.7439 22.1773 25.7358 24.2332C25.7358 24.4382 25.7941 24.5281 25.9904 24.6012C27.0265 24.9871 28.0572 25.3865 29.0825 25.7995C29.2285 25.8585 29.3947 26.0163 29.4345 26.1609C29.5349 26.5291 29.1861 26.7729 28.7906 26.6249C28.0434 26.345 27.3003 26.0547 26.5558 25.7682C26.1409 25.6087 25.7263 25.4489 25.3122 25.2887C24.9204 25.1379 24.8654 25.06 24.8652 24.6482C24.8659 23.5566 24.8663 22.465 24.8664 21.3734Z" fill="#121212"/>
</svg>
