<svg width="36" height="36" viewBox="0 0 36 36" fill="none" xmlns="http://www.w3.org/2000/svg">
<path d="M17.9976 16.5178C21.9332 16.5178 25.8688 16.5178 29.8043 16.5178C30.6749 16.5178 31.2268 16.8927 31.4414 17.6142C31.5011 17.8193 31.5159 18.0349 31.4847 18.2463C31.4536 18.4577 31.3772 18.6598 31.2607 18.839C31.1443 19.0181 30.9906 19.1701 30.8101 19.2844C30.6295 19.3987 30.4265 19.4727 30.2148 19.5014C30.0637 19.5206 29.9116 19.53 29.7594 19.5295C21.9238 19.5295 14.0883 19.5295 6.2527 19.5295C5.33159 19.5295 4.76936 19.1547 4.55665 18.4154C4.50049 18.2121 4.48819 17.9992 4.52057 17.7909C4.55295 17.5825 4.62928 17.3834 4.74448 17.2068C4.85968 17.0302 5.01112 16.8801 5.18876 16.7665C5.3664 16.6529 5.56616 16.5783 5.77481 16.5478C5.96134 16.5253 6.14915 16.5149 6.33703 16.5169L17.9976 16.5178Z" fill="#4C005B"/>
<path d="M13.4992 25.5299C15.9355 25.5299 18.3718 25.5299 20.8081 25.5299C21.6777 25.5299 22.2305 25.9048 22.4442 26.6291C22.5035 26.8344 22.5178 27.05 22.4862 27.2614C22.4546 27.4727 22.3778 27.6747 22.261 27.8537C22.1442 28.0326 21.9902 28.1843 21.8095 28.2983C21.6288 28.4123 21.4256 28.486 21.2139 28.5144C21.0746 28.5324 20.9344 28.5415 20.7941 28.5416C15.9333 28.5416 11.0729 28.5416 6.21273 28.5416C5.32254 28.5416 4.76312 28.1602 4.55322 27.4246C4.49737 27.2216 4.48531 27.009 4.51784 26.8009C4.55038 26.5928 4.62677 26.394 4.74196 26.2177C4.85714 26.0414 5.00849 25.8916 5.18596 25.7782C5.36343 25.6648 5.56298 25.5904 5.77138 25.5599C5.95793 25.5376 6.14574 25.5276 6.33361 25.5299C8.72057 25.5293 11.1091 25.5293 13.4992 25.5299Z" fill="#4C005B"/>
<path d="M9.72898 10.5129C8.52395 10.5129 7.31891 10.5213 6.11387 10.5129C5.10561 10.5026 4.46186 9.8429 4.50497 8.89087C4.52779 8.5618 4.65985 8.24978 4.88019 8.00431C5.10054 7.75884 5.39655 7.59399 5.72125 7.5359C5.90749 7.50982 6.09544 7.49792 6.28348 7.5003C8.59985 7.5003 10.9165 7.5003 13.2335 7.5003C13.409 7.49905 13.5843 7.51001 13.7583 7.53309C14.1059 7.58982 14.4218 7.76883 14.6491 8.03788C14.8764 8.30692 15.0001 8.6483 14.998 9.0005C14.998 9.73421 14.4685 10.3789 13.7601 10.4763C13.516 10.5039 13.2703 10.5154 13.0246 10.511C11.9292 10.5148 10.8291 10.5129 9.72898 10.5129Z" fill="#4C005B"/>
</svg>
