<svg width="25" height="24" viewBox="0 0 25 24" fill="none" xmlns="http://www.w3.org/2000/svg">
<g id="task_alt_FILL0_wght400_GRAD0_opsz48 1">
<path id="Vector" d="M12.5 22C11.0833 22 9.76667 21.7458 8.55 21.2375C7.33333 20.7292 6.275 20.025 5.375 19.125C4.475 18.225 3.77083 17.1667 3.2625 15.95C2.75417 14.7333 2.5 13.4167 2.5 12C2.5 10.6 2.75417 9.29167 3.2625 8.075C3.77083 6.85833 4.475 5.8 5.375 4.9C6.275 4 7.33333 3.29167 8.55 2.775C9.76667 2.25833 11.0833 2 12.5 2C13.5 2 14.475 2.14583 15.425 2.4375C16.375 2.72917 17.2667 3.15833 18.1 3.725C18.2833 3.84167 18.3958 4 18.4375 4.2C18.4792 4.4 18.4333 4.58333 18.3 4.75C18.1667 4.91667 18 5.00833 17.8 5.025C17.6 5.04167 17.4083 4.99167 17.225 4.875C16.525 4.425 15.775 4.08333 14.975 3.85C14.175 3.61667 13.35 3.5 12.5 3.5C10.0833 3.5 8.0625 4.3125 6.4375 5.9375C4.8125 7.5625 4 9.58333 4 12C4 14.4167 4.8125 16.4375 6.4375 18.0625C8.0625 19.6875 10.0833 20.5 12.5 20.5C14.9167 20.5 16.9375 19.6875 18.5625 18.0625C20.1875 16.4375 21 14.4167 21 12C21 11.6833 20.9875 11.375 20.9625 11.075C20.9375 10.775 20.8917 10.4833 20.825 10.2C20.7917 9.98333 20.825 9.78333 20.925 9.6C21.025 9.41667 21.175 9.30833 21.375 9.275C21.5917 9.225 21.7917 9.2625 21.975 9.3875C22.1583 9.5125 22.2667 9.68333 22.3 9.9C22.3667 10.2333 22.4167 10.575 22.45 10.925C22.4833 11.275 22.5 11.6333 22.5 12C22.5 13.4167 22.2417 14.7333 21.725 15.95C21.2083 17.1667 20.5 18.225 19.6 19.125C18.7 20.025 17.6417 20.7292 16.425 21.2375C15.2083 21.7458 13.9 22 12.5 22ZM11.025 14.275L20.825 4.475C20.975 4.325 21.1583 4.25 21.375 4.25C21.5917 4.25 21.7833 4.325 21.95 4.475C22.1167 4.64167 22.2 4.83333 22.2 5.05C22.2 5.26667 22.1167 5.45833 21.95 5.625L11.55 16.025C11.4 16.175 11.225 16.25 11.025 16.25C10.825 16.25 10.65 16.175 10.5 16.025L7.45 12.95C7.3 12.8 7.22917 12.6125 7.2375 12.3875C7.24583 12.1625 7.325 11.975 7.475 11.825C7.625 11.675 7.8125 11.6 8.0375 11.6C8.2625 11.6 8.45 11.675 8.6 11.825L11.025 14.275Z" fill="#0AB97A"/>
</g>
</svg>
