<svg width="58" height="58" viewBox="0 0 58 58" fill="none" xmlns="http://www.w3.org/2000/svg">
<g id="Group 1000010969">
<rect id="Rectangle 813194" opacity="0.05" width="58" height="58" rx="29" fill="#EEAD1F"/>
<g id="Group 1000010967">
<g id="Group 1000010970">
<path id="Vector" d="M43.01 28.0046V29.9704C42.9509 30.408 42.9057 30.8515 42.8306 31.2884C42.4542 33.4613 41.6402 35.4563 40.3207 37.228C38.0938 40.2186 35.1419 42.0698 31.47 42.7489C30.9799 42.8393 30.4832 42.8948 29.9901 42.9677H28.0207C27.583 42.9086 27.1366 42.8641 26.699 42.7875C23.5355 42.2339 20.8484 40.7911 18.6755 38.4279C16.791 36.4055 15.5654 33.8582 15.1612 31.1236C15.105 30.7589 15.0532 30.3942 15 30.0295V27.9499C15.0182 27.8813 15.0416 27.8135 15.0532 27.7442C15.1583 27.0877 15.2181 26.4269 15.372 25.7858C16.213 22.2788 18.1292 19.4844 21.1037 17.4479C24.2015 15.326 27.6414 14.6105 31.3417 15.1969C33.4799 15.5316 35.5042 16.3829 37.2389 17.6769C40.2448 19.9016 42.1092 22.8477 42.7919 26.5261C42.8831 27.017 42.9371 27.5123 43.01 28.0046ZM32.2418 30.7946C33.7073 31.187 35.0907 31.8386 36.3264 32.7188C37.5571 33.6002 38.6226 34.6918 39.4738 35.9435C42.6832 31.3059 42.4644 24.1358 37.4206 19.6456C32.2009 15.0015 24.5319 15.3618 19.7557 20.4647C15.2743 25.2533 15.7192 32.02 18.5413 35.9282C20.3288 33.3534 22.741 31.6393 25.7777 30.7859C22.8601 28.6312 22.7201 24.75 24.8696 22.402C26.9849 20.0949 30.605 19.9833 32.9011 22.1613C35.2134 24.3532 35.3439 28.5349 32.2418 30.7946ZM19.4275 37.131C24.4305 43.0603 33.6714 42.9903 38.581 37.131C36.3264 33.7392 33.1914 31.8326 29.0834 31.8063C24.9207 31.7815 21.731 33.6794 19.4275 37.131ZM29.0003 30.3723C30.1092 30.3765 31.1746 29.9407 31.9627 29.1605C32.7507 28.3802 33.1971 27.3192 33.2038 26.2103C33.2235 23.9134 31.3198 22.0016 29.0105 21.9987C26.7012 21.9958 24.8003 23.8951 24.8069 26.2001C24.8113 27.3088 25.2553 28.3706 26.0413 29.1526C26.8274 29.9345 27.8915 30.3729 29.0003 30.3715V30.3723Z" fill="#EEAD1F"/>
</g>
</g>
</g>
</svg>
