<svg width="14" height="15" viewBox="0 0 14 15" fill="none" xmlns="http://www.w3.org/2000/svg">
<path d="M6.525 8.7069L1.275 14.7414C1.125 14.9138 0.95 15 0.75 15C0.55 15 0.375 14.9138 0.225 14.7414C0.0749999 14.569 0 14.3678 0 14.1379C0 13.908 0.0749999 13.7069 0.225 13.5345L5.475 7.5L0.225 1.46552C0.0749999 1.2931 0 1.09195 0 0.862069C0 0.632184 0.0749999 0.431034 0.225 0.258621C0.375 0.0862068 0.55 0 0.75 0C0.95 0 1.125 0.0862068 1.275 0.258621L6.525 6.2931L11.775 0.258621C11.925 0.0862068 12.1 0 12.3 0C12.5 0 12.675 0.0862068 12.825 0.258621C12.975 0.431034 13.05 0.632184 13.05 0.862069C13.05 1.09195 12.975 1.2931 12.825 1.46552L7.575 7.5L12.825 13.5345C12.975 13.7069 13.05 13.908 13.05 14.1379C13.05 14.3678 12.975 14.569 12.825 14.7414C12.675 14.9138 12.5 15 12.3 15C12.1 15 11.925 14.9138 11.775 14.7414L6.525 8.7069Z" fill="#4C005B"/>
<path d="M6.525 8.7069L1.275 14.7414C1.125 14.9138 0.95 15 0.75 15C0.55 15 0.375 14.9138 0.225 14.7414C0.0749999 14.569 0 14.3678 0 14.1379C0 13.908 0.0749999 13.7069 0.225 13.5345L5.475 7.5L0.225 1.46552C0.0749999 1.2931 0 1.09195 0 0.862069C0 0.632184 0.0749999 0.431034 0.225 0.258621C0.375 0.0862068 0.55 0 0.75 0C0.95 0 1.125 0.0862068 1.275 0.258621L6.525 6.2931L11.775 0.258621C11.925 0.0862068 12.1 0 12.3 0C12.5 0 12.675 0.0862068 12.825 0.258621C12.975 0.431034 13.05 0.632184 13.05 0.862069C13.05 1.09195 12.975 1.2931 12.825 1.46552L7.575 7.5L12.825 13.5345C12.975 13.7069 13.05 13.908 13.05 14.1379C13.05 14.3678 12.975 14.569 12.825 14.7414C12.675 14.9138 12.5 15 12.3 15C12.1 15 11.925 14.9138 11.775 14.7414L6.525 8.7069Z" stroke="#4C005B"/>
</svg>
