<svg width="24" height="24" viewBox="0 0 24 24" fill="none" xmlns="http://www.w3.org/2000/svg">
<g id="Group 1000005618">
<g id="Group">
<path id="Vector" d="M22.006 17.3336C21.9721 17.4635 21.9392 17.5934 21.9035 17.7227C21.5325 19.0765 20.3289 19.9984 18.923 19.999C13.9726 20.0001 9.02267 20.0006 4.07223 19.999C2.36764 19.9984 1.00233 18.6293 1.00123 16.9225C0.999589 13.6405 0.999589 10.3584 1.00123 7.07642C1.00178 5.36964 2.36764 4.00104 4.07223 4.00104C9.02267 3.99939 13.9726 3.99994 18.923 4.00104C20.4462 4.00104 21.7046 5.06928 21.9666 6.5771C21.9721 6.60835 21.9923 6.63685 22.006 6.66645V17.3336ZM11.516 5.22988C9.06871 5.22988 6.62144 5.22878 4.17418 5.23042C3.02536 5.23152 2.23117 6.02736 2.23062 7.17837C2.22898 10.3979 2.22898 13.6174 2.23062 16.837C2.23117 17.9715 3.03194 18.769 4.1687 18.7696C9.0561 18.7712 13.9435 18.7712 18.8315 18.7696C19.9797 18.7696 20.7745 17.9726 20.775 16.8216C20.7767 13.6087 20.7767 10.3963 20.7728 7.1833C20.7728 7.00079 20.7547 6.81279 20.7114 6.6363C20.5004 5.78126 19.7742 5.23152 18.8567 5.23097C16.4094 5.22823 13.9621 5.22988 11.5149 5.22988H11.516Z" fill="#E2E2E2"/>
<path id="Vector_2" d="M9.04181 11.9775C9.04181 10.9799 9.04455 9.98237 9.03962 8.98483C9.03853 8.72284 9.12403 8.51676 9.35533 8.38631C9.58717 8.25531 9.81189 8.28929 10.0317 8.42687C11.6398 9.43263 13.2501 10.4351 14.8566 11.4442C15.3214 11.7357 15.3197 12.2652 14.8539 12.5579C13.2474 13.5664 11.6371 14.5689 10.0289 15.5746C9.80915 15.7122 9.58334 15.7445 9.35259 15.6124C9.12238 15.4809 9.03798 15.2737 9.03907 15.0123C9.04401 14.001 9.04127 12.9898 9.04127 11.9786L9.04181 11.9775ZM13.4129 11.9994C12.354 11.3378 11.329 10.6971 10.286 10.0454V13.9539C11.3334 13.2995 12.3556 12.6604 13.4129 11.9994Z" fill="#E2E2E2"/>
</g>
</g>
</svg>
